<?xml version="1.0" encoding="utf-8" standalone="no"?>
<!DOCTYPE svg PUBLIC "-//W3C//DTD SVG 1.1//EN"
  "http://www.w3.org/Graphics/SVG/1.1/DTD/svg11.dtd">
<svg xmlns:xlink="http://www.w3.org/1999/xlink" width="464.88189pt" height="226.771654pt" viewBox="0 0 464.88189 226.771654" xmlns="http://www.w3.org/2000/svg" version="1.1">
 <metadata>
  <rdf:RDF xmlns:dc="http://purl.org/dc/elements/1.1/" xmlns:cc="http://creativecommons.org/ns#" xmlns:rdf="http://www.w3.org/1999/02/22-rdf-syntax-ns#">
   <cc:Work>
    <dc:type rdf:resource="http://purl.org/dc/dcmitype/StillImage"/>
    <dc:date>2024-09-20T10:17:04.755867</dc:date>
    <dc:format>image/svg+xml</dc:format>
    <dc:creator>
     <cc:Agent>
      <dc:title>Matplotlib v3.8.2, https://matplotlib.org/</dc:title>
     </cc:Agent>
    </dc:creator>
   </cc:Work>
  </rdf:RDF>
 </metadata>
 <defs>
  <style type="text/css">*{stroke-linejoin: round; stroke-linecap: butt}</style>
 </defs>
 <g id="figure_1">
  <g id="patch_1">
   <path d="M 0 226.771654 
L 464.88189 226.771654 
L 464.88189 0 
L 0 0 
z
" style="fill: #ffffff"/>
  </g>
  <g id="axes_1">
   <g id="patch_2">
    <path d="M 58.110236 222.23622 
L 453.259843 222.23622 
L 453.259843 6.80315 
L 58.110236 6.80315 
z
" style="fill: #ffffff"/>
   </g>
   <g id="matplotlib.axis_1">
    <g id="xtick_1">
     <g id="line2d_1">
      <defs>
       <path id="md5a92402c6" d="M 0 0 
L 0 3.5 
" style="stroke: #000000; stroke-width: 0.8"/>
      </defs>
      <g>
       <use xlink:href="#md5a92402c6" x="58.110236" y="222.23622" style="stroke: #000000; stroke-width: 0.8"/>
      </g>
     </g>
    </g>
    <g id="xtick_2">
     <g id="line2d_2">
      <g>
       <use xlink:href="#md5a92402c6" x="74.574803" y="222.23622" style="stroke: #000000; stroke-width: 0.8"/>
      </g>
     </g>
    </g>
    <g id="xtick_3">
     <g id="line2d_3">
      <g>
       <use xlink:href="#md5a92402c6" x="91.03937" y="222.23622" style="stroke: #000000; stroke-width: 0.8"/>
      </g>
     </g>
    </g>
    <g id="xtick_4">
     <g id="line2d_4">
      <g>
       <use xlink:href="#md5a92402c6" x="107.503937" y="222.23622" style="stroke: #000000; stroke-width: 0.8"/>
      </g>
     </g>
    </g>
    <g id="xtick_5">
     <g id="line2d_5">
      <g>
       <use xlink:href="#md5a92402c6" x="123.968504" y="222.23622" style="stroke: #000000; stroke-width: 0.8"/>
      </g>
     </g>
    </g>
    <g id="xtick_6">
     <g id="line2d_6">
      <g>
       <use xlink:href="#md5a92402c6" x="140.433071" y="222.23622" style="stroke: #000000; stroke-width: 0.8"/>
      </g>
     </g>
    </g>
    <g id="xtick_7">
     <g id="line2d_7">
      <g>
       <use xlink:href="#md5a92402c6" x="156.897638" y="222.23622" style="stroke: #000000; stroke-width: 0.8"/>
      </g>
     </g>
    </g>
    <g id="xtick_8">
     <g id="line2d_8">
      <g>
       <use xlink:href="#md5a92402c6" x="173.362205" y="222.23622" style="stroke: #000000; stroke-width: 0.8"/>
      </g>
     </g>
    </g>
    <g id="xtick_9">
     <g id="line2d_9">
      <g>
       <use xlink:href="#md5a92402c6" x="189.826772" y="222.23622" style="stroke: #000000; stroke-width: 0.8"/>
      </g>
     </g>
    </g>
    <g id="xtick_10">
     <g id="line2d_10">
      <g>
       <use xlink:href="#md5a92402c6" x="206.291339" y="222.23622" style="stroke: #000000; stroke-width: 0.8"/>
      </g>
     </g>
    </g>
    <g id="xtick_11">
     <g id="line2d_11">
      <g>
       <use xlink:href="#md5a92402c6" x="222.755906" y="222.23622" style="stroke: #000000; stroke-width: 0.8"/>
      </g>
     </g>
    </g>
    <g id="xtick_12">
     <g id="line2d_12">
      <g>
       <use xlink:href="#md5a92402c6" x="239.220472" y="222.23622" style="stroke: #000000; stroke-width: 0.8"/>
      </g>
     </g>
    </g>
    <g id="xtick_13">
     <g id="line2d_13">
      <g>
       <use xlink:href="#md5a92402c6" x="255.685039" y="222.23622" style="stroke: #000000; stroke-width: 0.8"/>
      </g>
     </g>
    </g>
    <g id="xtick_14">
     <g id="line2d_14">
      <g>
       <use xlink:href="#md5a92402c6" x="272.149606" y="222.23622" style="stroke: #000000; stroke-width: 0.8"/>
      </g>
     </g>
    </g>
    <g id="xtick_15">
     <g id="line2d_15">
      <g>
       <use xlink:href="#md5a92402c6" x="288.614173" y="222.23622" style="stroke: #000000; stroke-width: 0.8"/>
      </g>
     </g>
    </g>
    <g id="xtick_16">
     <g id="line2d_16">
      <g>
       <use xlink:href="#md5a92402c6" x="305.07874" y="222.23622" style="stroke: #000000; stroke-width: 0.8"/>
      </g>
     </g>
    </g>
    <g id="xtick_17">
     <g id="line2d_17">
      <g>
       <use xlink:href="#md5a92402c6" x="321.543307" y="222.23622" style="stroke: #000000; stroke-width: 0.8"/>
      </g>
     </g>
    </g>
    <g id="xtick_18">
     <g id="line2d_18">
      <g>
       <use xlink:href="#md5a92402c6" x="338.007874" y="222.23622" style="stroke: #000000; stroke-width: 0.8"/>
      </g>
     </g>
    </g>
    <g id="xtick_19">
     <g id="line2d_19">
      <g>
       <use xlink:href="#md5a92402c6" x="354.472441" y="222.23622" style="stroke: #000000; stroke-width: 0.8"/>
      </g>
     </g>
    </g>
    <g id="xtick_20">
     <g id="line2d_20">
      <g>
       <use xlink:href="#md5a92402c6" x="370.937008" y="222.23622" style="stroke: #000000; stroke-width: 0.8"/>
      </g>
     </g>
    </g>
    <g id="xtick_21">
     <g id="line2d_21">
      <g>
       <use xlink:href="#md5a92402c6" x="387.401575" y="222.23622" style="stroke: #000000; stroke-width: 0.8"/>
      </g>
     </g>
    </g>
    <g id="xtick_22">
     <g id="line2d_22">
      <g>
       <use xlink:href="#md5a92402c6" x="403.866142" y="222.23622" style="stroke: #000000; stroke-width: 0.8"/>
      </g>
     </g>
    </g>
    <g id="xtick_23">
     <g id="line2d_23">
      <g>
       <use xlink:href="#md5a92402c6" x="420.330709" y="222.23622" style="stroke: #000000; stroke-width: 0.8"/>
      </g>
     </g>
    </g>
    <g id="xtick_24">
     <g id="line2d_24">
      <g>
       <use xlink:href="#md5a92402c6" x="436.795276" y="222.23622" style="stroke: #000000; stroke-width: 0.8"/>
      </g>
     </g>
    </g>
    <g id="xtick_25">
     <g id="line2d_25">
      <g>
       <use xlink:href="#md5a92402c6" x="453.259843" y="222.23622" style="stroke: #000000; stroke-width: 0.8"/>
      </g>
     </g>
    </g>
   </g>
   <g id="matplotlib.axis_2">
    <g id="ytick_1">
     <g id="line2d_26">
      <defs>
       <path id="m83df03afcc" d="M 0 0 
L -3.5 0 
" style="stroke: #000000; stroke-width: 0.8"/>
      </defs>
      <g>
       <use xlink:href="#m83df03afcc" x="58.110236" y="209.563687" style="stroke: #000000; stroke-width: 0.8"/>
      </g>
     </g>
     <g id="text_1">
      <!-- 0 -->
      <g transform="translate(45.611799 212.686968) scale(0.09 -0.09)">
       <defs>
        <path id="LMRoman6-Regular-30" d="M 3520 2042 
C 3520 2509 3520 4256 1952 4256 
C 384 4256 384 2509 384 2042 
C 384 1581 384 -134 1952 -134 
C 3520 -134 3520 1581 3520 2042 
z
M 2912 2125 
C 2912 1715 2912 1069 2803 710 
C 2624 154 2163 70 1952 70 
C 1683 70 1248 198 1094 730 
C 992 1101 992 1728 992 2125 
C 992 2554 992 3046 1082 3392 
C 1242 3968 1728 4051 1952 4051 
C 2246 4051 2669 3910 2810 3424 
C 2906 3085 2912 2618 2912 2125 
z
" transform="scale(0.015625)"/>
       </defs>
       <use xlink:href="#LMRoman6-Regular-30"/>
      </g>
     </g>
    </g>
    <g id="ytick_2">
     <g id="line2d_27">
      <g>
       <use xlink:href="#m83df03afcc" x="58.110236" y="184.21862" style="stroke: #000000; stroke-width: 0.8"/>
      </g>
     </g>
     <g id="text_2">
      <!-- 10 -->
      <g transform="translate(40.113361 187.341901) scale(0.09 -0.09)">
       <defs>
        <path id="LMRoman6-Regular-31" d="M 3232 0 
L 3232 250 
L 2957 250 
C 2298 250 2298 333 2298 544 
L 2298 4064 
C 2298 4256 2272 4256 2080 4256 
C 1658 3846 1005 3846 774 3846 
L 774 3597 
C 941 3597 1363 3597 1747 3776 
L 1747 544 
C 1747 333 1747 250 1088 250 
L 813 250 
L 813 0 
C 1165 26 1664 26 2022 26 
C 2381 26 2880 26 3232 0 
z
" transform="scale(0.015625)"/>
       </defs>
       <use xlink:href="#LMRoman6-Regular-31"/>
       <use xlink:href="#LMRoman6-Regular-30" x="61.099991"/>
      </g>
     </g>
    </g>
    <g id="ytick_3">
     <g id="line2d_28">
      <g>
       <use xlink:href="#m83df03afcc" x="58.110236" y="158.873553" style="stroke: #000000; stroke-width: 0.8"/>
      </g>
     </g>
     <g id="text_3">
      <!-- 20 -->
      <g transform="translate(40.113361 161.996834) scale(0.09 -0.09)">
       <defs>
        <path id="LMRoman6-Regular-32" d="M 3443 1197 
L 3206 1197 
C 3194 1107 3130 685 3034 614 
C 2989 576 2470 576 2381 576 
L 1184 576 
L 2003 1242 
C 2221 1414 2790 1824 2989 2016 
C 3181 2208 3443 2534 3443 2989 
C 3443 3789 2720 4256 1862 4256 
C 1037 4256 461 3712 461 3110 
C 461 2784 736 2746 806 2746 
C 966 2746 1152 2861 1152 3091 
C 1152 3232 1069 3437 787 3437 
C 934 3763 1325 4006 1766 4006 
C 2438 4006 2797 3507 2797 2989 
C 2797 2534 2496 2067 2048 1658 
L 531 269 
C 467 205 461 198 461 0 
L 3245 0 
L 3443 1197 
z
" transform="scale(0.015625)"/>
       </defs>
       <use xlink:href="#LMRoman6-Regular-32"/>
       <use xlink:href="#LMRoman6-Regular-30" x="61.099991"/>
      </g>
     </g>
    </g>
    <g id="ytick_4">
     <g id="line2d_29">
      <g>
       <use xlink:href="#m83df03afcc" x="58.110236" y="133.528485" style="stroke: #000000; stroke-width: 0.8"/>
      </g>
     </g>
     <g id="text_4">
      <!-- 30 -->
      <g transform="translate(40.113361 136.651767) scale(0.09 -0.09)">
       <defs>
        <path id="LMRoman6-Regular-33" d="M 3501 1107 
C 3501 1574 3142 2067 2381 2259 
C 2886 2426 3296 2835 3296 3360 
C 3296 3872 2694 4256 1926 4256 
C 1178 4256 608 3910 608 3386 
C 608 3110 819 3034 947 3034 
C 1114 3034 1286 3149 1286 3373 
C 1286 3571 1146 3686 973 3712 
C 1274 4045 1856 4045 1914 4045 
C 2240 4045 2650 3891 2650 3360 
C 2650 3008 2451 2394 1811 2355 
C 1696 2349 1523 2336 1466 2336 
C 1402 2330 1331 2323 1331 2227 
C 1331 2125 1402 2125 1510 2125 
L 1882 2125 
C 2426 2125 2790 1760 2790 1107 
C 2790 403 2368 96 1901 96 
C 1728 96 1069 134 781 506 
C 1030 531 1133 698 1133 870 
C 1133 1088 979 1235 768 1235 
C 595 1235 403 1126 403 858 
C 403 224 1107 -134 1920 -134 
C 2867 -134 3501 474 3501 1107 
z
" transform="scale(0.015625)"/>
       </defs>
       <use xlink:href="#LMRoman6-Regular-33"/>
       <use xlink:href="#LMRoman6-Regular-30" x="61.099991"/>
      </g>
     </g>
    </g>
    <g id="ytick_5">
     <g id="line2d_30">
      <g>
       <use xlink:href="#m83df03afcc" x="58.110236" y="108.183418" style="stroke: #000000; stroke-width: 0.8"/>
      </g>
     </g>
     <g id="text_5">
      <!-- 40 -->
      <g transform="translate(40.113361 111.306699) scale(0.09 -0.09)">
       <defs>
        <path id="LMRoman6-Regular-34" d="M 3610 1050 
L 3610 1299 
L 2861 1299 
L 2861 4128 
C 2861 4275 2861 4320 2701 4320 
C 2586 4320 2573 4301 2515 4224 
L 294 1299 
L 294 1050 
L 2285 1050 
L 2285 538 
C 2285 326 2285 250 1747 250 
L 1562 250 
L 1562 0 
L 2573 26 
L 3584 0 
L 3584 250 
L 3398 250 
C 2861 250 2861 326 2861 538 
L 2861 1050 
L 3610 1050 
z
M 2330 1299 
L 570 1299 
L 2330 3622 
L 2330 1299 
z
" transform="scale(0.015625)"/>
       </defs>
       <use xlink:href="#LMRoman6-Regular-34"/>
       <use xlink:href="#LMRoman6-Regular-30" x="61.099991"/>
      </g>
     </g>
    </g>
    <g id="ytick_6">
     <g id="line2d_31">
      <g>
       <use xlink:href="#m83df03afcc" x="58.110236" y="82.838351" style="stroke: #000000; stroke-width: 0.8"/>
      </g>
     </g>
     <g id="text_6">
      <!-- 50 -->
      <g transform="translate(40.113361 85.961632) scale(0.09 -0.09)">
       <defs>
        <path id="LMRoman6-Regular-35" d="M 3443 1286 
C 3443 2016 2854 2682 2029 2682 
C 1613 2682 1293 2547 1088 2374 
L 1088 3552 
C 1299 3494 1523 3469 1741 3469 
C 1882 3469 2240 3469 2643 3693 
C 2752 3757 3149 4019 3149 4154 
C 3149 4237 3085 4256 3059 4256 
C 3040 4256 3034 4256 2963 4230 
C 2733 4141 2406 4051 1990 4051 
C 1677 4051 1331 4109 1043 4218 
C 979 4243 954 4256 928 4256 
C 838 4256 838 4186 838 4083 
L 838 2163 
C 838 2054 838 1978 954 1978 
C 1011 1978 1030 2003 1075 2054 
C 1235 2259 1517 2477 2016 2477 
C 2803 2477 2803 1517 2803 1312 
C 2803 1062 2784 704 2573 442 
C 2374 198 2080 96 1805 96 
C 1363 96 922 339 768 710 
C 1082 717 1120 966 1120 1043 
C 1120 1216 986 1370 787 1370 
C 730 1370 461 1338 461 1018 
C 461 429 1018 -134 1824 -134 
C 2701 -134 3443 486 3443 1286 
z
" transform="scale(0.015625)"/>
       </defs>
       <use xlink:href="#LMRoman6-Regular-35"/>
       <use xlink:href="#LMRoman6-Regular-30" x="61.099991"/>
      </g>
     </g>
    </g>
    <g id="ytick_7">
     <g id="line2d_32">
      <g>
       <use xlink:href="#m83df03afcc" x="58.110236" y="57.493284" style="stroke: #000000; stroke-width: 0.8"/>
      </g>
     </g>
     <g id="text_7">
      <!-- 60 -->
      <g transform="translate(40.113361 60.616565) scale(0.09 -0.09)">
       <defs>
        <path id="LMRoman6-Regular-36" d="M 3501 1306 
C 3501 1523 3475 1933 3085 2298 
C 2861 2502 2579 2726 2035 2726 
C 1587 2726 1261 2496 1043 2118 
C 1050 2438 1062 2970 1286 3366 
C 1568 3853 1990 4045 2374 4045 
C 2522 4045 2816 4019 2970 3840 
C 2733 3802 2694 3635 2694 3533 
C 2694 3366 2810 3226 3002 3226 
C 3194 3226 3315 3347 3315 3546 
C 3315 3936 3021 4256 2368 4256 
C 1376 4256 403 3392 403 2029 
C 403 474 1126 -134 1971 -134 
C 2221 -134 2656 -96 3046 282 
C 3251 486 3501 742 3501 1306 
z
M 2861 1306 
C 2861 864 2848 646 2630 390 
C 2477 198 2272 96 1965 96 
C 1062 96 1062 1197 1062 1446 
C 1062 1997 1427 2522 2003 2522 
C 2336 2522 2528 2387 2682 2182 
C 2861 1933 2861 1645 2861 1306 
z
" transform="scale(0.015625)"/>
       </defs>
       <use xlink:href="#LMRoman6-Regular-36"/>
       <use xlink:href="#LMRoman6-Regular-30" x="61.099991"/>
      </g>
     </g>
    </g>
    <g id="ytick_8">
     <g id="line2d_33">
      <g>
       <use xlink:href="#m83df03afcc" x="58.110236" y="32.148217" style="stroke: #000000; stroke-width: 0.8"/>
      </g>
     </g>
     <g id="text_8">
      <!-- 70 -->
      <g transform="translate(40.113361 35.271498) scale(0.09 -0.09)">
       <defs>
        <path id="LMRoman6-Regular-37" d="M 3712 4122 
L 2061 4122 
C 1798 4122 1645 4128 1395 4147 
C 1082 4166 1005 4173 973 4326 
L 736 4326 
L 506 2925 
L 742 2925 
C 762 3059 826 3437 922 3507 
C 973 3546 1523 3546 1619 3546 
L 3066 3546 
L 2496 2861 
C 1875 2112 1440 1203 1440 230 
C 1440 173 1440 -134 1747 -134 
C 2061 -134 2061 160 2061 243 
L 2061 422 
C 2061 1651 2323 2278 2643 2662 
L 3654 3866 
C 3712 3930 3712 3942 3712 4122 
z
" transform="scale(0.015625)"/>
       </defs>
       <use xlink:href="#LMRoman6-Regular-37"/>
       <use xlink:href="#LMRoman6-Regular-30" x="61.099991"/>
      </g>
     </g>
    </g>
    <g id="ytick_9">
     <g id="line2d_34">
      <g>
       <use xlink:href="#m83df03afcc" x="58.110236" y="6.80315" style="stroke: #000000; stroke-width: 0.8"/>
      </g>
     </g>
     <g id="text_9">
      <!-- 80 -->
      <g transform="translate(40.113361 9.926431) scale(0.09 -0.09)">
       <defs>
        <path id="LMRoman6-Regular-38" d="M 3501 1088 
C 3501 1530 3232 1792 3136 1888 
C 3014 2003 2694 2182 2464 2310 
C 2938 2522 3296 2835 3296 3296 
C 3296 3923 2624 4256 1958 4256 
C 1235 4256 608 3821 608 3174 
C 608 2778 870 2470 1139 2310 
L 1421 2150 
C 998 1990 403 1632 403 986 
C 403 237 1203 -134 1946 -134 
C 2797 -134 3501 378 3501 1088 
z
M 2938 3290 
C 2938 2797 2406 2534 2227 2445 
L 1306 2944 
C 1293 2950 966 3130 966 3424 
C 966 3840 1472 4045 1946 4045 
C 2445 4045 2938 3770 2938 3290 
z
M 3091 864 
C 3091 358 2502 96 1958 96 
C 1363 96 813 442 813 986 
C 813 1530 1325 1888 1677 2016 
L 2605 1504 
C 2739 1421 3091 1229 3091 864 
z
" transform="scale(0.015625)"/>
       </defs>
       <use xlink:href="#LMRoman6-Regular-38"/>
       <use xlink:href="#LMRoman6-Regular-30" x="61.099991"/>
      </g>
     </g>
    </g>
    <g id="text_10">
     <!-- Temperatur in °C -->
     <g transform="translate(34.366799 157.528435) rotate(-90) scale(0.09 -0.09)">
      <defs>
       <path id="LMRoman6-Regular-54" d="M 5203 2835 
L 5062 4326 
L 499 4326 
L 358 2835 
L 595 2835 
C 691 3994 941 4077 1907 4077 
C 2042 4077 2253 4077 2317 4070 
C 2464 4045 2464 3981 2464 3827 
L 2464 544 
C 2464 333 2464 250 1786 250 
L 1498 250 
L 1498 0 
C 1811 26 2445 26 2784 26 
C 3123 26 3757 26 4070 0 
L 4070 250 
L 3782 250 
C 3104 250 3104 333 3104 544 
L 3104 3827 
C 3104 3981 3104 4045 3245 4070 
C 3309 4077 3520 4077 3654 4077 
C 4627 4077 4870 3987 4966 2835 
L 5203 2835 
z
" transform="scale(0.015625)"/>
       <path id="LMRoman6-Regular-65" d="M 3194 768 
C 3194 800 3181 870 3072 870 
C 2989 870 2976 832 2950 755 
C 2758 282 2278 160 1984 160 
C 1632 160 1331 320 1152 550 
C 915 851 915 1274 915 1446 
L 3002 1446 
C 3142 1446 3194 1446 3194 1600 
C 3194 2093 2918 2854 1856 2854 
C 960 2854 307 2170 307 1402 
C 307 595 1043 -64 1946 -64 
C 2867 -64 3194 627 3194 768 
z
M 2726 1638 
L 928 1638 
C 998 2496 1587 2650 1850 2650 
C 2675 2650 2720 1824 2726 1638 
z
" transform="scale(0.015625)"/>
       <path id="LMRoman6-Regular-6d" d="M 6080 0 
L 6080 250 
C 5638 250 5574 250 5574 525 
L 5574 1933 
C 5574 2586 5190 2822 4563 2822 
C 3968 2822 3616 2483 3475 2240 
C 3328 2822 2675 2822 2496 2822 
C 1914 2822 1555 2502 1402 2234 
L 1395 2234 
L 1395 2822 
L 403 2752 
L 403 2502 
C 851 2502 909 2458 909 2144 
L 909 525 
C 909 250 845 250 403 250 
L 403 0 
C 448 6 883 26 1171 26 
C 1459 26 1882 6 1946 0 
L 1946 250 
C 1504 250 1440 250 1440 525 
L 1440 1651 
C 1440 2355 2048 2618 2438 2618 
C 2880 2618 2976 2342 2976 1946 
L 2976 525 
C 2976 250 2912 250 2470 250 
L 2470 0 
C 2515 6 2950 26 3238 26 
C 3526 26 3949 6 4013 0 
L 4013 250 
C 3571 250 3507 250 3507 525 
L 3507 1651 
C 3507 2355 4115 2618 4506 2618 
C 4947 2618 5043 2342 5043 1946 
L 5043 525 
C 5043 250 4979 250 4538 250 
L 4538 0 
C 4582 6 5018 26 5306 26 
C 5594 26 6016 6 6080 0 
z
" transform="scale(0.015625)"/>
       <path id="LMRoman6-Regular-70" d="M 3974 1382 
C 3974 2157 3302 2822 2419 2822 
C 1837 2822 1478 2534 1382 2445 
L 1382 2822 
L 371 2752 
L 371 2502 
C 806 2502 877 2502 877 2208 
L 877 -717 
C 877 -992 813 -992 371 -992 
L 371 -1242 
C 416 -1235 851 -1216 1139 -1216 
C 1427 -1216 1850 -1235 1914 -1242 
L 1914 -992 
C 1472 -992 1408 -992 1408 -717 
L 1408 307 
C 1670 58 1971 -64 2323 -64 
C 3213 -64 3974 570 3974 1382 
z
M 3366 1382 
C 3366 666 2854 141 2285 141 
C 1792 141 1504 493 1408 678 
L 1408 2118 
C 1626 2419 1978 2598 2355 2598 
C 2938 2598 3366 2035 3366 1382 
z
" transform="scale(0.015625)"/>
       <path id="LMRoman6-Regular-72" d="M 2778 2400 
C 2778 2656 2534 2822 2253 2822 
C 1869 2822 1542 2592 1344 2163 
L 1338 2163 
L 1338 2822 
L 371 2752 
L 371 2502 
C 819 2502 877 2458 877 2144 
L 877 525 
C 877 250 813 250 371 250 
L 371 0 
C 531 13 1005 26 1146 26 
C 1478 26 1920 6 2010 0 
L 2010 250 
L 1869 250 
C 1389 250 1382 314 1382 531 
L 1382 1434 
C 1382 2029 1690 2605 2259 2618 
C 2202 2560 2176 2483 2176 2400 
C 2176 2227 2304 2099 2477 2099 
C 2650 2099 2778 2227 2778 2400 
z
" transform="scale(0.015625)"/>
       <path id="LMRoman6-Regular-61" d="M 3712 576 
L 3712 928 
L 3475 928 
L 3475 589 
C 3475 525 3475 237 3226 237 
C 2976 237 2976 525 2976 589 
L 2976 1907 
C 2976 2502 2368 2854 1651 2854 
C 1344 2854 589 2822 589 2285 
C 589 2112 704 1971 902 1971 
C 1088 1971 1210 2112 1210 2278 
C 1210 2394 1158 2502 1043 2554 
C 1254 2650 1574 2650 1638 2650 
C 2093 2650 2445 2381 2445 1894 
L 2445 1728 
C 2150 1715 1638 1702 1171 1536 
C 749 1389 346 1101 346 672 
C 346 102 1024 -64 1523 -64 
C 2061 -64 2381 205 2522 448 
C 2566 115 2778 -32 3002 -32 
C 3027 -32 3712 -32 3712 576 
z
M 2445 909 
C 2445 243 1786 141 1581 141 
C 1235 141 909 352 909 672 
C 909 1030 1254 1498 2445 1536 
L 2445 909 
z
" transform="scale(0.015625)"/>
       <path id="LMRoman6-Regular-74" d="M 2566 806 
L 2566 1158 
L 2330 1158 
L 2330 819 
C 2330 365 2093 160 1856 160 
C 1395 160 1395 678 1395 800 
L 1395 2509 
L 2445 2509 
L 2445 2758 
L 1395 2758 
L 1395 3936 
L 1158 3936 
C 1152 3366 877 2739 230 2714 
L 230 2509 
L 864 2509 
L 864 800 
C 864 128 1370 -64 1805 -64 
C 2246 -64 2566 288 2566 806 
z
" transform="scale(0.015625)"/>
       <path id="LMRoman6-Regular-75" d="M 4006 0 
L 4006 250 
C 3558 250 3501 294 3501 608 
L 3501 2822 
L 2464 2752 
L 2464 2502 
C 2912 2502 2970 2458 2970 2144 
L 2970 1075 
C 2970 493 2566 141 2074 141 
C 1466 141 1440 410 1440 723 
L 1440 2822 
L 403 2752 
L 403 2502 
C 909 2502 909 2445 909 2067 
L 909 1069 
C 909 634 909 352 1197 141 
C 1440 -38 1760 -64 2029 -64 
C 2432 -64 2771 96 2995 461 
L 2995 -64 
L 4006 0 
z
" transform="scale(0.015625)"/>
       <path id="LMRoman6-Regular-20" transform="scale(0.015625)"/>
       <path id="LMRoman6-Regular-69" d="M 1875 0 
L 1875 250 
C 1478 250 1421 250 1421 518 
L 1421 2822 
L 435 2752 
L 435 2502 
C 858 2502 915 2458 915 2144 
L 915 525 
C 915 250 851 250 410 250 
L 410 0 
L 1158 26 
C 1222 26 1709 13 1875 0 
z
M 1510 3846 
C 1510 4051 1344 4230 1126 4230 
C 890 4230 736 4032 736 3846 
C 736 3642 902 3462 1120 3462 
C 1357 3462 1510 3661 1510 3846 
z
" transform="scale(0.015625)"/>
       <path id="LMRoman6-Regular-6e" d="M 4006 0 
L 4006 250 
C 3565 250 3501 250 3501 525 
L 3501 1933 
C 3501 2560 3142 2822 2496 2822 
C 1933 2822 1581 2528 1395 2221 
L 1395 2822 
L 403 2752 
L 403 2502 
C 851 2502 909 2458 909 2144 
L 909 525 
C 909 250 845 250 403 250 
L 403 0 
C 448 6 883 26 1171 26 
C 1459 26 1882 6 1946 0 
L 1946 250 
C 1504 250 1440 250 1440 525 
L 1440 1651 
C 1440 2355 2042 2618 2438 2618 
C 2867 2618 2970 2349 2970 1952 
L 2970 525 
C 2970 250 2906 250 2464 250 
L 2464 0 
C 2509 6 2944 26 3232 26 
C 3520 26 3942 6 4006 0 
z
" transform="scale(0.015625)"/>
       <path id="LMRoman6-Regular-b0" d="M 2502 3334 
C 2502 3910 2042 4371 1466 4371 
C 896 4371 429 3910 429 3334 
C 429 2765 896 2298 1466 2298 
C 2042 2298 2502 2765 2502 3334 
z
M 2170 3334 
C 2170 2950 1856 2630 1466 2630 
C 1075 2630 762 2950 762 3334 
C 762 3725 1075 4038 1466 4038 
C 1856 4038 2170 3725 2170 3334 
z
" transform="scale(0.015625)"/>
       <path id="LMRoman6-Regular-43" d="M 5056 1498 
C 5056 1568 5050 1632 4934 1632 
C 4832 1632 4826 1581 4819 1523 
C 4768 544 3878 115 3174 115 
C 2406 115 1216 570 1216 2189 
C 1216 3776 2374 4256 3168 4256 
C 3891 4256 4640 3763 4800 2784 
C 4813 2701 4819 2656 4928 2656 
C 5056 2656 5056 2707 5056 2835 
L 5056 4326 
C 5056 4435 5056 4506 4954 4506 
C 4896 4506 4883 4480 4838 4422 
L 4486 3936 
C 4115 4307 3610 4506 3085 4506 
C 1664 4506 506 3456 506 2189 
C 506 902 1664 -134 3091 -134 
C 4262 -134 5056 685 5056 1498 
z
" transform="scale(0.015625)"/>
      </defs>
      <use xlink:href="#LMRoman6-Regular-54"/>
      <use xlink:href="#LMRoman6-Regular-65" x="86.999985"/>
      <use xlink:href="#LMRoman6-Regular-6d" x="141.599976"/>
      <use xlink:href="#LMRoman6-Regular-70" x="241.59996"/>
      <use xlink:href="#LMRoman6-Regular-65" x="309.199951"/>
      <use xlink:href="#LMRoman6-Regular-72" x="363.799942"/>
      <use xlink:href="#LMRoman6-Regular-61" x="411.899933"/>
      <use xlink:href="#LMRoman6-Regular-74" x="472.999924"/>
      <use xlink:href="#LMRoman6-Regular-75" x="521.099915"/>
      <use xlink:href="#LMRoman6-Regular-72" x="588.699905"/>
      <use xlink:href="#LMRoman6-Regular-20" x="636.799896"/>
      <use xlink:href="#LMRoman6-Regular-69" x="678.499893"/>
      <use xlink:href="#LMRoman6-Regular-6e" x="713.69989"/>
      <use xlink:href="#LMRoman6-Regular-20" x="781.299881"/>
      <use xlink:href="#LMRoman6-Regular-b0" x="822.999878"/>
      <use xlink:href="#LMRoman6-Regular-43" x="868.799866"/>
     </g>
    </g>
   </g>
   <g id="line2d_35">
    <path d="M 58.110236 44.82075 
L 59.893898 44.916164 
L 61.12874 45.23167 
L 62.363583 45.790638 
L 63.872835 46.749609 
L 66.205315 48.552713 
L 70.321457 51.747745 
L 72.516732 53.160382 
L 74.574803 54.23977 
L 74.849213 54.23331 
L 81.572244 52.096367 
L 85.002362 50.757186 
L 88.295276 49.223104 
L 91.999803 47.238954 
L 97.350787 44.088978 
L 105.994685 39.010771 
L 107.503937 38.177844 
L 108.46437 39.19085 
L 111.07126 41.808628 
L 112.992126 43.435788 
L 114.638583 44.564108 
L 116.285039 45.428065 
L 117.931496 46.031599 
L 119.577953 46.392782 
L 121.361614 46.540994 
L 123.28248 46.459961 
L 125.614961 46.328794 
L 138.375 46.27706 
L 150.86063 46.373209 
L 153.330315 46.714962 
L 155.8 47.272615 
L 157.034843 47.705149 
L 158.544094 48.982365 
L 160.327756 50.814434 
L 165.815945 56.696057 
L 169.383268 59.186278 
L 171.029724 60.103072 
L 172.676181 60.776298 
L 174.734252 61.374379 
L 175.420276 61.224989 
L 176.243504 60.769947 
L 177.203937 59.918773 
L 178.43878 58.461126 
L 180.908465 55.056664 
L 182.829331 52.584702 
L 184.338583 50.992535 
L 185.71063 49.86732 
L 187.082677 49.042816 
L 188.454724 48.483066 
L 190.101181 48.071864 
L 191.610433 47.876672 
L 192.845276 47.949807 
L 194.080118 48.25343 
L 195.58937 48.864288 
L 200.254331 50.91803 
L 202.037992 51.377139 
L 203.958858 51.634083 
L 206.565748 51.724076 
L 208.761024 51.61966 
L 210.133071 51.330654 
L 211.505118 50.817244 
L 213.01437 50.002321 
L 214.935236 48.69498 
L 217.267717 46.936418 
L 218.365354 46.412078 
L 219.325787 46.181131 
L 220.28622 46.153234 
L 221.383858 46.332547 
L 222.89311 46.831936 
L 228.655709 49.015149 
L 230.576575 49.377609 
L 233.04626 49.599679 
L 237.299606 49.776728 
L 245.669094 50.01613 
L 249.922441 50.162947 
L 251.431693 49.944099 
L 252.80374 49.531041 
L 254.450197 48.805697 
L 259.801181 46.237522 
L 261.036024 46.045113 
L 262.270866 46.065705 
L 263.780118 46.315824 
L 266.249803 47.001824 
L 269.817126 48.008433 
L 272.149606 48.423077 
L 274.756496 48.6527 
L 278.598228 48.735072 
L 285.458465 48.869082 
L 291.358268 49.25182 
L 302.47185 50.1649 
L 306.862402 50.33703 
L 308.371654 50.171868 
L 309.880906 49.760852 
L 311.664567 49.018966 
L 316.055118 47.084748 
L 317.427165 46.747531 
L 318.799213 46.639841 
L 320.308465 46.759065 
L 322.366535 47.189133 
L 327.580315 48.381463 
L 330.324409 48.725574 
L 333.891732 48.92048 
L 337.870669 48.927854 
L 339.379921 48.913146 
L 376.425197 48.747915 
L 383.148228 48.463773 
L 397.280315 48.143406 
L 397.829134 48.012448 
L 398.652362 47.804522 
L 399.75 47.44654 
L 402.494094 47.208135 
L 406.335827 47.051612 
L 447.360039 47.147542 
L 449.829724 47.015529 
L 453.259843 46.965432 
L 453.259843 46.965432 
" clip-path="url(#pbf05bfa2bd)" style="fill: none; stroke: #000000; stroke-width: 0.9; stroke-linecap: square"/>
   </g>
   <g id="line2d_36">
    <path d="M 58.110236 57.493284 
L 59.756693 57.394526 
L 61.40315 57.067876 
L 63.186811 56.476209 
L 65.519291 55.44219 
L 69.635433 53.317092 
L 74.986417 50.617896 
L 79.102559 48.813238 
L 85.688386 46.167902 
L 110.385236 36.504824 
L 119.852362 32.379753 
L 122.870866 31.300403 
L 124.105709 30.990844 
L 127.810236 31.051277 
L 146.058465 31.360447 
L 151.546654 31.547685 
L 161.425394 31.792374 
L 168.01122 31.946209 
L 199.156693 32.056072 
L 213.700394 32.172635 
L 218.365354 32.283187 
L 236.887992 32.921046 
L 249.099213 33.433951 
L 257.74311 33.5435 
L 285.732874 34.835813 
L 300.13937 35.349977 
L 316.466732 35.498895 
L 339.92874 36.381289 
L 358.039764 36.748412 
L 371.623031 37.134039 
L 375.601969 37.41178 
L 377.248425 37.790506 
L 380.129724 37.979636 
L 395.222244 38.52012 
L 397.14311 38.656906 
L 397.829134 38.821609 
L 399.338386 39.110529 
L 399.887205 39.234443 
L 404.68937 39.558825 
L 415.802953 39.785682 
L 431.032677 40.183195 
L 445.576378 40.73884 
L 452.299409 41.248792 
L 453.259843 41.298866 
L 453.259843 41.298866 
" clip-path="url(#pbf05bfa2bd)" style="fill: none; stroke-dasharray: 3.33,1.44; stroke-dashoffset: 0; stroke: #000000; stroke-width: 0.9"/>
   </g>
   <g id="line2d_37">
    <path d="M 58.110236 108.183418 
L 58.79626 108.250412 
L 59.207874 108.552693 
L 59.619488 109.176052 
L 60.579921 111.335649 
L 61.12874 112.468978 
L 61.677559 113.163614 
L 62.089173 113.363439 
L 62.500787 113.303693 
L 63.049606 112.943636 
L 64.970472 111.492125 
L 65.930906 111.104763 
L 67.440157 110.790448 
L 68.675 110.405255 
L 73.61437 108.716222 
L 76.22126 108.076789 
L 77.456102 108.162277 
L 79.788583 108.316011 
L 86.1 108.18898 
L 100.506496 107.836048 
L 109.424803 107.502398 
L 116.971063 106.904716 
L 123.694094 106.989673 
L 126.849803 106.983722 
L 130.691535 106.993407 
L 141.942323 106.701865 
L 144.686417 106.334129 
L 150.037402 105.769519 
L 157.858071 105.121329 
L 167.325197 104.513635 
L 185.573425 104.241321 
L 190.512795 104.123332 
L 191.198819 103.891825 
L 192.159252 103.250205 
L 193.805709 102.157199 
L 195.177756 101.572126 
L 197.647441 100.837025 
L 200.80315 100.093933 
L 205.46811 99.239828 
L 209.172638 98.770762 
L 221.246654 97.551331 
L 224.813976 97.339459 
L 227.283661 97.278368 
L 235.241535 96.615929 
L 258.01752 95.469612 
L 259.938386 95.821113 
L 262.68248 96.29175 
L 265.152165 96.462705 
L 268.582283 96.70285 
L 275.030906 97.317353 
L 278.461024 97.341851 
L 285.732874 97.116706 
L 293.004724 96.873265 
L 301.099803 97.130309 
L 310.429724 97.514999 
L 315.369094 97.357207 
L 318.936417 97.065562 
L 329.638386 96.012554 
L 334.714961 95.688445 
L 339.517126 95.588189 
L 340.614764 95.778893 
L 341.849606 96.24251 
L 343.770472 97.271783 
L 346.240157 98.552716 
L 348.023819 99.234941 
L 350.08189 99.781611 
L 352.963189 100.286689 
L 357.216535 100.782555 
L 358.039764 100.817979 
L 358.725787 101.084526 
L 359.411811 101.647069 
L 360.509449 102.938895 
L 362.018701 105.129643 
L 362.704724 106.214284 
L 363.116339 106.192108 
L 364.213976 106.462395 
L 365.723228 106.888341 
L 367.50689 107.389249 
L 371.074213 108.542512 
L 373.132283 111.34681 
L 374.229921 112.495464 
L 375.05315 113.074792 
L 375.876378 113.378087 
L 377.38563 113.646121 
L 379.169291 113.839616 
L 379.443701 113.652008 
L 379.855315 113.725455 
L 380.266929 113.672776 
L 385.206299 114.583138 
L 385.617913 114.588164 
L 386.303937 114.555509 
L 388.499213 114.103502 
L 391.654921 112.926983 
L 394.81063 111.50097 
L 395.771063 111.135245 
L 396.594291 111.428338 
L 397.005906 111.574446 
L 397.966339 111.913086 
L 400.024409 112.300221 
L 403.866142 112.775664 
L 404.414961 112.440911 
L 406.884646 111.620864 
L 412.23563 110.119495 
L 413.607677 110.344911 
L 418.958661 110.91605 
L 421.016732 111.008252 
L 426.230512 111.147301 
L 439.53937 111.524636 
L 445.301969 111.509058 
L 448.594882 110.65014 
L 453.259843 109.387384 
L 453.259843 109.387384 
" clip-path="url(#pbf05bfa2bd)" style="fill: none; stroke-dasharray: 5.76,1.44,0.9,1.44; stroke-dashoffset: 0; stroke: #000000; stroke-width: 0.9"/>
   </g>
   <g id="line2d_38">
    <path d="M 58.110236 120.855952 
L 61.40315 120.738102 
L 89.530118 119.28261 
L 127.261417 117.363904 
L 192.98248 114.196998 
L 202.724016 113.559776 
L 260.212795 109.457196 
L 272.424016 109.06549 
L 311.527362 108.296061 
L 324.150197 108.005817 
L 346.102953 107.450312 
L 358.314173 107.469168 
L 366.546457 107.725396 
L 374.915945 108.059073 
L 393.026969 108.231996 
L 453.259843 109.315676 
L 453.259843 109.315676 
" clip-path="url(#pbf05bfa2bd)" style="fill: none; stroke-dasharray: 0.9,1.485; stroke-dashoffset: 0; stroke: #000000; stroke-width: 0.9"/>
   </g>
   <g id="line2d_39">
    <path d="M 58.110236 171.546086 
L 58.79626 171.43463 
L 60.168307 170.85395 
L 60.579921 170.967028 
L 61.12874 171.381012 
L 61.951969 172.364702 
L 63.598425 174.404976 
L 64.558858 175.248564 
L 65.656496 175.924663 
L 67.302953 176.635116 
L 71.00748 177.910837 
L 73.88878 178.69931 
L 74.986417 178.886753 
L 75.809646 178.47286 
L 76.358465 178.583057 
L 77.730512 179.00633 
L 81.983858 179.590853 
L 87.746457 180.188757 
L 95.292717 180.730187 
L 107.366732 181.345822 
L 133.847244 182.418802 
L 170.343701 183.706121 
L 190.375591 184.341123 
L 190.787205 184.033327 
L 192.708071 182.05232 
L 193.531299 181.736346 
L 197.647441 180.808651 
L 201.077559 180.228336 
L 205.605315 179.686707 
L 210.956299 179.279781 
L 217.816535 178.995987 
L 225.774409 178.882072 
L 228.381299 179.043028 
L 241.690157 180.300186 
L 250.334055 180.743232 
L 266.387008 181.281323 
L 284.498031 181.733771 
L 313.722638 182.246702 
L 317.015551 181.940312 
L 323.052559 181.415059 
L 329.638386 181.070841 
L 336.361417 180.920617 
L 338.007874 181.084395 
L 338.693898 181.359198 
L 340.614764 182.483446 
L 344.319291 183.879717 
L 347.475 184.799439 
L 351.042323 185.601226 
L 354.74685 186.213978 
L 355.981693 186.213684 
L 356.530512 185.977053 
L 358.314173 184.649508 
L 359.274606 183.5701 
L 362.704724 179.474313 
L 363.939567 178.370817 
L 365.174409 177.54613 
L 366.546457 176.905977 
L 368.055709 176.450152 
L 369.976575 176.108845 
L 371.623031 176.000163 
L 372.17185 176.317662 
L 372.720669 176.913469 
L 373.681102 178.363906 
L 375.190354 180.66582 
L 376.150787 181.74371 
L 377.11122 182.514293 
L 378.483268 183.290601 
L 381.776181 184.760458 
L 384.65748 185.895507 
L 387.127165 186.634941 
L 388.362008 186.853676 
L 389.322441 186.825909 
L 397.554724 187.95872 
L 402.905709 188.367175 
L 417.312205 189.184005 
L 453.259843 190.631369 
L 453.259843 190.631369 
" clip-path="url(#pbf05bfa2bd)" style="fill: none; stroke-dasharray: 4.5,9; stroke-dashoffset: 0; stroke: #000000; stroke-width: 0.9"/>
   </g>
   <g id="line2d_40">
    <path d="M 58.110236 166.477073 
L 66.06811 166.596969 
L 76.907283 166.939079 
L 119.029134 168.688257 
L 195.86378 171.81439 
L 215.895669 172.181369 
L 256.508268 172.913648 
L 360.921063 175.246603 
L 371.074213 175.492091 
L 388.636417 175.770891 
L 416.214567 176.831925 
L 453.259843 178.296607 
L 453.259843 178.296607 
" clip-path="url(#pbf05bfa2bd)" style="fill: none; stroke-dasharray: 2.7,9,0.9,9; stroke-dashoffset: 0; stroke: #000000; stroke-width: 0.9"/>
   </g>
   <g id="patch_3">
    <path d="M 58.110236 222.23622 
L 58.110236 6.80315 
" style="fill: none; stroke: #000000; stroke-width: 0.8; stroke-linejoin: miter; stroke-linecap: square"/>
   </g>
   <g id="patch_4">
    <path d="M 58.110236 222.23622 
L 453.259843 222.23622 
" style="fill: none; stroke: #000000; stroke-width: 0.8; stroke-linejoin: miter; stroke-linecap: square"/>
   </g>
   <g id="legend_1">
    <g id="line2d_41">
     <path d="M 127.591133 194.708268 
L 136.591133 194.708268 
L 145.591133 194.708268 
" style="fill: none; stroke: #000000; stroke-width: 0.9; stroke-linecap: square"/>
    </g>
    <g id="text_11">
     <!-- BS_HNHT -->
     <g transform="translate(152.791133 197.858268) scale(0.09 -0.09)">
      <defs>
       <path id="LMRoman6-Regular-42" d="M 4934 1178 
C 4934 1677 4435 2176 3533 2291 
C 4186 2400 4730 2790 4730 3283 
C 4730 3866 4006 4371 3091 4371 
L 442 4371 
L 442 4122 
L 608 4122 
C 1120 4122 1120 4045 1120 3834 
L 1120 538 
C 1120 326 1120 250 608 250 
L 442 250 
L 442 0 
L 3290 0 
C 4224 0 4934 550 4934 1178 
z
M 4064 3283 
C 4064 2797 3571 2374 2835 2374 
L 1715 2374 
L 1715 3872 
C 1715 4070 1715 4122 2029 4122 
L 3046 4122 
C 3680 4122 4064 3706 4064 3283 
z
M 4250 1184 
C 4250 717 3782 250 3059 250 
L 2029 250 
C 1715 250 1715 301 1715 499 
L 1715 2170 
L 3162 2170 
C 3853 2170 4250 1645 4250 1184 
z
" transform="scale(0.015625)"/>
       <path id="LMRoman6-Regular-53" d="M 3814 1178 
C 3814 1626 3565 1933 3469 2029 
C 3142 2355 2950 2394 2157 2560 
L 1555 2694 
C 1222 2803 915 3085 915 3450 
C 915 3878 1338 4275 1965 4275 
C 2304 4275 2630 4186 2893 3974 
C 3270 3674 3341 3213 3366 3059 
C 3379 2963 3386 2918 3488 2918 
C 3610 2918 3610 2976 3610 3098 
L 3610 4326 
C 3610 4435 3610 4506 3507 4506 
C 3482 4506 3443 4506 3392 4422 
L 3155 4058 
C 2790 4416 2330 4506 1958 4506 
C 1126 4506 506 3942 506 3283 
C 506 2950 659 2669 890 2451 
C 1178 2189 1395 2144 2112 1997 
C 2771 1856 2918 1824 3117 1638 
C 3194 1562 3405 1357 3405 1018 
C 3405 576 3008 115 2342 115 
C 1792 115 794 282 742 1306 
C 736 1402 736 1453 627 1453 
C 506 1453 506 1395 506 1267 
L 506 45 
C 506 -64 506 -134 608 -134 
C 666 -134 678 -109 710 -58 
C 730 -38 864 166 954 301 
C 1421 -90 2042 -134 2342 -134 
C 3232 -134 3814 499 3814 1178 
z
" transform="scale(0.015625)"/>
       <path id="LMRoman6-Regular-5f" d="M 5734 -922 
L 5734 -678 
L 0 -678 
L 0 -922 
L 5734 -922 
z
" transform="scale(0.015625)"/>
       <path id="LMRoman6-Regular-48" d="M 5312 0 
L 5312 250 
L 5146 250 
C 4634 250 4634 326 4634 538 
L 4634 3834 
C 4634 4045 4634 4122 5146 4122 
L 5312 4122 
L 5312 4371 
L 4314 4346 
L 3315 4371 
L 3315 4122 
L 3482 4122 
C 3994 4122 3994 4045 3994 3834 
L 3994 2400 
L 1734 2400 
L 1734 3834 
C 1734 4045 1734 4122 2246 4122 
L 2413 4122 
L 2413 4371 
L 1414 4346 
L 416 4371 
L 416 4122 
L 582 4122 
C 1094 4122 1094 4045 1094 3834 
L 1094 538 
C 1094 326 1094 250 582 250 
L 416 250 
L 416 0 
L 1414 26 
L 2413 0 
L 2413 250 
L 2246 250 
C 1734 250 1734 326 1734 538 
L 1734 2150 
L 3994 2150 
L 3994 538 
C 3994 326 3994 250 3482 250 
L 3315 250 
L 3315 0 
L 4314 26 
L 5312 0 
z
" transform="scale(0.015625)"/>
       <path id="LMRoman6-Regular-4e" d="M 5312 4122 
L 5312 4371 
C 5190 4365 4774 4346 4506 4346 
C 4211 4346 3808 4365 3693 4371 
L 3693 4122 
C 4371 4122 4371 3834 4371 3667 
L 4371 986 
L 1779 4282 
C 1709 4365 1702 4371 1568 4371 
L 416 4371 
L 416 4122 
L 621 4122 
C 768 4122 928 4122 1050 4090 
C 1088 4083 1094 4077 1094 3968 
L 1094 704 
C 1094 538 1094 250 416 250 
L 416 0 
C 538 6 954 26 1222 26 
C 1517 26 1920 6 2035 0 
L 2035 250 
C 1357 250 1357 538 1357 704 
L 1357 3898 
L 4365 77 
C 4416 13 4422 0 4499 0 
C 4634 0 4634 64 4634 192 
L 4634 3667 
C 4634 3834 4634 4122 5312 4122 
z
" transform="scale(0.015625)"/>
      </defs>
      <use xlink:href="#LMRoman6-Regular-42"/>
      <use xlink:href="#LMRoman6-Regular-53" x="85.099991"/>
      <use xlink:href="#LMRoman6-Regular-5f" x="152.699982"/>
      <use xlink:href="#LMRoman6-Regular-48" x="242.299973"/>
      <use xlink:href="#LMRoman6-Regular-4e" x="331.899963"/>
      <use xlink:href="#LMRoman6-Regular-48" x="421.499954"/>
      <use xlink:href="#LMRoman6-Regular-54" x="511.099945"/>
     </g>
    </g>
    <g id="line2d_42">
     <path d="M 127.591133 207.25483 
L 136.591133 207.25483 
L 145.591133 207.25483 
" style="fill: none; stroke-dasharray: 3.33,1.44; stroke-dashoffset: 0; stroke: #000000; stroke-width: 0.9"/>
    </g>
    <g id="text_12">
     <!-- ST_HNHT -->
     <g transform="translate(152.791133 210.40483) scale(0.09 -0.09)">
      <use xlink:href="#LMRoman6-Regular-53"/>
      <use xlink:href="#LMRoman6-Regular-54" x="67.599991"/>
      <use xlink:href="#LMRoman6-Regular-5f" x="154.599976"/>
      <use xlink:href="#LMRoman6-Regular-48" x="244.199966"/>
      <use xlink:href="#LMRoman6-Regular-4e" x="333.799957"/>
      <use xlink:href="#LMRoman6-Regular-48" x="423.399948"/>
      <use xlink:href="#LMRoman6-Regular-54" x="512.999939"/>
     </g>
    </g>
    <g id="line2d_43">
     <path d="M 224.788321 194.708268 
L 233.788321 194.708268 
L 242.788321 194.708268 
" style="fill: none; stroke-dasharray: 5.76,1.44,0.9,1.44; stroke-dashoffset: 0; stroke: #000000; stroke-width: 0.9"/>
    </g>
    <g id="text_13">
     <!-- BS_HNLT -->
     <g transform="translate(249.988321 197.858268) scale(0.09 -0.09)">
      <defs>
       <path id="LMRoman6-Regular-4c" d="M 4416 1702 
L 4179 1702 
C 4102 928 3904 250 2746 250 
L 2048 250 
C 1734 250 1734 301 1734 499 
L 1734 3834 
C 1734 4045 1734 4122 2349 4122 
L 2586 4122 
L 2586 4371 
C 2246 4346 1779 4346 1434 4346 
L 416 4371 
L 416 4122 
L 582 4122 
C 1094 4122 1094 4045 1094 3834 
L 1094 538 
C 1094 326 1094 250 582 250 
L 416 250 
L 416 0 
L 4218 0 
L 4416 1702 
z
" transform="scale(0.015625)"/>
      </defs>
      <use xlink:href="#LMRoman6-Regular-42"/>
      <use xlink:href="#LMRoman6-Regular-53" x="85.099991"/>
      <use xlink:href="#LMRoman6-Regular-5f" x="152.699982"/>
      <use xlink:href="#LMRoman6-Regular-48" x="242.299973"/>
      <use xlink:href="#LMRoman6-Regular-4e" x="331.899963"/>
      <use xlink:href="#LMRoman6-Regular-4c" x="421.499954"/>
      <use xlink:href="#LMRoman6-Regular-54" x="496.899948"/>
     </g>
    </g>
    <g id="line2d_44">
     <path d="M 224.788321 207.25483 
L 233.788321 207.25483 
L 242.788321 207.25483 
" style="fill: none; stroke-dasharray: 0.9,1.485; stroke-dashoffset: 0; stroke: #000000; stroke-width: 0.9"/>
    </g>
    <g id="text_14">
     <!-- ST_HNLT -->
     <g transform="translate(249.988321 210.40483) scale(0.09 -0.09)">
      <use xlink:href="#LMRoman6-Regular-53"/>
      <use xlink:href="#LMRoman6-Regular-54" x="67.599991"/>
      <use xlink:href="#LMRoman6-Regular-5f" x="154.599976"/>
      <use xlink:href="#LMRoman6-Regular-48" x="244.199966"/>
      <use xlink:href="#LMRoman6-Regular-4e" x="333.799957"/>
      <use xlink:href="#LMRoman6-Regular-4c" x="423.399948"/>
      <use xlink:href="#LMRoman6-Regular-54" x="498.799942"/>
     </g>
    </g>
    <g id="line2d_45">
     <path d="M 320.708633 194.708268 
L 329.708633 194.708268 
L 338.708633 194.708268 
" style="fill: none; stroke-dasharray: 4.5,9; stroke-dashoffset: 0; stroke: #000000; stroke-width: 0.9"/>
    </g>
    <g id="text_15">
     <!-- BS_CN -->
     <g transform="translate(345.908633 197.858268) scale(0.09 -0.09)">
      <use xlink:href="#LMRoman6-Regular-42"/>
      <use xlink:href="#LMRoman6-Regular-53" x="85.099991"/>
      <use xlink:href="#LMRoman6-Regular-5f" x="152.699982"/>
      <use xlink:href="#LMRoman6-Regular-43" x="242.299973"/>
      <use xlink:href="#LMRoman6-Regular-4e" x="329.299957"/>
     </g>
    </g>
    <g id="line2d_46">
     <path d="M 320.708633 207.25483 
L 329.708633 207.25483 
L 338.708633 207.25483 
" style="fill: none; stroke-dasharray: 2.7,9,0.9,9; stroke-dashoffset: 0; stroke: #000000; stroke-width: 0.9"/>
    </g>
    <g id="text_16">
     <!-- ST_CN -->
     <g transform="translate(345.908633 210.40483) scale(0.09 -0.09)">
      <use xlink:href="#LMRoman6-Regular-53"/>
      <use xlink:href="#LMRoman6-Regular-54" x="67.599991"/>
      <use xlink:href="#LMRoman6-Regular-5f" x="154.599976"/>
      <use xlink:href="#LMRoman6-Regular-43" x="244.199966"/>
      <use xlink:href="#LMRoman6-Regular-4e" x="331.199951"/>
     </g>
    </g>
   </g>
  </g>
 </g>
 <defs>
  <clipPath id="pbf05bfa2bd">
   <rect x="58.110236" y="6.80315" width="395.149606" height="215.433071"/>
  </clipPath>
 </defs>
</svg>
