<?xml version="1.0" encoding="utf-8" standalone="no"?>
<!DOCTYPE svg PUBLIC "-//W3C//DTD SVG 1.1//EN"
  "http://www.w3.org/Graphics/SVG/1.1/DTD/svg11.dtd">
<svg xmlns:xlink="http://www.w3.org/1999/xlink" width="464.88189pt" height="226.771654pt" viewBox="0 0 464.88189 226.771654" xmlns="http://www.w3.org/2000/svg" version="1.1">
 <metadata>
  <rdf:RDF xmlns:dc="http://purl.org/dc/elements/1.1/" xmlns:cc="http://creativecommons.org/ns#" xmlns:rdf="http://www.w3.org/1999/02/22-rdf-syntax-ns#">
   <cc:Work>
    <dc:type rdf:resource="http://purl.org/dc/dcmitype/StillImage"/>
    <dc:date>2024-10-01T14:10:31.308162</dc:date>
    <dc:format>image/svg+xml</dc:format>
    <dc:creator>
     <cc:Agent>
      <dc:title>Matplotlib v3.8.2, https://matplotlib.org/</dc:title>
     </cc:Agent>
    </dc:creator>
   </cc:Work>
  </rdf:RDF>
 </metadata>
 <defs>
  <style type="text/css">*{stroke-linejoin: round; stroke-linecap: butt}</style>
 </defs>
 <g id="figure_1">
  <g id="patch_1">
   <path d="M 0 226.771654 
L 464.88189 226.771654 
L 464.88189 0 
L 0 0 
z
" style="fill: #ffffff"/>
  </g>
  <g id="axes_1">
   <g id="patch_2">
    <path d="M 58.110236 222.23622 
L 453.259843 222.23622 
L 453.259843 6.80315 
L 58.110236 6.80315 
z
" style="fill: #ffffff"/>
   </g>
   <g id="matplotlib.axis_1">
    <g id="xtick_1">
     <g id="line2d_1">
      <defs>
       <path id="mf3afae6b1f" d="M 0 0 
L 0 3.5 
" style="stroke: #000000; stroke-width: 0.8"/>
      </defs>
      <g>
       <use xlink:href="#mf3afae6b1f" x="58.110236" y="222.23622" style="stroke: #000000; stroke-width: 0.8"/>
      </g>
     </g>
    </g>
    <g id="xtick_2">
     <g id="line2d_2">
      <g>
       <use xlink:href="#mf3afae6b1f" x="97.625197" y="222.23622" style="stroke: #000000; stroke-width: 0.8"/>
      </g>
     </g>
    </g>
    <g id="xtick_3">
     <g id="line2d_3">
      <g>
       <use xlink:href="#mf3afae6b1f" x="137.140157" y="222.23622" style="stroke: #000000; stroke-width: 0.8"/>
      </g>
     </g>
    </g>
    <g id="xtick_4">
     <g id="line2d_4">
      <g>
       <use xlink:href="#mf3afae6b1f" x="176.655118" y="222.23622" style="stroke: #000000; stroke-width: 0.8"/>
      </g>
     </g>
    </g>
    <g id="xtick_5">
     <g id="line2d_5">
      <g>
       <use xlink:href="#mf3afae6b1f" x="216.170079" y="222.23622" style="stroke: #000000; stroke-width: 0.8"/>
      </g>
     </g>
    </g>
    <g id="xtick_6">
     <g id="line2d_6">
      <g>
       <use xlink:href="#mf3afae6b1f" x="255.685039" y="222.23622" style="stroke: #000000; stroke-width: 0.8"/>
      </g>
     </g>
    </g>
    <g id="xtick_7">
     <g id="line2d_7">
      <g>
       <use xlink:href="#mf3afae6b1f" x="295.2" y="222.23622" style="stroke: #000000; stroke-width: 0.8"/>
      </g>
     </g>
    </g>
    <g id="xtick_8">
     <g id="line2d_8">
      <g>
       <use xlink:href="#mf3afae6b1f" x="334.714961" y="222.23622" style="stroke: #000000; stroke-width: 0.8"/>
      </g>
     </g>
    </g>
    <g id="xtick_9">
     <g id="line2d_9">
      <g>
       <use xlink:href="#mf3afae6b1f" x="374.229921" y="222.23622" style="stroke: #000000; stroke-width: 0.8"/>
      </g>
     </g>
    </g>
    <g id="xtick_10">
     <g id="line2d_10">
      <g>
       <use xlink:href="#mf3afae6b1f" x="413.744882" y="222.23622" style="stroke: #000000; stroke-width: 0.8"/>
      </g>
     </g>
    </g>
    <g id="xtick_11">
     <g id="line2d_11">
      <g>
       <use xlink:href="#mf3afae6b1f" x="453.259843" y="222.23622" style="stroke: #000000; stroke-width: 0.8"/>
      </g>
     </g>
    </g>
   </g>
   <g id="matplotlib.axis_2">
    <g id="ytick_1">
     <g id="line2d_12">
      <defs>
       <path id="m3c6687aad9" d="M 0 0 
L -3.5 0 
" style="stroke: #000000; stroke-width: 0.8"/>
      </defs>
      <g>
       <use xlink:href="#m3c6687aad9" x="58.110236" y="209.563687" style="stroke: #000000; stroke-width: 0.8"/>
      </g>
     </g>
     <g id="text_1">
      <!-- 0 -->
      <g transform="translate(45.611799 212.686968) scale(0.09 -0.09)">
       <defs>
        <path id="LMRoman6-Regular-30" d="M 3520 2042 
C 3520 2509 3520 4256 1952 4256 
C 384 4256 384 2509 384 2042 
C 384 1581 384 -134 1952 -134 
C 3520 -134 3520 1581 3520 2042 
z
M 2912 2125 
C 2912 1715 2912 1069 2803 710 
C 2624 154 2163 70 1952 70 
C 1683 70 1248 198 1094 730 
C 992 1101 992 1728 992 2125 
C 992 2554 992 3046 1082 3392 
C 1242 3968 1728 4051 1952 4051 
C 2246 4051 2669 3910 2810 3424 
C 2906 3085 2912 2618 2912 2125 
z
" transform="scale(0.015625)"/>
       </defs>
       <use xlink:href="#LMRoman6-Regular-30"/>
      </g>
     </g>
    </g>
    <g id="ytick_2">
     <g id="line2d_13">
      <g>
       <use xlink:href="#m3c6687aad9" x="58.110236" y="184.21862" style="stroke: #000000; stroke-width: 0.8"/>
      </g>
     </g>
     <g id="text_2">
      <!-- 10 -->
      <g transform="translate(40.113361 187.341901) scale(0.09 -0.09)">
       <defs>
        <path id="LMRoman6-Regular-31" d="M 3232 0 
L 3232 250 
L 2957 250 
C 2298 250 2298 333 2298 544 
L 2298 4064 
C 2298 4256 2272 4256 2080 4256 
C 1658 3846 1005 3846 774 3846 
L 774 3597 
C 941 3597 1363 3597 1747 3776 
L 1747 544 
C 1747 333 1747 250 1088 250 
L 813 250 
L 813 0 
C 1165 26 1664 26 2022 26 
C 2381 26 2880 26 3232 0 
z
" transform="scale(0.015625)"/>
       </defs>
       <use xlink:href="#LMRoman6-Regular-31"/>
       <use xlink:href="#LMRoman6-Regular-30" x="61.099991"/>
      </g>
     </g>
    </g>
    <g id="ytick_3">
     <g id="line2d_14">
      <g>
       <use xlink:href="#m3c6687aad9" x="58.110236" y="158.873553" style="stroke: #000000; stroke-width: 0.8"/>
      </g>
     </g>
     <g id="text_3">
      <!-- 20 -->
      <g transform="translate(40.113361 161.996834) scale(0.09 -0.09)">
       <defs>
        <path id="LMRoman6-Regular-32" d="M 3443 1197 
L 3206 1197 
C 3194 1107 3130 685 3034 614 
C 2989 576 2470 576 2381 576 
L 1184 576 
L 2003 1242 
C 2221 1414 2790 1824 2989 2016 
C 3181 2208 3443 2534 3443 2989 
C 3443 3789 2720 4256 1862 4256 
C 1037 4256 461 3712 461 3110 
C 461 2784 736 2746 806 2746 
C 966 2746 1152 2861 1152 3091 
C 1152 3232 1069 3437 787 3437 
C 934 3763 1325 4006 1766 4006 
C 2438 4006 2797 3507 2797 2989 
C 2797 2534 2496 2067 2048 1658 
L 531 269 
C 467 205 461 198 461 0 
L 3245 0 
L 3443 1197 
z
" transform="scale(0.015625)"/>
       </defs>
       <use xlink:href="#LMRoman6-Regular-32"/>
       <use xlink:href="#LMRoman6-Regular-30" x="61.099991"/>
      </g>
     </g>
    </g>
    <g id="ytick_4">
     <g id="line2d_15">
      <g>
       <use xlink:href="#m3c6687aad9" x="58.110236" y="133.528485" style="stroke: #000000; stroke-width: 0.8"/>
      </g>
     </g>
     <g id="text_4">
      <!-- 30 -->
      <g transform="translate(40.113361 136.651767) scale(0.09 -0.09)">
       <defs>
        <path id="LMRoman6-Regular-33" d="M 3501 1107 
C 3501 1574 3142 2067 2381 2259 
C 2886 2426 3296 2835 3296 3360 
C 3296 3872 2694 4256 1926 4256 
C 1178 4256 608 3910 608 3386 
C 608 3110 819 3034 947 3034 
C 1114 3034 1286 3149 1286 3373 
C 1286 3571 1146 3686 973 3712 
C 1274 4045 1856 4045 1914 4045 
C 2240 4045 2650 3891 2650 3360 
C 2650 3008 2451 2394 1811 2355 
C 1696 2349 1523 2336 1466 2336 
C 1402 2330 1331 2323 1331 2227 
C 1331 2125 1402 2125 1510 2125 
L 1882 2125 
C 2426 2125 2790 1760 2790 1107 
C 2790 403 2368 96 1901 96 
C 1728 96 1069 134 781 506 
C 1030 531 1133 698 1133 870 
C 1133 1088 979 1235 768 1235 
C 595 1235 403 1126 403 858 
C 403 224 1107 -134 1920 -134 
C 2867 -134 3501 474 3501 1107 
z
" transform="scale(0.015625)"/>
       </defs>
       <use xlink:href="#LMRoman6-Regular-33"/>
       <use xlink:href="#LMRoman6-Regular-30" x="61.099991"/>
      </g>
     </g>
    </g>
    <g id="ytick_5">
     <g id="line2d_16">
      <g>
       <use xlink:href="#m3c6687aad9" x="58.110236" y="108.183418" style="stroke: #000000; stroke-width: 0.8"/>
      </g>
     </g>
     <g id="text_5">
      <!-- 40 -->
      <g transform="translate(40.113361 111.306699) scale(0.09 -0.09)">
       <defs>
        <path id="LMRoman6-Regular-34" d="M 3610 1050 
L 3610 1299 
L 2861 1299 
L 2861 4128 
C 2861 4275 2861 4320 2701 4320 
C 2586 4320 2573 4301 2515 4224 
L 294 1299 
L 294 1050 
L 2285 1050 
L 2285 538 
C 2285 326 2285 250 1747 250 
L 1562 250 
L 1562 0 
L 2573 26 
L 3584 0 
L 3584 250 
L 3398 250 
C 2861 250 2861 326 2861 538 
L 2861 1050 
L 3610 1050 
z
M 2330 1299 
L 570 1299 
L 2330 3622 
L 2330 1299 
z
" transform="scale(0.015625)"/>
       </defs>
       <use xlink:href="#LMRoman6-Regular-34"/>
       <use xlink:href="#LMRoman6-Regular-30" x="61.099991"/>
      </g>
     </g>
    </g>
    <g id="ytick_6">
     <g id="line2d_17">
      <g>
       <use xlink:href="#m3c6687aad9" x="58.110236" y="82.838351" style="stroke: #000000; stroke-width: 0.8"/>
      </g>
     </g>
     <g id="text_6">
      <!-- 50 -->
      <g transform="translate(40.113361 85.961632) scale(0.09 -0.09)">
       <defs>
        <path id="LMRoman6-Regular-35" d="M 3443 1286 
C 3443 2016 2854 2682 2029 2682 
C 1613 2682 1293 2547 1088 2374 
L 1088 3552 
C 1299 3494 1523 3469 1741 3469 
C 1882 3469 2240 3469 2643 3693 
C 2752 3757 3149 4019 3149 4154 
C 3149 4237 3085 4256 3059 4256 
C 3040 4256 3034 4256 2963 4230 
C 2733 4141 2406 4051 1990 4051 
C 1677 4051 1331 4109 1043 4218 
C 979 4243 954 4256 928 4256 
C 838 4256 838 4186 838 4083 
L 838 2163 
C 838 2054 838 1978 954 1978 
C 1011 1978 1030 2003 1075 2054 
C 1235 2259 1517 2477 2016 2477 
C 2803 2477 2803 1517 2803 1312 
C 2803 1062 2784 704 2573 442 
C 2374 198 2080 96 1805 96 
C 1363 96 922 339 768 710 
C 1082 717 1120 966 1120 1043 
C 1120 1216 986 1370 787 1370 
C 730 1370 461 1338 461 1018 
C 461 429 1018 -134 1824 -134 
C 2701 -134 3443 486 3443 1286 
z
" transform="scale(0.015625)"/>
       </defs>
       <use xlink:href="#LMRoman6-Regular-35"/>
       <use xlink:href="#LMRoman6-Regular-30" x="61.099991"/>
      </g>
     </g>
    </g>
    <g id="ytick_7">
     <g id="line2d_18">
      <g>
       <use xlink:href="#m3c6687aad9" x="58.110236" y="57.493284" style="stroke: #000000; stroke-width: 0.8"/>
      </g>
     </g>
     <g id="text_7">
      <!-- 60 -->
      <g transform="translate(40.113361 60.616565) scale(0.09 -0.09)">
       <defs>
        <path id="LMRoman6-Regular-36" d="M 3501 1306 
C 3501 1523 3475 1933 3085 2298 
C 2861 2502 2579 2726 2035 2726 
C 1587 2726 1261 2496 1043 2118 
C 1050 2438 1062 2970 1286 3366 
C 1568 3853 1990 4045 2374 4045 
C 2522 4045 2816 4019 2970 3840 
C 2733 3802 2694 3635 2694 3533 
C 2694 3366 2810 3226 3002 3226 
C 3194 3226 3315 3347 3315 3546 
C 3315 3936 3021 4256 2368 4256 
C 1376 4256 403 3392 403 2029 
C 403 474 1126 -134 1971 -134 
C 2221 -134 2656 -96 3046 282 
C 3251 486 3501 742 3501 1306 
z
M 2861 1306 
C 2861 864 2848 646 2630 390 
C 2477 198 2272 96 1965 96 
C 1062 96 1062 1197 1062 1446 
C 1062 1997 1427 2522 2003 2522 
C 2336 2522 2528 2387 2682 2182 
C 2861 1933 2861 1645 2861 1306 
z
" transform="scale(0.015625)"/>
       </defs>
       <use xlink:href="#LMRoman6-Regular-36"/>
       <use xlink:href="#LMRoman6-Regular-30" x="61.099991"/>
      </g>
     </g>
    </g>
    <g id="ytick_8">
     <g id="line2d_19">
      <g>
       <use xlink:href="#m3c6687aad9" x="58.110236" y="32.148217" style="stroke: #000000; stroke-width: 0.8"/>
      </g>
     </g>
     <g id="text_8">
      <!-- 70 -->
      <g transform="translate(40.113361 35.271498) scale(0.09 -0.09)">
       <defs>
        <path id="LMRoman6-Regular-37" d="M 3712 4122 
L 2061 4122 
C 1798 4122 1645 4128 1395 4147 
C 1082 4166 1005 4173 973 4326 
L 736 4326 
L 506 2925 
L 742 2925 
C 762 3059 826 3437 922 3507 
C 973 3546 1523 3546 1619 3546 
L 3066 3546 
L 2496 2861 
C 1875 2112 1440 1203 1440 230 
C 1440 173 1440 -134 1747 -134 
C 2061 -134 2061 160 2061 243 
L 2061 422 
C 2061 1651 2323 2278 2643 2662 
L 3654 3866 
C 3712 3930 3712 3942 3712 4122 
z
" transform="scale(0.015625)"/>
       </defs>
       <use xlink:href="#LMRoman6-Regular-37"/>
       <use xlink:href="#LMRoman6-Regular-30" x="61.099991"/>
      </g>
     </g>
    </g>
    <g id="ytick_9">
     <g id="line2d_20">
      <g>
       <use xlink:href="#m3c6687aad9" x="58.110236" y="6.80315" style="stroke: #000000; stroke-width: 0.8"/>
      </g>
     </g>
     <g id="text_9">
      <!-- 80 -->
      <g transform="translate(40.113361 9.926431) scale(0.09 -0.09)">
       <defs>
        <path id="LMRoman6-Regular-38" d="M 3501 1088 
C 3501 1530 3232 1792 3136 1888 
C 3014 2003 2694 2182 2464 2310 
C 2938 2522 3296 2835 3296 3296 
C 3296 3923 2624 4256 1958 4256 
C 1235 4256 608 3821 608 3174 
C 608 2778 870 2470 1139 2310 
L 1421 2150 
C 998 1990 403 1632 403 986 
C 403 237 1203 -134 1946 -134 
C 2797 -134 3501 378 3501 1088 
z
M 2938 3290 
C 2938 2797 2406 2534 2227 2445 
L 1306 2944 
C 1293 2950 966 3130 966 3424 
C 966 3840 1472 4045 1946 4045 
C 2445 4045 2938 3770 2938 3290 
z
M 3091 864 
C 3091 358 2502 96 1958 96 
C 1363 96 813 442 813 986 
C 813 1530 1325 1888 1677 2016 
L 2605 1504 
C 2739 1421 3091 1229 3091 864 
z
" transform="scale(0.015625)"/>
       </defs>
       <use xlink:href="#LMRoman6-Regular-38"/>
       <use xlink:href="#LMRoman6-Regular-30" x="61.099991"/>
      </g>
     </g>
    </g>
    <g id="text_10">
     <!-- Temperatur in °C -->
     <g transform="translate(34.366799 157.528435) rotate(-90) scale(0.09 -0.09)">
      <defs>
       <path id="LMRoman6-Regular-54" d="M 5203 2835 
L 5062 4326 
L 499 4326 
L 358 2835 
L 595 2835 
C 691 3994 941 4077 1907 4077 
C 2042 4077 2253 4077 2317 4070 
C 2464 4045 2464 3981 2464 3827 
L 2464 544 
C 2464 333 2464 250 1786 250 
L 1498 250 
L 1498 0 
C 1811 26 2445 26 2784 26 
C 3123 26 3757 26 4070 0 
L 4070 250 
L 3782 250 
C 3104 250 3104 333 3104 544 
L 3104 3827 
C 3104 3981 3104 4045 3245 4070 
C 3309 4077 3520 4077 3654 4077 
C 4627 4077 4870 3987 4966 2835 
L 5203 2835 
z
" transform="scale(0.015625)"/>
       <path id="LMRoman6-Regular-65" d="M 3194 768 
C 3194 800 3181 870 3072 870 
C 2989 870 2976 832 2950 755 
C 2758 282 2278 160 1984 160 
C 1632 160 1331 320 1152 550 
C 915 851 915 1274 915 1446 
L 3002 1446 
C 3142 1446 3194 1446 3194 1600 
C 3194 2093 2918 2854 1856 2854 
C 960 2854 307 2170 307 1402 
C 307 595 1043 -64 1946 -64 
C 2867 -64 3194 627 3194 768 
z
M 2726 1638 
L 928 1638 
C 998 2496 1587 2650 1850 2650 
C 2675 2650 2720 1824 2726 1638 
z
" transform="scale(0.015625)"/>
       <path id="LMRoman6-Regular-6d" d="M 6080 0 
L 6080 250 
C 5638 250 5574 250 5574 525 
L 5574 1933 
C 5574 2586 5190 2822 4563 2822 
C 3968 2822 3616 2483 3475 2240 
C 3328 2822 2675 2822 2496 2822 
C 1914 2822 1555 2502 1402 2234 
L 1395 2234 
L 1395 2822 
L 403 2752 
L 403 2502 
C 851 2502 909 2458 909 2144 
L 909 525 
C 909 250 845 250 403 250 
L 403 0 
C 448 6 883 26 1171 26 
C 1459 26 1882 6 1946 0 
L 1946 250 
C 1504 250 1440 250 1440 525 
L 1440 1651 
C 1440 2355 2048 2618 2438 2618 
C 2880 2618 2976 2342 2976 1946 
L 2976 525 
C 2976 250 2912 250 2470 250 
L 2470 0 
C 2515 6 2950 26 3238 26 
C 3526 26 3949 6 4013 0 
L 4013 250 
C 3571 250 3507 250 3507 525 
L 3507 1651 
C 3507 2355 4115 2618 4506 2618 
C 4947 2618 5043 2342 5043 1946 
L 5043 525 
C 5043 250 4979 250 4538 250 
L 4538 0 
C 4582 6 5018 26 5306 26 
C 5594 26 6016 6 6080 0 
z
" transform="scale(0.015625)"/>
       <path id="LMRoman6-Regular-70" d="M 3974 1382 
C 3974 2157 3302 2822 2419 2822 
C 1837 2822 1478 2534 1382 2445 
L 1382 2822 
L 371 2752 
L 371 2502 
C 806 2502 877 2502 877 2208 
L 877 -717 
C 877 -992 813 -992 371 -992 
L 371 -1242 
C 416 -1235 851 -1216 1139 -1216 
C 1427 -1216 1850 -1235 1914 -1242 
L 1914 -992 
C 1472 -992 1408 -992 1408 -717 
L 1408 307 
C 1670 58 1971 -64 2323 -64 
C 3213 -64 3974 570 3974 1382 
z
M 3366 1382 
C 3366 666 2854 141 2285 141 
C 1792 141 1504 493 1408 678 
L 1408 2118 
C 1626 2419 1978 2598 2355 2598 
C 2938 2598 3366 2035 3366 1382 
z
" transform="scale(0.015625)"/>
       <path id="LMRoman6-Regular-72" d="M 2778 2400 
C 2778 2656 2534 2822 2253 2822 
C 1869 2822 1542 2592 1344 2163 
L 1338 2163 
L 1338 2822 
L 371 2752 
L 371 2502 
C 819 2502 877 2458 877 2144 
L 877 525 
C 877 250 813 250 371 250 
L 371 0 
C 531 13 1005 26 1146 26 
C 1478 26 1920 6 2010 0 
L 2010 250 
L 1869 250 
C 1389 250 1382 314 1382 531 
L 1382 1434 
C 1382 2029 1690 2605 2259 2618 
C 2202 2560 2176 2483 2176 2400 
C 2176 2227 2304 2099 2477 2099 
C 2650 2099 2778 2227 2778 2400 
z
" transform="scale(0.015625)"/>
       <path id="LMRoman6-Regular-61" d="M 3712 576 
L 3712 928 
L 3475 928 
L 3475 589 
C 3475 525 3475 237 3226 237 
C 2976 237 2976 525 2976 589 
L 2976 1907 
C 2976 2502 2368 2854 1651 2854 
C 1344 2854 589 2822 589 2285 
C 589 2112 704 1971 902 1971 
C 1088 1971 1210 2112 1210 2278 
C 1210 2394 1158 2502 1043 2554 
C 1254 2650 1574 2650 1638 2650 
C 2093 2650 2445 2381 2445 1894 
L 2445 1728 
C 2150 1715 1638 1702 1171 1536 
C 749 1389 346 1101 346 672 
C 346 102 1024 -64 1523 -64 
C 2061 -64 2381 205 2522 448 
C 2566 115 2778 -32 3002 -32 
C 3027 -32 3712 -32 3712 576 
z
M 2445 909 
C 2445 243 1786 141 1581 141 
C 1235 141 909 352 909 672 
C 909 1030 1254 1498 2445 1536 
L 2445 909 
z
" transform="scale(0.015625)"/>
       <path id="LMRoman6-Regular-74" d="M 2566 806 
L 2566 1158 
L 2330 1158 
L 2330 819 
C 2330 365 2093 160 1856 160 
C 1395 160 1395 678 1395 800 
L 1395 2509 
L 2445 2509 
L 2445 2758 
L 1395 2758 
L 1395 3936 
L 1158 3936 
C 1152 3366 877 2739 230 2714 
L 230 2509 
L 864 2509 
L 864 800 
C 864 128 1370 -64 1805 -64 
C 2246 -64 2566 288 2566 806 
z
" transform="scale(0.015625)"/>
       <path id="LMRoman6-Regular-75" d="M 4006 0 
L 4006 250 
C 3558 250 3501 294 3501 608 
L 3501 2822 
L 2464 2752 
L 2464 2502 
C 2912 2502 2970 2458 2970 2144 
L 2970 1075 
C 2970 493 2566 141 2074 141 
C 1466 141 1440 410 1440 723 
L 1440 2822 
L 403 2752 
L 403 2502 
C 909 2502 909 2445 909 2067 
L 909 1069 
C 909 634 909 352 1197 141 
C 1440 -38 1760 -64 2029 -64 
C 2432 -64 2771 96 2995 461 
L 2995 -64 
L 4006 0 
z
" transform="scale(0.015625)"/>
       <path id="LMRoman6-Regular-20" transform="scale(0.015625)"/>
       <path id="LMRoman6-Regular-69" d="M 1875 0 
L 1875 250 
C 1478 250 1421 250 1421 518 
L 1421 2822 
L 435 2752 
L 435 2502 
C 858 2502 915 2458 915 2144 
L 915 525 
C 915 250 851 250 410 250 
L 410 0 
L 1158 26 
C 1222 26 1709 13 1875 0 
z
M 1510 3846 
C 1510 4051 1344 4230 1126 4230 
C 890 4230 736 4032 736 3846 
C 736 3642 902 3462 1120 3462 
C 1357 3462 1510 3661 1510 3846 
z
" transform="scale(0.015625)"/>
       <path id="LMRoman6-Regular-6e" d="M 4006 0 
L 4006 250 
C 3565 250 3501 250 3501 525 
L 3501 1933 
C 3501 2560 3142 2822 2496 2822 
C 1933 2822 1581 2528 1395 2221 
L 1395 2822 
L 403 2752 
L 403 2502 
C 851 2502 909 2458 909 2144 
L 909 525 
C 909 250 845 250 403 250 
L 403 0 
C 448 6 883 26 1171 26 
C 1459 26 1882 6 1946 0 
L 1946 250 
C 1504 250 1440 250 1440 525 
L 1440 1651 
C 1440 2355 2042 2618 2438 2618 
C 2867 2618 2970 2349 2970 1952 
L 2970 525 
C 2970 250 2906 250 2464 250 
L 2464 0 
C 2509 6 2944 26 3232 26 
C 3520 26 3942 6 4006 0 
z
" transform="scale(0.015625)"/>
       <path id="LMRoman6-Regular-b0" d="M 2502 3334 
C 2502 3910 2042 4371 1466 4371 
C 896 4371 429 3910 429 3334 
C 429 2765 896 2298 1466 2298 
C 2042 2298 2502 2765 2502 3334 
z
M 2170 3334 
C 2170 2950 1856 2630 1466 2630 
C 1075 2630 762 2950 762 3334 
C 762 3725 1075 4038 1466 4038 
C 1856 4038 2170 3725 2170 3334 
z
" transform="scale(0.015625)"/>
       <path id="LMRoman6-Regular-43" d="M 5056 1498 
C 5056 1568 5050 1632 4934 1632 
C 4832 1632 4826 1581 4819 1523 
C 4768 544 3878 115 3174 115 
C 2406 115 1216 570 1216 2189 
C 1216 3776 2374 4256 3168 4256 
C 3891 4256 4640 3763 4800 2784 
C 4813 2701 4819 2656 4928 2656 
C 5056 2656 5056 2707 5056 2835 
L 5056 4326 
C 5056 4435 5056 4506 4954 4506 
C 4896 4506 4883 4480 4838 4422 
L 4486 3936 
C 4115 4307 3610 4506 3085 4506 
C 1664 4506 506 3456 506 2189 
C 506 902 1664 -134 3091 -134 
C 4262 -134 5056 685 5056 1498 
z
" transform="scale(0.015625)"/>
      </defs>
      <use xlink:href="#LMRoman6-Regular-54"/>
      <use xlink:href="#LMRoman6-Regular-65" x="86.999985"/>
      <use xlink:href="#LMRoman6-Regular-6d" x="141.599976"/>
      <use xlink:href="#LMRoman6-Regular-70" x="241.59996"/>
      <use xlink:href="#LMRoman6-Regular-65" x="309.199951"/>
      <use xlink:href="#LMRoman6-Regular-72" x="363.799942"/>
      <use xlink:href="#LMRoman6-Regular-61" x="411.899933"/>
      <use xlink:href="#LMRoman6-Regular-74" x="472.999924"/>
      <use xlink:href="#LMRoman6-Regular-75" x="521.099915"/>
      <use xlink:href="#LMRoman6-Regular-72" x="588.699905"/>
      <use xlink:href="#LMRoman6-Regular-20" x="636.799896"/>
      <use xlink:href="#LMRoman6-Regular-69" x="678.499893"/>
      <use xlink:href="#LMRoman6-Regular-6e" x="713.69989"/>
      <use xlink:href="#LMRoman6-Regular-20" x="781.299881"/>
      <use xlink:href="#LMRoman6-Regular-b0" x="822.999878"/>
      <use xlink:href="#LMRoman6-Regular-43" x="868.799866"/>
     </g>
    </g>
   </g>
   <g id="line2d_21">
    <path d="M 58.110236 32.629779 
L 59.756693 32.65513 
L 60.744567 32.65513 
L 62.391024 32.680461 
L 69.964724 32.756493 
L 70.623307 32.781843 
L 76.550551 32.883226 
L 77.867717 32.883226 
L 86.758583 32.984609 
L 87.746457 33.03529 
L 88.405039 33.03529 
L 89.722205 33.111342 
L 90.380787 33.466171 
L 91.03937 33.897033 
L 92.356535 35.189636 
L 94.990866 38.307069 
L 95.320157 38.788631 
L 96.308031 41.348489 
L 97.295906 45.783875 
L 99.930236 59.977099 
L 100.588819 61.90333 
L 101.247402 63.018509 
L 101.905984 63.398689 
L 102.235276 63.246615 
L 102.564567 62.866445 
L 103.22315 61.295044 
L 104.540315 57.594667 
L 105.198898 56.631551 
L 105.85748 56.352764 
L 106.186772 56.403445 
L 107.174646 57.138455 
L 107.833228 57.873464 
L 109.150394 59.62227 
L 110.138268 60.407971 
L 111.455433 61.295044 
L 112.772598 61.979362 
L 113.431181 62.156777 
L 114.089764 62.359542 
L 115.406929 62.562297 
L 117.053386 62.714371 
L 119.358425 62.815754 
L 120.017008 62.815754 
L 122.322047 62.714371 
L 123.309921 62.562297 
L 123.968504 62.359542 
L 124.627087 61.979362 
L 125.614961 60.838832 
L 128.578583 57.062422 
L 129.566457 56.251381 
L 131.871496 55.08551 
L 135.164409 53.716874 
L 136.152283 53.18463 
L 137.79874 51.841335 
L 140.762362 48.774584 
L 141.750236 47.760778 
L 142.408819 46.823013 
L 144.384567 43.426783 
L 145.372441 42.489009 
L 146.031024 42.134179 
L 147.018898 41.754 
L 148.006772 41.525903 
L 152.946142 40.841576 
L 154.592598 40.740193 
L 160.519843 40.385364 
L 162.166299 40.309331 
L 163.154173 40.25865 
L 173.032913 39.574322 
L 174.350079 39.574322 
L 176.655118 39.675705 
L 179.61874 39.827769 
L 180.277323 39.827769 
L 183.570236 39.979853 
L 185.875276 40.081235 
L 188.509606 40.182598 
L 192.461102 40.25865 
L 193.448976 40.309331 
L 196.083307 40.385364 
L 197.071181 40.436065 
L 198.388346 40.512097 
L 200.034803 40.689511 
L 203.327717 40.790894 
L 207.279213 41.095022 
L 207.937795 41.39917 
L 208.596378 41.551234 
L 209.254961 41.880733 
L 210.242835 42.717105 
L 210.572126 42.995902 
L 211.230709 44.035059 
L 211.889291 45.048866 
L 212.877165 46.341451 
L 213.865039 48.369064 
L 214.523622 49.458902 
L 214.852913 49.839072 
L 215.840787 51.613229 
L 216.828661 53.057897 
L 218.475118 54.958777 
L 219.792283 55.871201 
L 220.450866 56.276722 
L 221.109449 56.479487 
L 222.426614 56.656902 
L 223.085197 56.732934 
L 224.402362 56.631551 
L 224.731654 56.60621 
L 225.390236 56.403445 
L 239.549764 54.29981 
L 240.208346 54.223778 
L 244.159843 53.716874 
L 248.769921 53.260662 
L 250.416378 52.981865 
L 251.733543 52.855142 
L 252.721417 52.77911 
L 255.685039 52.42427 
L 257.331496 52.322898 
L 257.990079 52.196165 
L 258.648661 52.145483 
L 259.307244 52.069441 
L 262.270866 51.739953 
L 262.929449 51.66392 
L 263.917323 51.613229 
L 264.905197 51.486506 
L 266.880945 51.410474 
L 267.868819 51.334432 
L 270.832441 51.233059 
L 273.796063 51.106326 
L 275.771811 51.004953 
L 281.040472 50.700805 
L 282.357638 50.624773 
L 283.345512 50.574082 
L 285.650551 50.49805 
L 289.602047 50.396667 
L 290.589921 50.320635 
L 294.870709 50.219252 
L 295.529291 50.219252 
L 296.517165 50.168561 
L 297.175748 50.092529 
L 300.797953 49.991146 
L 303.432283 49.889764 
L 307.054488 49.788391 
L 308.042362 49.712349 
L 311.335276 49.610976 
L 313.640315 49.534934 
L 315.945354 49.458902 
L 317.26252 49.332179 
L 319.238268 49.256137 
L 320.226142 49.180105 
L 322.531181 49.104073 
L 323.519055 49.028031 
L 334.385669 48.977349 
L 334.714961 48.369064 
L 353.813858 48.267681 
L 355.131024 48.014234 
L 356.77748 48.090266 
L 359.741102 48.723893 
L 360.728976 48.774584 
L 361.387559 48.850616 
L 363.363307 48.901308 
L 364.02189 49.00269 
L 364.680472 48.901308 
L 365.339055 48.977349 
L 365.668346 48.901308 
L 366.326929 48.977349 
L 387.401575 48.901308 
L 388.389449 48.850616 
L 390.035906 48.774584 
L 391.353071 48.470446 
L 392.670236 47.912852 
L 393.65811 47.051129 
L 395.96315 45.048866 
L 396.951024 44.694037 
L 400.243937 44.288506 
L 403.53685 44.187124 
L 405.183307 44.161773 
L 407.817638 44.06041 
L 409.134803 44.035059 
L 409.464094 44.111092 
L 410.122677 44.06041 
L 411.110551 44.111092 
L 422.965039 44.161773 
L 423.294331 44.263156 
L 423.952913 44.972834 
L 425.928661 47.279225 
L 426.587244 47.659405 
L 426.916535 47.887511 
L 427.575118 48.064926 
L 428.562992 48.293032 
L 433.173071 48.59717 
L 433.831654 48.59717 
L 449.966929 48.495787 
L 451.284094 48.191649 
L 451.942677 47.938192 
L 453.259843 47.228543 
L 453.259843 47.228543 
" clip-path="url(#pa5fc1eb2b2)" style="fill: none; stroke: #000000; stroke-width: 0.9; stroke-linecap: square"/>
   </g>
   <g id="line2d_22">
    <path d="M 58.110236 41.310463 
L 58.768819 41.209085 
L 59.427402 41.145719 
L 60.415276 41.411841 
L 61.073858 41.411841 
L 62.061732 41.20908 
L 63.049606 41.411841 
L 66.671811 41.348479 
L 67.659685 41.57659 
L 69.964724 41.373829 
L 70.952598 41.500548 
L 71.611181 41.487873 
L 73.257638 41.449857 
L 74.245512 41.487877 
L 75.891969 41.614601 
L 78.197008 41.500553 
L 79.514173 41.627276 
L 80.502047 41.576585 
L 84.453543 41.665297 
L 85.770709 41.677967 
L 86.758583 41.665292 
L 88.075748 41.715983 
L 89.722205 41.779345 
L 91.368661 41.690638 
L 93.015118 41.741329 
L 93.673701 41.779345 
L 94.990866 41.855382 
L 95.649449 41.792016 
L 96.308031 41.804696 
L 100.259528 41.994776 
L 100.588819 40.892267 
L 100.91811 42.52703 
L 101.247402 41.994781 
L 101.576693 41.817366 
L 101.905984 41.373825 
L 102.235276 41.918749 
L 102.893858 41.437191 
L 103.22315 42.210216 
L 103.552441 42.184866 
L 103.881732 42.324265 
L 104.211024 42.121504 
L 104.540315 42.476338 
L 104.869606 42.349615 
L 105.198898 42.590391 
L 105.528189 42.146845 
L 106.186772 42.438318 
L 106.845354 42.134179 
L 107.174646 42.590391 
L 107.833228 42.489004 
L 108.16252 42.273573 
L 108.491811 42.691764 
L 109.479685 42.869184 
L 109.808976 42.70444 
L 110.138268 43.262034 
L 110.79685 41.855382 
L 111.126142 42.311594 
L 111.455433 43.198672 
L 111.784724 43.021258 
L 112.114016 42.476329 
L 112.443307 42.400301 
L 112.772598 43.401433 
L 113.431181 42.096154 
L 113.760472 42.083483 
L 114.089764 42.273578 
L 114.419055 42.298919 
L 114.748346 42.742456 
L 115.077638 42.957891 
L 115.406929 42.729785 
L 115.73622 42.780477 
L 116.394803 43.224013 
L 116.724094 43.312725 
L 117.382677 43.959023 
L 117.711969 44.275836 
L 118.04126 44.402559 
L 118.699843 44.187133 
L 119.358425 44.681352 
L 120.017008 44.719377 
L 120.675591 44.858776 
L 121.992756 45.086877 
L 122.651339 45.416366 
L 123.639213 45.441711 
L 123.968504 45.619121 
L 124.956378 45.75852 
L 126.273543 46.15137 
L 126.602835 46.240082 
L 126.932126 46.5062 
L 128.907874 46.645598 
L 129.566457 46.772322 
L 129.895748 46.899045 
L 131.212913 46.835683 
L 134.176535 46.88638 
L 134.505827 46.962412 
L 135.822992 46.911725 
L 142.73811 47.089135 
L 145.701732 47.07646 
L 146.360315 47.190518 
L 150.311811 47.127156 
L 151.958268 47.165167 
L 155.251181 47.139821 
L 169.74 47.203188 
L 170.398583 47.241214 
L 171.386457 46.949736 
L 171.715748 46.873704 
L 172.045039 46.91172 
L 172.703622 46.69629 
L 174.67937 46.442843 
L 176.984409 46.265418 
L 182.911654 46.126025 
L 184.228819 46.075333 
L 193.119685 45.669813 
L 193.778268 45.55576 
L 194.766142 45.517744 
L 196.083307 45.314983 
L 197.071181 45.124898 
L 197.729764 44.934813 
L 201.351969 44.301177 
L 204.315591 43.591518 
L 204.974173 43.502811 
L 208.925669 42.374951 
L 209.584252 42.197536 
L 212.877165 41.285122 
L 213.535748 41.120373 
L 215.840787 40.613479 
L 224.402362 40.030544 
L 226.048819 40.06855 
L 227.695276 39.979853 
L 233.293228 39.460274 
L 243.171969 38.028272 
L 244.489134 37.939574 
L 245.147717 37.876207 
L 245.806299 37.800175 
L 251.404252 37.458011 
L 253.709291 37.483352 
L 254.038583 37.432661 
L 254.697165 37.534044 
L 255.685039 37.496027 
L 256.343622 37.559394 
L 257.990079 37.521378 
L 259.965827 37.572069 
L 260.295118 37.496037 
L 260.953701 37.572069 
L 271.491024 37.242581 
L 272.149606 37.204565 
L 272.808189 37.191889 
L 274.125354 37.153873 
L 276.430394 37.077832 
L 277.418268 37.014475 
L 278.07685 37.001799 
L 279.064724 36.963783 
L 279.394016 36.900417 
L 280.38189 36.963783 
L 281.699055 36.862401 
L 289.931339 36.621629 
L 290.589921 36.634295 
L 291.577795 36.558263 
L 292.236378 36.558263 
L 293.224252 36.520247 
L 295.529291 36.45688 
L 296.846457 36.355507 
L 299.151496 36.279465 
L 300.13937 36.2668 
L 306.066614 35.937311 
L 307.054488 35.924636 
L 315.286772 35.379717 
L 316.933228 35.341701 
L 319.89685 35.176952 
L 320.555433 35.176952 
L 321.543307 35.113595 
L 322.531181 35.088244 
L 322.860472 35.024878 
L 323.519055 35.050238 
L 324.177638 35.037553 
L 327.14126 35.024887 
L 334.385669 35.024887 
L 334.714961 34.720749 
L 346.89874 34.809457 
L 349.20378 34.898164 
L 349.862362 34.847463 
L 353.484567 34.898154 
L 355.789606 34.910829 
L 356.77748 34.948846 
L 357.436063 34.974196 
L 367.644094 35.024887 
L 368.302677 35.88662 
L 368.631969 35.937311 
L 369.290551 36.380848 
L 369.619843 36.24144 
L 369.949134 36.24144 
L 370.278425 36.089385 
L 371.266299 36.216099 
L 372.254173 36.342832 
L 372.583465 36.558263 
L 372.912756 36.570938 
L 373.571339 36.83705 
L 375.217795 36.938433 
L 375.547087 36.875076 
L 376.205669 36.925767 
L 376.534961 36.900417 
L 377.522835 37.090507 
L 378.181417 37.039816 
L 379.498583 37.039816 
L 384.767244 37.103182 
L 385.096535 37.458011 
L 385.755118 37.103182 
L 387.730866 37.305938 
L 388.060157 37.419995 
L 388.71874 37.255256 
L 389.048031 37.534053 
L 390.694488 37.369304 
L 391.353071 37.496037 
L 393.328819 37.496027 
L 393.65811 37.610076 
L 393.987402 37.546719 
L 395.304567 37.698793 
L 400.573228 37.800166 
L 405.512598 37.876207 
L 406.500472 37.914223 
L 407.488346 37.914223 
L 408.146929 38.078963 
L 408.47622 38.015606 
L 409.134803 38.243712 
L 409.793386 38.154995 
L 415.062047 38.256387 
L 416.708504 38.281728 
L 418.354961 38.370435 
L 419.342835 38.383111 
L 424.940787 38.484493 
L 426.257953 38.484484 
L 429.550866 38.522509 
L 430.53874 38.560525 
L 433.831654 38.71259 
L 434.490236 38.750615 
L 435.807402 38.877339 
L 436.465984 38.775956 
L 438.441732 38.851998 
L 439.758898 38.864663 
L 440.746772 38.890004 
L 441.076063 38.851998 
L 441.734646 38.953371 
L 442.393228 38.940696 
L 444.368976 38.915355 
L 447.332598 39.016737 
L 447.66189 39.168802 
L 447.991181 39.168802 
L 448.320472 39.409583 
L 448.979055 39.257509 
L 449.966929 39.282859 
L 451.284094 39.282859 
L 451.613386 39.346226 
L 452.271969 39.30821 
L 452.60126 39.396908 
L 453.259843 39.371567 
L 453.259843 39.371567 
" clip-path="url(#pa5fc1eb2b2)" style="fill: none; stroke-dasharray: 3.33,1.44; stroke-dashoffset: 0; stroke: #000000; stroke-width: 0.9"/>
   </g>
   <g id="line2d_23">
    <path d="M 58.110236 111.655699 
L 59.09811 111.376902 
L 60.744567 111.199487 
L 62.061732 111.30086 
L 65.025354 111.655699 
L 66.34252 111.554317 
L 67.330394 111.554317 
L 68.97685 111.605008 
L 70.294016 111.605008 
L 71.940472 111.630349 
L 73.257638 111.630349 
L 89.392913 111.68104 
L 90.051496 110.717925 
L 90.710079 109.805501 
L 91.697953 108.99446 
L 92.685827 108.411524 
L 93.015118 108.284801 
L 93.344409 107.929971 
L 94.002992 106.890824 
L 94.332283 106.561335 
L 95.320157 104.964594 
L 97.295906 102.860958 
L 98.28378 102.354055 
L 99.271654 102.303363 
L 101.576693 102.708884 
L 101.905984 102.911649 
L 102.235276 103.29182 
L 103.552441 105.648912 
L 104.211024 106.916165 
L 105.85748 109.222566 
L 107.503937 110.844648 
L 108.16252 111.30086 
L 109.479685 111.807764 
L 110.138268 111.934487 
L 110.79685 111.959838 
L 111.455433 111.858455 
L 112.443307 111.706381 
L 113.10189 111.250169 
L 113.760472 110.54051 
L 116.394803 105.344773 
L 118.370551 102.835608 
L 119.029134 102.455437 
L 120.017008 102.252672 
L 121.004882 102.125949 
L 122.322047 102.227331 
L 124.627087 102.480778 
L 128.249291 103.241128 
L 133.188661 103.519926 
L 156.568346 103.595967 
L 157.226929 103.595967 
L 158.873386 103.621308 
L 160.190551 103.570617 
L 160.849134 104.153552 
L 161.507717 105.319433 
L 162.824882 108.107386 
L 164.80063 112.542773 
L 165.788504 113.480538 
L 167.105669 114.291579 
L 168.752126 114.950556 
L 169.74 115.127971 
L 170.398583 115.127971 
L 171.057165 114.975897 
L 171.715748 114.823823 
L 172.703622 114.570376 
L 174.350079 114.114164 
L 176.655118 114.190206 
L 178.301575 113.708644 
L 182.582362 111.959838 
L 183.570236 111.605008 
L 186.533858 110.54051 
L 187.521732 110.236372 
L 188.838898 109.704128 
L 190.156063 109.197225 
L 193.119685 107.955312 
L 194.43685 107.321686 
L 197.729764 106.231847 
L 198.717638 105.877018 
L 199.705512 105.547529 
L 202.669134 104.432349 
L 203.986299 104.432349 
L 206.291339 104.863221 
L 210.572126 105.420806 
L 217.487244 105.851677 
L 218.145827 105.877018 
L 218.804409 105.9784 
L 220.121575 106.181156 
L 221.109449 106.257197 
L 223.414488 106.155815 
L 224.402362 106.105124 
L 227.365984 105.9784 
L 229.671024 105.877018 
L 238.891181 105.268741 
L 240.866929 105.1927 
L 243.171969 104.913902 
L 244.818425 104.939253 
L 248.44063 105.015285 
L 249.428504 105.065976 
L 250.416378 105.040635 
L 252.392126 105.091327 
L 253.38 105.243391 
L 260.624409 105.750294 
L 261.612283 105.699603 
L 267.210236 105.800985 
L 268.19811 105.851677 
L 277.747559 105.927709 
L 278.406142 105.927709 
L 281.699055 105.851677 
L 284.004094 105.572879 
L 305.408031 105.496847 
L 306.395906 105.395465 
L 308.042362 105.446156 
L 308.700945 105.446156 
L 310.347402 105.420806 
L 322.20189 105.319433 
L 324.177638 105.091327 
L 334.385669 105.091327 
L 334.714961 105.268741 
L 339.654331 105.1927 
L 341.630079 104.635115 
L 343.605827 103.519926 
L 345.910866 102.354055 
L 347.228031 101.720428 
L 350.191654 100.478516 
L 354.472441 98.602986 
L 356.77748 97.969359 
L 357.765354 97.665221 
L 359.08252 97.361073 
L 360.399685 96.879521 
L 361.058268 96.600723 
L 361.71685 96.347277 
L 363.363307 95.33347 
L 365.339055 94.243631 
L 369.949134 91.810507 
L 372.583465 90.898083 
L 374.559213 90.239116 
L 375.217795 90.061701 
L 378.181417 90.239116 
L 379.827874 90.087042 
L 380.486457 90.087042 
L 382.132913 90.441871 
L 384.437953 91.481019 
L 385.755118 91.582401 
L 386.742992 91.506369 
L 387.730866 91.278263 
L 389.048031 90.974125 
L 392.340945 90.137733 
L 393.328819 89.858936 
L 397.609606 88.794448 
L 398.268189 88.591682 
L 399.256063 88.338236 
L 407.159055 85.981144 
L 409.134803 85.575623 
L 421.977165 82.711628 
L 422.635748 82.81301 
L 424.282205 83.218531 
L 424.611496 83.725434 
L 425.270079 86.133208 
L 425.928661 88.718406 
L 426.587244 90.898083 
L 427.245827 93.787419 
L 427.904409 98.020051 
L 428.233701 98.907124 
L 428.562992 99.312645 
L 428.892283 99.490059 
L 429.221575 99.540751 
L 430.53874 100.478516 
L 431.526614 101.137493 
L 432.84378 101.745769 
L 433.831654 102.075257 
L 435.148819 102.201981 
L 436.465984 101.847151 
L 437.453858 101.390939 
L 439.758898 100.579898 
L 441.076063 100.149037 
L 442.72252 99.794207 
L 445.35685 98.881783 
L 446.344724 98.628327 
L 448.649764 98.020051 
L 449.308346 97.842636 
L 453.259843 96.702106 
L 453.259843 96.702106 
" clip-path="url(#pa5fc1eb2b2)" style="fill: none; stroke-dasharray: 5.76,1.44,0.9,1.44; stroke-dashoffset: 0; stroke: #000000; stroke-width: 0.9"/>
   </g>
   <g id="line2d_24">
    <path d="M 58.110236 148.355351 
L 60.085984 148.368023 
L 61.40315 148.114572 
L 62.391024 148.15259 
L 62.720315 148.114572 
L 63.378898 148.330005 
L 64.03748 148.291989 
L 64.366772 148.076553 
L 65.354646 147.94983 
L 68.97685 147.873793 
L 69.635433 147.823104 
L 70.294016 147.94983 
L 71.611181 148.05121 
L 71.940472 148.089229 
L 73.257638 147.886468 
L 74.574803 147.886468 
L 75.891969 147.84845 
L 76.22126 147.772413 
L 76.879843 147.975176 
L 78.855591 147.924484 
L 79.514173 147.873795 
L 80.172756 147.924484 
L 121.663465 147.873795 
L 122.322047 147.823104 
L 123.309921 147.810434 
L 124.297795 147.861123 
L 129.566457 147.74707 
L 130.225039 147.734397 
L 132.85937 147.74707 
L 133.517953 147.734397 
L 134.176535 147.772413 
L 134.835118 147.696381 
L 135.493701 147.759742 
L 176.984409 147.785088 
L 177.313701 147.873795 
L 177.972283 147.797759 
L 178.630866 147.797759 
L 179.289449 147.810431 
L 181.265197 147.823104 
L 183.899528 147.886468 
L 184.55811 147.861123 
L 200.034803 147.772413 
L 201.351969 147.683706 
L 204.974173 147.734397 
L 205.962047 147.696378 
L 210.572126 147.607671 
L 211.230709 147.594998 
L 211.56 147.645689 
L 212.218583 147.582328 
L 217.487244 147.506291 
L 218.145827 147.506291 
L 220.121575 147.430256 
L 220.450866 147.480945 
L 220.780157 147.379567 
L 221.43874 147.39224 
L 222.426614 147.366895 
L 223.085197 147.366895 
L 224.731654 147.290858 
L 225.719528 147.354222 
L 226.707402 147.265512 
L 227.036693 147.328876 
L 227.695276 147.278185 
L 229.341732 147.240166 
L 235.927559 147.062752 
L 236.586142 147.088097 
L 238.232598 146.923353 
L 238.891181 147.062752 
L 239.879055 146.936026 
L 240.208346 146.974044 
L 240.866929 146.91068 
L 245.477008 146.79663 
L 245.806299 146.859991 
L 247.123465 146.758611 
L 249.757795 146.682577 
L 250.745669 146.657233 
L 251.074961 146.720593 
L 252.062835 146.619215 
L 253.38 146.606542 
L 253.709291 146.530505 
L 254.367874 146.555851 
L 256.672913 146.454471 
L 257.002205 146.492489 
L 257.660787 146.365763 
L 257.990079 146.454471 
L 258.977953 146.378436 
L 259.307244 146.505162 
L 259.636535 146.429125 
L 259.965827 146.479816 
L 260.624409 146.429127 
L 262.600157 146.365763 
L 263.917323 146.302399 
L 264.246614 146.226365 
L 264.575906 146.327745 
L 267.539528 146.188349 
L 270.173858 146.213694 
L 271.491024 146.086968 
L 271.820315 146.201021 
L 273.466772 146.124984 
L 274.125354 146.15033 
L 275.113228 146.074293 
L 275.771811 146.124984 
L 276.101102 146.010934 
L 277.747559 146.036277 
L 280.052598 145.884208 
L 280.711181 145.94757 
L 281.369764 145.960243 
L 281.699055 145.871535 
L 282.357638 145.972915 
L 285.979843 145.871535 
L 286.309134 145.694118 
L 287.297008 145.770155 
L 292.565669 145.706791 
L 292.894961 145.618084 
L 293.224252 145.6561 
L 293.882835 145.554722 
L 295.2 145.605413 
L 296.846457 145.605411 
L 299.151496 145.440669 
L 300.13937 145.567395 
L 300.468661 145.364632 
L 300.797953 145.453339 
L 301.456535 145.415323 
L 301.785827 145.466012 
L 302.115118 145.40265 
L 302.444409 145.491358 
L 303.761575 145.40265 
L 304.420157 145.38998 
L 308.371654 145.326616 
L 309.030236 145.263252 
L 309.688819 145.275925 
L 310.01811 145.174544 
L 311.005984 145.30127 
L 311.664567 145.237906 
L 312.32315 145.250579 
L 312.981732 145.149201 
L 313.969606 145.237906 
L 314.298898 145.085837 
L 314.628189 145.19989 
L 314.95748 145.123856 
L 315.286772 145.174544 
L 315.616063 145.111183 
L 315.945354 145.174547 
L 317.26252 145.073167 
L 317.921102 145.09851 
L 318.579685 145.009803 
L 321.214016 145.022473 
L 322.20189 144.959114 
L 323.848346 144.946441 
L 325.165512 144.845058 
L 334.385669 144.845058 
L 334.714961 144.616952 
L 335.702835 144.667644 
L 336.361417 144.654971 
L 337.02 144.566263 
L 340.312913 144.591609 
L 342.288661 144.528245 
L 343.605827 144.591609 
L 344.264409 144.490229 
L 344.593701 144.553591 
L 345.252283 144.490229 
L 346.240157 144.515572 
L 346.89874 144.45221 
L 348.215906 144.502902 
L 352.496693 144.401522 
L 354.801732 144.388846 
L 355.789606 144.401522 
L 356.77748 144.388846 
L 377.852126 144.312814 
L 378.510709 144.110054 
L 379.498583 144.300141 
L 380.157165 144.198761 
L 380.486457 144.287469 
L 380.815748 144.097381 
L 381.803622 144.14807 
L 382.132913 144.021347 
L 382.462205 144.084706 
L 382.791496 143.957982 
L 383.450079 144.097379 
L 384.108661 143.907291 
L 384.437953 143.983326 
L 385.425827 143.957982 
L 386.413701 143.919964 
L 387.072283 143.818584 
L 387.730866 143.831257 
L 388.389449 143.907291 
L 388.71874 143.729876 
L 390.365197 143.793241 
L 391.02378 143.653839 
L 391.682362 143.653839 
L 393.328819 143.679185 
L 393.65811 143.539789 
L 393.987402 143.603151 
L 394.645984 143.565135 
L 395.96315 143.691858 
L 396.621732 143.653839 
L 397.609606 143.539789 
L 397.938898 143.666515 
L 399.256063 143.552462 
L 402.878268 143.476425 
L 403.53685 143.387717 
L 404.195433 143.59048 
L 404.524724 143.50177 
L 404.854016 143.539789 
L 405.183307 143.451079 
L 405.512598 143.4891 
L 406.171181 143.362374 
L 408.47622 143.375045 
L 408.805512 143.29901 
L 409.134803 143.413063 
L 411.439843 143.337029 
L 411.769134 143.172284 
L 412.757008 143.311683 
L 413.415591 143.222976 
L 414.732756 143.134266 
L 415.062047 143.273667 
L 415.391339 143.210303 
L 416.049921 143.260992 
L 417.696378 143.159611 
L 418.684252 143.248321 
L 419.342835 143.19763 
L 419.672126 143.134266 
L 420.001417 143.210303 
L 421.647874 143.007542 
L 422.635748 143.058231 
L 423.294331 143.058231 
L 424.611496 143.032886 
L 424.940787 143.070904 
L 425.59937 142.931505 
L 426.257953 142.956851 
L 427.575118 142.944181 
L 428.892283 142.842798 
L 429.550866 142.817455 
L 429.880157 142.576676 
L 430.53874 142.880817 
L 430.868031 142.766764 
L 431.526614 142.855471 
L 432.514488 142.665383 
L 432.84378 142.690729 
L 433.173071 142.842798 
L 435.807402 142.766764 
L 436.465984 142.728745 
L 437.78315 142.728747 
L 440.088189 142.525987 
L 440.41748 142.640038 
L 440.746772 142.576676 
L 441.405354 142.64004 
L 442.72252 142.53866 
L 443.051811 142.335897 
L 444.039685 142.487969 
L 446.344724 142.487966 
L 447.003307 142.475296 
L 447.66189 142.259863 
L 447.991181 142.272536 
L 448.649764 142.564003 
L 449.308346 142.424607 
L 449.637638 142.525987 
L 450.29622 142.399259 
L 450.625512 142.44995 
L 451.284094 142.234517 
L 451.613386 142.297881 
L 452.60126 142.209174 
L 453.259843 142.297879 
L 453.259843 142.297879 
" clip-path="url(#pa5fc1eb2b2)" style="fill: none; stroke-dasharray: 0.9,1.485; stroke-dashoffset: 0; stroke: #000000; stroke-width: 0.9"/>
   </g>
   <g id="line2d_25">
    <path d="M 58.110236 162.649967 
L 60.744567 162.75135 
L 81.16063 162.649967 
L 82.477795 162.649967 
L 117.711969 162.573935 
L 118.370551 162.548589 
L 171.057165 162.447207 
L 172.374331 162.447207 
L 217.157953 162.345829 
L 219.792283 162.067032 
L 220.121575 161.686857 
L 221.109449 158.670792 
L 221.43874 158.113202 
L 222.097323 157.606299 
L 223.085197 157.555608 
L 223.74378 157.606299 
L 228.353858 158.924244 
L 231.646772 159.101659 
L 232.305354 159.000281 
L 232.963937 158.848207 
L 235.268976 158.21458 
L 237.574016 157.606299 
L 240.537638 157.023364 
L 248.769921 155.857493 
L 250.087087 156.3137 
L 251.074961 157.150087 
L 253.050709 158.163894 
L 255.026457 159.329765 
L 256.672913 160.470295 
L 257.331496 160.698401 
L 257.660787 160.546327 
L 258.31937 159.811322 
L 259.307244 158.468032 
L 259.965827 157.859751 
L 260.624409 157.580954 
L 262.270866 157.276815 
L 263.25874 157.276815 
L 267.868819 157.656991 
L 268.856693 158.163894 
L 269.515276 158.569414 
L 272.478898 159.811322 
L 273.796063 160.749087 
L 276.430394 162.675313 
L 277.088976 162.878073 
L 277.418268 162.75135 
L 278.07685 161.686857 
L 278.735433 160.774433 
L 279.394016 160.064774 
L 280.052598 159.633907 
L 281.040472 159.380456 
L 284.004094 159.481834 
L 285.32126 159.684594 
L 286.967717 159.836668 
L 289.602047 159.938046 
L 290.919213 159.735285 
L 293.553543 158.974935 
L 294.212126 158.848207 
L 297.175748 158.239926 
L 298.492913 158.037166 
L 302.115118 157.580954 
L 304.090866 157.327507 
L 305.737323 156.972673 
L 306.725197 156.769912 
L 307.38378 156.69388 
L 307.713071 156.769912 
L 309.688819 158.037166 
L 312.32315 159.507179 
L 312.981732 159.963391 
L 313.640315 160.470295 
L 314.628189 161.408059 
L 315.616063 162.067032 
L 316.603937 162.371175 
L 316.933228 161.990995 
L 317.921102 160.267534 
L 318.579685 159.583216 
L 319.567559 159.025626 
L 320.555433 158.772175 
L 321.543307 158.696138 
L 322.860472 159.025626 
L 325.165512 159.279073 
L 334.385669 159.279073 
L 334.714961 158.21458 
L 337.349291 157.80906 
L 338.337165 158.163894 
L 338.995748 158.620101 
L 339.654331 158.79752 
L 342.617953 159.15235 
L 343.276535 159.050967 
L 344.593701 158.341308 
L 346.240157 157.758373 
L 347.557323 157.656991 
L 348.545197 157.656991 
L 350.850236 157.885096 
L 351.83811 158.113202 
L 352.825984 158.21458 
L 355.131024 158.645447 
L 356.77748 158.822861 
L 359.411811 158.746829 
L 360.399685 158.670792 
L 361.71685 158.59476 
L 362.704724 158.468032 
L 367.314803 158.21458 
L 370.278425 158.290617 
L 371.266299 158.442686 
L 372.254173 158.873553 
L 372.583465 159.000281 
L 372.912756 159.481834 
L 373.90063 160.444949 
L 374.559213 161.25599 
L 375.217795 161.509442 
L 376.864252 162.776695 
L 377.193543 162.95411 
L 378.181417 162.700658 
L 380.157165 161.129267 
L 381.145039 160.901161 
L 382.791496 160.749087 
L 383.450079 160.825124 
L 383.77937 161.179953 
L 384.767244 162.75135 
L 385.425827 163.638428 
L 386.413701 164.550847 
L 387.730866 165.716723 
L 390.694488 167.440188 
L 391.682362 167.921741 
L 392.999528 168.428644 
L 393.65811 168.758128 
L 394.316693 169.087616 
L 395.633858 169.391757 
L 398.59748 170.25349 
L 399.914646 170.329524 
L 400.573228 170.506939 
L 401.561102 170.608319 
L 403.207559 171.01384 
L 404.854016 171.2166 
L 406.171181 170.887116 
L 407.817638 169.062271 
L 408.805512 168.45399 
L 411.110551 167.845709 
L 413.086299 167.795017 
L 415.72063 168.09916 
L 422.306457 169.518483 
L 422.965039 169.467791 
L 423.952913 169.239685 
L 425.270079 169.138305 
L 426.916535 169.11296 
L 428.233701 169.011579 
L 430.209449 168.65675 
L 431.197323 168.428644 
L 434.160945 167.110699 
L 435.807402 166.831907 
L 436.136693 166.933285 
L 437.453858 168.479335 
L 438.771024 169.163651 
L 442.063937 170.329524 
L 443.381102 170.65901 
L 444.368976 170.709699 
L 445.027559 170.608319 
L 445.686142 170.329524 
L 447.332598 169.543826 
L 448.979055 169.138305 
L 451.284094 169.062271 
L 452.930551 169.265031 
L 453.259843 169.391757 
L 453.259843 169.391757 
" clip-path="url(#pa5fc1eb2b2)" style="fill: none; stroke-dasharray: 4.5,9; stroke-dashoffset: 0; stroke: #000000; stroke-width: 0.9"/>
   </g>
   <g id="line2d_26">
    <path d="M 58.110236 160.10279 
L 58.439528 159.900027 
L 60.085984 160.140808 
L 64.366772 159.976064 
L 64.696063 160.140808 
L 65.025354 160.052099 
L 66.013228 160.204168 
L 67.001102 159.963391 
L 68.318268 159.90003 
L 70.952598 160.115463 
L 71.940472 160.026755 
L 72.599055 159.988737 
L 73.257638 160.01408 
L 73.91622 160.00141 
L 74.904094 160.052099 
L 78.855591 159.988737 
L 80.172756 160.014083 
L 83.465669 159.976064 
L 85.112126 160.00141 
L 86.758583 160.00141 
L 87.087874 160.064771 
L 88.075748 160.014083 
L 90.710079 159.976064 
L 91.368661 160.014083 
L 92.356535 160.00141 
L 453.259843 159.976064 
L 453.259843 159.976064 
" clip-path="url(#pa5fc1eb2b2)" style="fill: none; stroke-dasharray: 2.7,9,0.9,9; stroke-dashoffset: 0; stroke: #000000; stroke-width: 0.9"/>
   </g>
   <g id="patch_3">
    <path d="M 58.110236 222.23622 
L 58.110236 6.80315 
" style="fill: none; stroke: #000000; stroke-width: 0.8; stroke-linejoin: miter; stroke-linecap: square"/>
   </g>
   <g id="patch_4">
    <path d="M 58.110236 222.23622 
L 453.259843 222.23622 
" style="fill: none; stroke: #000000; stroke-width: 0.8; stroke-linejoin: miter; stroke-linecap: square"/>
   </g>
   <g id="legend_1">
    <g id="line2d_27">
     <path d="M 127.591133 194.708268 
L 136.591133 194.708268 
L 145.591133 194.708268 
" style="fill: none; stroke: #000000; stroke-width: 0.9; stroke-linecap: square"/>
    </g>
    <g id="text_11">
     <!-- BS_HNHT -->
     <g transform="translate(152.791133 197.858268) scale(0.09 -0.09)">
      <defs>
       <path id="LMRoman6-Regular-42" d="M 4934 1178 
C 4934 1677 4435 2176 3533 2291 
C 4186 2400 4730 2790 4730 3283 
C 4730 3866 4006 4371 3091 4371 
L 442 4371 
L 442 4122 
L 608 4122 
C 1120 4122 1120 4045 1120 3834 
L 1120 538 
C 1120 326 1120 250 608 250 
L 442 250 
L 442 0 
L 3290 0 
C 4224 0 4934 550 4934 1178 
z
M 4064 3283 
C 4064 2797 3571 2374 2835 2374 
L 1715 2374 
L 1715 3872 
C 1715 4070 1715 4122 2029 4122 
L 3046 4122 
C 3680 4122 4064 3706 4064 3283 
z
M 4250 1184 
C 4250 717 3782 250 3059 250 
L 2029 250 
C 1715 250 1715 301 1715 499 
L 1715 2170 
L 3162 2170 
C 3853 2170 4250 1645 4250 1184 
z
" transform="scale(0.015625)"/>
       <path id="LMRoman6-Regular-53" d="M 3814 1178 
C 3814 1626 3565 1933 3469 2029 
C 3142 2355 2950 2394 2157 2560 
L 1555 2694 
C 1222 2803 915 3085 915 3450 
C 915 3878 1338 4275 1965 4275 
C 2304 4275 2630 4186 2893 3974 
C 3270 3674 3341 3213 3366 3059 
C 3379 2963 3386 2918 3488 2918 
C 3610 2918 3610 2976 3610 3098 
L 3610 4326 
C 3610 4435 3610 4506 3507 4506 
C 3482 4506 3443 4506 3392 4422 
L 3155 4058 
C 2790 4416 2330 4506 1958 4506 
C 1126 4506 506 3942 506 3283 
C 506 2950 659 2669 890 2451 
C 1178 2189 1395 2144 2112 1997 
C 2771 1856 2918 1824 3117 1638 
C 3194 1562 3405 1357 3405 1018 
C 3405 576 3008 115 2342 115 
C 1792 115 794 282 742 1306 
C 736 1402 736 1453 627 1453 
C 506 1453 506 1395 506 1267 
L 506 45 
C 506 -64 506 -134 608 -134 
C 666 -134 678 -109 710 -58 
C 730 -38 864 166 954 301 
C 1421 -90 2042 -134 2342 -134 
C 3232 -134 3814 499 3814 1178 
z
" transform="scale(0.015625)"/>
       <path id="LMRoman6-Regular-5f" d="M 5734 -922 
L 5734 -678 
L 0 -678 
L 0 -922 
L 5734 -922 
z
" transform="scale(0.015625)"/>
       <path id="LMRoman6-Regular-48" d="M 5312 0 
L 5312 250 
L 5146 250 
C 4634 250 4634 326 4634 538 
L 4634 3834 
C 4634 4045 4634 4122 5146 4122 
L 5312 4122 
L 5312 4371 
L 4314 4346 
L 3315 4371 
L 3315 4122 
L 3482 4122 
C 3994 4122 3994 4045 3994 3834 
L 3994 2400 
L 1734 2400 
L 1734 3834 
C 1734 4045 1734 4122 2246 4122 
L 2413 4122 
L 2413 4371 
L 1414 4346 
L 416 4371 
L 416 4122 
L 582 4122 
C 1094 4122 1094 4045 1094 3834 
L 1094 538 
C 1094 326 1094 250 582 250 
L 416 250 
L 416 0 
L 1414 26 
L 2413 0 
L 2413 250 
L 2246 250 
C 1734 250 1734 326 1734 538 
L 1734 2150 
L 3994 2150 
L 3994 538 
C 3994 326 3994 250 3482 250 
L 3315 250 
L 3315 0 
L 4314 26 
L 5312 0 
z
" transform="scale(0.015625)"/>
       <path id="LMRoman6-Regular-4e" d="M 5312 4122 
L 5312 4371 
C 5190 4365 4774 4346 4506 4346 
C 4211 4346 3808 4365 3693 4371 
L 3693 4122 
C 4371 4122 4371 3834 4371 3667 
L 4371 986 
L 1779 4282 
C 1709 4365 1702 4371 1568 4371 
L 416 4371 
L 416 4122 
L 621 4122 
C 768 4122 928 4122 1050 4090 
C 1088 4083 1094 4077 1094 3968 
L 1094 704 
C 1094 538 1094 250 416 250 
L 416 0 
C 538 6 954 26 1222 26 
C 1517 26 1920 6 2035 0 
L 2035 250 
C 1357 250 1357 538 1357 704 
L 1357 3898 
L 4365 77 
C 4416 13 4422 0 4499 0 
C 4634 0 4634 64 4634 192 
L 4634 3667 
C 4634 3834 4634 4122 5312 4122 
z
" transform="scale(0.015625)"/>
      </defs>
      <use xlink:href="#LMRoman6-Regular-42"/>
      <use xlink:href="#LMRoman6-Regular-53" x="85.099991"/>
      <use xlink:href="#LMRoman6-Regular-5f" x="152.699982"/>
      <use xlink:href="#LMRoman6-Regular-48" x="242.299973"/>
      <use xlink:href="#LMRoman6-Regular-4e" x="331.899963"/>
      <use xlink:href="#LMRoman6-Regular-48" x="421.499954"/>
      <use xlink:href="#LMRoman6-Regular-54" x="511.099945"/>
     </g>
    </g>
    <g id="line2d_28">
     <path d="M 127.591133 207.25483 
L 136.591133 207.25483 
L 145.591133 207.25483 
" style="fill: none; stroke-dasharray: 3.33,1.44; stroke-dashoffset: 0; stroke: #000000; stroke-width: 0.9"/>
    </g>
    <g id="text_12">
     <!-- ST_HNHT -->
     <g transform="translate(152.791133 210.40483) scale(0.09 -0.09)">
      <use xlink:href="#LMRoman6-Regular-53"/>
      <use xlink:href="#LMRoman6-Regular-54" x="67.599991"/>
      <use xlink:href="#LMRoman6-Regular-5f" x="154.599976"/>
      <use xlink:href="#LMRoman6-Regular-48" x="244.199966"/>
      <use xlink:href="#LMRoman6-Regular-4e" x="333.799957"/>
      <use xlink:href="#LMRoman6-Regular-48" x="423.399948"/>
      <use xlink:href="#LMRoman6-Regular-54" x="512.999939"/>
     </g>
    </g>
    <g id="line2d_29">
     <path d="M 224.788321 194.708268 
L 233.788321 194.708268 
L 242.788321 194.708268 
" style="fill: none; stroke-dasharray: 5.76,1.44,0.9,1.44; stroke-dashoffset: 0; stroke: #000000; stroke-width: 0.9"/>
    </g>
    <g id="text_13">
     <!-- BS_HNLT -->
     <g transform="translate(249.988321 197.858268) scale(0.09 -0.09)">
      <defs>
       <path id="LMRoman6-Regular-4c" d="M 4416 1702 
L 4179 1702 
C 4102 928 3904 250 2746 250 
L 2048 250 
C 1734 250 1734 301 1734 499 
L 1734 3834 
C 1734 4045 1734 4122 2349 4122 
L 2586 4122 
L 2586 4371 
C 2246 4346 1779 4346 1434 4346 
L 416 4371 
L 416 4122 
L 582 4122 
C 1094 4122 1094 4045 1094 3834 
L 1094 538 
C 1094 326 1094 250 582 250 
L 416 250 
L 416 0 
L 4218 0 
L 4416 1702 
z
" transform="scale(0.015625)"/>
      </defs>
      <use xlink:href="#LMRoman6-Regular-42"/>
      <use xlink:href="#LMRoman6-Regular-53" x="85.099991"/>
      <use xlink:href="#LMRoman6-Regular-5f" x="152.699982"/>
      <use xlink:href="#LMRoman6-Regular-48" x="242.299973"/>
      <use xlink:href="#LMRoman6-Regular-4e" x="331.899963"/>
      <use xlink:href="#LMRoman6-Regular-4c" x="421.499954"/>
      <use xlink:href="#LMRoman6-Regular-54" x="496.899948"/>
     </g>
    </g>
    <g id="line2d_30">
     <path d="M 224.788321 207.25483 
L 233.788321 207.25483 
L 242.788321 207.25483 
" style="fill: none; stroke-dasharray: 0.9,1.485; stroke-dashoffset: 0; stroke: #000000; stroke-width: 0.9"/>
    </g>
    <g id="text_14">
     <!-- ST_HNLT -->
     <g transform="translate(249.988321 210.40483) scale(0.09 -0.09)">
      <use xlink:href="#LMRoman6-Regular-53"/>
      <use xlink:href="#LMRoman6-Regular-54" x="67.599991"/>
      <use xlink:href="#LMRoman6-Regular-5f" x="154.599976"/>
      <use xlink:href="#LMRoman6-Regular-48" x="244.199966"/>
      <use xlink:href="#LMRoman6-Regular-4e" x="333.799957"/>
      <use xlink:href="#LMRoman6-Regular-4c" x="423.399948"/>
      <use xlink:href="#LMRoman6-Regular-54" x="498.799942"/>
     </g>
    </g>
    <g id="line2d_31">
     <path d="M 320.708633 194.708268 
L 329.708633 194.708268 
L 338.708633 194.708268 
" style="fill: none; stroke-dasharray: 4.5,9; stroke-dashoffset: 0; stroke: #000000; stroke-width: 0.9"/>
    </g>
    <g id="text_15">
     <!-- BS_CN -->
     <g transform="translate(345.908633 197.858268) scale(0.09 -0.09)">
      <use xlink:href="#LMRoman6-Regular-42"/>
      <use xlink:href="#LMRoman6-Regular-53" x="85.099991"/>
      <use xlink:href="#LMRoman6-Regular-5f" x="152.699982"/>
      <use xlink:href="#LMRoman6-Regular-43" x="242.299973"/>
      <use xlink:href="#LMRoman6-Regular-4e" x="329.299957"/>
     </g>
    </g>
    <g id="line2d_32">
     <path d="M 320.708633 207.25483 
L 329.708633 207.25483 
L 338.708633 207.25483 
" style="fill: none; stroke-dasharray: 2.7,9,0.9,9; stroke-dashoffset: 0; stroke: #000000; stroke-width: 0.9"/>
    </g>
    <g id="text_16">
     <!-- ST_CN -->
     <g transform="translate(345.908633 210.40483) scale(0.09 -0.09)">
      <use xlink:href="#LMRoman6-Regular-53"/>
      <use xlink:href="#LMRoman6-Regular-54" x="67.599991"/>
      <use xlink:href="#LMRoman6-Regular-5f" x="154.599976"/>
      <use xlink:href="#LMRoman6-Regular-43" x="244.199966"/>
      <use xlink:href="#LMRoman6-Regular-4e" x="331.199951"/>
     </g>
    </g>
   </g>
  </g>
 </g>
 <defs>
  <clipPath id="pa5fc1eb2b2">
   <rect x="58.110236" y="6.80315" width="395.149606" height="215.433071"/>
  </clipPath>
 </defs>
</svg>
