<?xml version="1.0" encoding="utf-8" standalone="no"?>
<!DOCTYPE svg PUBLIC "-//W3C//DTD SVG 1.1//EN"
  "http://www.w3.org/Graphics/SVG/1.1/DTD/svg11.dtd">
<svg xmlns:xlink="http://www.w3.org/1999/xlink" width="464.88189pt" height="226.771654pt" viewBox="0 0 464.88189 226.771654" xmlns="http://www.w3.org/2000/svg" version="1.1">
 <metadata>
  <rdf:RDF xmlns:dc="http://purl.org/dc/elements/1.1/" xmlns:cc="http://creativecommons.org/ns#" xmlns:rdf="http://www.w3.org/1999/02/22-rdf-syntax-ns#">
   <cc:Work>
    <dc:type rdf:resource="http://purl.org/dc/dcmitype/StillImage"/>
    <dc:date>2024-10-01T13:54:31.068270</dc:date>
    <dc:format>image/svg+xml</dc:format>
    <dc:creator>
     <cc:Agent>
      <dc:title>Matplotlib v3.8.2, https://matplotlib.org/</dc:title>
     </cc:Agent>
    </dc:creator>
   </cc:Work>
  </rdf:RDF>
 </metadata>
 <defs>
  <style type="text/css">*{stroke-linejoin: round; stroke-linecap: butt}</style>
 </defs>
 <g id="figure_1">
  <g id="patch_1">
   <path d="M 0 226.771654 
L 464.88189 226.771654 
L 464.88189 0 
L 0 0 
z
" style="fill: #ffffff"/>
  </g>
  <g id="axes_1">
   <g id="patch_2">
    <path d="M 58.110236 222.23622 
L 453.259843 222.23622 
L 453.259843 6.80315 
L 58.110236 6.80315 
z
" style="fill: #ffffff"/>
   </g>
   <g id="matplotlib.axis_1">
    <g id="xtick_1">
     <g id="line2d_1">
      <defs>
       <path id="mc4fcb08e9e" d="M 0 0 
L 0 3.5 
" style="stroke: #000000; stroke-width: 0.8"/>
      </defs>
      <g>
       <use xlink:href="#mc4fcb08e9e" x="58.110236" y="222.23622" style="stroke: #000000; stroke-width: 0.8"/>
      </g>
     </g>
    </g>
    <g id="xtick_2">
     <g id="line2d_2">
      <g>
       <use xlink:href="#mc4fcb08e9e" x="97.625197" y="222.23622" style="stroke: #000000; stroke-width: 0.8"/>
      </g>
     </g>
    </g>
    <g id="xtick_3">
     <g id="line2d_3">
      <g>
       <use xlink:href="#mc4fcb08e9e" x="137.140157" y="222.23622" style="stroke: #000000; stroke-width: 0.8"/>
      </g>
     </g>
    </g>
    <g id="xtick_4">
     <g id="line2d_4">
      <g>
       <use xlink:href="#mc4fcb08e9e" x="176.655118" y="222.23622" style="stroke: #000000; stroke-width: 0.8"/>
      </g>
     </g>
    </g>
    <g id="xtick_5">
     <g id="line2d_5">
      <g>
       <use xlink:href="#mc4fcb08e9e" x="216.170079" y="222.23622" style="stroke: #000000; stroke-width: 0.8"/>
      </g>
     </g>
    </g>
    <g id="xtick_6">
     <g id="line2d_6">
      <g>
       <use xlink:href="#mc4fcb08e9e" x="255.685039" y="222.23622" style="stroke: #000000; stroke-width: 0.8"/>
      </g>
     </g>
    </g>
    <g id="xtick_7">
     <g id="line2d_7">
      <g>
       <use xlink:href="#mc4fcb08e9e" x="295.2" y="222.23622" style="stroke: #000000; stroke-width: 0.8"/>
      </g>
     </g>
    </g>
    <g id="xtick_8">
     <g id="line2d_8">
      <g>
       <use xlink:href="#mc4fcb08e9e" x="334.714961" y="222.23622" style="stroke: #000000; stroke-width: 0.8"/>
      </g>
     </g>
    </g>
    <g id="xtick_9">
     <g id="line2d_9">
      <g>
       <use xlink:href="#mc4fcb08e9e" x="374.229921" y="222.23622" style="stroke: #000000; stroke-width: 0.8"/>
      </g>
     </g>
    </g>
    <g id="xtick_10">
     <g id="line2d_10">
      <g>
       <use xlink:href="#mc4fcb08e9e" x="413.744882" y="222.23622" style="stroke: #000000; stroke-width: 0.8"/>
      </g>
     </g>
    </g>
    <g id="xtick_11">
     <g id="line2d_11">
      <g>
       <use xlink:href="#mc4fcb08e9e" x="453.259843" y="222.23622" style="stroke: #000000; stroke-width: 0.8"/>
      </g>
     </g>
    </g>
   </g>
   <g id="matplotlib.axis_2">
    <g id="ytick_1">
     <g id="line2d_12">
      <defs>
       <path id="m2a9fef61dc" d="M 0 0 
L -3.5 0 
" style="stroke: #000000; stroke-width: 0.8"/>
      </defs>
      <g>
       <use xlink:href="#m2a9fef61dc" x="58.110236" y="209.563687" style="stroke: #000000; stroke-width: 0.8"/>
      </g>
     </g>
     <g id="text_1">
      <!-- 0 -->
      <g transform="translate(45.611799 212.686968) scale(0.09 -0.09)">
       <defs>
        <path id="LMRoman6-Regular-30" d="M 3520 2042 
C 3520 2509 3520 4256 1952 4256 
C 384 4256 384 2509 384 2042 
C 384 1581 384 -134 1952 -134 
C 3520 -134 3520 1581 3520 2042 
z
M 2912 2125 
C 2912 1715 2912 1069 2803 710 
C 2624 154 2163 70 1952 70 
C 1683 70 1248 198 1094 730 
C 992 1101 992 1728 992 2125 
C 992 2554 992 3046 1082 3392 
C 1242 3968 1728 4051 1952 4051 
C 2246 4051 2669 3910 2810 3424 
C 2906 3085 2912 2618 2912 2125 
z
" transform="scale(0.015625)"/>
       </defs>
       <use xlink:href="#LMRoman6-Regular-30"/>
      </g>
     </g>
    </g>
    <g id="ytick_2">
     <g id="line2d_13">
      <g>
       <use xlink:href="#m2a9fef61dc" x="58.110236" y="184.21862" style="stroke: #000000; stroke-width: 0.8"/>
      </g>
     </g>
     <g id="text_2">
      <!-- 10 -->
      <g transform="translate(40.113361 187.341901) scale(0.09 -0.09)">
       <defs>
        <path id="LMRoman6-Regular-31" d="M 3232 0 
L 3232 250 
L 2957 250 
C 2298 250 2298 333 2298 544 
L 2298 4064 
C 2298 4256 2272 4256 2080 4256 
C 1658 3846 1005 3846 774 3846 
L 774 3597 
C 941 3597 1363 3597 1747 3776 
L 1747 544 
C 1747 333 1747 250 1088 250 
L 813 250 
L 813 0 
C 1165 26 1664 26 2022 26 
C 2381 26 2880 26 3232 0 
z
" transform="scale(0.015625)"/>
       </defs>
       <use xlink:href="#LMRoman6-Regular-31"/>
       <use xlink:href="#LMRoman6-Regular-30" x="61.099991"/>
      </g>
     </g>
    </g>
    <g id="ytick_3">
     <g id="line2d_14">
      <g>
       <use xlink:href="#m2a9fef61dc" x="58.110236" y="158.873553" style="stroke: #000000; stroke-width: 0.8"/>
      </g>
     </g>
     <g id="text_3">
      <!-- 20 -->
      <g transform="translate(40.113361 161.996834) scale(0.09 -0.09)">
       <defs>
        <path id="LMRoman6-Regular-32" d="M 3443 1197 
L 3206 1197 
C 3194 1107 3130 685 3034 614 
C 2989 576 2470 576 2381 576 
L 1184 576 
L 2003 1242 
C 2221 1414 2790 1824 2989 2016 
C 3181 2208 3443 2534 3443 2989 
C 3443 3789 2720 4256 1862 4256 
C 1037 4256 461 3712 461 3110 
C 461 2784 736 2746 806 2746 
C 966 2746 1152 2861 1152 3091 
C 1152 3232 1069 3437 787 3437 
C 934 3763 1325 4006 1766 4006 
C 2438 4006 2797 3507 2797 2989 
C 2797 2534 2496 2067 2048 1658 
L 531 269 
C 467 205 461 198 461 0 
L 3245 0 
L 3443 1197 
z
" transform="scale(0.015625)"/>
       </defs>
       <use xlink:href="#LMRoman6-Regular-32"/>
       <use xlink:href="#LMRoman6-Regular-30" x="61.099991"/>
      </g>
     </g>
    </g>
    <g id="ytick_4">
     <g id="line2d_15">
      <g>
       <use xlink:href="#m2a9fef61dc" x="58.110236" y="133.528485" style="stroke: #000000; stroke-width: 0.8"/>
      </g>
     </g>
     <g id="text_4">
      <!-- 30 -->
      <g transform="translate(40.113361 136.651767) scale(0.09 -0.09)">
       <defs>
        <path id="LMRoman6-Regular-33" d="M 3501 1107 
C 3501 1574 3142 2067 2381 2259 
C 2886 2426 3296 2835 3296 3360 
C 3296 3872 2694 4256 1926 4256 
C 1178 4256 608 3910 608 3386 
C 608 3110 819 3034 947 3034 
C 1114 3034 1286 3149 1286 3373 
C 1286 3571 1146 3686 973 3712 
C 1274 4045 1856 4045 1914 4045 
C 2240 4045 2650 3891 2650 3360 
C 2650 3008 2451 2394 1811 2355 
C 1696 2349 1523 2336 1466 2336 
C 1402 2330 1331 2323 1331 2227 
C 1331 2125 1402 2125 1510 2125 
L 1882 2125 
C 2426 2125 2790 1760 2790 1107 
C 2790 403 2368 96 1901 96 
C 1728 96 1069 134 781 506 
C 1030 531 1133 698 1133 870 
C 1133 1088 979 1235 768 1235 
C 595 1235 403 1126 403 858 
C 403 224 1107 -134 1920 -134 
C 2867 -134 3501 474 3501 1107 
z
" transform="scale(0.015625)"/>
       </defs>
       <use xlink:href="#LMRoman6-Regular-33"/>
       <use xlink:href="#LMRoman6-Regular-30" x="61.099991"/>
      </g>
     </g>
    </g>
    <g id="ytick_5">
     <g id="line2d_16">
      <g>
       <use xlink:href="#m2a9fef61dc" x="58.110236" y="108.183418" style="stroke: #000000; stroke-width: 0.8"/>
      </g>
     </g>
     <g id="text_5">
      <!-- 40 -->
      <g transform="translate(40.113361 111.306699) scale(0.09 -0.09)">
       <defs>
        <path id="LMRoman6-Regular-34" d="M 3610 1050 
L 3610 1299 
L 2861 1299 
L 2861 4128 
C 2861 4275 2861 4320 2701 4320 
C 2586 4320 2573 4301 2515 4224 
L 294 1299 
L 294 1050 
L 2285 1050 
L 2285 538 
C 2285 326 2285 250 1747 250 
L 1562 250 
L 1562 0 
L 2573 26 
L 3584 0 
L 3584 250 
L 3398 250 
C 2861 250 2861 326 2861 538 
L 2861 1050 
L 3610 1050 
z
M 2330 1299 
L 570 1299 
L 2330 3622 
L 2330 1299 
z
" transform="scale(0.015625)"/>
       </defs>
       <use xlink:href="#LMRoman6-Regular-34"/>
       <use xlink:href="#LMRoman6-Regular-30" x="61.099991"/>
      </g>
     </g>
    </g>
    <g id="ytick_6">
     <g id="line2d_17">
      <g>
       <use xlink:href="#m2a9fef61dc" x="58.110236" y="82.838351" style="stroke: #000000; stroke-width: 0.8"/>
      </g>
     </g>
     <g id="text_6">
      <!-- 50 -->
      <g transform="translate(40.113361 85.961632) scale(0.09 -0.09)">
       <defs>
        <path id="LMRoman6-Regular-35" d="M 3443 1286 
C 3443 2016 2854 2682 2029 2682 
C 1613 2682 1293 2547 1088 2374 
L 1088 3552 
C 1299 3494 1523 3469 1741 3469 
C 1882 3469 2240 3469 2643 3693 
C 2752 3757 3149 4019 3149 4154 
C 3149 4237 3085 4256 3059 4256 
C 3040 4256 3034 4256 2963 4230 
C 2733 4141 2406 4051 1990 4051 
C 1677 4051 1331 4109 1043 4218 
C 979 4243 954 4256 928 4256 
C 838 4256 838 4186 838 4083 
L 838 2163 
C 838 2054 838 1978 954 1978 
C 1011 1978 1030 2003 1075 2054 
C 1235 2259 1517 2477 2016 2477 
C 2803 2477 2803 1517 2803 1312 
C 2803 1062 2784 704 2573 442 
C 2374 198 2080 96 1805 96 
C 1363 96 922 339 768 710 
C 1082 717 1120 966 1120 1043 
C 1120 1216 986 1370 787 1370 
C 730 1370 461 1338 461 1018 
C 461 429 1018 -134 1824 -134 
C 2701 -134 3443 486 3443 1286 
z
" transform="scale(0.015625)"/>
       </defs>
       <use xlink:href="#LMRoman6-Regular-35"/>
       <use xlink:href="#LMRoman6-Regular-30" x="61.099991"/>
      </g>
     </g>
    </g>
    <g id="ytick_7">
     <g id="line2d_18">
      <g>
       <use xlink:href="#m2a9fef61dc" x="58.110236" y="57.493284" style="stroke: #000000; stroke-width: 0.8"/>
      </g>
     </g>
     <g id="text_7">
      <!-- 60 -->
      <g transform="translate(40.113361 60.616565) scale(0.09 -0.09)">
       <defs>
        <path id="LMRoman6-Regular-36" d="M 3501 1306 
C 3501 1523 3475 1933 3085 2298 
C 2861 2502 2579 2726 2035 2726 
C 1587 2726 1261 2496 1043 2118 
C 1050 2438 1062 2970 1286 3366 
C 1568 3853 1990 4045 2374 4045 
C 2522 4045 2816 4019 2970 3840 
C 2733 3802 2694 3635 2694 3533 
C 2694 3366 2810 3226 3002 3226 
C 3194 3226 3315 3347 3315 3546 
C 3315 3936 3021 4256 2368 4256 
C 1376 4256 403 3392 403 2029 
C 403 474 1126 -134 1971 -134 
C 2221 -134 2656 -96 3046 282 
C 3251 486 3501 742 3501 1306 
z
M 2861 1306 
C 2861 864 2848 646 2630 390 
C 2477 198 2272 96 1965 96 
C 1062 96 1062 1197 1062 1446 
C 1062 1997 1427 2522 2003 2522 
C 2336 2522 2528 2387 2682 2182 
C 2861 1933 2861 1645 2861 1306 
z
" transform="scale(0.015625)"/>
       </defs>
       <use xlink:href="#LMRoman6-Regular-36"/>
       <use xlink:href="#LMRoman6-Regular-30" x="61.099991"/>
      </g>
     </g>
    </g>
    <g id="ytick_8">
     <g id="line2d_19">
      <g>
       <use xlink:href="#m2a9fef61dc" x="58.110236" y="32.148217" style="stroke: #000000; stroke-width: 0.8"/>
      </g>
     </g>
     <g id="text_8">
      <!-- 70 -->
      <g transform="translate(40.113361 35.271498) scale(0.09 -0.09)">
       <defs>
        <path id="LMRoman6-Regular-37" d="M 3712 4122 
L 2061 4122 
C 1798 4122 1645 4128 1395 4147 
C 1082 4166 1005 4173 973 4326 
L 736 4326 
L 506 2925 
L 742 2925 
C 762 3059 826 3437 922 3507 
C 973 3546 1523 3546 1619 3546 
L 3066 3546 
L 2496 2861 
C 1875 2112 1440 1203 1440 230 
C 1440 173 1440 -134 1747 -134 
C 2061 -134 2061 160 2061 243 
L 2061 422 
C 2061 1651 2323 2278 2643 2662 
L 3654 3866 
C 3712 3930 3712 3942 3712 4122 
z
" transform="scale(0.015625)"/>
       </defs>
       <use xlink:href="#LMRoman6-Regular-37"/>
       <use xlink:href="#LMRoman6-Regular-30" x="61.099991"/>
      </g>
     </g>
    </g>
    <g id="ytick_9">
     <g id="line2d_20">
      <g>
       <use xlink:href="#m2a9fef61dc" x="58.110236" y="6.80315" style="stroke: #000000; stroke-width: 0.8"/>
      </g>
     </g>
     <g id="text_9">
      <!-- 80 -->
      <g transform="translate(40.113361 9.926431) scale(0.09 -0.09)">
       <defs>
        <path id="LMRoman6-Regular-38" d="M 3501 1088 
C 3501 1530 3232 1792 3136 1888 
C 3014 2003 2694 2182 2464 2310 
C 2938 2522 3296 2835 3296 3296 
C 3296 3923 2624 4256 1958 4256 
C 1235 4256 608 3821 608 3174 
C 608 2778 870 2470 1139 2310 
L 1421 2150 
C 998 1990 403 1632 403 986 
C 403 237 1203 -134 1946 -134 
C 2797 -134 3501 378 3501 1088 
z
M 2938 3290 
C 2938 2797 2406 2534 2227 2445 
L 1306 2944 
C 1293 2950 966 3130 966 3424 
C 966 3840 1472 4045 1946 4045 
C 2445 4045 2938 3770 2938 3290 
z
M 3091 864 
C 3091 358 2502 96 1958 96 
C 1363 96 813 442 813 986 
C 813 1530 1325 1888 1677 2016 
L 2605 1504 
C 2739 1421 3091 1229 3091 864 
z
" transform="scale(0.015625)"/>
       </defs>
       <use xlink:href="#LMRoman6-Regular-38"/>
       <use xlink:href="#LMRoman6-Regular-30" x="61.099991"/>
      </g>
     </g>
    </g>
    <g id="text_10">
     <!-- Temperatur in °C -->
     <g transform="translate(34.366799 157.528435) rotate(-90) scale(0.09 -0.09)">
      <defs>
       <path id="LMRoman6-Regular-54" d="M 5203 2835 
L 5062 4326 
L 499 4326 
L 358 2835 
L 595 2835 
C 691 3994 941 4077 1907 4077 
C 2042 4077 2253 4077 2317 4070 
C 2464 4045 2464 3981 2464 3827 
L 2464 544 
C 2464 333 2464 250 1786 250 
L 1498 250 
L 1498 0 
C 1811 26 2445 26 2784 26 
C 3123 26 3757 26 4070 0 
L 4070 250 
L 3782 250 
C 3104 250 3104 333 3104 544 
L 3104 3827 
C 3104 3981 3104 4045 3245 4070 
C 3309 4077 3520 4077 3654 4077 
C 4627 4077 4870 3987 4966 2835 
L 5203 2835 
z
" transform="scale(0.015625)"/>
       <path id="LMRoman6-Regular-65" d="M 3194 768 
C 3194 800 3181 870 3072 870 
C 2989 870 2976 832 2950 755 
C 2758 282 2278 160 1984 160 
C 1632 160 1331 320 1152 550 
C 915 851 915 1274 915 1446 
L 3002 1446 
C 3142 1446 3194 1446 3194 1600 
C 3194 2093 2918 2854 1856 2854 
C 960 2854 307 2170 307 1402 
C 307 595 1043 -64 1946 -64 
C 2867 -64 3194 627 3194 768 
z
M 2726 1638 
L 928 1638 
C 998 2496 1587 2650 1850 2650 
C 2675 2650 2720 1824 2726 1638 
z
" transform="scale(0.015625)"/>
       <path id="LMRoman6-Regular-6d" d="M 6080 0 
L 6080 250 
C 5638 250 5574 250 5574 525 
L 5574 1933 
C 5574 2586 5190 2822 4563 2822 
C 3968 2822 3616 2483 3475 2240 
C 3328 2822 2675 2822 2496 2822 
C 1914 2822 1555 2502 1402 2234 
L 1395 2234 
L 1395 2822 
L 403 2752 
L 403 2502 
C 851 2502 909 2458 909 2144 
L 909 525 
C 909 250 845 250 403 250 
L 403 0 
C 448 6 883 26 1171 26 
C 1459 26 1882 6 1946 0 
L 1946 250 
C 1504 250 1440 250 1440 525 
L 1440 1651 
C 1440 2355 2048 2618 2438 2618 
C 2880 2618 2976 2342 2976 1946 
L 2976 525 
C 2976 250 2912 250 2470 250 
L 2470 0 
C 2515 6 2950 26 3238 26 
C 3526 26 3949 6 4013 0 
L 4013 250 
C 3571 250 3507 250 3507 525 
L 3507 1651 
C 3507 2355 4115 2618 4506 2618 
C 4947 2618 5043 2342 5043 1946 
L 5043 525 
C 5043 250 4979 250 4538 250 
L 4538 0 
C 4582 6 5018 26 5306 26 
C 5594 26 6016 6 6080 0 
z
" transform="scale(0.015625)"/>
       <path id="LMRoman6-Regular-70" d="M 3974 1382 
C 3974 2157 3302 2822 2419 2822 
C 1837 2822 1478 2534 1382 2445 
L 1382 2822 
L 371 2752 
L 371 2502 
C 806 2502 877 2502 877 2208 
L 877 -717 
C 877 -992 813 -992 371 -992 
L 371 -1242 
C 416 -1235 851 -1216 1139 -1216 
C 1427 -1216 1850 -1235 1914 -1242 
L 1914 -992 
C 1472 -992 1408 -992 1408 -717 
L 1408 307 
C 1670 58 1971 -64 2323 -64 
C 3213 -64 3974 570 3974 1382 
z
M 3366 1382 
C 3366 666 2854 141 2285 141 
C 1792 141 1504 493 1408 678 
L 1408 2118 
C 1626 2419 1978 2598 2355 2598 
C 2938 2598 3366 2035 3366 1382 
z
" transform="scale(0.015625)"/>
       <path id="LMRoman6-Regular-72" d="M 2778 2400 
C 2778 2656 2534 2822 2253 2822 
C 1869 2822 1542 2592 1344 2163 
L 1338 2163 
L 1338 2822 
L 371 2752 
L 371 2502 
C 819 2502 877 2458 877 2144 
L 877 525 
C 877 250 813 250 371 250 
L 371 0 
C 531 13 1005 26 1146 26 
C 1478 26 1920 6 2010 0 
L 2010 250 
L 1869 250 
C 1389 250 1382 314 1382 531 
L 1382 1434 
C 1382 2029 1690 2605 2259 2618 
C 2202 2560 2176 2483 2176 2400 
C 2176 2227 2304 2099 2477 2099 
C 2650 2099 2778 2227 2778 2400 
z
" transform="scale(0.015625)"/>
       <path id="LMRoman6-Regular-61" d="M 3712 576 
L 3712 928 
L 3475 928 
L 3475 589 
C 3475 525 3475 237 3226 237 
C 2976 237 2976 525 2976 589 
L 2976 1907 
C 2976 2502 2368 2854 1651 2854 
C 1344 2854 589 2822 589 2285 
C 589 2112 704 1971 902 1971 
C 1088 1971 1210 2112 1210 2278 
C 1210 2394 1158 2502 1043 2554 
C 1254 2650 1574 2650 1638 2650 
C 2093 2650 2445 2381 2445 1894 
L 2445 1728 
C 2150 1715 1638 1702 1171 1536 
C 749 1389 346 1101 346 672 
C 346 102 1024 -64 1523 -64 
C 2061 -64 2381 205 2522 448 
C 2566 115 2778 -32 3002 -32 
C 3027 -32 3712 -32 3712 576 
z
M 2445 909 
C 2445 243 1786 141 1581 141 
C 1235 141 909 352 909 672 
C 909 1030 1254 1498 2445 1536 
L 2445 909 
z
" transform="scale(0.015625)"/>
       <path id="LMRoman6-Regular-74" d="M 2566 806 
L 2566 1158 
L 2330 1158 
L 2330 819 
C 2330 365 2093 160 1856 160 
C 1395 160 1395 678 1395 800 
L 1395 2509 
L 2445 2509 
L 2445 2758 
L 1395 2758 
L 1395 3936 
L 1158 3936 
C 1152 3366 877 2739 230 2714 
L 230 2509 
L 864 2509 
L 864 800 
C 864 128 1370 -64 1805 -64 
C 2246 -64 2566 288 2566 806 
z
" transform="scale(0.015625)"/>
       <path id="LMRoman6-Regular-75" d="M 4006 0 
L 4006 250 
C 3558 250 3501 294 3501 608 
L 3501 2822 
L 2464 2752 
L 2464 2502 
C 2912 2502 2970 2458 2970 2144 
L 2970 1075 
C 2970 493 2566 141 2074 141 
C 1466 141 1440 410 1440 723 
L 1440 2822 
L 403 2752 
L 403 2502 
C 909 2502 909 2445 909 2067 
L 909 1069 
C 909 634 909 352 1197 141 
C 1440 -38 1760 -64 2029 -64 
C 2432 -64 2771 96 2995 461 
L 2995 -64 
L 4006 0 
z
" transform="scale(0.015625)"/>
       <path id="LMRoman6-Regular-20" transform="scale(0.015625)"/>
       <path id="LMRoman6-Regular-69" d="M 1875 0 
L 1875 250 
C 1478 250 1421 250 1421 518 
L 1421 2822 
L 435 2752 
L 435 2502 
C 858 2502 915 2458 915 2144 
L 915 525 
C 915 250 851 250 410 250 
L 410 0 
L 1158 26 
C 1222 26 1709 13 1875 0 
z
M 1510 3846 
C 1510 4051 1344 4230 1126 4230 
C 890 4230 736 4032 736 3846 
C 736 3642 902 3462 1120 3462 
C 1357 3462 1510 3661 1510 3846 
z
" transform="scale(0.015625)"/>
       <path id="LMRoman6-Regular-6e" d="M 4006 0 
L 4006 250 
C 3565 250 3501 250 3501 525 
L 3501 1933 
C 3501 2560 3142 2822 2496 2822 
C 1933 2822 1581 2528 1395 2221 
L 1395 2822 
L 403 2752 
L 403 2502 
C 851 2502 909 2458 909 2144 
L 909 525 
C 909 250 845 250 403 250 
L 403 0 
C 448 6 883 26 1171 26 
C 1459 26 1882 6 1946 0 
L 1946 250 
C 1504 250 1440 250 1440 525 
L 1440 1651 
C 1440 2355 2042 2618 2438 2618 
C 2867 2618 2970 2349 2970 1952 
L 2970 525 
C 2970 250 2906 250 2464 250 
L 2464 0 
C 2509 6 2944 26 3232 26 
C 3520 26 3942 6 4006 0 
z
" transform="scale(0.015625)"/>
       <path id="LMRoman6-Regular-b0" d="M 2502 3334 
C 2502 3910 2042 4371 1466 4371 
C 896 4371 429 3910 429 3334 
C 429 2765 896 2298 1466 2298 
C 2042 2298 2502 2765 2502 3334 
z
M 2170 3334 
C 2170 2950 1856 2630 1466 2630 
C 1075 2630 762 2950 762 3334 
C 762 3725 1075 4038 1466 4038 
C 1856 4038 2170 3725 2170 3334 
z
" transform="scale(0.015625)"/>
       <path id="LMRoman6-Regular-43" d="M 5056 1498 
C 5056 1568 5050 1632 4934 1632 
C 4832 1632 4826 1581 4819 1523 
C 4768 544 3878 115 3174 115 
C 2406 115 1216 570 1216 2189 
C 1216 3776 2374 4256 3168 4256 
C 3891 4256 4640 3763 4800 2784 
C 4813 2701 4819 2656 4928 2656 
C 5056 2656 5056 2707 5056 2835 
L 5056 4326 
C 5056 4435 5056 4506 4954 4506 
C 4896 4506 4883 4480 4838 4422 
L 4486 3936 
C 4115 4307 3610 4506 3085 4506 
C 1664 4506 506 3456 506 2189 
C 506 902 1664 -134 3091 -134 
C 4262 -134 5056 685 5056 1498 
z
" transform="scale(0.015625)"/>
      </defs>
      <use xlink:href="#LMRoman6-Regular-54"/>
      <use xlink:href="#LMRoman6-Regular-65" x="86.999985"/>
      <use xlink:href="#LMRoman6-Regular-6d" x="141.599976"/>
      <use xlink:href="#LMRoman6-Regular-70" x="241.59996"/>
      <use xlink:href="#LMRoman6-Regular-65" x="309.199951"/>
      <use xlink:href="#LMRoman6-Regular-72" x="363.799942"/>
      <use xlink:href="#LMRoman6-Regular-61" x="411.899933"/>
      <use xlink:href="#LMRoman6-Regular-74" x="472.999924"/>
      <use xlink:href="#LMRoman6-Regular-75" x="521.099915"/>
      <use xlink:href="#LMRoman6-Regular-72" x="588.699905"/>
      <use xlink:href="#LMRoman6-Regular-20" x="636.799896"/>
      <use xlink:href="#LMRoman6-Regular-69" x="678.499893"/>
      <use xlink:href="#LMRoman6-Regular-6e" x="713.69989"/>
      <use xlink:href="#LMRoman6-Regular-20" x="781.299881"/>
      <use xlink:href="#LMRoman6-Regular-b0" x="822.999878"/>
      <use xlink:href="#LMRoman6-Regular-43" x="868.799866"/>
     </g>
    </g>
   </g>
   <g id="line2d_21">
    <path d="M 58.110236 63.652136 
L 64.366772 64.513869 
L 67.330394 64.615251 
L 75.562677 65.198187 
L 76.22126 65.198187 
L 76.879843 65.198187 
L 80.502047 65.274219 
L 81.489921 65.32491 
L 87.417165 65.400952 
L 88.075748 65.451633 
L 88.734331 65.451633 
L 93.673701 65.527675 
L 94.661575 65.603707 
L 96.637323 65.654399 
L 96.966614 65.755781 
L 97.625197 66.288025 
L 98.28378 67.377864 
L 98.942362 68.974606 
L 99.600945 71.230315 
L 100.588819 75.741734 
L 103.552441 90.239116 
L 104.869606 94.801226 
L 105.528189 96.321926 
L 106.186772 97.209009 
L 106.845354 97.437115 
L 107.174646 97.285041 
L 107.503937 96.980903 
L 108.16252 95.891065 
L 109.479685 93.660696 
L 111.126142 91.506369 
L 113.431181 89.149277 
L 115.077638 88.11013 
L 115.406929 87.679259 
L 115.73622 86.766835 
L 116.394803 83.421286 
L 117.053386 78.504347 
L 118.04126 68.797191 
L 119.029134 57.74674 
L 119.687717 52.221515 
L 120.346299 48.343723 
L 121.004882 45.758525 
L 121.663465 44.009709 
L 122.651339 42.514359 
L 123.639213 41.627266 
L 124.297795 41.247106 
L 125.614961 40.714862 
L 127.92 40.436065 
L 131.542205 40.537447 
L 133.847244 40.714862 
L 134.176535 40.892277 
L 134.505827 41.551234 
L 135.164409 44.896782 
L 136.810866 54.553257 
L 137.79874 58.684505 
L 138.457323 60.407971 
L 139.115906 61.573841 
L 139.774488 62.308851 
L 140.433071 62.765063 
L 142.079528 63.297307 
L 143.067402 63.525413 
L 144.713858 63.576104 
L 145.701732 63.702827 
L 148.336063 63.80421 
L 149.98252 63.829551 
L 151.299685 63.930933 
L 152.61685 64.133698 
L 153.275433 64.412486 
L 155.580472 65.882505 
L 156.239055 66.211993 
L 157.226929 66.744237 
L 157.885512 67.099067 
L 160.190551 68.239597 
L 161.178425 68.36632 
L 161.837008 68.264937 
L 162.824882 67.656661 
L 165.129921 66.009228 
L 166.117795 65.679739 
L 168.422835 65.274219 
L 169.74 64.665943 
L 172.703622 63.42403 
L 176.325827 61.751256 
L 180.606614 61.320394 
L 181.594488 61.016256 
L 188.180315 58.583123 
L 188.838898 58.50709 
L 195.424724 57.569326 
L 196.412598 57.467943 
L 203.327717 56.479487 
L 204.315591 56.378104 
L 206.949921 56.073966 
L 208.267087 55.972584 
L 208.596378 55.82051 
L 209.584252 55.744478 
L 210.901417 55.516372 
L 217.487244 54.933436 
L 218.145827 54.806713 
L 219.462992 54.603948 
L 221.43874 54.375842 
L 222.755906 54.29981 
L 224.402362 54.147736 
L 226.37811 53.894289 
L 233.62252 52.703068 
L 236.25685 51.790644 
L 238.232598 51.892026 
L 239.549764 52.01875 
L 240.537638 51.968059 
L 245.806299 51.461165 
L 247.452756 51.309091 
L 248.111339 51.2584 
L 249.428504 51.207708 
L 250.087087 51.106326 
L 251.733543 51.004953 
L 274.783937 49.332179 
L 276.759685 49.256137 
L 277.747559 49.205446 
L 281.699055 49.00269 
L 284.991969 48.901308 
L 285.979843 48.850616 
L 287.297008 48.774584 
L 288.284882 48.723893 
L 291.907087 48.62251 
L 294.870709 48.495787 
L 297.834331 48.419755 
L 298.822205 48.369064 
L 305.737323 48.267681 
L 306.725197 48.191649 
L 311.993858 48.090266 
L 313.640315 48.064926 
L 316.274646 47.988884 
L 317.26252 47.938192 
L 318.908976 47.912852 
L 320.226142 47.912852 
L 327.470551 48.014234 
L 328.787717 48.014234 
L 332.409921 47.938192 
L 335.044252 47.532672 
L 336.032126 46.899045 
L 336.361417 46.493534 
L 337.02 45.023516 
L 337.349291 44.136442 
L 338.007874 40.99364 
L 339.325039 34.860138 
L 339.983622 32.376332 
L 340.642205 30.678198 
L 341.630079 29.157498 
L 342.288661 28.574572 
L 342.947244 28.169042 
L 344.593701 27.560766 
L 345.910866 27.358001 
L 347.886614 27.003171 
L 349.862362 26.95249 
L 353.155276 27.307319 
L 354.14315 27.890245 
L 354.472441 28.295775 
L 355.460315 30.424751 
L 356.118898 32.629779 
L 357.765354 38.788631 
L 359.08252 42.869189 
L 359.741102 44.516622 
L 360.728976 46.366801 
L 361.71685 47.760778 
L 362.375433 48.419755 
L 363.363307 49.205446 
L 364.351181 49.788391 
L 367.644094 50.726156 
L 371.595591 51.2584 
L 372.912756 51.359782 
L 375.876378 51.486506 
L 377.852126 51.537197 
L 378.181417 51.613229 
L 378.84 51.537197 
L 379.498583 51.613229 
L 381.803622 51.66392 
L 382.462205 51.739953 
L 386.742992 51.841335 
L 387.730866 51.892026 
L 388.71874 51.841335 
L 389.377323 51.892026 
L 391.682362 51.968059 
L 392.999528 51.968059 
L 395.96315 52.069441 
L 399.256063 52.221515 
L 400.243937 52.322898 
L 401.231811 52.576344 
L 403.207559 52.627036 
L 404.524724 52.576344 
L 405.183307 52.500312 
L 408.47622 52.170824 
L 410.122677 51.739953 
L 411.110551 50.954262 
L 411.769134 50.016497 
L 412.427717 49.028031 
L 412.757008 48.723893 
L 413.415591 48.495787 
L 414.074173 48.774584 
L 415.391339 49.813732 
L 416.708504 50.827538 
L 417.367087 51.182368 
L 418.354961 51.66392 
L 420.330709 52.196165 
L 420.66 52.246856 
L 420.989291 52.449621 
L 421.647874 53.362045 
L 424.282205 57.493284 
L 425.59937 58.50709 
L 427.904409 59.140717 
L 432.185197 59.394164 
L 433.831654 59.216749 
L 434.490236 58.684505 
L 435.148819 57.493284 
L 436.136693 55.491031 
L 437.124567 54.097045 
L 438.441732 52.42427 
L 441.405354 46.873714 
L 442.393228 45.657142 
L 443.051811 45.099548 
L 443.710394 44.82075 
L 444.039685 44.896782 
L 444.698268 45.378345 
L 445.35685 46.366801 
L 447.991181 51.182368 
L 449.966929 55.617754 
L 450.625512 56.682243 
L 451.613386 57.74674 
L 452.60126 58.405708 
L 453.259843 58.684505 
L 453.259843 58.684505 
" clip-path="url(#p089d342a2e)" style="fill: none; stroke: #000000; stroke-width: 0.9; stroke-linecap: square"/>
   </g>
   <g id="line2d_22">
    <path d="M 58.110236 45.36567 
L 67.988976 45.441707 
L 68.97685 45.479728 
L 69.635433 45.454377 
L 70.623307 45.479723 
L 80.502047 45.58111 
L 83.794961 45.619121 
L 85.770709 45.619121 
L 86.758583 45.657137 
L 88.075748 45.619121 
L 88.734331 45.695158 
L 91.03937 45.657137 
L 91.697953 45.720499 
L 92.685827 45.695158 
L 93.673701 45.74585 
L 95.97874 45.745845 
L 98.942362 45.78387 
L 100.588819 45.75852 
L 102.564567 45.809211 
L 106.186772 45.859907 
L 107.174646 49.433557 
L 107.833228 51.068315 
L 108.16252 51.169692 
L 108.491811 51.701941 
L 108.821102 51.701941 
L 110.467559 53.628167 
L 110.79685 53.678849 
L 111.126142 53.5648 
L 112.443307 53.704194 
L 113.10189 53.704199 
L 113.431181 53.780236 
L 113.760472 53.653508 
L 114.089764 53.75489 
L 114.419055 53.628162 
L 114.748346 54.135061 
L 116.065512 53.868943 
L 117.382677 53.894289 
L 119.687717 53.818252 
L 120.346299 53.856273 
L 120.675591 53.780231 
L 121.004882 53.970316 
L 122.322047 53.982992 
L 123.639213 53.91963 
L 125.285669 53.894289 
L 128.578583 53.818247 
L 129.237165 53.476098 
L 129.566457 53.146609 
L 129.895748 53.146609 
L 130.554331 52.512983 
L 133.847244 50.700805 
L 134.505827 50.498045 
L 136.810866 49.598301 
L 139.115906 49.813727 
L 139.774488 50.092524 
L 140.10378 50.041833 
L 141.091654 50.460029 
L 141.420945 50.422013 
L 141.750236 50.586752 
L 143.067402 50.460034 
L 143.396693 50.726156 
L 145.701732 50.827533 
L 147.67748 50.90357 
L 148.006772 50.751496 
L 148.665354 50.865554 
L 148.994646 50.764177 
L 149.653228 50.776847 
L 150.970394 50.751501 
L 151.628976 50.776847 
L 153.275433 50.662794 
L 153.604724 50.789517 
L 153.934016 50.776842 
L 154.592598 50.409342 
L 156.239055 48.951999 
L 157.55622 46.9244 
L 157.885512 46.645598 
L 158.544094 45.606451 
L 158.873386 45.403691 
L 159.86126 44.364543 
L 160.190551 44.770069 
L 160.519843 44.656016 
L 161.507717 44.605324 
L 162.166299 45.124898 
L 162.495591 45.074202 
L 162.824882 44.744723 
L 163.483465 45.39102 
L 163.812756 45.276967 
L 164.142047 44.871442 
L 164.471339 44.694027 
L 164.80063 44.199804 
L 165.129921 44.567308 
L 165.459213 43.959018 
L 166.117795 43.287375 
L 166.447087 43.477465 
L 166.776378 43.059269 
L 167.105669 43.147976 
L 167.434961 43.008582 
L 167.764252 43.47746 
L 168.752126 42.881859 
L 169.410709 42.970566 
L 170.727874 42.907195 
L 171.386457 42.831168 
L 172.703622 42.894529 
L 173.032913 42.805822 
L 174.67937 42.970562 
L 175.667244 42.881854 
L 175.996535 42.869184 
L 176.325827 43.30005 
L 176.655118 43.249359 
L 177.313701 42.881854 
L 177.642992 42.881859 
L 178.301575 42.653753 
L 178.960157 42.805822 
L 179.289449 42.729785 
L 179.948031 42.767806 
L 181.265197 42.552375 
L 181.594488 42.565041 
L 181.92378 42.780477 
L 182.582362 42.387626 
L 182.911654 42.311594 
L 183.899528 42.374956 
L 184.887402 42.248228 
L 186.86315 42.15952 
L 187.521732 42.134175 
L 187.851024 42.210212 
L 190.485354 41.804686 
L 191.143937 41.728654 
L 191.80252 41.715983 
L 192.461102 41.639947 
L 193.119685 41.728654 
L 193.778268 41.538564 
L 197.729764 41.171069 
L 198.388346 41.069686 
L 199.705512 41.018995 
L 200.364094 40.980979 
L 201.351969 40.955633 
L 202.010551 40.930283 
L 204.644882 40.727527 
L 206.949921 40.537433 
L 207.937795 40.512087 
L 209.913543 40.385364 
L 210.901417 40.372688 
L 211.889291 40.25864 
L 213.865039 40.169933 
L 215.840787 40.030534 
L 220.780157 39.739071 
L 222.097323 39.625014 
L 224.073071 39.447599 
L 226.048819 39.143451 
L 228.024567 38.915355 
L 228.68315 38.775956 
L 230.658898 38.573191 
L 232.963937 38.383111 
L 233.62252 38.319744 
L 234.281102 38.256378 
L 235.598268 38.332419 
L 237.244724 38.294394 
L 243.171969 38.193021 
L 245.477008 38.205686 
L 252.062835 38.104313 
L 254.038583 38.129654 
L 269.844567 38.231037 
L 270.50315 38.231037 
L 272.149606 38.269062 
L 292.236378 38.16767 
L 296.187874 38.104313 
L 297.175748 38.104313 
L 301.785827 37.990265 
L 302.444409 37.964915 
L 303.102992 37.914223 
L 305.07874 37.901548 
L 310.676693 37.660777 
L 311.335276 37.534044 
L 312.32315 37.521378 
L 313.311024 37.432671 
L 313.640315 37.458011 
L 314.298898 37.331278 
L 317.591811 37.153864 
L 318.579685 37.204555 
L 321.543307 37.191889 
L 322.531181 37.255246 
L 323.848346 37.229905 
L 326.811969 37.242581 
L 328.458425 37.204555 
L 329.117008 37.255256 
L 330.104882 37.242581 
L 335.702835 37.318613 
L 336.690709 37.331288 
L 339.325039 37.318613 
L 342.288661 37.381979 
L 342.947244 37.331288 
L 343.935118 37.356639 
L 344.922992 37.369304 
L 345.581575 37.445346 
L 345.910866 37.369304 
L 346.569449 37.432671 
L 347.886614 37.419995 
L 361.71685 37.521378 
L 363.034016 37.57206 
L 363.692598 37.508703 
L 372.254173 37.57206 
L 372.912756 37.59741 
L 373.90063 37.59741 
L 377.193543 37.648101 
L 378.510709 37.622761 
L 379.827874 37.673442 
L 381.145039 37.673442 
L 396.292441 37.774825 
L 398.268189 37.825516 
L 398.59748 38.421127 
L 398.926772 38.573201 
L 399.256063 40.169933 
L 399.585354 40.562788 
L 400.573228 40.537437 
L 401.231811 40.866916 
L 401.561102 41.133048 
L 402.219685 41.285117 
L 402.548976 41.665297 
L 402.878268 41.652627 
L 403.207559 41.994776 
L 404.195433 42.260898 
L 404.854016 42.577716 
L 405.183307 42.476334 
L 405.84189 42.793152 
L 407.159055 42.995912 
L 407.488346 43.10996 
L 407.817638 42.983237 
L 408.805512 43.173327 
L 409.464094 43.173327 
L 409.793386 43.274709 
L 410.451969 43.28738 
L 411.769134 43.363407 
L 413.744882 43.363417 
L 414.732756 43.426778 
L 419.342835 43.515481 
L 420.330709 43.528161 
L 424.282205 43.591518 
L 425.270079 43.566172 
L 426.587244 43.591513 
L 427.904409 43.591518 
L 429.221575 43.604188 
L 430.209449 43.959023 
L 433.831654 44.04773 
L 437.124567 44.339193 
L 437.453858 44.465921 
L 438.112441 44.402559 
L 439.100315 44.579974 
L 440.088189 44.630665 
L 441.734646 44.808075 
L 446.344724 44.884117 
L 447.003307 44.972829 
L 449.308346 44.960149 
L 450.29622 45.01084 
L 453.259843 45.023516 
L 453.259843 45.023516 
" clip-path="url(#p089d342a2e)" style="fill: none; stroke-dasharray: 3.33,1.44; stroke-dashoffset: 0; stroke: #000000; stroke-width: 0.9"/>
   </g>
   <g id="line2d_23">
    <path d="M 58.110236 127.394984 
L 59.09811 127.24291 
L 62.720315 126.305145 
L 65.683937 125.012541 
L 67.330394 124.657712 
L 68.97685 124.176159 
L 71.28189 123.365118 
L 72.599055 122.731491 
L 73.586929 122.402002 
L 74.574803 122.199247 
L 76.550551 121.362855 
L 77.538425 121.084058 
L 78.855591 120.42509 
L 82.148504 119.309901 
L 86.429291 117.73851 
L 87.417165 117.409021 
L 90.710079 116.496607 
L 92.027244 116.395224 
L 93.344409 116.395224 
L 96.637323 116.496607 
L 105.198898 117.079542 
L 106.516063 117.054192 
L 108.16252 117.079542 
L 109.808976 117.054192 
L 115.077638 117.130234 
L 116.394803 117.231606 
L 118.699843 117.332989 
L 119.687717 117.38368 
L 122.322047 117.485063 
L 133.188661 117.561095 
L 134.176535 117.611786 
L 134.835118 117.611786 
L 146.689606 117.510404 
L 148.336063 117.485063 
L 157.55622 117.38368 
L 159.202677 117.35833 
L 159.86126 117.409021 
L 160.190551 117.662478 
L 161.178425 119.309901 
L 161.837008 120.196984 
L 162.495591 120.754569 
L 163.483465 121.008026 
L 165.788504 120.906643 
L 166.447087 120.678537 
L 167.434961 120.222325 
L 169.74 119.233869 
L 171.057165 118.549551 
L 173.362205 117.561095 
L 174.020787 117.38368 
L 175.667244 116.775394 
L 176.325827 116.496607 
L 177.313701 116.116427 
L 178.301575 115.609524 
L 178.630866 115.533492 
L 179.61874 114.975897 
L 180.935906 114.266238 
L 182.911654 113.455197 
L 186.204567 112.111902 
L 188.180315 110.996722 
L 190.814646 109.957575 
L 191.473228 109.552054 
L 193.119685 108.943768 
L 194.43685 108.335492 
L 198.717638 106.459953 
L 200.364094 105.750294 
L 201.022677 105.268741 
L 202.339843 104.584423 
L 204.644882 103.418553 
L 206.62063 102.582161 
L 207.608504 102.125949 
L 208.925669 101.543013 
L 209.584252 101.238875 
L 211.230709 100.960078 
L 211.889291 101.162833 
L 212.547874 101.568354 
L 212.877165 101.771119 
L 214.523622 103.443893 
L 216.828661 105.294082 
L 217.816535 105.750294 
L 218.475118 105.9784 
L 219.133701 106.282538 
L 221.43874 106.73875 
L 224.073071 106.840133 
L 225.390236 106.941515 
L 227.036693 107.042888 
L 229.671024 107.347036 
L 230.988189 107.423068 
L 233.293228 107.701865 
L 234.281102 107.752557 
L 234.939685 107.828589 
L 236.25685 107.87928 
L 237.244724 108.158077 
L 240.208346 110.109649 
L 244.818425 110.008266 
L 245.806299 109.932234 
L 246.464882 110.058957 
L 247.123465 110.185681 
L 248.44063 110.058957 
L 252.721417 110.109649 
L 253.709291 110.287063 
L 254.367874 110.236372 
L 255.026457 110.236372 
L 259.965827 110.287063 
L 260.953701 110.464478 
L 263.25874 110.185681 
L 264.246614 110.236372 
L 266.551654 110.312404 
L 267.210236 110.363096 
L 267.868819 110.363096 
L 275.113228 110.312404 
L 275.771811 110.236372 
L 276.430394 110.236372 
L 282.686929 110.13499 
L 283.674803 110.058957 
L 284.991969 110.109649 
L 285.979843 110.236372 
L 291.577795 110.13499 
L 292.894961 110.084298 
L 294.212126 110.185681 
L 294.870709 110.13499 
L 295.858583 110.185681 
L 296.517165 110.13499 
L 297.834331 109.906884 
L 299.151496 109.906884 
L 300.468661 109.881543 
L 301.456535 109.932234 
L 303.432283 109.805501 
L 303.761575 109.881543 
L 305.408031 109.729469 
L 306.066614 109.78016 
L 306.725197 109.881543 
L 308.042362 109.805501 
L 308.700945 109.78016 
L 310.676693 109.805501 
L 311.005984 109.906884 
L 312.652441 109.830851 
L 313.640315 109.881543 
L 315.616063 109.653437 
L 321.214016 109.602745 
L 322.20189 109.39998 
L 325.165512 109.222566 
L 326.482677 109.349289 
L 327.14126 109.197225 
L 329.775591 109.323948 
L 333.068504 109.171874 
L 335.702835 109.095842 
L 336.361417 109.095842 
L 337.02 109.070501 
L 337.349291 109.146534 
L 338.995748 108.99446 
L 339.983622 109.045151 
L 344.264409 108.791704 
L 344.922992 108.817045 
L 346.240157 108.817045 
L 346.89874 108.842395 
L 348.215906 108.741013 
L 349.862362 108.690322 
L 350.520945 108.63963 
L 351.508819 108.538248 
L 352.825984 108.436875 
L 353.813858 108.487566 
L 355.460315 108.335492 
L 356.448189 108.411524 
L 357.106772 108.411524 
L 358.094646 108.284801 
L 361.058268 108.386183 
L 361.71685 108.411524 
L 363.363307 108.132727 
L 364.680472 107.929971 
L 365.339055 107.87928 
L 365.997638 107.87928 
L 366.65622 107.87928 
L 367.314803 108.056695 
L 368.631969 107.955312 
L 369.619843 107.828589 
L 371.595591 107.752557 
L 372.583465 107.701865 
L 373.571339 107.752557 
L 374.229921 107.701865 
L 374.888504 107.625833 
L 376.864252 107.575142 
L 380.486457 107.473759 
L 381.474331 107.4991 
L 382.132913 107.473759 
L 383.120787 107.423068 
L 385.425827 107.524451 
L 386.742992 107.347036 
L 387.730866 107.220313 
L 388.389449 107.245653 
L 389.377323 107.321686 
L 392.340945 107.169621 
L 394.645984 107.245653 
L 395.96315 107.245653 
L 400.573228 107.169621 
L 401.231811 107.09358 
L 402.219685 107.144271 
L 405.512598 106.941515 
L 406.829764 107.042888 
L 408.146929 106.890824 
L 410.451969 107.017547 
L 411.439843 106.814782 
L 413.415591 106.865474 
L 414.732756 106.73875 
L 417.037795 106.840133 
L 419.672126 106.713409 
L 422.965039 106.865474 
L 425.270079 106.73875 
L 426.257953 106.789441 
L 426.916535 106.713409 
L 428.233701 106.612027 
L 430.53874 106.713409 
L 434.490236 106.510644 
L 436.465984 106.637368 
L 437.453858 106.459953 
L 440.746772 106.35858 
L 441.405354 106.33323 
L 442.72252 106.459953 
L 443.710394 106.257197 
L 445.686142 106.054432 
L 446.674016 106.257197 
L 447.332598 106.434612 
L 448.979055 106.257197 
L 451.613386 106.383921 
L 453.259843 106.155815 
L 453.259843 106.155815 
" clip-path="url(#p089d342a2e)" style="fill: none; stroke-dasharray: 5.76,1.44,0.9,1.44; stroke-dashoffset: 0; stroke: #000000; stroke-width: 0.9"/>
   </g>
   <g id="line2d_24">
    <path d="M 58.110236 143.210303 
L 58.768819 143.260994 
L 59.756693 143.222976 
L 91.368661 143.324356 
L 93.673701 143.311683 
L 96.308031 143.273664 
L 96.966614 143.311683 
L 97.295906 143.248321 
L 97.954488 143.337029 
L 157.226929 143.438409 
L 157.885512 143.463754 
L 158.214803 143.40039 
L 158.873386 143.40039 
L 160.519843 143.463754 
L 160.849134 143.40039 
L 161.507717 143.451082 
L 162.495591 143.387717 
L 163.154173 143.463754 
L 163.812756 143.425736 
L 164.471339 143.438409 
L 165.459213 143.425736 
L 168.093543 143.438409 
L 168.752126 143.375045 
L 169.74 143.463754 
L 171.386457 143.425736 
L 172.703622 143.476425 
L 173.362205 143.463754 
L 203.327717 143.514443 
L 203.657008 143.577807 
L 204.315591 143.527116 
L 206.291339 143.527116 
L 208.267087 143.679185 
L 208.596378 143.539786 
L 209.254961 143.552462 
L 212.547874 143.489098 
L 212.877165 143.235646 
L 214.523622 143.362374 
L 215.511496 143.083577 
L 215.840787 143.273664 
L 217.157953 143.19763 
L 217.487244 143.070904 
L 217.816535 143.172284 
L 218.804409 143.134268 
L 219.792283 143.083577 
L 222.097323 142.817455 
L 222.755906 142.982197 
L 224.073071 143.09625 
L 225.719528 142.754091 
L 226.048819 142.855471 
L 226.37811 142.754091 
L 226.707402 142.792109 
L 227.365984 142.665383 
L 228.353858 142.678056 
L 232.963937 142.589349 
L 234.281102 142.652711 
L 234.610394 142.475296 
L 234.939685 142.55133 
L 235.268976 142.437277 
L 236.25685 142.462623 
L 237.244724 142.297879 
L 238.56189 142.297879 
L 239.879055 142.259863 
L 241.525512 142.158483 
L 242.513386 142.183828 
L 243.171969 142.158483 
L 252.721417 141.689598 
L 253.050709 141.626236 
L 253.709291 141.689598 
L 254.038583 141.651579 
L 254.697165 141.740289 
L 255.685039 141.613563 
L 256.014331 141.689598 
L 257.331496 141.613563 
L 258.31937 141.626234 
L 259.307244 141.575547 
L 260.295118 141.49951 
L 260.624409 141.575547 
L 261.282992 141.512183 
L 261.941575 141.49951 
L 263.588031 141.474165 
L 263.917323 141.372784 
L 265.234488 141.474165 
L 265.893071 141.385457 
L 268.527402 141.38546 
L 269.185984 141.29675 
L 269.515276 141.372784 
L 271.161732 141.157351 
L 272.808189 141.220715 
L 274.125354 141.170024 
L 275.113228 141.182697 
L 276.101102 141.182697 
L 276.430394 141.030628 
L 277.747559 141.043298 
L 278.735433 141.017955 
L 280.052598 141.043298 
L 283.345512 140.789849 
L 283.674803 140.878556 
L 284.991969 140.777176 
L 285.650551 140.802519 
L 289.272756 140.726485 
L 289.931339 140.739158 
L 291.248504 140.701139 
L 291.577795 140.561745 
L 292.565669 140.612434 
L 293.224252 140.523725 
L 293.882835 140.561743 
L 295.2 140.498381 
L 295.858583 140.536397 
L 296.517165 140.498381 
L 299.151496 140.447692 
L 299.810079 140.358983 
L 302.773701 140.34631 
L 304.749449 140.24493 
L 306.725197 140.2576 
L 307.38378 140.24493 
L 310.01811 140.105533 
L 311.335276 140.118204 
L 319.89685 139.852079 
L 320.226142 139.902771 
L 320.884724 139.839409 
L 321.872598 139.763374 
L 322.531181 139.750702 
L 322.860472 139.839409 
L 323.519055 139.725356 
L 324.177638 139.788718 
L 324.83622 139.687338 
L 327.470551 139.585957 
L 329.446299 139.560612 
L 329.775591 139.661992 
L 331.092756 139.433888 
L 331.751339 139.535268 
L 335.373543 139.446559 
L 336.690709 139.345179 
L 338.007874 139.345179 
L 342.947244 139.256471 
L 343.605827 139.243801 
L 345.910866 139.167764 
L 346.89874 139.256471 
L 347.886614 139.104402 
L 349.20378 139.066386 
L 349.862362 139.053713 
L 351.508819 139.066386 
L 352.167402 138.990347 
L 357.106772 138.787589 
L 357.436063 138.914315 
L 357.765354 138.914312 
L 358.094646 138.762243 
L 358.753228 138.863623 
L 359.08252 138.888969 
L 359.741102 138.774916 
L 362.375433 138.787589 
L 364.680472 138.660863 
L 365.339055 138.686209 
L 366.326929 138.610174 
L 366.65622 138.622847 
L 366.985512 138.521464 
L 367.973386 138.635517 
L 370.278425 138.483446 
L 370.937008 138.534137 
L 371.266299 138.44543 
L 371.595591 138.597501 
L 375.547087 138.382068 
L 377.193543 138.34405 
L 381.145039 138.280688 
L 381.803622 138.242669 
L 382.132913 138.128616 
L 383.450079 138.153962 
L 384.108661 138.103271 
L 389.048031 138.115944 
L 389.706614 137.951202 
L 391.02378 137.951202 
L 392.011654 137.938529 
L 392.340945 137.849819 
L 392.670236 137.90051 
L 393.328819 137.837149 
L 394.975276 137.887838 
L 395.304567 137.811803 
L 396.292441 137.887838 
L 397.280315 137.761112 
L 401.890394 137.761112 
L 402.219685 137.634388 
L 406.500472 137.609043 
L 406.829764 137.49499 
L 409.134803 137.482317 
L 411.439843 137.393612 
L 412.427717 137.444298 
L 413.086299 137.304902 
L 419.672126 137.203522 
L 420.330709 137.203522 
L 421.318583 137.178176 
L 421.977165 137.165504 
L 422.635748 137.178176 
L 422.965039 137.038778 
L 423.623622 137.089469 
L 425.59937 137.026105 
L 426.587244 137.089469 
L 427.245827 137.038778 
L 429.550866 136.95007 
L 430.209449 136.95007 
L 430.53874 136.84869 
L 431.197323 136.84869 
L 433.173071 136.899382 
L 441.405354 136.683948 
L 442.063937 136.658603 
L 442.72252 136.569895 
L 447.003307 136.54455 
L 447.332598 136.417824 
L 447.66189 136.519207 
L 447.991181 136.430497 
L 448.649764 136.493861 
L 448.979055 136.417824 
L 449.637638 136.430497 
L 453.259843 136.329117 
L 453.259843 136.329117 
" clip-path="url(#p089d342a2e)" style="fill: none; stroke-dasharray: 0.9,1.485; stroke-dashoffset: 0; stroke: #000000; stroke-width: 0.9"/>
   </g>
   <g id="line2d_25">
    <path d="M 58.110236 167.060008 
L 63.049606 167.110699 
L 63.378898 167.186736 
L 63.708189 167.389497 
L 64.366772 168.428644 
L 65.025354 170.55763 
L 66.34252 175.702678 
L 67.001102 177.578212 
L 67.659685 178.896157 
L 68.318268 179.884613 
L 68.97685 180.492897 
L 69.964724 180.974452 
L 70.623307 181.405318 
L 73.586929 182.545846 
L 74.245512 182.5205 
L 75.562677 182.926021 
L 76.22126 183.103438 
L 77.538425 183.331544 
L 79.843465 183.407578 
L 80.502047 183.407578 
L 82.477795 183.635684 
L 85.770709 183.686373 
L 86.429291 183.76241 
L 90.710079 183.86379 
L 92.356535 183.889134 
L 94.332283 183.813099 
L 95.320157 183.86379 
L 123.968504 183.76241 
L 125.614961 183.737065 
L 145.701732 183.635684 
L 146.360315 183.584993 
L 147.348189 183.635684 
L 176.984409 183.534304 
L 178.630866 183.508959 
L 210.242835 183.407578 
L 211.56 183.382233 
L 213.206457 183.407578 
L 214.852913 183.382233 
L 220.780157 183.280853 
L 221.109449 183.230164 
L 221.43874 183.002058 
L 221.768031 182.292394 
L 222.426614 179.428404 
L 223.414488 174.790256 
L 224.073071 172.66127 
L 224.731654 171.520743 
L 225.060945 171.2166 
L 225.719528 170.963151 
L 227.036693 171.241946 
L 228.353858 171.824883 
L 229.341732 172.45851 
L 230.658898 173.142826 
L 232.634646 174.004558 
L 233.293228 174.25801 
L 234.610394 174.384733 
L 235.927559 174.080593 
L 237.574016 173.472312 
L 238.56189 173.11748 
L 242.842677 171.900918 
L 248.111339 171.01384 
L 250.087087 170.506939 
L 253.38 169.645206 
L 256.672913 168.732787 
L 259.307244 168.251229 
L 260.295118 168.023123 
L 261.282992 167.795017 
L 262.600157 167.465534 
L 264.246614 167.136045 
L 264.905197 166.933285 
L 266.222362 166.654487 
L 269.515276 165.742068 
L 277.747559 163.739806 
L 279.723307 163.232907 
L 281.369764 162.878073 
L 283.01622 162.472552 
L 290.26063 160.799778 
L 294.541417 161.560133 
L 295.529291 161.864271 
L 298.163622 163.359631 
L 301.785827 165.209819 
L 302.773701 165.589994 
L 304.090866 165.919483 
L 306.066614 166.325004 
L 307.38378 166.654487 
L 308.371654 166.705179 
L 309.359528 166.705179 
L 310.676693 166.907939 
L 311.664567 167.034667 
L 312.32315 167.136045 
L 314.628189 167.389497 
L 316.603937 167.465534 
L 317.921102 167.440188 
L 318.579685 167.51622 
L 319.89685 167.51622 
L 327.14126 167.592257 
L 327.799843 167.642948 
L 328.787717 167.642948 
L 329.775591 167.693635 
L 331.092756 167.693635 
L 334.056378 167.566911 
L 336.032126 167.642948 
L 337.349291 167.642948 
L 354.14315 167.744326 
L 355.131024 167.795017 
L 355.789606 167.592257 
L 357.765354 167.642948 
L 359.08252 167.592257 
L 360.399685 167.693635 
L 361.71685 167.592257 
L 362.375433 167.592257 
L 364.02189 167.642948 
L 364.680472 167.541566 
L 366.65622 167.744326 
L 368.631969 167.541566 
L 372.583465 167.744326 
L 381.474331 167.642948 
L 382.462205 167.642948 
L 385.096535 167.744326 
L 402.219685 167.845709 
L 402.878268 167.820363 
L 404.524724 167.769672 
L 406.829764 167.845709 
L 410.122677 167.693635 
L 416.379213 167.769672 
L 417.037795 167.820363 
L 418.684252 167.795017 
L 421.977165 167.744326 
L 422.635748 167.592257 
L 423.952913 167.71898 
L 429.221575 167.820363 
L 430.868031 167.845709 
L 433.502362 167.693635 
L 434.490236 167.795017 
L 435.47811 167.795017 
L 436.465984 167.769672 
L 437.78315 167.769672 
L 438.441732 167.769672 
L 439.429606 167.71898 
L 440.41748 167.71898 
L 442.393228 167.795017 
L 444.039685 167.744326 
L 445.35685 167.744326 
L 453.259843 167.744326 
L 453.259843 167.744326 
" clip-path="url(#p089d342a2e)" style="fill: none; stroke-dasharray: 4.5,9; stroke-dashoffset: 0; stroke: #000000; stroke-width: 0.9"/>
   </g>
   <g id="line2d_26">
    <path d="M 58.110236 163.25825 
L 58.768819 163.15687 
L 60.744567 163.093506 
L 61.40315 163.15687 
L 61.732441 163.080833 
L 62.720315 163.15687 
L 64.696063 163.106179 
L 65.354646 163.169543 
L 67.330394 163.194886 
L 96.637323 163.106179 
L 97.295906 163.080833 
L 97.954488 163.131525 
L 99.600945 163.131525 
L 100.588819 163.106179 
L 101.905984 163.106179 
L 177.313701 163.068163 
L 177.642992 162.979453 
L 178.301575 163.068163 
L 228.024567 163.042817 
L 228.353858 162.954108 
L 228.68315 163.030144 
L 229.671024 162.979453 
L 232.305354 163.017472 
L 232.963937 163.017472 
L 235.598268 163.030144 
L 238.891181 162.95411 
L 239.549764 163.017472 
L 292.565669 162.979453 
L 292.894961 162.903421 
L 293.553543 162.954108 
L 294.541417 162.979453 
L 295.529291 162.95411 
L 296.187874 162.95411 
L 297.175748 162.928764 
L 453.259843 162.852727 
L 453.259843 162.852727 
" clip-path="url(#p089d342a2e)" style="fill: none; stroke-dasharray: 2.7,9,0.9,9; stroke-dashoffset: 0; stroke: #000000; stroke-width: 0.9"/>
   </g>
   <g id="patch_3">
    <path d="M 58.110236 222.23622 
L 58.110236 6.80315 
" style="fill: none; stroke: #000000; stroke-width: 0.8; stroke-linejoin: miter; stroke-linecap: square"/>
   </g>
   <g id="patch_4">
    <path d="M 58.110236 222.23622 
L 453.259843 222.23622 
" style="fill: none; stroke: #000000; stroke-width: 0.8; stroke-linejoin: miter; stroke-linecap: square"/>
   </g>
   <g id="legend_1">
    <g id="line2d_27">
     <path d="M 127.591133 194.708268 
L 136.591133 194.708268 
L 145.591133 194.708268 
" style="fill: none; stroke: #000000; stroke-width: 0.9; stroke-linecap: square"/>
    </g>
    <g id="text_11">
     <!-- BS_HNHT -->
     <g transform="translate(152.791133 197.858268) scale(0.09 -0.09)">
      <defs>
       <path id="LMRoman6-Regular-42" d="M 4934 1178 
C 4934 1677 4435 2176 3533 2291 
C 4186 2400 4730 2790 4730 3283 
C 4730 3866 4006 4371 3091 4371 
L 442 4371 
L 442 4122 
L 608 4122 
C 1120 4122 1120 4045 1120 3834 
L 1120 538 
C 1120 326 1120 250 608 250 
L 442 250 
L 442 0 
L 3290 0 
C 4224 0 4934 550 4934 1178 
z
M 4064 3283 
C 4064 2797 3571 2374 2835 2374 
L 1715 2374 
L 1715 3872 
C 1715 4070 1715 4122 2029 4122 
L 3046 4122 
C 3680 4122 4064 3706 4064 3283 
z
M 4250 1184 
C 4250 717 3782 250 3059 250 
L 2029 250 
C 1715 250 1715 301 1715 499 
L 1715 2170 
L 3162 2170 
C 3853 2170 4250 1645 4250 1184 
z
" transform="scale(0.015625)"/>
       <path id="LMRoman6-Regular-53" d="M 3814 1178 
C 3814 1626 3565 1933 3469 2029 
C 3142 2355 2950 2394 2157 2560 
L 1555 2694 
C 1222 2803 915 3085 915 3450 
C 915 3878 1338 4275 1965 4275 
C 2304 4275 2630 4186 2893 3974 
C 3270 3674 3341 3213 3366 3059 
C 3379 2963 3386 2918 3488 2918 
C 3610 2918 3610 2976 3610 3098 
L 3610 4326 
C 3610 4435 3610 4506 3507 4506 
C 3482 4506 3443 4506 3392 4422 
L 3155 4058 
C 2790 4416 2330 4506 1958 4506 
C 1126 4506 506 3942 506 3283 
C 506 2950 659 2669 890 2451 
C 1178 2189 1395 2144 2112 1997 
C 2771 1856 2918 1824 3117 1638 
C 3194 1562 3405 1357 3405 1018 
C 3405 576 3008 115 2342 115 
C 1792 115 794 282 742 1306 
C 736 1402 736 1453 627 1453 
C 506 1453 506 1395 506 1267 
L 506 45 
C 506 -64 506 -134 608 -134 
C 666 -134 678 -109 710 -58 
C 730 -38 864 166 954 301 
C 1421 -90 2042 -134 2342 -134 
C 3232 -134 3814 499 3814 1178 
z
" transform="scale(0.015625)"/>
       <path id="LMRoman6-Regular-5f" d="M 5734 -922 
L 5734 -678 
L 0 -678 
L 0 -922 
L 5734 -922 
z
" transform="scale(0.015625)"/>
       <path id="LMRoman6-Regular-48" d="M 5312 0 
L 5312 250 
L 5146 250 
C 4634 250 4634 326 4634 538 
L 4634 3834 
C 4634 4045 4634 4122 5146 4122 
L 5312 4122 
L 5312 4371 
L 4314 4346 
L 3315 4371 
L 3315 4122 
L 3482 4122 
C 3994 4122 3994 4045 3994 3834 
L 3994 2400 
L 1734 2400 
L 1734 3834 
C 1734 4045 1734 4122 2246 4122 
L 2413 4122 
L 2413 4371 
L 1414 4346 
L 416 4371 
L 416 4122 
L 582 4122 
C 1094 4122 1094 4045 1094 3834 
L 1094 538 
C 1094 326 1094 250 582 250 
L 416 250 
L 416 0 
L 1414 26 
L 2413 0 
L 2413 250 
L 2246 250 
C 1734 250 1734 326 1734 538 
L 1734 2150 
L 3994 2150 
L 3994 538 
C 3994 326 3994 250 3482 250 
L 3315 250 
L 3315 0 
L 4314 26 
L 5312 0 
z
" transform="scale(0.015625)"/>
       <path id="LMRoman6-Regular-4e" d="M 5312 4122 
L 5312 4371 
C 5190 4365 4774 4346 4506 4346 
C 4211 4346 3808 4365 3693 4371 
L 3693 4122 
C 4371 4122 4371 3834 4371 3667 
L 4371 986 
L 1779 4282 
C 1709 4365 1702 4371 1568 4371 
L 416 4371 
L 416 4122 
L 621 4122 
C 768 4122 928 4122 1050 4090 
C 1088 4083 1094 4077 1094 3968 
L 1094 704 
C 1094 538 1094 250 416 250 
L 416 0 
C 538 6 954 26 1222 26 
C 1517 26 1920 6 2035 0 
L 2035 250 
C 1357 250 1357 538 1357 704 
L 1357 3898 
L 4365 77 
C 4416 13 4422 0 4499 0 
C 4634 0 4634 64 4634 192 
L 4634 3667 
C 4634 3834 4634 4122 5312 4122 
z
" transform="scale(0.015625)"/>
      </defs>
      <use xlink:href="#LMRoman6-Regular-42"/>
      <use xlink:href="#LMRoman6-Regular-53" x="85.099991"/>
      <use xlink:href="#LMRoman6-Regular-5f" x="152.699982"/>
      <use xlink:href="#LMRoman6-Regular-48" x="242.299973"/>
      <use xlink:href="#LMRoman6-Regular-4e" x="331.899963"/>
      <use xlink:href="#LMRoman6-Regular-48" x="421.499954"/>
      <use xlink:href="#LMRoman6-Regular-54" x="511.099945"/>
     </g>
    </g>
    <g id="line2d_28">
     <path d="M 127.591133 207.25483 
L 136.591133 207.25483 
L 145.591133 207.25483 
" style="fill: none; stroke-dasharray: 3.33,1.44; stroke-dashoffset: 0; stroke: #000000; stroke-width: 0.9"/>
    </g>
    <g id="text_12">
     <!-- ST_HNHT -->
     <g transform="translate(152.791133 210.40483) scale(0.09 -0.09)">
      <use xlink:href="#LMRoman6-Regular-53"/>
      <use xlink:href="#LMRoman6-Regular-54" x="67.599991"/>
      <use xlink:href="#LMRoman6-Regular-5f" x="154.599976"/>
      <use xlink:href="#LMRoman6-Regular-48" x="244.199966"/>
      <use xlink:href="#LMRoman6-Regular-4e" x="333.799957"/>
      <use xlink:href="#LMRoman6-Regular-48" x="423.399948"/>
      <use xlink:href="#LMRoman6-Regular-54" x="512.999939"/>
     </g>
    </g>
    <g id="line2d_29">
     <path d="M 224.788321 194.708268 
L 233.788321 194.708268 
L 242.788321 194.708268 
" style="fill: none; stroke-dasharray: 5.76,1.44,0.9,1.44; stroke-dashoffset: 0; stroke: #000000; stroke-width: 0.9"/>
    </g>
    <g id="text_13">
     <!-- BS_HNLT -->
     <g transform="translate(249.988321 197.858268) scale(0.09 -0.09)">
      <defs>
       <path id="LMRoman6-Regular-4c" d="M 4416 1702 
L 4179 1702 
C 4102 928 3904 250 2746 250 
L 2048 250 
C 1734 250 1734 301 1734 499 
L 1734 3834 
C 1734 4045 1734 4122 2349 4122 
L 2586 4122 
L 2586 4371 
C 2246 4346 1779 4346 1434 4346 
L 416 4371 
L 416 4122 
L 582 4122 
C 1094 4122 1094 4045 1094 3834 
L 1094 538 
C 1094 326 1094 250 582 250 
L 416 250 
L 416 0 
L 4218 0 
L 4416 1702 
z
" transform="scale(0.015625)"/>
      </defs>
      <use xlink:href="#LMRoman6-Regular-42"/>
      <use xlink:href="#LMRoman6-Regular-53" x="85.099991"/>
      <use xlink:href="#LMRoman6-Regular-5f" x="152.699982"/>
      <use xlink:href="#LMRoman6-Regular-48" x="242.299973"/>
      <use xlink:href="#LMRoman6-Regular-4e" x="331.899963"/>
      <use xlink:href="#LMRoman6-Regular-4c" x="421.499954"/>
      <use xlink:href="#LMRoman6-Regular-54" x="496.899948"/>
     </g>
    </g>
    <g id="line2d_30">
     <path d="M 224.788321 207.25483 
L 233.788321 207.25483 
L 242.788321 207.25483 
" style="fill: none; stroke-dasharray: 0.9,1.485; stroke-dashoffset: 0; stroke: #000000; stroke-width: 0.9"/>
    </g>
    <g id="text_14">
     <!-- ST_HNLT -->
     <g transform="translate(249.988321 210.40483) scale(0.09 -0.09)">
      <use xlink:href="#LMRoman6-Regular-53"/>
      <use xlink:href="#LMRoman6-Regular-54" x="67.599991"/>
      <use xlink:href="#LMRoman6-Regular-5f" x="154.599976"/>
      <use xlink:href="#LMRoman6-Regular-48" x="244.199966"/>
      <use xlink:href="#LMRoman6-Regular-4e" x="333.799957"/>
      <use xlink:href="#LMRoman6-Regular-4c" x="423.399948"/>
      <use xlink:href="#LMRoman6-Regular-54" x="498.799942"/>
     </g>
    </g>
    <g id="line2d_31">
     <path d="M 320.708633 194.708268 
L 329.708633 194.708268 
L 338.708633 194.708268 
" style="fill: none; stroke-dasharray: 4.5,9; stroke-dashoffset: 0; stroke: #000000; stroke-width: 0.9"/>
    </g>
    <g id="text_15">
     <!-- BS_CN -->
     <g transform="translate(345.908633 197.858268) scale(0.09 -0.09)">
      <use xlink:href="#LMRoman6-Regular-42"/>
      <use xlink:href="#LMRoman6-Regular-53" x="85.099991"/>
      <use xlink:href="#LMRoman6-Regular-5f" x="152.699982"/>
      <use xlink:href="#LMRoman6-Regular-43" x="242.299973"/>
      <use xlink:href="#LMRoman6-Regular-4e" x="329.299957"/>
     </g>
    </g>
    <g id="line2d_32">
     <path d="M 320.708633 207.25483 
L 329.708633 207.25483 
L 338.708633 207.25483 
" style="fill: none; stroke-dasharray: 2.7,9,0.9,9; stroke-dashoffset: 0; stroke: #000000; stroke-width: 0.9"/>
    </g>
    <g id="text_16">
     <!-- ST_CN -->
     <g transform="translate(345.908633 210.40483) scale(0.09 -0.09)">
      <use xlink:href="#LMRoman6-Regular-53"/>
      <use xlink:href="#LMRoman6-Regular-54" x="67.599991"/>
      <use xlink:href="#LMRoman6-Regular-5f" x="154.599976"/>
      <use xlink:href="#LMRoman6-Regular-43" x="244.199966"/>
      <use xlink:href="#LMRoman6-Regular-4e" x="331.199951"/>
     </g>
    </g>
   </g>
  </g>
 </g>
 <defs>
  <clipPath id="p089d342a2e">
   <rect x="58.110236" y="6.80315" width="395.149606" height="215.433071"/>
  </clipPath>
 </defs>
</svg>
