<?xml version="1.0" encoding="utf-8" standalone="no"?>
<!DOCTYPE svg PUBLIC "-//W3C//DTD SVG 1.1//EN"
  "http://www.w3.org/Graphics/SVG/1.1/DTD/svg11.dtd">
<svg xmlns:xlink="http://www.w3.org/1999/xlink" width="464.88189pt" height="226.771654pt" viewBox="0 0 464.88189 226.771654" xmlns="http://www.w3.org/2000/svg" version="1.1">
 <metadata>
  <rdf:RDF xmlns:dc="http://purl.org/dc/elements/1.1/" xmlns:cc="http://creativecommons.org/ns#" xmlns:rdf="http://www.w3.org/1999/02/22-rdf-syntax-ns#">
   <cc:Work>
    <dc:type rdf:resource="http://purl.org/dc/dcmitype/StillImage"/>
    <dc:date>2024-09-20T10:17:45.811909</dc:date>
    <dc:format>image/svg+xml</dc:format>
    <dc:creator>
     <cc:Agent>
      <dc:title>Matplotlib v3.8.2, https://matplotlib.org/</dc:title>
     </cc:Agent>
    </dc:creator>
   </cc:Work>
  </rdf:RDF>
 </metadata>
 <defs>
  <style type="text/css">*{stroke-linejoin: round; stroke-linecap: butt}</style>
 </defs>
 <g id="figure_1">
  <g id="patch_1">
   <path d="M 0 226.771654 
L 464.88189 226.771654 
L 464.88189 0 
L 0 0 
z
" style="fill: #ffffff"/>
  </g>
  <g id="axes_1">
   <g id="patch_2">
    <path d="M 58.110236 222.23622 
L 453.259843 222.23622 
L 453.259843 6.80315 
L 58.110236 6.80315 
z
" style="fill: #ffffff"/>
   </g>
   <g id="matplotlib.axis_1">
    <g id="xtick_1">
     <g id="line2d_1">
      <defs>
       <path id="mbcd30d6427" d="M 0 0 
L 0 3.5 
" style="stroke: #000000; stroke-width: 0.8"/>
      </defs>
      <g>
       <use xlink:href="#mbcd30d6427" x="58.110236" y="222.23622" style="stroke: #000000; stroke-width: 0.8"/>
      </g>
     </g>
    </g>
    <g id="xtick_2">
     <g id="line2d_2">
      <g>
       <use xlink:href="#mbcd30d6427" x="74.574803" y="222.23622" style="stroke: #000000; stroke-width: 0.8"/>
      </g>
     </g>
    </g>
    <g id="xtick_3">
     <g id="line2d_3">
      <g>
       <use xlink:href="#mbcd30d6427" x="91.03937" y="222.23622" style="stroke: #000000; stroke-width: 0.8"/>
      </g>
     </g>
    </g>
    <g id="xtick_4">
     <g id="line2d_4">
      <g>
       <use xlink:href="#mbcd30d6427" x="107.503937" y="222.23622" style="stroke: #000000; stroke-width: 0.8"/>
      </g>
     </g>
    </g>
    <g id="xtick_5">
     <g id="line2d_5">
      <g>
       <use xlink:href="#mbcd30d6427" x="123.968504" y="222.23622" style="stroke: #000000; stroke-width: 0.8"/>
      </g>
     </g>
    </g>
    <g id="xtick_6">
     <g id="line2d_6">
      <g>
       <use xlink:href="#mbcd30d6427" x="140.433071" y="222.23622" style="stroke: #000000; stroke-width: 0.8"/>
      </g>
     </g>
    </g>
    <g id="xtick_7">
     <g id="line2d_7">
      <g>
       <use xlink:href="#mbcd30d6427" x="156.897638" y="222.23622" style="stroke: #000000; stroke-width: 0.8"/>
      </g>
     </g>
    </g>
    <g id="xtick_8">
     <g id="line2d_8">
      <g>
       <use xlink:href="#mbcd30d6427" x="173.362205" y="222.23622" style="stroke: #000000; stroke-width: 0.8"/>
      </g>
     </g>
    </g>
    <g id="xtick_9">
     <g id="line2d_9">
      <g>
       <use xlink:href="#mbcd30d6427" x="189.826772" y="222.23622" style="stroke: #000000; stroke-width: 0.8"/>
      </g>
     </g>
    </g>
    <g id="xtick_10">
     <g id="line2d_10">
      <g>
       <use xlink:href="#mbcd30d6427" x="206.291339" y="222.23622" style="stroke: #000000; stroke-width: 0.8"/>
      </g>
     </g>
    </g>
    <g id="xtick_11">
     <g id="line2d_11">
      <g>
       <use xlink:href="#mbcd30d6427" x="222.755906" y="222.23622" style="stroke: #000000; stroke-width: 0.8"/>
      </g>
     </g>
    </g>
    <g id="xtick_12">
     <g id="line2d_12">
      <g>
       <use xlink:href="#mbcd30d6427" x="239.220472" y="222.23622" style="stroke: #000000; stroke-width: 0.8"/>
      </g>
     </g>
    </g>
    <g id="xtick_13">
     <g id="line2d_13">
      <g>
       <use xlink:href="#mbcd30d6427" x="255.685039" y="222.23622" style="stroke: #000000; stroke-width: 0.8"/>
      </g>
     </g>
    </g>
    <g id="xtick_14">
     <g id="line2d_14">
      <g>
       <use xlink:href="#mbcd30d6427" x="272.149606" y="222.23622" style="stroke: #000000; stroke-width: 0.8"/>
      </g>
     </g>
    </g>
    <g id="xtick_15">
     <g id="line2d_15">
      <g>
       <use xlink:href="#mbcd30d6427" x="288.614173" y="222.23622" style="stroke: #000000; stroke-width: 0.8"/>
      </g>
     </g>
    </g>
    <g id="xtick_16">
     <g id="line2d_16">
      <g>
       <use xlink:href="#mbcd30d6427" x="305.07874" y="222.23622" style="stroke: #000000; stroke-width: 0.8"/>
      </g>
     </g>
    </g>
    <g id="xtick_17">
     <g id="line2d_17">
      <g>
       <use xlink:href="#mbcd30d6427" x="321.543307" y="222.23622" style="stroke: #000000; stroke-width: 0.8"/>
      </g>
     </g>
    </g>
    <g id="xtick_18">
     <g id="line2d_18">
      <g>
       <use xlink:href="#mbcd30d6427" x="338.007874" y="222.23622" style="stroke: #000000; stroke-width: 0.8"/>
      </g>
     </g>
    </g>
    <g id="xtick_19">
     <g id="line2d_19">
      <g>
       <use xlink:href="#mbcd30d6427" x="354.472441" y="222.23622" style="stroke: #000000; stroke-width: 0.8"/>
      </g>
     </g>
    </g>
    <g id="xtick_20">
     <g id="line2d_20">
      <g>
       <use xlink:href="#mbcd30d6427" x="370.937008" y="222.23622" style="stroke: #000000; stroke-width: 0.8"/>
      </g>
     </g>
    </g>
    <g id="xtick_21">
     <g id="line2d_21">
      <g>
       <use xlink:href="#mbcd30d6427" x="387.401575" y="222.23622" style="stroke: #000000; stroke-width: 0.8"/>
      </g>
     </g>
    </g>
    <g id="xtick_22">
     <g id="line2d_22">
      <g>
       <use xlink:href="#mbcd30d6427" x="403.866142" y="222.23622" style="stroke: #000000; stroke-width: 0.8"/>
      </g>
     </g>
    </g>
    <g id="xtick_23">
     <g id="line2d_23">
      <g>
       <use xlink:href="#mbcd30d6427" x="420.330709" y="222.23622" style="stroke: #000000; stroke-width: 0.8"/>
      </g>
     </g>
    </g>
    <g id="xtick_24">
     <g id="line2d_24">
      <g>
       <use xlink:href="#mbcd30d6427" x="436.795276" y="222.23622" style="stroke: #000000; stroke-width: 0.8"/>
      </g>
     </g>
    </g>
    <g id="xtick_25">
     <g id="line2d_25">
      <g>
       <use xlink:href="#mbcd30d6427" x="453.259843" y="222.23622" style="stroke: #000000; stroke-width: 0.8"/>
      </g>
     </g>
    </g>
   </g>
   <g id="matplotlib.axis_2">
    <g id="ytick_1">
     <g id="line2d_26">
      <defs>
       <path id="mbcb3454825" d="M 0 0 
L -3.5 0 
" style="stroke: #000000; stroke-width: 0.8"/>
      </defs>
      <g>
       <use xlink:href="#mbcb3454825" x="58.110236" y="209.563687" style="stroke: #000000; stroke-width: 0.8"/>
      </g>
     </g>
     <g id="text_1">
      <!-- 0 -->
      <g transform="translate(45.611799 212.686968) scale(0.09 -0.09)">
       <defs>
        <path id="LMRoman6-Regular-30" d="M 3520 2042 
C 3520 2509 3520 4256 1952 4256 
C 384 4256 384 2509 384 2042 
C 384 1581 384 -134 1952 -134 
C 3520 -134 3520 1581 3520 2042 
z
M 2912 2125 
C 2912 1715 2912 1069 2803 710 
C 2624 154 2163 70 1952 70 
C 1683 70 1248 198 1094 730 
C 992 1101 992 1728 992 2125 
C 992 2554 992 3046 1082 3392 
C 1242 3968 1728 4051 1952 4051 
C 2246 4051 2669 3910 2810 3424 
C 2906 3085 2912 2618 2912 2125 
z
" transform="scale(0.015625)"/>
       </defs>
       <use xlink:href="#LMRoman6-Regular-30"/>
      </g>
     </g>
    </g>
    <g id="ytick_2">
     <g id="line2d_27">
      <g>
       <use xlink:href="#mbcb3454825" x="58.110236" y="184.21862" style="stroke: #000000; stroke-width: 0.8"/>
      </g>
     </g>
     <g id="text_2">
      <!-- 10 -->
      <g transform="translate(40.113361 187.341901) scale(0.09 -0.09)">
       <defs>
        <path id="LMRoman6-Regular-31" d="M 3232 0 
L 3232 250 
L 2957 250 
C 2298 250 2298 333 2298 544 
L 2298 4064 
C 2298 4256 2272 4256 2080 4256 
C 1658 3846 1005 3846 774 3846 
L 774 3597 
C 941 3597 1363 3597 1747 3776 
L 1747 544 
C 1747 333 1747 250 1088 250 
L 813 250 
L 813 0 
C 1165 26 1664 26 2022 26 
C 2381 26 2880 26 3232 0 
z
" transform="scale(0.015625)"/>
       </defs>
       <use xlink:href="#LMRoman6-Regular-31"/>
       <use xlink:href="#LMRoman6-Regular-30" x="61.099991"/>
      </g>
     </g>
    </g>
    <g id="ytick_3">
     <g id="line2d_28">
      <g>
       <use xlink:href="#mbcb3454825" x="58.110236" y="158.873553" style="stroke: #000000; stroke-width: 0.8"/>
      </g>
     </g>
     <g id="text_3">
      <!-- 20 -->
      <g transform="translate(40.113361 161.996834) scale(0.09 -0.09)">
       <defs>
        <path id="LMRoman6-Regular-32" d="M 3443 1197 
L 3206 1197 
C 3194 1107 3130 685 3034 614 
C 2989 576 2470 576 2381 576 
L 1184 576 
L 2003 1242 
C 2221 1414 2790 1824 2989 2016 
C 3181 2208 3443 2534 3443 2989 
C 3443 3789 2720 4256 1862 4256 
C 1037 4256 461 3712 461 3110 
C 461 2784 736 2746 806 2746 
C 966 2746 1152 2861 1152 3091 
C 1152 3232 1069 3437 787 3437 
C 934 3763 1325 4006 1766 4006 
C 2438 4006 2797 3507 2797 2989 
C 2797 2534 2496 2067 2048 1658 
L 531 269 
C 467 205 461 198 461 0 
L 3245 0 
L 3443 1197 
z
" transform="scale(0.015625)"/>
       </defs>
       <use xlink:href="#LMRoman6-Regular-32"/>
       <use xlink:href="#LMRoman6-Regular-30" x="61.099991"/>
      </g>
     </g>
    </g>
    <g id="ytick_4">
     <g id="line2d_29">
      <g>
       <use xlink:href="#mbcb3454825" x="58.110236" y="133.528485" style="stroke: #000000; stroke-width: 0.8"/>
      </g>
     </g>
     <g id="text_4">
      <!-- 30 -->
      <g transform="translate(40.113361 136.651767) scale(0.09 -0.09)">
       <defs>
        <path id="LMRoman6-Regular-33" d="M 3501 1107 
C 3501 1574 3142 2067 2381 2259 
C 2886 2426 3296 2835 3296 3360 
C 3296 3872 2694 4256 1926 4256 
C 1178 4256 608 3910 608 3386 
C 608 3110 819 3034 947 3034 
C 1114 3034 1286 3149 1286 3373 
C 1286 3571 1146 3686 973 3712 
C 1274 4045 1856 4045 1914 4045 
C 2240 4045 2650 3891 2650 3360 
C 2650 3008 2451 2394 1811 2355 
C 1696 2349 1523 2336 1466 2336 
C 1402 2330 1331 2323 1331 2227 
C 1331 2125 1402 2125 1510 2125 
L 1882 2125 
C 2426 2125 2790 1760 2790 1107 
C 2790 403 2368 96 1901 96 
C 1728 96 1069 134 781 506 
C 1030 531 1133 698 1133 870 
C 1133 1088 979 1235 768 1235 
C 595 1235 403 1126 403 858 
C 403 224 1107 -134 1920 -134 
C 2867 -134 3501 474 3501 1107 
z
" transform="scale(0.015625)"/>
       </defs>
       <use xlink:href="#LMRoman6-Regular-33"/>
       <use xlink:href="#LMRoman6-Regular-30" x="61.099991"/>
      </g>
     </g>
    </g>
    <g id="ytick_5">
     <g id="line2d_30">
      <g>
       <use xlink:href="#mbcb3454825" x="58.110236" y="108.183418" style="stroke: #000000; stroke-width: 0.8"/>
      </g>
     </g>
     <g id="text_5">
      <!-- 40 -->
      <g transform="translate(40.113361 111.306699) scale(0.09 -0.09)">
       <defs>
        <path id="LMRoman6-Regular-34" d="M 3610 1050 
L 3610 1299 
L 2861 1299 
L 2861 4128 
C 2861 4275 2861 4320 2701 4320 
C 2586 4320 2573 4301 2515 4224 
L 294 1299 
L 294 1050 
L 2285 1050 
L 2285 538 
C 2285 326 2285 250 1747 250 
L 1562 250 
L 1562 0 
L 2573 26 
L 3584 0 
L 3584 250 
L 3398 250 
C 2861 250 2861 326 2861 538 
L 2861 1050 
L 3610 1050 
z
M 2330 1299 
L 570 1299 
L 2330 3622 
L 2330 1299 
z
" transform="scale(0.015625)"/>
       </defs>
       <use xlink:href="#LMRoman6-Regular-34"/>
       <use xlink:href="#LMRoman6-Regular-30" x="61.099991"/>
      </g>
     </g>
    </g>
    <g id="ytick_6">
     <g id="line2d_31">
      <g>
       <use xlink:href="#mbcb3454825" x="58.110236" y="82.838351" style="stroke: #000000; stroke-width: 0.8"/>
      </g>
     </g>
     <g id="text_6">
      <!-- 50 -->
      <g transform="translate(40.113361 85.961632) scale(0.09 -0.09)">
       <defs>
        <path id="LMRoman6-Regular-35" d="M 3443 1286 
C 3443 2016 2854 2682 2029 2682 
C 1613 2682 1293 2547 1088 2374 
L 1088 3552 
C 1299 3494 1523 3469 1741 3469 
C 1882 3469 2240 3469 2643 3693 
C 2752 3757 3149 4019 3149 4154 
C 3149 4237 3085 4256 3059 4256 
C 3040 4256 3034 4256 2963 4230 
C 2733 4141 2406 4051 1990 4051 
C 1677 4051 1331 4109 1043 4218 
C 979 4243 954 4256 928 4256 
C 838 4256 838 4186 838 4083 
L 838 2163 
C 838 2054 838 1978 954 1978 
C 1011 1978 1030 2003 1075 2054 
C 1235 2259 1517 2477 2016 2477 
C 2803 2477 2803 1517 2803 1312 
C 2803 1062 2784 704 2573 442 
C 2374 198 2080 96 1805 96 
C 1363 96 922 339 768 710 
C 1082 717 1120 966 1120 1043 
C 1120 1216 986 1370 787 1370 
C 730 1370 461 1338 461 1018 
C 461 429 1018 -134 1824 -134 
C 2701 -134 3443 486 3443 1286 
z
" transform="scale(0.015625)"/>
       </defs>
       <use xlink:href="#LMRoman6-Regular-35"/>
       <use xlink:href="#LMRoman6-Regular-30" x="61.099991"/>
      </g>
     </g>
    </g>
    <g id="ytick_7">
     <g id="line2d_32">
      <g>
       <use xlink:href="#mbcb3454825" x="58.110236" y="57.493284" style="stroke: #000000; stroke-width: 0.8"/>
      </g>
     </g>
     <g id="text_7">
      <!-- 60 -->
      <g transform="translate(40.113361 60.616565) scale(0.09 -0.09)">
       <defs>
        <path id="LMRoman6-Regular-36" d="M 3501 1306 
C 3501 1523 3475 1933 3085 2298 
C 2861 2502 2579 2726 2035 2726 
C 1587 2726 1261 2496 1043 2118 
C 1050 2438 1062 2970 1286 3366 
C 1568 3853 1990 4045 2374 4045 
C 2522 4045 2816 4019 2970 3840 
C 2733 3802 2694 3635 2694 3533 
C 2694 3366 2810 3226 3002 3226 
C 3194 3226 3315 3347 3315 3546 
C 3315 3936 3021 4256 2368 4256 
C 1376 4256 403 3392 403 2029 
C 403 474 1126 -134 1971 -134 
C 2221 -134 2656 -96 3046 282 
C 3251 486 3501 742 3501 1306 
z
M 2861 1306 
C 2861 864 2848 646 2630 390 
C 2477 198 2272 96 1965 96 
C 1062 96 1062 1197 1062 1446 
C 1062 1997 1427 2522 2003 2522 
C 2336 2522 2528 2387 2682 2182 
C 2861 1933 2861 1645 2861 1306 
z
" transform="scale(0.015625)"/>
       </defs>
       <use xlink:href="#LMRoman6-Regular-36"/>
       <use xlink:href="#LMRoman6-Regular-30" x="61.099991"/>
      </g>
     </g>
    </g>
    <g id="ytick_8">
     <g id="line2d_33">
      <g>
       <use xlink:href="#mbcb3454825" x="58.110236" y="32.148217" style="stroke: #000000; stroke-width: 0.8"/>
      </g>
     </g>
     <g id="text_8">
      <!-- 70 -->
      <g transform="translate(40.113361 35.271498) scale(0.09 -0.09)">
       <defs>
        <path id="LMRoman6-Regular-37" d="M 3712 4122 
L 2061 4122 
C 1798 4122 1645 4128 1395 4147 
C 1082 4166 1005 4173 973 4326 
L 736 4326 
L 506 2925 
L 742 2925 
C 762 3059 826 3437 922 3507 
C 973 3546 1523 3546 1619 3546 
L 3066 3546 
L 2496 2861 
C 1875 2112 1440 1203 1440 230 
C 1440 173 1440 -134 1747 -134 
C 2061 -134 2061 160 2061 243 
L 2061 422 
C 2061 1651 2323 2278 2643 2662 
L 3654 3866 
C 3712 3930 3712 3942 3712 4122 
z
" transform="scale(0.015625)"/>
       </defs>
       <use xlink:href="#LMRoman6-Regular-37"/>
       <use xlink:href="#LMRoman6-Regular-30" x="61.099991"/>
      </g>
     </g>
    </g>
    <g id="ytick_9">
     <g id="line2d_34">
      <g>
       <use xlink:href="#mbcb3454825" x="58.110236" y="6.80315" style="stroke: #000000; stroke-width: 0.8"/>
      </g>
     </g>
     <g id="text_9">
      <!-- 80 -->
      <g transform="translate(40.113361 9.926431) scale(0.09 -0.09)">
       <defs>
        <path id="LMRoman6-Regular-38" d="M 3501 1088 
C 3501 1530 3232 1792 3136 1888 
C 3014 2003 2694 2182 2464 2310 
C 2938 2522 3296 2835 3296 3296 
C 3296 3923 2624 4256 1958 4256 
C 1235 4256 608 3821 608 3174 
C 608 2778 870 2470 1139 2310 
L 1421 2150 
C 998 1990 403 1632 403 986 
C 403 237 1203 -134 1946 -134 
C 2797 -134 3501 378 3501 1088 
z
M 2938 3290 
C 2938 2797 2406 2534 2227 2445 
L 1306 2944 
C 1293 2950 966 3130 966 3424 
C 966 3840 1472 4045 1946 4045 
C 2445 4045 2938 3770 2938 3290 
z
M 3091 864 
C 3091 358 2502 96 1958 96 
C 1363 96 813 442 813 986 
C 813 1530 1325 1888 1677 2016 
L 2605 1504 
C 2739 1421 3091 1229 3091 864 
z
" transform="scale(0.015625)"/>
       </defs>
       <use xlink:href="#LMRoman6-Regular-38"/>
       <use xlink:href="#LMRoman6-Regular-30" x="61.099991"/>
      </g>
     </g>
    </g>
    <g id="text_10">
     <!-- Temperatur in °C -->
     <g transform="translate(34.366799 157.528435) rotate(-90) scale(0.09 -0.09)">
      <defs>
       <path id="LMRoman6-Regular-54" d="M 5203 2835 
L 5062 4326 
L 499 4326 
L 358 2835 
L 595 2835 
C 691 3994 941 4077 1907 4077 
C 2042 4077 2253 4077 2317 4070 
C 2464 4045 2464 3981 2464 3827 
L 2464 544 
C 2464 333 2464 250 1786 250 
L 1498 250 
L 1498 0 
C 1811 26 2445 26 2784 26 
C 3123 26 3757 26 4070 0 
L 4070 250 
L 3782 250 
C 3104 250 3104 333 3104 544 
L 3104 3827 
C 3104 3981 3104 4045 3245 4070 
C 3309 4077 3520 4077 3654 4077 
C 4627 4077 4870 3987 4966 2835 
L 5203 2835 
z
" transform="scale(0.015625)"/>
       <path id="LMRoman6-Regular-65" d="M 3194 768 
C 3194 800 3181 870 3072 870 
C 2989 870 2976 832 2950 755 
C 2758 282 2278 160 1984 160 
C 1632 160 1331 320 1152 550 
C 915 851 915 1274 915 1446 
L 3002 1446 
C 3142 1446 3194 1446 3194 1600 
C 3194 2093 2918 2854 1856 2854 
C 960 2854 307 2170 307 1402 
C 307 595 1043 -64 1946 -64 
C 2867 -64 3194 627 3194 768 
z
M 2726 1638 
L 928 1638 
C 998 2496 1587 2650 1850 2650 
C 2675 2650 2720 1824 2726 1638 
z
" transform="scale(0.015625)"/>
       <path id="LMRoman6-Regular-6d" d="M 6080 0 
L 6080 250 
C 5638 250 5574 250 5574 525 
L 5574 1933 
C 5574 2586 5190 2822 4563 2822 
C 3968 2822 3616 2483 3475 2240 
C 3328 2822 2675 2822 2496 2822 
C 1914 2822 1555 2502 1402 2234 
L 1395 2234 
L 1395 2822 
L 403 2752 
L 403 2502 
C 851 2502 909 2458 909 2144 
L 909 525 
C 909 250 845 250 403 250 
L 403 0 
C 448 6 883 26 1171 26 
C 1459 26 1882 6 1946 0 
L 1946 250 
C 1504 250 1440 250 1440 525 
L 1440 1651 
C 1440 2355 2048 2618 2438 2618 
C 2880 2618 2976 2342 2976 1946 
L 2976 525 
C 2976 250 2912 250 2470 250 
L 2470 0 
C 2515 6 2950 26 3238 26 
C 3526 26 3949 6 4013 0 
L 4013 250 
C 3571 250 3507 250 3507 525 
L 3507 1651 
C 3507 2355 4115 2618 4506 2618 
C 4947 2618 5043 2342 5043 1946 
L 5043 525 
C 5043 250 4979 250 4538 250 
L 4538 0 
C 4582 6 5018 26 5306 26 
C 5594 26 6016 6 6080 0 
z
" transform="scale(0.015625)"/>
       <path id="LMRoman6-Regular-70" d="M 3974 1382 
C 3974 2157 3302 2822 2419 2822 
C 1837 2822 1478 2534 1382 2445 
L 1382 2822 
L 371 2752 
L 371 2502 
C 806 2502 877 2502 877 2208 
L 877 -717 
C 877 -992 813 -992 371 -992 
L 371 -1242 
C 416 -1235 851 -1216 1139 -1216 
C 1427 -1216 1850 -1235 1914 -1242 
L 1914 -992 
C 1472 -992 1408 -992 1408 -717 
L 1408 307 
C 1670 58 1971 -64 2323 -64 
C 3213 -64 3974 570 3974 1382 
z
M 3366 1382 
C 3366 666 2854 141 2285 141 
C 1792 141 1504 493 1408 678 
L 1408 2118 
C 1626 2419 1978 2598 2355 2598 
C 2938 2598 3366 2035 3366 1382 
z
" transform="scale(0.015625)"/>
       <path id="LMRoman6-Regular-72" d="M 2778 2400 
C 2778 2656 2534 2822 2253 2822 
C 1869 2822 1542 2592 1344 2163 
L 1338 2163 
L 1338 2822 
L 371 2752 
L 371 2502 
C 819 2502 877 2458 877 2144 
L 877 525 
C 877 250 813 250 371 250 
L 371 0 
C 531 13 1005 26 1146 26 
C 1478 26 1920 6 2010 0 
L 2010 250 
L 1869 250 
C 1389 250 1382 314 1382 531 
L 1382 1434 
C 1382 2029 1690 2605 2259 2618 
C 2202 2560 2176 2483 2176 2400 
C 2176 2227 2304 2099 2477 2099 
C 2650 2099 2778 2227 2778 2400 
z
" transform="scale(0.015625)"/>
       <path id="LMRoman6-Regular-61" d="M 3712 576 
L 3712 928 
L 3475 928 
L 3475 589 
C 3475 525 3475 237 3226 237 
C 2976 237 2976 525 2976 589 
L 2976 1907 
C 2976 2502 2368 2854 1651 2854 
C 1344 2854 589 2822 589 2285 
C 589 2112 704 1971 902 1971 
C 1088 1971 1210 2112 1210 2278 
C 1210 2394 1158 2502 1043 2554 
C 1254 2650 1574 2650 1638 2650 
C 2093 2650 2445 2381 2445 1894 
L 2445 1728 
C 2150 1715 1638 1702 1171 1536 
C 749 1389 346 1101 346 672 
C 346 102 1024 -64 1523 -64 
C 2061 -64 2381 205 2522 448 
C 2566 115 2778 -32 3002 -32 
C 3027 -32 3712 -32 3712 576 
z
M 2445 909 
C 2445 243 1786 141 1581 141 
C 1235 141 909 352 909 672 
C 909 1030 1254 1498 2445 1536 
L 2445 909 
z
" transform="scale(0.015625)"/>
       <path id="LMRoman6-Regular-74" d="M 2566 806 
L 2566 1158 
L 2330 1158 
L 2330 819 
C 2330 365 2093 160 1856 160 
C 1395 160 1395 678 1395 800 
L 1395 2509 
L 2445 2509 
L 2445 2758 
L 1395 2758 
L 1395 3936 
L 1158 3936 
C 1152 3366 877 2739 230 2714 
L 230 2509 
L 864 2509 
L 864 800 
C 864 128 1370 -64 1805 -64 
C 2246 -64 2566 288 2566 806 
z
" transform="scale(0.015625)"/>
       <path id="LMRoman6-Regular-75" d="M 4006 0 
L 4006 250 
C 3558 250 3501 294 3501 608 
L 3501 2822 
L 2464 2752 
L 2464 2502 
C 2912 2502 2970 2458 2970 2144 
L 2970 1075 
C 2970 493 2566 141 2074 141 
C 1466 141 1440 410 1440 723 
L 1440 2822 
L 403 2752 
L 403 2502 
C 909 2502 909 2445 909 2067 
L 909 1069 
C 909 634 909 352 1197 141 
C 1440 -38 1760 -64 2029 -64 
C 2432 -64 2771 96 2995 461 
L 2995 -64 
L 4006 0 
z
" transform="scale(0.015625)"/>
       <path id="LMRoman6-Regular-20" transform="scale(0.015625)"/>
       <path id="LMRoman6-Regular-69" d="M 1875 0 
L 1875 250 
C 1478 250 1421 250 1421 518 
L 1421 2822 
L 435 2752 
L 435 2502 
C 858 2502 915 2458 915 2144 
L 915 525 
C 915 250 851 250 410 250 
L 410 0 
L 1158 26 
C 1222 26 1709 13 1875 0 
z
M 1510 3846 
C 1510 4051 1344 4230 1126 4230 
C 890 4230 736 4032 736 3846 
C 736 3642 902 3462 1120 3462 
C 1357 3462 1510 3661 1510 3846 
z
" transform="scale(0.015625)"/>
       <path id="LMRoman6-Regular-6e" d="M 4006 0 
L 4006 250 
C 3565 250 3501 250 3501 525 
L 3501 1933 
C 3501 2560 3142 2822 2496 2822 
C 1933 2822 1581 2528 1395 2221 
L 1395 2822 
L 403 2752 
L 403 2502 
C 851 2502 909 2458 909 2144 
L 909 525 
C 909 250 845 250 403 250 
L 403 0 
C 448 6 883 26 1171 26 
C 1459 26 1882 6 1946 0 
L 1946 250 
C 1504 250 1440 250 1440 525 
L 1440 1651 
C 1440 2355 2042 2618 2438 2618 
C 2867 2618 2970 2349 2970 1952 
L 2970 525 
C 2970 250 2906 250 2464 250 
L 2464 0 
C 2509 6 2944 26 3232 26 
C 3520 26 3942 6 4006 0 
z
" transform="scale(0.015625)"/>
       <path id="LMRoman6-Regular-b0" d="M 2502 3334 
C 2502 3910 2042 4371 1466 4371 
C 896 4371 429 3910 429 3334 
C 429 2765 896 2298 1466 2298 
C 2042 2298 2502 2765 2502 3334 
z
M 2170 3334 
C 2170 2950 1856 2630 1466 2630 
C 1075 2630 762 2950 762 3334 
C 762 3725 1075 4038 1466 4038 
C 1856 4038 2170 3725 2170 3334 
z
" transform="scale(0.015625)"/>
       <path id="LMRoman6-Regular-43" d="M 5056 1498 
C 5056 1568 5050 1632 4934 1632 
C 4832 1632 4826 1581 4819 1523 
C 4768 544 3878 115 3174 115 
C 2406 115 1216 570 1216 2189 
C 1216 3776 2374 4256 3168 4256 
C 3891 4256 4640 3763 4800 2784 
C 4813 2701 4819 2656 4928 2656 
C 5056 2656 5056 2707 5056 2835 
L 5056 4326 
C 5056 4435 5056 4506 4954 4506 
C 4896 4506 4883 4480 4838 4422 
L 4486 3936 
C 4115 4307 3610 4506 3085 4506 
C 1664 4506 506 3456 506 2189 
C 506 902 1664 -134 3091 -134 
C 4262 -134 5056 685 5056 1498 
z
" transform="scale(0.015625)"/>
      </defs>
      <use xlink:href="#LMRoman6-Regular-54"/>
      <use xlink:href="#LMRoman6-Regular-65" x="86.999985"/>
      <use xlink:href="#LMRoman6-Regular-6d" x="141.599976"/>
      <use xlink:href="#LMRoman6-Regular-70" x="241.59996"/>
      <use xlink:href="#LMRoman6-Regular-65" x="309.199951"/>
      <use xlink:href="#LMRoman6-Regular-72" x="363.799942"/>
      <use xlink:href="#LMRoman6-Regular-61" x="411.899933"/>
      <use xlink:href="#LMRoman6-Regular-74" x="472.999924"/>
      <use xlink:href="#LMRoman6-Regular-75" x="521.099915"/>
      <use xlink:href="#LMRoman6-Regular-72" x="588.699905"/>
      <use xlink:href="#LMRoman6-Regular-20" x="636.799896"/>
      <use xlink:href="#LMRoman6-Regular-69" x="678.499893"/>
      <use xlink:href="#LMRoman6-Regular-6e" x="713.69989"/>
      <use xlink:href="#LMRoman6-Regular-20" x="781.299881"/>
      <use xlink:href="#LMRoman6-Regular-b0" x="822.999878"/>
      <use xlink:href="#LMRoman6-Regular-43" x="868.799866"/>
     </g>
    </g>
   </g>
   <g id="line2d_35">
    <path d="M 58.110236 44.82075 
L 65.793701 44.712455 
L 67.851772 44.696774 
L 74.163189 44.865337 
L 78.142126 44.95496 
L 89.941732 45.091972 
L 100.780906 45.145036 
L 116.833858 45.152495 
L 124.242913 45.038138 
L 133.298425 45.162426 
L 140.433071 44.866553 
L 140.98189 44.824069 
L 148.116535 43.305462 
L 149.900197 43.209858 
L 156.897638 43.2969 
L 157.446457 43.430792 
L 158.269685 43.393715 
L 158.681299 43.620027 
L 159.230118 44.209 
L 160.053346 45.517128 
L 161.699803 48.221733 
L 162.660236 49.345267 
L 163.483465 49.987205 
L 164.306693 50.375396 
L 165.267126 50.593644 
L 166.501969 50.647123 
L 168.697244 50.475116 
L 172.538976 49.956734 
L 174.185433 49.760325 
L 181.457283 49.493146 
L 182.966535 49.598373 
L 184.201378 49.592081 
L 185.573425 49.337932 
L 187.494291 48.719467 
L 190.238386 47.772045 
L 195.86378 47.306692 
L 199.019488 47.28269 
L 202.037992 47.491684 
L 205.330906 47.955181 
L 206.565748 48.243543 
L 207.937795 49.129412 
L 208.623819 49.279247 
L 209.309843 49.203738 
L 210.133071 48.891528 
L 211.505118 48.073371 
L 214.249213 46.410567 
L 214.798031 46.244856 
L 219.737402 45.752183 
L 222.755906 45.680272 
L 223.441929 45.79698 
L 225.362795 46.317518 
L 226.323228 46.293268 
L 227.558071 46.010767 
L 229.478937 45.285515 
L 231.262598 44.66028 
L 236.887992 44.255445 
L 239.906496 44.271303 
L 242.513386 44.505789 
L 245.25748 44.980483 
L 247.589961 45.538952 
L 249.510827 47.264198 
L 250.19685 47.425948 
L 250.882874 47.345985 
L 251.843307 46.950958 
L 253.901378 45.725562 
L 255.685039 44.786911 
L 258.840748 44.507969 
L 262.819685 44.307673 
L 264.466142 44.375086 
L 265.838189 44.873998 
L 266.935827 45.143921 
L 268.033465 45.18378 
L 269.268307 45.006971 
L 271.189173 44.481547 
L 272.56122 44.164895 
L 278.598228 43.860665 
L 281.891142 43.932814 
L 284.498031 44.220274 
L 287.242126 44.751411 
L 288.751378 45.049053 
L 289.574606 44.979829 
L 290.26063 45.142646 
L 290.946654 45.520138 
L 291.769882 46.218952 
L 293.004724 47.611933 
L 296.846457 52.224401 
L 297.120866 52.209657 
L 300.13937 51.140589 
L 303.706693 50.113939 
L 305.07874 49.774579 
L 305.764764 50.427595 
L 307.68563 52.295978 
L 310.429724 54.958145 
L 311.938976 56.105749 
L 313.311024 56.885902 
L 313.585433 56.848023 
L 319.485236 54.569777 
L 322.915354 53.045235 
L 327.031496 51.16303 
L 329.638386 50.2104 
L 329.775591 50.16724 
L 330.598819 50.827763 
L 332.38248 52.367367 
L 335.400984 55.006948 
L 336.910236 56.005653 
L 338.007874 56.529086 
L 338.282283 56.295002 
L 340.065945 54.25951 
L 341.437992 52.261939 
L 343.358858 49.503051 
L 344.456496 48.297464 
L 345.416929 47.541102 
L 346.240157 47.109587 
L 347.200591 47.05323 
L 355.432874 46.326377 
L 362.704724 45.554734 
L 365.586024 45.550652 
L 372.17185 45.473419 
L 373.406693 45.365115 
L 377.660039 45.315478 
L 395.908268 45.244776 
L 396.594291 45.203979 
L 403.866142 45.247681 
L 405.100984 47.613931 
L 405.787008 49.881293 
L 406.747441 54.085563 
L 407.845079 59.799801 
L 411.412402 79.150808 
L 412.098425 82.330524 
L 412.647244 79.809623 
L 417.998228 54.490567 
L 418.958661 51.491134 
L 419.78189 49.56662 
L 420.330709 48.583309 
L 422.38878 50.943525 
L 424.309646 53.582711 
L 426.230512 56.881211 
L 428.562992 61.25827 
L 429.249016 59.456194 
L 431.855906 53.880318 
L 433.776772 50.117617 
L 434.737205 48.715816 
L 435.697638 47.699475 
L 436.658071 46.999954 
L 436.795276 46.922633 
L 437.618504 47.711246 
L 438.304528 48.541338 
L 438.990551 49.716179 
L 439.950984 51.820886 
L 441.323031 55.379841 
L 445.027559 65.976534 
L 447.08563 59.984189 
L 449.69252 53.034669 
L 450.790157 50.813111 
L 451.750591 49.355006 
L 452.711024 48.303488 
L 453.259843 47.864019 
L 453.259843 47.864019 
" clip-path="url(#p11f9bb93c6)" style="fill: none; stroke: #000000; stroke-width: 0.9; stroke-linecap: square"/>
   </g>
   <g id="line2d_36">
    <path d="M 58.110236 57.493284 
L 59.756693 57.39565 
L 61.265945 57.099956 
L 62.912402 56.553265 
L 64.970472 55.620273 
L 66.754134 54.839549 
L 79.102559 54.429994 
L 91.862598 54.357996 
L 113.815354 54.308801 
L 135.630906 54.414782 
L 140.844685 54.628182 
L 150.723425 57.997138 
L 154.839567 59.170085 
L 157.034843 59.803118 
L 158.544094 59.330427 
L 165.129921 57.712377 
L 172.538976 56.081487 
L 173.636614 55.962261 
L 180.634055 57.732779 
L 181.868898 57.901718 
L 187.905906 56.385033 
L 190.101181 55.923 
L 193.394094 56.58206 
L 198.607874 57.365453 
L 206.291339 58.299237 
L 207.388976 58.121749 
L 210.819094 57.346958 
L 214.935236 56.411171 
L 220.697835 57.387378 
L 223.030315 57.68576 
L 226.597638 56.789404 
L 231.262598 55.574842 
L 235.104331 56.332136 
L 242.925 57.617465 
L 247.727165 58.178103 
L 250.334055 57.590492 
L 254.724606 56.356815 
L 255.822244 56.082333 
L 263.780118 57.825911 
L 264.191732 57.808598 
L 268.445079 56.59859 
L 272.424016 55.523239 
L 276.128543 56.392866 
L 282.577165 57.656627 
L 286.967717 58.261859 
L 288.888583 58.42008 
L 290.672244 57.941592 
L 293.416339 56.95208 
L 297.120866 55.535102 
L 303.157874 57.273273 
L 305.215945 57.866302 
L 307.548425 56.92684 
L 313.448228 54.448735 
L 316.466732 55.456431 
L 321.131693 56.723746 
L 324.973425 57.595135 
L 329.775591 58.451751 
L 330.598819 58.245739 
L 333.205709 57.343371 
L 337.184646 55.71214 
L 338.145079 55.372901 
L 346.514567 57.577732 
L 348.435433 56.765999 
L 352.68878 54.690398 
L 354.609646 53.80395 
L 357.765354 54.038478 
L 364.762795 54.377853 
L 373.543898 54.549307 
L 381.501772 54.704822 
L 389.734055 54.908508 
L 412.23563 55.710325 
L 414.430906 57.22802 
L 416.488976 58.931464 
L 418.547047 60.665702 
L 420.193504 61.744799 
L 420.467913 61.777984 
L 424.995669 58.880955 
L 428.562992 56.950358 
L 429.523425 57.295234 
L 431.718701 58.251874 
L 436.795276 60.681769 
L 437.344094 60.440325 
L 441.734646 58.273895 
L 445.164764 56.776848 
L 448.320472 57.942824 
L 452.436614 59.671481 
L 453.259843 59.923637 
L 453.259843 59.923637 
" clip-path="url(#p11f9bb93c6)" style="fill: none; stroke-dasharray: 3.33,1.44; stroke-dashoffset: 0; stroke: #000000; stroke-width: 0.9"/>
   </g>
   <g id="line2d_37">
    <path d="M 58.110236 108.183418 
L 58.79626 108.250876 
L 59.207874 108.552628 
L 59.619488 109.174189 
L 60.579921 111.331495 
L 61.12874 112.469111 
L 61.677559 113.161452 
L 62.089173 113.358681 
L 62.500787 113.298656 
L 63.186811 112.831989 
L 64.833268 111.583308 
L 65.793701 111.160673 
L 67.028543 110.884082 
L 67.851772 110.875585 
L 68.537795 111.110754 
L 69.498228 111.786909 
L 70.321457 112.674585 
L 71.556299 114.468709 
L 73.065551 116.558999 
L 74.025984 117.551614 
L 74.986417 118.244139 
L 76.084055 118.746466 
L 77.456102 119.111918 
L 79.788583 119.452971 
L 84.590748 119.894135 
L 89.118504 120.09614 
L 95.155512 120.122356 
L 112.306102 120.091418 
L 120.126772 120.57751 
L 126.16378 120.298305 
L 132.612402 120.185047 
L 137.002953 120.269818 
L 140.844685 120.380912 
L 182.006102 120.413408 
L 190.512795 120.449954 
L 191.198819 120.268604 
L 191.884843 119.84323 
L 193.119685 118.720562 
L 194.491732 117.556594 
L 195.58937 116.910694 
L 196.824213 116.42852 
L 198.19626 116.104689 
L 202.312402 115.916831 
L 207.526181 115.966951 
L 216.856102 116.04594 
L 223.441929 115.900844 
L 233.183465 115.664121 
L 238.122835 115.75601 
L 244.297047 116.139167 
L 250.19685 116.402739 
L 255.959449 116.43466 
L 258.291929 116.266522 
L 265.426575 115.39345 
L 270.365945 115.395698 
L 272.424016 115.562543 
L 273.521654 116.108743 
L 274.893701 116.761841 
L 275.854134 116.979492 
L 276.951772 116.981185 
L 278.598228 116.721774 
L 283.674803 115.781581 
L 287.242126 115.440072 
L 289.849016 115.365677 
L 291.495472 115.507711 
L 292.318701 115.804649 
L 294.513976 116.518048 
L 296.434843 117.378388 
L 296.846457 117.594043 
L 297.80689 116.56242 
L 299.178937 115.041047 
L 301.648622 112.848217 
L 302.883465 111.307816 
L 305.35315 107.940771 
L 306.176378 106.641825 
L 306.725197 106.181801 
L 307.274016 106.034267 
L 308.234449 106.104693 
L 309.469291 106.145666 
L 310.704134 105.95211 
L 314.134252 105.296335 
L 315.506299 105.302307 
L 321.543307 106.11006 
L 322.50374 106.716694 
L 323.875787 107.837418 
L 326.208268 110.088912 
L 328.677953 112.384218 
L 329.775591 113.262007 
L 330.736024 115.236405 
L 331.284843 115.923477 
L 331.833661 116.297791 
L 332.38248 116.414723 
L 333.068504 116.317628 
L 336.498622 115.48409 
L 338.831102 115.370318 
L 341.575197 115.456133 
L 342.672835 115.728444 
L 343.633268 116.194382 
L 344.593701 116.893082 
L 345.691339 117.967125 
L 346.240157 118.602696 
L 348.435433 117.499208 
L 349.258661 117.406738 
L 350.219094 117.548325 
L 351.591142 118.032674 
L 352.963189 118.467536 
L 353.923622 118.544 
L 355.158465 118.563752 
L 356.393307 118.754512 
L 357.079331 118.66148 
L 357.765354 118.351798 
L 358.451378 117.813547 
L 359.274606 116.872313 
L 360.235039 115.421989 
L 361.607087 112.905393 
L 362.704724 110.716937 
L 363.390748 108.603362 
L 364.213976 106.765909 
L 364.9 105.763684 
L 365.448819 105.312553 
L 365.997638 105.148807 
L 366.546457 105.231013 
L 367.23248 105.601272 
L 368.192913 106.434326 
L 370.937008 109.003895 
L 372.44626 109.667319 
L 373.681102 110.264299 
L 374.367126 111.090652 
L 375.327559 112.672027 
L 378.483268 118.279859 
L 379.855315 120.189559 
L 380.404134 120.670739 
L 380.952953 120.863107 
L 381.501772 120.807016 
L 382.325 120.431016 
L 384.245866 119.410829 
L 385.206299 119.216156 
L 386.303937 119.278179 
L 388.499213 119.568105 
L 395.908268 119.69193 
L 396.457087 120.174673 
L 397.280315 121.294829 
L 399.475591 124.43352 
L 400.710433 125.734805 
L 402.219685 126.984018 
L 403.866142 128.250476 
L 404.277756 128.051922 
L 405.924213 126.934526 
L 407.433465 125.625333 
L 409.491535 123.499366 
L 412.098425 120.756628 
L 412.510039 121.227191 
L 413.744882 123.078528 
L 418.958661 131.356661 
L 420.330709 133.317221 
L 420.605118 133.104398 
L 422.663189 130.678818 
L 424.309646 128.366688 
L 426.916535 124.225656 
L 428.562992 121.602809 
L 428.974606 122.332514 
L 434.188386 132.215804 
L 436.795276 137.08304 
L 437.069685 136.816867 
L 439.127756 133.786451 
L 440.637008 131.145866 
L 442.832283 126.757644 
L 445.027559 122.267062 
L 445.439173 123.160601 
L 446.262402 124.855701 
L 447.222835 126.297151 
L 451.201772 131.484067 
L 453.259843 134.950223 
L 453.259843 134.950223 
" clip-path="url(#p11f9bb93c6)" style="fill: none; stroke-dasharray: 5.76,1.44,0.9,1.44; stroke-dashoffset: 0; stroke: #000000; stroke-width: 0.9"/>
   </g>
   <g id="line2d_38">
    <path d="M 58.110236 120.855952 
L 61.40315 120.738195 
L 76.632874 119.996374 
L 84.179134 119.963274 
L 113.266535 120.125147 
L 121.087205 120.25315 
L 158.13248 120.301533 
L 192.845276 120.410498 
L 228.244094 120.428428 
L 235.927559 120.525022 
L 248.550394 120.825507 
L 259.115157 120.859203 
L 266.524213 120.779718 
L 271.737992 121.297954 
L 274.207677 121.44729 
L 277.637795 121.359945 
L 290.809449 120.925558 
L 299.041732 120.972528 
L 303.295079 120.940091 
L 308.646063 120.676657 
L 315.780709 120.216185 
L 318.387598 120.407173 
L 325.796654 121.069396 
L 331.559252 121.195733 
L 343.496063 120.917847 
L 453.259843 120.917847 
L 453.259843 120.917847 
" clip-path="url(#p11f9bb93c6)" style="fill: none; stroke-dasharray: 0.9,1.485; stroke-dashoffset: 0; stroke: #000000; stroke-width: 0.9"/>
   </g>
   <g id="line2d_39">
    <path d="M 58.110236 171.546086 
L 58.79626 171.434642 
L 60.168307 170.853881 
L 60.579921 170.966927 
L 61.12874 171.380922 
L 61.951969 172.364553 
L 63.598425 174.406074 
L 64.558858 175.249511 
L 65.656496 175.925209 
L 67.165748 176.565187 
L 67.851772 176.63104 
L 68.400591 176.430689 
L 70.047047 175.273779 
L 71.144685 174.142021 
L 74.437598 170.510613 
L 75.398031 169.797008 
L 76.632874 169.005012 
L 78.004921 168.392514 
L 79.514173 167.962167 
L 81.572244 167.62049 
L 84.590748 167.375877 
L 91.450984 167.094609 
L 99.408858 166.972728 
L 118.754724 167.033137 
L 192.022047 167.006981 
L 193.394094 166.835887 
L 194.491732 166.479627 
L 195.726575 165.832276 
L 197.510236 164.613992 
L 198.333465 164.122155 
L 205.330906 162.478849 
L 210.68189 161.455851 
L 216.581693 160.563779 
L 223.579134 159.73883 
L 231.262598 159.050015 
L 236.201969 158.819853 
L 241.415748 158.816299 
L 268.445079 159.178242 
L 295.337205 158.821681 
L 299.727756 158.862437 
L 300.962598 159.105761 
L 302.197441 159.609391 
L 303.569488 160.447457 
L 305.901969 162.045403 
L 306.725197 161.949676 
L 308.920472 161.405662 
L 311.252953 160.906109 
L 312.762205 160.793507 
L 314.545866 160.903335 
L 315.369094 161.291654 
L 316.192323 161.917803 
L 316.466732 162.313107 
L 317.015551 163.249092 
L 317.701575 163.8499 
L 320.034055 165.432031 
L 320.857283 165.609856 
L 321.680512 165.517835 
L 322.640945 165.157152 
L 323.875787 164.40317 
L 325.933858 162.813409 
L 328.540748 160.867086 
L 329.912795 160.029402 
L 338.145079 158.475605 
L 339.105512 158.992262 
L 339.791535 159.109115 
L 340.614764 159.022499 
L 343.221654 158.57424 
L 344.319291 158.678753 
L 345.828543 159.068183 
L 347.063386 159.547767 
L 349.121457 160.62517 
L 349.670276 161.216457 
L 350.219094 162.048988 
L 351.865551 165.318441 
L 352.825984 167.032157 
L 353.786417 168.300462 
L 354.884055 169.375008 
L 356.667717 170.753433 
L 360.097835 173.159562 
L 362.155906 174.309261 
L 364.351181 175.286421 
L 366.820866 176.119395 
L 369.976575 176.935758 
L 372.034646 177.29807 
L 372.583465 177.180755 
L 373.132283 176.822954 
L 375.464764 174.556355 
L 379.443701 169.415296 
L 382.599409 167.351288 
L 385.892323 166.215156 
L 387.813189 165.922964 
L 396.457087 165.485019 
L 410.177559 165.308004 
L 434.462795 165.326869 
L 453.259843 165.332429 
L 453.259843 165.332429 
" clip-path="url(#p11f9bb93c6)" style="fill: none; stroke-dasharray: 4.5,9; stroke-dashoffset: 0; stroke: #000000; stroke-width: 0.9"/>
   </g>
   <g id="line2d_40">
    <path d="M 58.110236 166.477073 
L 66.06811 166.596962 
L 91.725394 167.033818 
L 201.351969 166.91858 
L 289.300197 164.928149 
L 304.941535 164.715457 
L 329.638386 164.653562 
L 345.691339 164.523976 
L 361.607087 164.476239 
L 372.857874 164.857468 
L 386.441142 165.285666 
L 396.594291 165.330975 
L 453.259843 165.332538 
L 453.259843 165.332538 
" clip-path="url(#p11f9bb93c6)" style="fill: none; stroke-dasharray: 2.7,9,0.9,9; stroke-dashoffset: 0; stroke: #000000; stroke-width: 0.9"/>
   </g>
   <g id="patch_3">
    <path d="M 58.110236 222.23622 
L 58.110236 6.80315 
" style="fill: none; stroke: #000000; stroke-width: 0.8; stroke-linejoin: miter; stroke-linecap: square"/>
   </g>
   <g id="patch_4">
    <path d="M 58.110236 222.23622 
L 453.259843 222.23622 
" style="fill: none; stroke: #000000; stroke-width: 0.8; stroke-linejoin: miter; stroke-linecap: square"/>
   </g>
   <g id="legend_1">
    <g id="line2d_41">
     <path d="M 127.591133 194.708268 
L 136.591133 194.708268 
L 145.591133 194.708268 
" style="fill: none; stroke: #000000; stroke-width: 0.9; stroke-linecap: square"/>
    </g>
    <g id="text_11">
     <!-- BS_HNHT -->
     <g transform="translate(152.791133 197.858268) scale(0.09 -0.09)">
      <defs>
       <path id="LMRoman6-Regular-42" d="M 4934 1178 
C 4934 1677 4435 2176 3533 2291 
C 4186 2400 4730 2790 4730 3283 
C 4730 3866 4006 4371 3091 4371 
L 442 4371 
L 442 4122 
L 608 4122 
C 1120 4122 1120 4045 1120 3834 
L 1120 538 
C 1120 326 1120 250 608 250 
L 442 250 
L 442 0 
L 3290 0 
C 4224 0 4934 550 4934 1178 
z
M 4064 3283 
C 4064 2797 3571 2374 2835 2374 
L 1715 2374 
L 1715 3872 
C 1715 4070 1715 4122 2029 4122 
L 3046 4122 
C 3680 4122 4064 3706 4064 3283 
z
M 4250 1184 
C 4250 717 3782 250 3059 250 
L 2029 250 
C 1715 250 1715 301 1715 499 
L 1715 2170 
L 3162 2170 
C 3853 2170 4250 1645 4250 1184 
z
" transform="scale(0.015625)"/>
       <path id="LMRoman6-Regular-53" d="M 3814 1178 
C 3814 1626 3565 1933 3469 2029 
C 3142 2355 2950 2394 2157 2560 
L 1555 2694 
C 1222 2803 915 3085 915 3450 
C 915 3878 1338 4275 1965 4275 
C 2304 4275 2630 4186 2893 3974 
C 3270 3674 3341 3213 3366 3059 
C 3379 2963 3386 2918 3488 2918 
C 3610 2918 3610 2976 3610 3098 
L 3610 4326 
C 3610 4435 3610 4506 3507 4506 
C 3482 4506 3443 4506 3392 4422 
L 3155 4058 
C 2790 4416 2330 4506 1958 4506 
C 1126 4506 506 3942 506 3283 
C 506 2950 659 2669 890 2451 
C 1178 2189 1395 2144 2112 1997 
C 2771 1856 2918 1824 3117 1638 
C 3194 1562 3405 1357 3405 1018 
C 3405 576 3008 115 2342 115 
C 1792 115 794 282 742 1306 
C 736 1402 736 1453 627 1453 
C 506 1453 506 1395 506 1267 
L 506 45 
C 506 -64 506 -134 608 -134 
C 666 -134 678 -109 710 -58 
C 730 -38 864 166 954 301 
C 1421 -90 2042 -134 2342 -134 
C 3232 -134 3814 499 3814 1178 
z
" transform="scale(0.015625)"/>
       <path id="LMRoman6-Regular-5f" d="M 5734 -922 
L 5734 -678 
L 0 -678 
L 0 -922 
L 5734 -922 
z
" transform="scale(0.015625)"/>
       <path id="LMRoman6-Regular-48" d="M 5312 0 
L 5312 250 
L 5146 250 
C 4634 250 4634 326 4634 538 
L 4634 3834 
C 4634 4045 4634 4122 5146 4122 
L 5312 4122 
L 5312 4371 
L 4314 4346 
L 3315 4371 
L 3315 4122 
L 3482 4122 
C 3994 4122 3994 4045 3994 3834 
L 3994 2400 
L 1734 2400 
L 1734 3834 
C 1734 4045 1734 4122 2246 4122 
L 2413 4122 
L 2413 4371 
L 1414 4346 
L 416 4371 
L 416 4122 
L 582 4122 
C 1094 4122 1094 4045 1094 3834 
L 1094 538 
C 1094 326 1094 250 582 250 
L 416 250 
L 416 0 
L 1414 26 
L 2413 0 
L 2413 250 
L 2246 250 
C 1734 250 1734 326 1734 538 
L 1734 2150 
L 3994 2150 
L 3994 538 
C 3994 326 3994 250 3482 250 
L 3315 250 
L 3315 0 
L 4314 26 
L 5312 0 
z
" transform="scale(0.015625)"/>
       <path id="LMRoman6-Regular-4e" d="M 5312 4122 
L 5312 4371 
C 5190 4365 4774 4346 4506 4346 
C 4211 4346 3808 4365 3693 4371 
L 3693 4122 
C 4371 4122 4371 3834 4371 3667 
L 4371 986 
L 1779 4282 
C 1709 4365 1702 4371 1568 4371 
L 416 4371 
L 416 4122 
L 621 4122 
C 768 4122 928 4122 1050 4090 
C 1088 4083 1094 4077 1094 3968 
L 1094 704 
C 1094 538 1094 250 416 250 
L 416 0 
C 538 6 954 26 1222 26 
C 1517 26 1920 6 2035 0 
L 2035 250 
C 1357 250 1357 538 1357 704 
L 1357 3898 
L 4365 77 
C 4416 13 4422 0 4499 0 
C 4634 0 4634 64 4634 192 
L 4634 3667 
C 4634 3834 4634 4122 5312 4122 
z
" transform="scale(0.015625)"/>
      </defs>
      <use xlink:href="#LMRoman6-Regular-42"/>
      <use xlink:href="#LMRoman6-Regular-53" x="85.099991"/>
      <use xlink:href="#LMRoman6-Regular-5f" x="152.699982"/>
      <use xlink:href="#LMRoman6-Regular-48" x="242.299973"/>
      <use xlink:href="#LMRoman6-Regular-4e" x="331.899963"/>
      <use xlink:href="#LMRoman6-Regular-48" x="421.499954"/>
      <use xlink:href="#LMRoman6-Regular-54" x="511.099945"/>
     </g>
    </g>
    <g id="line2d_42">
     <path d="M 127.591133 207.25483 
L 136.591133 207.25483 
L 145.591133 207.25483 
" style="fill: none; stroke-dasharray: 3.33,1.44; stroke-dashoffset: 0; stroke: #000000; stroke-width: 0.9"/>
    </g>
    <g id="text_12">
     <!-- ST_HNHT -->
     <g transform="translate(152.791133 210.40483) scale(0.09 -0.09)">
      <use xlink:href="#LMRoman6-Regular-53"/>
      <use xlink:href="#LMRoman6-Regular-54" x="67.599991"/>
      <use xlink:href="#LMRoman6-Regular-5f" x="154.599976"/>
      <use xlink:href="#LMRoman6-Regular-48" x="244.199966"/>
      <use xlink:href="#LMRoman6-Regular-4e" x="333.799957"/>
      <use xlink:href="#LMRoman6-Regular-48" x="423.399948"/>
      <use xlink:href="#LMRoman6-Regular-54" x="512.999939"/>
     </g>
    </g>
    <g id="line2d_43">
     <path d="M 224.788321 194.708268 
L 233.788321 194.708268 
L 242.788321 194.708268 
" style="fill: none; stroke-dasharray: 5.76,1.44,0.9,1.44; stroke-dashoffset: 0; stroke: #000000; stroke-width: 0.9"/>
    </g>
    <g id="text_13">
     <!-- BS_HNLT -->
     <g transform="translate(249.988321 197.858268) scale(0.09 -0.09)">
      <defs>
       <path id="LMRoman6-Regular-4c" d="M 4416 1702 
L 4179 1702 
C 4102 928 3904 250 2746 250 
L 2048 250 
C 1734 250 1734 301 1734 499 
L 1734 3834 
C 1734 4045 1734 4122 2349 4122 
L 2586 4122 
L 2586 4371 
C 2246 4346 1779 4346 1434 4346 
L 416 4371 
L 416 4122 
L 582 4122 
C 1094 4122 1094 4045 1094 3834 
L 1094 538 
C 1094 326 1094 250 582 250 
L 416 250 
L 416 0 
L 4218 0 
L 4416 1702 
z
" transform="scale(0.015625)"/>
      </defs>
      <use xlink:href="#LMRoman6-Regular-42"/>
      <use xlink:href="#LMRoman6-Regular-53" x="85.099991"/>
      <use xlink:href="#LMRoman6-Regular-5f" x="152.699982"/>
      <use xlink:href="#LMRoman6-Regular-48" x="242.299973"/>
      <use xlink:href="#LMRoman6-Regular-4e" x="331.899963"/>
      <use xlink:href="#LMRoman6-Regular-4c" x="421.499954"/>
      <use xlink:href="#LMRoman6-Regular-54" x="496.899948"/>
     </g>
    </g>
    <g id="line2d_44">
     <path d="M 224.788321 207.25483 
L 233.788321 207.25483 
L 242.788321 207.25483 
" style="fill: none; stroke-dasharray: 0.9,1.485; stroke-dashoffset: 0; stroke: #000000; stroke-width: 0.9"/>
    </g>
    <g id="text_14">
     <!-- ST_HNLT -->
     <g transform="translate(249.988321 210.40483) scale(0.09 -0.09)">
      <use xlink:href="#LMRoman6-Regular-53"/>
      <use xlink:href="#LMRoman6-Regular-54" x="67.599991"/>
      <use xlink:href="#LMRoman6-Regular-5f" x="154.599976"/>
      <use xlink:href="#LMRoman6-Regular-48" x="244.199966"/>
      <use xlink:href="#LMRoman6-Regular-4e" x="333.799957"/>
      <use xlink:href="#LMRoman6-Regular-4c" x="423.399948"/>
      <use xlink:href="#LMRoman6-Regular-54" x="498.799942"/>
     </g>
    </g>
    <g id="line2d_45">
     <path d="M 320.708633 194.708268 
L 329.708633 194.708268 
L 338.708633 194.708268 
" style="fill: none; stroke-dasharray: 4.5,9; stroke-dashoffset: 0; stroke: #000000; stroke-width: 0.9"/>
    </g>
    <g id="text_15">
     <!-- BS_CN -->
     <g transform="translate(345.908633 197.858268) scale(0.09 -0.09)">
      <use xlink:href="#LMRoman6-Regular-42"/>
      <use xlink:href="#LMRoman6-Regular-53" x="85.099991"/>
      <use xlink:href="#LMRoman6-Regular-5f" x="152.699982"/>
      <use xlink:href="#LMRoman6-Regular-43" x="242.299973"/>
      <use xlink:href="#LMRoman6-Regular-4e" x="329.299957"/>
     </g>
    </g>
    <g id="line2d_46">
     <path d="M 320.708633 207.25483 
L 329.708633 207.25483 
L 338.708633 207.25483 
" style="fill: none; stroke-dasharray: 2.7,9,0.9,9; stroke-dashoffset: 0; stroke: #000000; stroke-width: 0.9"/>
    </g>
    <g id="text_16">
     <!-- ST_CN -->
     <g transform="translate(345.908633 210.40483) scale(0.09 -0.09)">
      <use xlink:href="#LMRoman6-Regular-53"/>
      <use xlink:href="#LMRoman6-Regular-54" x="67.599991"/>
      <use xlink:href="#LMRoman6-Regular-5f" x="154.599976"/>
      <use xlink:href="#LMRoman6-Regular-43" x="244.199966"/>
      <use xlink:href="#LMRoman6-Regular-4e" x="331.199951"/>
     </g>
    </g>
   </g>
  </g>
 </g>
 <defs>
  <clipPath id="p11f9bb93c6">
   <rect x="58.110236" y="6.80315" width="395.149606" height="215.433071"/>
  </clipPath>
 </defs>
</svg>
