<?xml version="1.0" encoding="utf-8" standalone="no"?>
<!DOCTYPE svg PUBLIC "-//W3C//DTD SVG 1.1//EN"
  "http://www.w3.org/Graphics/SVG/1.1/DTD/svg11.dtd">
<svg xmlns:xlink="http://www.w3.org/1999/xlink" width="464.88189pt" height="226.771654pt" viewBox="0 0 464.88189 226.771654" xmlns="http://www.w3.org/2000/svg" version="1.1">
 <metadata>
  <rdf:RDF xmlns:dc="http://purl.org/dc/elements/1.1/" xmlns:cc="http://creativecommons.org/ns#" xmlns:rdf="http://www.w3.org/1999/02/22-rdf-syntax-ns#">
   <cc:Work>
    <dc:type rdf:resource="http://purl.org/dc/dcmitype/StillImage"/>
    <dc:date>2024-10-01T14:06:28.462021</dc:date>
    <dc:format>image/svg+xml</dc:format>
    <dc:creator>
     <cc:Agent>
      <dc:title>Matplotlib v3.8.2, https://matplotlib.org/</dc:title>
     </cc:Agent>
    </dc:creator>
   </cc:Work>
  </rdf:RDF>
 </metadata>
 <defs>
  <style type="text/css">*{stroke-linejoin: round; stroke-linecap: butt}</style>
 </defs>
 <g id="figure_1">
  <g id="patch_1">
   <path d="M 0 226.771654 
L 464.88189 226.771654 
L 464.88189 0 
L 0 0 
z
" style="fill: #ffffff"/>
  </g>
  <g id="axes_1">
   <g id="patch_2">
    <path d="M 58.110236 222.23622 
L 453.259843 222.23622 
L 453.259843 6.80315 
L 58.110236 6.80315 
z
" style="fill: #ffffff"/>
   </g>
   <g id="matplotlib.axis_1">
    <g id="xtick_1">
     <g id="line2d_1">
      <defs>
       <path id="mbf20f9c65a" d="M 0 0 
L 0 3.5 
" style="stroke: #000000; stroke-width: 0.8"/>
      </defs>
      <g>
       <use xlink:href="#mbf20f9c65a" x="58.110236" y="222.23622" style="stroke: #000000; stroke-width: 0.8"/>
      </g>
     </g>
    </g>
    <g id="xtick_2">
     <g id="line2d_2">
      <g>
       <use xlink:href="#mbf20f9c65a" x="97.625197" y="222.23622" style="stroke: #000000; stroke-width: 0.8"/>
      </g>
     </g>
    </g>
    <g id="xtick_3">
     <g id="line2d_3">
      <g>
       <use xlink:href="#mbf20f9c65a" x="137.140157" y="222.23622" style="stroke: #000000; stroke-width: 0.8"/>
      </g>
     </g>
    </g>
    <g id="xtick_4">
     <g id="line2d_4">
      <g>
       <use xlink:href="#mbf20f9c65a" x="176.655118" y="222.23622" style="stroke: #000000; stroke-width: 0.8"/>
      </g>
     </g>
    </g>
    <g id="xtick_5">
     <g id="line2d_5">
      <g>
       <use xlink:href="#mbf20f9c65a" x="216.170079" y="222.23622" style="stroke: #000000; stroke-width: 0.8"/>
      </g>
     </g>
    </g>
    <g id="xtick_6">
     <g id="line2d_6">
      <g>
       <use xlink:href="#mbf20f9c65a" x="255.685039" y="222.23622" style="stroke: #000000; stroke-width: 0.8"/>
      </g>
     </g>
    </g>
    <g id="xtick_7">
     <g id="line2d_7">
      <g>
       <use xlink:href="#mbf20f9c65a" x="295.2" y="222.23622" style="stroke: #000000; stroke-width: 0.8"/>
      </g>
     </g>
    </g>
    <g id="xtick_8">
     <g id="line2d_8">
      <g>
       <use xlink:href="#mbf20f9c65a" x="334.714961" y="222.23622" style="stroke: #000000; stroke-width: 0.8"/>
      </g>
     </g>
    </g>
    <g id="xtick_9">
     <g id="line2d_9">
      <g>
       <use xlink:href="#mbf20f9c65a" x="374.229921" y="222.23622" style="stroke: #000000; stroke-width: 0.8"/>
      </g>
     </g>
    </g>
    <g id="xtick_10">
     <g id="line2d_10">
      <g>
       <use xlink:href="#mbf20f9c65a" x="413.744882" y="222.23622" style="stroke: #000000; stroke-width: 0.8"/>
      </g>
     </g>
    </g>
    <g id="xtick_11">
     <g id="line2d_11">
      <g>
       <use xlink:href="#mbf20f9c65a" x="453.259843" y="222.23622" style="stroke: #000000; stroke-width: 0.8"/>
      </g>
     </g>
    </g>
   </g>
   <g id="matplotlib.axis_2">
    <g id="ytick_1">
     <g id="line2d_12">
      <defs>
       <path id="m7029abe9b6" d="M 0 0 
L -3.5 0 
" style="stroke: #000000; stroke-width: 0.8"/>
      </defs>
      <g>
       <use xlink:href="#m7029abe9b6" x="58.110236" y="209.563687" style="stroke: #000000; stroke-width: 0.8"/>
      </g>
     </g>
     <g id="text_1">
      <!-- 0 -->
      <g transform="translate(45.611799 212.686968) scale(0.09 -0.09)">
       <defs>
        <path id="LMRoman6-Regular-30" d="M 3520 2042 
C 3520 2509 3520 4256 1952 4256 
C 384 4256 384 2509 384 2042 
C 384 1581 384 -134 1952 -134 
C 3520 -134 3520 1581 3520 2042 
z
M 2912 2125 
C 2912 1715 2912 1069 2803 710 
C 2624 154 2163 70 1952 70 
C 1683 70 1248 198 1094 730 
C 992 1101 992 1728 992 2125 
C 992 2554 992 3046 1082 3392 
C 1242 3968 1728 4051 1952 4051 
C 2246 4051 2669 3910 2810 3424 
C 2906 3085 2912 2618 2912 2125 
z
" transform="scale(0.015625)"/>
       </defs>
       <use xlink:href="#LMRoman6-Regular-30"/>
      </g>
     </g>
    </g>
    <g id="ytick_2">
     <g id="line2d_13">
      <g>
       <use xlink:href="#m7029abe9b6" x="58.110236" y="184.21862" style="stroke: #000000; stroke-width: 0.8"/>
      </g>
     </g>
     <g id="text_2">
      <!-- 10 -->
      <g transform="translate(40.113361 187.341901) scale(0.09 -0.09)">
       <defs>
        <path id="LMRoman6-Regular-31" d="M 3232 0 
L 3232 250 
L 2957 250 
C 2298 250 2298 333 2298 544 
L 2298 4064 
C 2298 4256 2272 4256 2080 4256 
C 1658 3846 1005 3846 774 3846 
L 774 3597 
C 941 3597 1363 3597 1747 3776 
L 1747 544 
C 1747 333 1747 250 1088 250 
L 813 250 
L 813 0 
C 1165 26 1664 26 2022 26 
C 2381 26 2880 26 3232 0 
z
" transform="scale(0.015625)"/>
       </defs>
       <use xlink:href="#LMRoman6-Regular-31"/>
       <use xlink:href="#LMRoman6-Regular-30" x="61.099991"/>
      </g>
     </g>
    </g>
    <g id="ytick_3">
     <g id="line2d_14">
      <g>
       <use xlink:href="#m7029abe9b6" x="58.110236" y="158.873553" style="stroke: #000000; stroke-width: 0.8"/>
      </g>
     </g>
     <g id="text_3">
      <!-- 20 -->
      <g transform="translate(40.113361 161.996834) scale(0.09 -0.09)">
       <defs>
        <path id="LMRoman6-Regular-32" d="M 3443 1197 
L 3206 1197 
C 3194 1107 3130 685 3034 614 
C 2989 576 2470 576 2381 576 
L 1184 576 
L 2003 1242 
C 2221 1414 2790 1824 2989 2016 
C 3181 2208 3443 2534 3443 2989 
C 3443 3789 2720 4256 1862 4256 
C 1037 4256 461 3712 461 3110 
C 461 2784 736 2746 806 2746 
C 966 2746 1152 2861 1152 3091 
C 1152 3232 1069 3437 787 3437 
C 934 3763 1325 4006 1766 4006 
C 2438 4006 2797 3507 2797 2989 
C 2797 2534 2496 2067 2048 1658 
L 531 269 
C 467 205 461 198 461 0 
L 3245 0 
L 3443 1197 
z
" transform="scale(0.015625)"/>
       </defs>
       <use xlink:href="#LMRoman6-Regular-32"/>
       <use xlink:href="#LMRoman6-Regular-30" x="61.099991"/>
      </g>
     </g>
    </g>
    <g id="ytick_4">
     <g id="line2d_15">
      <g>
       <use xlink:href="#m7029abe9b6" x="58.110236" y="133.528485" style="stroke: #000000; stroke-width: 0.8"/>
      </g>
     </g>
     <g id="text_4">
      <!-- 30 -->
      <g transform="translate(40.113361 136.651767) scale(0.09 -0.09)">
       <defs>
        <path id="LMRoman6-Regular-33" d="M 3501 1107 
C 3501 1574 3142 2067 2381 2259 
C 2886 2426 3296 2835 3296 3360 
C 3296 3872 2694 4256 1926 4256 
C 1178 4256 608 3910 608 3386 
C 608 3110 819 3034 947 3034 
C 1114 3034 1286 3149 1286 3373 
C 1286 3571 1146 3686 973 3712 
C 1274 4045 1856 4045 1914 4045 
C 2240 4045 2650 3891 2650 3360 
C 2650 3008 2451 2394 1811 2355 
C 1696 2349 1523 2336 1466 2336 
C 1402 2330 1331 2323 1331 2227 
C 1331 2125 1402 2125 1510 2125 
L 1882 2125 
C 2426 2125 2790 1760 2790 1107 
C 2790 403 2368 96 1901 96 
C 1728 96 1069 134 781 506 
C 1030 531 1133 698 1133 870 
C 1133 1088 979 1235 768 1235 
C 595 1235 403 1126 403 858 
C 403 224 1107 -134 1920 -134 
C 2867 -134 3501 474 3501 1107 
z
" transform="scale(0.015625)"/>
       </defs>
       <use xlink:href="#LMRoman6-Regular-33"/>
       <use xlink:href="#LMRoman6-Regular-30" x="61.099991"/>
      </g>
     </g>
    </g>
    <g id="ytick_5">
     <g id="line2d_16">
      <g>
       <use xlink:href="#m7029abe9b6" x="58.110236" y="108.183418" style="stroke: #000000; stroke-width: 0.8"/>
      </g>
     </g>
     <g id="text_5">
      <!-- 40 -->
      <g transform="translate(40.113361 111.306699) scale(0.09 -0.09)">
       <defs>
        <path id="LMRoman6-Regular-34" d="M 3610 1050 
L 3610 1299 
L 2861 1299 
L 2861 4128 
C 2861 4275 2861 4320 2701 4320 
C 2586 4320 2573 4301 2515 4224 
L 294 1299 
L 294 1050 
L 2285 1050 
L 2285 538 
C 2285 326 2285 250 1747 250 
L 1562 250 
L 1562 0 
L 2573 26 
L 3584 0 
L 3584 250 
L 3398 250 
C 2861 250 2861 326 2861 538 
L 2861 1050 
L 3610 1050 
z
M 2330 1299 
L 570 1299 
L 2330 3622 
L 2330 1299 
z
" transform="scale(0.015625)"/>
       </defs>
       <use xlink:href="#LMRoman6-Regular-34"/>
       <use xlink:href="#LMRoman6-Regular-30" x="61.099991"/>
      </g>
     </g>
    </g>
    <g id="ytick_6">
     <g id="line2d_17">
      <g>
       <use xlink:href="#m7029abe9b6" x="58.110236" y="82.838351" style="stroke: #000000; stroke-width: 0.8"/>
      </g>
     </g>
     <g id="text_6">
      <!-- 50 -->
      <g transform="translate(40.113361 85.961632) scale(0.09 -0.09)">
       <defs>
        <path id="LMRoman6-Regular-35" d="M 3443 1286 
C 3443 2016 2854 2682 2029 2682 
C 1613 2682 1293 2547 1088 2374 
L 1088 3552 
C 1299 3494 1523 3469 1741 3469 
C 1882 3469 2240 3469 2643 3693 
C 2752 3757 3149 4019 3149 4154 
C 3149 4237 3085 4256 3059 4256 
C 3040 4256 3034 4256 2963 4230 
C 2733 4141 2406 4051 1990 4051 
C 1677 4051 1331 4109 1043 4218 
C 979 4243 954 4256 928 4256 
C 838 4256 838 4186 838 4083 
L 838 2163 
C 838 2054 838 1978 954 1978 
C 1011 1978 1030 2003 1075 2054 
C 1235 2259 1517 2477 2016 2477 
C 2803 2477 2803 1517 2803 1312 
C 2803 1062 2784 704 2573 442 
C 2374 198 2080 96 1805 96 
C 1363 96 922 339 768 710 
C 1082 717 1120 966 1120 1043 
C 1120 1216 986 1370 787 1370 
C 730 1370 461 1338 461 1018 
C 461 429 1018 -134 1824 -134 
C 2701 -134 3443 486 3443 1286 
z
" transform="scale(0.015625)"/>
       </defs>
       <use xlink:href="#LMRoman6-Regular-35"/>
       <use xlink:href="#LMRoman6-Regular-30" x="61.099991"/>
      </g>
     </g>
    </g>
    <g id="ytick_7">
     <g id="line2d_18">
      <g>
       <use xlink:href="#m7029abe9b6" x="58.110236" y="57.493284" style="stroke: #000000; stroke-width: 0.8"/>
      </g>
     </g>
     <g id="text_7">
      <!-- 60 -->
      <g transform="translate(40.113361 60.616565) scale(0.09 -0.09)">
       <defs>
        <path id="LMRoman6-Regular-36" d="M 3501 1306 
C 3501 1523 3475 1933 3085 2298 
C 2861 2502 2579 2726 2035 2726 
C 1587 2726 1261 2496 1043 2118 
C 1050 2438 1062 2970 1286 3366 
C 1568 3853 1990 4045 2374 4045 
C 2522 4045 2816 4019 2970 3840 
C 2733 3802 2694 3635 2694 3533 
C 2694 3366 2810 3226 3002 3226 
C 3194 3226 3315 3347 3315 3546 
C 3315 3936 3021 4256 2368 4256 
C 1376 4256 403 3392 403 2029 
C 403 474 1126 -134 1971 -134 
C 2221 -134 2656 -96 3046 282 
C 3251 486 3501 742 3501 1306 
z
M 2861 1306 
C 2861 864 2848 646 2630 390 
C 2477 198 2272 96 1965 96 
C 1062 96 1062 1197 1062 1446 
C 1062 1997 1427 2522 2003 2522 
C 2336 2522 2528 2387 2682 2182 
C 2861 1933 2861 1645 2861 1306 
z
" transform="scale(0.015625)"/>
       </defs>
       <use xlink:href="#LMRoman6-Regular-36"/>
       <use xlink:href="#LMRoman6-Regular-30" x="61.099991"/>
      </g>
     </g>
    </g>
    <g id="ytick_8">
     <g id="line2d_19">
      <g>
       <use xlink:href="#m7029abe9b6" x="58.110236" y="32.148217" style="stroke: #000000; stroke-width: 0.8"/>
      </g>
     </g>
     <g id="text_8">
      <!-- 70 -->
      <g transform="translate(40.113361 35.271498) scale(0.09 -0.09)">
       <defs>
        <path id="LMRoman6-Regular-37" d="M 3712 4122 
L 2061 4122 
C 1798 4122 1645 4128 1395 4147 
C 1082 4166 1005 4173 973 4326 
L 736 4326 
L 506 2925 
L 742 2925 
C 762 3059 826 3437 922 3507 
C 973 3546 1523 3546 1619 3546 
L 3066 3546 
L 2496 2861 
C 1875 2112 1440 1203 1440 230 
C 1440 173 1440 -134 1747 -134 
C 2061 -134 2061 160 2061 243 
L 2061 422 
C 2061 1651 2323 2278 2643 2662 
L 3654 3866 
C 3712 3930 3712 3942 3712 4122 
z
" transform="scale(0.015625)"/>
       </defs>
       <use xlink:href="#LMRoman6-Regular-37"/>
       <use xlink:href="#LMRoman6-Regular-30" x="61.099991"/>
      </g>
     </g>
    </g>
    <g id="ytick_9">
     <g id="line2d_20">
      <g>
       <use xlink:href="#m7029abe9b6" x="58.110236" y="6.80315" style="stroke: #000000; stroke-width: 0.8"/>
      </g>
     </g>
     <g id="text_9">
      <!-- 80 -->
      <g transform="translate(40.113361 9.926431) scale(0.09 -0.09)">
       <defs>
        <path id="LMRoman6-Regular-38" d="M 3501 1088 
C 3501 1530 3232 1792 3136 1888 
C 3014 2003 2694 2182 2464 2310 
C 2938 2522 3296 2835 3296 3296 
C 3296 3923 2624 4256 1958 4256 
C 1235 4256 608 3821 608 3174 
C 608 2778 870 2470 1139 2310 
L 1421 2150 
C 998 1990 403 1632 403 986 
C 403 237 1203 -134 1946 -134 
C 2797 -134 3501 378 3501 1088 
z
M 2938 3290 
C 2938 2797 2406 2534 2227 2445 
L 1306 2944 
C 1293 2950 966 3130 966 3424 
C 966 3840 1472 4045 1946 4045 
C 2445 4045 2938 3770 2938 3290 
z
M 3091 864 
C 3091 358 2502 96 1958 96 
C 1363 96 813 442 813 986 
C 813 1530 1325 1888 1677 2016 
L 2605 1504 
C 2739 1421 3091 1229 3091 864 
z
" transform="scale(0.015625)"/>
       </defs>
       <use xlink:href="#LMRoman6-Regular-38"/>
       <use xlink:href="#LMRoman6-Regular-30" x="61.099991"/>
      </g>
     </g>
    </g>
    <g id="text_10">
     <!-- Temperatur in °C -->
     <g transform="translate(34.366799 157.528435) rotate(-90) scale(0.09 -0.09)">
      <defs>
       <path id="LMRoman6-Regular-54" d="M 5203 2835 
L 5062 4326 
L 499 4326 
L 358 2835 
L 595 2835 
C 691 3994 941 4077 1907 4077 
C 2042 4077 2253 4077 2317 4070 
C 2464 4045 2464 3981 2464 3827 
L 2464 544 
C 2464 333 2464 250 1786 250 
L 1498 250 
L 1498 0 
C 1811 26 2445 26 2784 26 
C 3123 26 3757 26 4070 0 
L 4070 250 
L 3782 250 
C 3104 250 3104 333 3104 544 
L 3104 3827 
C 3104 3981 3104 4045 3245 4070 
C 3309 4077 3520 4077 3654 4077 
C 4627 4077 4870 3987 4966 2835 
L 5203 2835 
z
" transform="scale(0.015625)"/>
       <path id="LMRoman6-Regular-65" d="M 3194 768 
C 3194 800 3181 870 3072 870 
C 2989 870 2976 832 2950 755 
C 2758 282 2278 160 1984 160 
C 1632 160 1331 320 1152 550 
C 915 851 915 1274 915 1446 
L 3002 1446 
C 3142 1446 3194 1446 3194 1600 
C 3194 2093 2918 2854 1856 2854 
C 960 2854 307 2170 307 1402 
C 307 595 1043 -64 1946 -64 
C 2867 -64 3194 627 3194 768 
z
M 2726 1638 
L 928 1638 
C 998 2496 1587 2650 1850 2650 
C 2675 2650 2720 1824 2726 1638 
z
" transform="scale(0.015625)"/>
       <path id="LMRoman6-Regular-6d" d="M 6080 0 
L 6080 250 
C 5638 250 5574 250 5574 525 
L 5574 1933 
C 5574 2586 5190 2822 4563 2822 
C 3968 2822 3616 2483 3475 2240 
C 3328 2822 2675 2822 2496 2822 
C 1914 2822 1555 2502 1402 2234 
L 1395 2234 
L 1395 2822 
L 403 2752 
L 403 2502 
C 851 2502 909 2458 909 2144 
L 909 525 
C 909 250 845 250 403 250 
L 403 0 
C 448 6 883 26 1171 26 
C 1459 26 1882 6 1946 0 
L 1946 250 
C 1504 250 1440 250 1440 525 
L 1440 1651 
C 1440 2355 2048 2618 2438 2618 
C 2880 2618 2976 2342 2976 1946 
L 2976 525 
C 2976 250 2912 250 2470 250 
L 2470 0 
C 2515 6 2950 26 3238 26 
C 3526 26 3949 6 4013 0 
L 4013 250 
C 3571 250 3507 250 3507 525 
L 3507 1651 
C 3507 2355 4115 2618 4506 2618 
C 4947 2618 5043 2342 5043 1946 
L 5043 525 
C 5043 250 4979 250 4538 250 
L 4538 0 
C 4582 6 5018 26 5306 26 
C 5594 26 6016 6 6080 0 
z
" transform="scale(0.015625)"/>
       <path id="LMRoman6-Regular-70" d="M 3974 1382 
C 3974 2157 3302 2822 2419 2822 
C 1837 2822 1478 2534 1382 2445 
L 1382 2822 
L 371 2752 
L 371 2502 
C 806 2502 877 2502 877 2208 
L 877 -717 
C 877 -992 813 -992 371 -992 
L 371 -1242 
C 416 -1235 851 -1216 1139 -1216 
C 1427 -1216 1850 -1235 1914 -1242 
L 1914 -992 
C 1472 -992 1408 -992 1408 -717 
L 1408 307 
C 1670 58 1971 -64 2323 -64 
C 3213 -64 3974 570 3974 1382 
z
M 3366 1382 
C 3366 666 2854 141 2285 141 
C 1792 141 1504 493 1408 678 
L 1408 2118 
C 1626 2419 1978 2598 2355 2598 
C 2938 2598 3366 2035 3366 1382 
z
" transform="scale(0.015625)"/>
       <path id="LMRoman6-Regular-72" d="M 2778 2400 
C 2778 2656 2534 2822 2253 2822 
C 1869 2822 1542 2592 1344 2163 
L 1338 2163 
L 1338 2822 
L 371 2752 
L 371 2502 
C 819 2502 877 2458 877 2144 
L 877 525 
C 877 250 813 250 371 250 
L 371 0 
C 531 13 1005 26 1146 26 
C 1478 26 1920 6 2010 0 
L 2010 250 
L 1869 250 
C 1389 250 1382 314 1382 531 
L 1382 1434 
C 1382 2029 1690 2605 2259 2618 
C 2202 2560 2176 2483 2176 2400 
C 2176 2227 2304 2099 2477 2099 
C 2650 2099 2778 2227 2778 2400 
z
" transform="scale(0.015625)"/>
       <path id="LMRoman6-Regular-61" d="M 3712 576 
L 3712 928 
L 3475 928 
L 3475 589 
C 3475 525 3475 237 3226 237 
C 2976 237 2976 525 2976 589 
L 2976 1907 
C 2976 2502 2368 2854 1651 2854 
C 1344 2854 589 2822 589 2285 
C 589 2112 704 1971 902 1971 
C 1088 1971 1210 2112 1210 2278 
C 1210 2394 1158 2502 1043 2554 
C 1254 2650 1574 2650 1638 2650 
C 2093 2650 2445 2381 2445 1894 
L 2445 1728 
C 2150 1715 1638 1702 1171 1536 
C 749 1389 346 1101 346 672 
C 346 102 1024 -64 1523 -64 
C 2061 -64 2381 205 2522 448 
C 2566 115 2778 -32 3002 -32 
C 3027 -32 3712 -32 3712 576 
z
M 2445 909 
C 2445 243 1786 141 1581 141 
C 1235 141 909 352 909 672 
C 909 1030 1254 1498 2445 1536 
L 2445 909 
z
" transform="scale(0.015625)"/>
       <path id="LMRoman6-Regular-74" d="M 2566 806 
L 2566 1158 
L 2330 1158 
L 2330 819 
C 2330 365 2093 160 1856 160 
C 1395 160 1395 678 1395 800 
L 1395 2509 
L 2445 2509 
L 2445 2758 
L 1395 2758 
L 1395 3936 
L 1158 3936 
C 1152 3366 877 2739 230 2714 
L 230 2509 
L 864 2509 
L 864 800 
C 864 128 1370 -64 1805 -64 
C 2246 -64 2566 288 2566 806 
z
" transform="scale(0.015625)"/>
       <path id="LMRoman6-Regular-75" d="M 4006 0 
L 4006 250 
C 3558 250 3501 294 3501 608 
L 3501 2822 
L 2464 2752 
L 2464 2502 
C 2912 2502 2970 2458 2970 2144 
L 2970 1075 
C 2970 493 2566 141 2074 141 
C 1466 141 1440 410 1440 723 
L 1440 2822 
L 403 2752 
L 403 2502 
C 909 2502 909 2445 909 2067 
L 909 1069 
C 909 634 909 352 1197 141 
C 1440 -38 1760 -64 2029 -64 
C 2432 -64 2771 96 2995 461 
L 2995 -64 
L 4006 0 
z
" transform="scale(0.015625)"/>
       <path id="LMRoman6-Regular-20" transform="scale(0.015625)"/>
       <path id="LMRoman6-Regular-69" d="M 1875 0 
L 1875 250 
C 1478 250 1421 250 1421 518 
L 1421 2822 
L 435 2752 
L 435 2502 
C 858 2502 915 2458 915 2144 
L 915 525 
C 915 250 851 250 410 250 
L 410 0 
L 1158 26 
C 1222 26 1709 13 1875 0 
z
M 1510 3846 
C 1510 4051 1344 4230 1126 4230 
C 890 4230 736 4032 736 3846 
C 736 3642 902 3462 1120 3462 
C 1357 3462 1510 3661 1510 3846 
z
" transform="scale(0.015625)"/>
       <path id="LMRoman6-Regular-6e" d="M 4006 0 
L 4006 250 
C 3565 250 3501 250 3501 525 
L 3501 1933 
C 3501 2560 3142 2822 2496 2822 
C 1933 2822 1581 2528 1395 2221 
L 1395 2822 
L 403 2752 
L 403 2502 
C 851 2502 909 2458 909 2144 
L 909 525 
C 909 250 845 250 403 250 
L 403 0 
C 448 6 883 26 1171 26 
C 1459 26 1882 6 1946 0 
L 1946 250 
C 1504 250 1440 250 1440 525 
L 1440 1651 
C 1440 2355 2042 2618 2438 2618 
C 2867 2618 2970 2349 2970 1952 
L 2970 525 
C 2970 250 2906 250 2464 250 
L 2464 0 
C 2509 6 2944 26 3232 26 
C 3520 26 3942 6 4006 0 
z
" transform="scale(0.015625)"/>
       <path id="LMRoman6-Regular-b0" d="M 2502 3334 
C 2502 3910 2042 4371 1466 4371 
C 896 4371 429 3910 429 3334 
C 429 2765 896 2298 1466 2298 
C 2042 2298 2502 2765 2502 3334 
z
M 2170 3334 
C 2170 2950 1856 2630 1466 2630 
C 1075 2630 762 2950 762 3334 
C 762 3725 1075 4038 1466 4038 
C 1856 4038 2170 3725 2170 3334 
z
" transform="scale(0.015625)"/>
       <path id="LMRoman6-Regular-43" d="M 5056 1498 
C 5056 1568 5050 1632 4934 1632 
C 4832 1632 4826 1581 4819 1523 
C 4768 544 3878 115 3174 115 
C 2406 115 1216 570 1216 2189 
C 1216 3776 2374 4256 3168 4256 
C 3891 4256 4640 3763 4800 2784 
C 4813 2701 4819 2656 4928 2656 
C 5056 2656 5056 2707 5056 2835 
L 5056 4326 
C 5056 4435 5056 4506 4954 4506 
C 4896 4506 4883 4480 4838 4422 
L 4486 3936 
C 4115 4307 3610 4506 3085 4506 
C 1664 4506 506 3456 506 2189 
C 506 902 1664 -134 3091 -134 
C 4262 -134 5056 685 5056 1498 
z
" transform="scale(0.015625)"/>
      </defs>
      <use xlink:href="#LMRoman6-Regular-54"/>
      <use xlink:href="#LMRoman6-Regular-65" x="86.999985"/>
      <use xlink:href="#LMRoman6-Regular-6d" x="141.599976"/>
      <use xlink:href="#LMRoman6-Regular-70" x="241.59996"/>
      <use xlink:href="#LMRoman6-Regular-65" x="309.199951"/>
      <use xlink:href="#LMRoman6-Regular-72" x="363.799942"/>
      <use xlink:href="#LMRoman6-Regular-61" x="411.899933"/>
      <use xlink:href="#LMRoman6-Regular-74" x="472.999924"/>
      <use xlink:href="#LMRoman6-Regular-75" x="521.099915"/>
      <use xlink:href="#LMRoman6-Regular-72" x="588.699905"/>
      <use xlink:href="#LMRoman6-Regular-20" x="636.799896"/>
      <use xlink:href="#LMRoman6-Regular-69" x="678.499893"/>
      <use xlink:href="#LMRoman6-Regular-6e" x="713.69989"/>
      <use xlink:href="#LMRoman6-Regular-20" x="781.299881"/>
      <use xlink:href="#LMRoman6-Regular-b0" x="822.999878"/>
      <use xlink:href="#LMRoman6-Regular-43" x="868.799866"/>
     </g>
    </g>
   </g>
   <g id="line2d_21">
    <path d="M 58.110236 74.575863 
L 68.318268 74.474481 
L 69.306142 74.398449 
L 69.964724 74.297066 
L 70.623307 74.144992 
L 71.28189 73.891545 
L 71.940472 73.333951 
L 72.599055 72.092048 
L 72.928346 71.02755 
L 73.586929 67.732693 
L 76.22126 51.233059 
L 76.879843 49.028031 
L 77.538425 47.45664 
L 78.197008 46.290769 
L 79.184882 45.150249 
L 80.502047 44.516622 
L 81.489921 44.288506 
L 84.124252 43.984358 
L 85.441417 43.781613 
L 88.075748 43.477465 
L 91.03937 43.578847 
L 91.697953 43.604198 
L 92.356535 43.528147 
L 94.661575 43.426783 
L 95.649449 43.350732 
L 97.295906 43.249369 
L 98.28378 43.198668 
L 101.247402 43.147986 
L 101.576693 43.071954 
L 102.235276 43.071954 
L 104.540315 42.717105 
L 104.869606 42.489009 
L 105.528189 41.37382 
L 106.516063 38.915345 
L 107.174646 37.825506 
L 107.833228 37.318613 
L 108.16252 37.21723 
L 108.821102 37.318613 
L 111.126142 38.104304 
L 111.784724 38.459133 
L 113.10189 39.371557 
L 114.419055 40.081235 
L 116.394803 40.942958 
L 117.382677 41.196405 
L 120.017008 41.703318 
L 123.968504 42.210212 
L 126.602835 42.311594 
L 154.263307 42.235562 
L 154.92189 42.134179 
L 155.909764 42.083478 
L 157.55622 41.804701 
L 164.80063 40.588129 
L 166.117795 39.87847 
L 166.447087 39.574322 
L 167.105669 38.585866 
L 167.764252 37.496027 
L 168.093543 37.115848 
L 168.752126 36.786369 
L 169.410709 36.684986 
L 170.069291 36.83705 
L 171.715748 37.546728 
L 172.703622 38.155005 
L 173.362205 38.433802 
L 174.67937 39.067429 
L 177.642992 40.182598 
L 178.301575 40.233299 
L 179.289449 40.385364 
L 179.948031 40.436065 
L 180.277323 40.512097 
L 180.606614 40.436065 
L 181.265197 40.537447 
L 183.570236 40.436065 
L 184.228819 39.701055 
L 186.204567 36.178093 
L 186.86315 35.569797 
L 187.851024 35.062903 
L 189.826772 34.860138 
L 191.473228 35.037553 
L 192.461102 35.240318 
L 195.754016 35.848594 
L 199.705512 36.659636 
L 200.693386 36.83705 
L 201.68126 37.039816 
L 213.535748 38.763281 
L 215.511496 38.991397 
L 216.170079 39.067429 
L 228.024567 40.005184 
L 230.329606 41.145723 
L 231.976063 41.677967 
L 238.56189 42.083478 
L 239.879055 42.083478 
L 278.735433 42.184861 
L 280.052598 42.235562 
L 280.711181 42.210212 
L 291.248504 42.311594 
L 292.236378 42.641073 
L 294.212126 43.30005 
L 294.870709 43.325401 
L 295.2 43.756262 
L 295.858583 43.756262 
L 332.409921 43.857645 
L 334.056378 43.882995 
L 335.373543 43.882995 
L 374.229921 43.984358 
L 375.217795 43.984358 
L 375.876378 43.933677 
L 376.534961 43.984358 
L 405.183307 44.035059 
L 405.512598 44.111092 
L 406.171181 44.06041 
L 407.488346 44.06041 
L 408.146929 44.06041 
L 421.318583 44.161773 
L 422.635748 44.187124 
L 424.282205 44.161773 
L 448.649764 44.263156 
L 450.29622 44.288506 
L 451.613386 44.288506 
L 453.259843 44.313857 
L 453.259843 44.313857 
" clip-path="url(#p74ca9ed432)" style="fill: none; stroke: #000000; stroke-width: 0.9; stroke-linecap: square"/>
   </g>
   <g id="line2d_22">
    <path d="M 58.110236 47.127151 
L 60.085984 47.139831 
L 60.744567 47.127156 
L 61.732441 47.177842 
L 62.391024 47.101815 
L 65.683937 47.076469 
L 67.988976 47.063789 
L 81.16063 46.975082 
L 81.819213 46.924391 
L 82.477795 46.886375 
L 87.417165 46.823018 
L 88.075748 46.708965 
L 89.063622 46.708965 
L 91.368661 46.265418 
L 91.697953 46.227412 
L 92.356535 46.354126 
L 93.344409 46.011967 
L 93.673701 45.910594 
L 94.002992 45.935939 
L 94.332283 45.847227 
L 94.661575 45.885248 
L 97.295906 45.340324 
L 97.954488 45.441711 
L 98.613071 45.340334 
L 99.271654 45.391015 
L 99.930236 45.492398 
L 100.588819 45.403691 
L 101.247402 45.391015 
L 101.905984 45.238946 
L 102.235276 45.353004 
L 103.22315 45.37834 
L 103.881732 45.391015 
L 107.174646 45.352994 
L 107.833228 45.429031 
L 109.808976 45.276962 
L 111.126142 45.492398 
L 112.114016 45.441711 
L 112.443307 45.454382 
L 113.10189 45.352994 
L 113.760472 45.441707 
L 120.675591 45.492398 
L 121.004882 45.555755 
L 121.663465 45.479728 
L 122.322047 45.517739 
L 123.309921 45.505068 
L 131.542205 45.581105 
L 132.85937 45.631797 
L 133.517953 45.606456 
L 137.140157 45.644472 
L 145.04315 45.251622 
L 145.372441 45.099552 
L 145.701732 45.086872 
L 146.031024 45.238951 
L 146.689606 45.150244 
L 147.018898 45.010845 
L 147.67748 45.124893 
L 148.006772 45.010845 
L 149.323937 45.086882 
L 149.98252 44.998165 
L 150.641102 45.074202 
L 151.299685 45.162909 
L 151.958268 45.048861 
L 152.61685 45.036186 
L 153.275433 45.162909 
L 156.239055 45.124893 
L 157.226929 45.175589 
L 158.214803 45.074207 
L 159.202677 45.061536 
L 159.86126 45.086882 
L 162.166299 44.833426 
L 164.471339 44.757393 
L 164.80063 44.782734 
L 165.459213 44.605315 
L 167.434961 44.478596 
L 168.422835 44.377214 
L 169.081417 44.339198 
L 169.74 44.136442 
L 170.069291 44.073076 
L 170.398583 44.187124 
L 176.984409 43.528161 
L 182.911654 43.629534 
L 184.55811 43.591518 
L 185.545984 43.566172 
L 186.204567 43.642204 
L 186.533858 43.591518 
L 186.86315 43.654884 
L 187.192441 43.604193 
L 187.851024 43.642209 
L 188.509606 43.642209 
L 191.473228 43.680225 
L 192.790394 43.642209 
L 195.095433 43.730912 
L 196.74189 43.705576 
L 199.37622 43.6929 
L 200.034803 43.768937 
L 200.693386 43.730912 
L 202.010551 43.730921 
L 207.608504 43.794278 
L 207.937795 43.84497 
L 208.596378 43.781603 
L 210.242835 43.781603 
L 211.230709 43.819619 
L 212.218583 43.806953 
L 214.194331 43.819619 
L 215.511496 43.84497 
L 218.145827 43.84497 
L 226.707402 43.908331 
L 227.365984 43.933682 
L 228.353858 43.882986 
L 228.68315 44.111092 
L 230.000315 43.870315 
L 230.329606 44.301181 
L 230.988189 44.022384 
L 231.646772 43.756262 
L 231.976063 44.085746 
L 232.305354 44.174453 
L 233.62252 43.997034 
L 233.951811 43.819619 
L 234.281102 43.844965 
L 234.610394 44.187124 
L 235.268976 44.073071 
L 236.586142 43.921002 
L 237.244724 44.212469 
L 237.574016 43.997043 
L 237.903307 43.933677 
L 238.56189 44.199804 
L 240.208346 43.997043 
L 241.854803 44.085751 
L 242.513386 44.085751 
L 243.50126 43.959027 
L 244.159843 44.212479 
L 245.147717 44.022384 
L 245.477008 44.022384 
L 246.135591 44.212469 
L 246.794173 44.04773 
L 247.452756 44.212469 
L 248.111339 44.098416 
L 248.769921 44.123762 
L 249.099213 44.04773 
L 250.745669 44.212469 
L 251.404252 44.161778 
L 251.733543 44.199799 
L 252.392126 44.073071 
L 253.050709 44.187124 
L 253.709291 44.098416 
L 255.685039 44.237815 
L 256.343622 44.149108 
L 257.990079 44.098416 
L 259.965827 44.149108 
L 262.929449 44.161778 
L 273.796063 44.250485 
L 274.783937 44.263161 
L 275.771811 44.22514 
L 279.394016 44.263165 
L 280.711181 44.263161 
L 282.686929 44.263161 
L 283.345512 44.288511 
L 284.333386 44.288511 
L 284.662677 44.275831 
L 284.991969 44.377214 
L 285.32126 44.263161 
L 286.967717 44.301177 
L 290.589921 44.389889 
L 290.919213 44.187124 
L 291.248504 44.503942 
L 291.907087 44.237815 
L 292.236378 44.656011 
L 292.894961 44.288506 
L 293.553543 44.288506 
L 293.882835 44.440575 
L 294.212126 44.326522 
L 294.870709 44.42791 
L 295.529291 44.351868 
L 296.517165 44.427905 
L 299.480787 44.402559 
L 300.13937 44.41523 
L 309.030236 44.44058 
L 309.359528 44.554628 
L 310.01811 44.389889 
L 313.640315 44.42791 
L 314.298898 44.478596 
L 314.628189 44.529287 
L 315.286772 44.415234 
L 315.945354 44.478591 
L 316.603937 44.364548 
L 317.591811 44.491271 
L 318.579685 44.42791 
L 319.238268 44.491271 
L 320.555433 44.42791 
L 322.531181 44.541953 
L 323.189764 44.440575 
L 323.519055 44.529287 
L 324.506929 44.465926 
L 327.799843 44.554628 
L 328.458425 44.478591 
L 329.446299 44.465926 
L 332.739213 44.516607 
L 334.056378 44.503942 
L 337.349291 44.554628 
L 338.337165 44.491267 
L 341.300787 44.503937 
L 350.850236 44.605324 
L 351.508819 44.605324 
L 352.496693 44.491271 
L 353.484567 44.541958 
L 355.131024 44.567308 
L 355.789606 44.567308 
L 356.448189 44.541963 
L 356.77748 44.668686 
L 357.436063 44.567304 
L 380.157165 44.63067 
L 380.815748 44.694032 
L 382.462205 44.63067 
L 384.108661 44.656016 
L 405.84189 44.732043 
L 406.500472 44.732043 
L 407.488346 44.719377 
L 408.47622 44.744718 
L 428.562992 44.846096 
L 431.526614 44.858766 
L 453.259843 44.896792 
L 453.259843 44.896792 
" clip-path="url(#p74ca9ed432)" style="fill: none; stroke-dasharray: 3.33,1.44; stroke-dashoffset: 0; stroke: #000000; stroke-width: 0.9"/>
   </g>
   <g id="line2d_23">
    <path d="M 58.110236 110.109649 
L 59.09811 109.01981 
L 60.085984 108.284801 
L 60.744567 108.158077 
L 63.049606 108.056695 
L 64.696063 107.701865 
L 65.683937 107.423068 
L 66.671811 107.144271 
L 67.001102 106.789441 
L 67.330394 106.181156 
L 67.659685 105.851677 
L 67.988976 105.927709 
L 68.318268 106.181156 
L 68.97685 107.194962 
L 69.964724 109.476022 
L 70.623307 110.363096 
L 71.611181 110.996722 
L 73.257638 111.402243 
L 82.477795 111.503626 
L 84.453543 111.554317 
L 94.661575 111.452934 
L 95.649449 111.351552 
L 96.308031 110.996722 
L 96.637323 110.667234 
L 96.966614 110.084298 
L 98.942362 105.091327 
L 99.930236 103.722691 
L 100.91811 102.911649 
L 101.905984 102.404746 
L 103.552441 101.948534 
L 104.211024 101.847151 
L 105.85748 101.644396 
L 106.845354 101.492322 
L 112.772598 100.934727 
L 113.760472 100.681281 
L 114.089764 100.503866 
L 114.748346 99.743516 
L 115.406929 98.932475 
L 116.065512 98.552295 
L 116.724094 98.324189 
L 118.04126 98.222806 
L 119.687717 98.450912 
L 121.004882 98.653677 
L 125.285669 98.907124 
L 126.932126 98.881783 
L 128.578583 98.957815 
L 128.907874 99.287304 
L 130.554331 101.999225 
L 131.212913 102.708884 
L 132.200787 103.443893 
L 134.176535 103.950797 
L 137.79874 104.204243 
L 138.457323 104.736488 
L 139.115906 105.319433 
L 140.10378 106.105124 
L 140.762362 106.485303 
L 142.079528 106.814782 
L 143.067402 106.941515 
L 147.018898 106.409262 
L 148.994646 106.510644 
L 168.093543 107.87928 
L 168.752126 107.955312 
L 172.045039 109.197225 
L 174.350079 109.121193 
L 175.667244 109.146534 
L 176.655118 108.918428 
L 177.972283 108.918428 
L 180.277323 109.01981 
L 181.265197 108.817045 
L 184.887402 107.524451 
L 186.533858 107.042888 
L 194.43685 104.711147 
L 195.754016 104.711147 
L 196.74189 104.635115 
L 198.059055 104.432349 
L 200.364094 104.178903 
L 202.339843 104.128211 
L 204.644882 104.204243 
L 205.962047 104.330967 
L 207.608504 104.432349 
L 210.572126 104.711147 
L 212.547874 105.268741 
L 213.865039 105.167359 
L 216.49937 104.4577 
L 228.68315 100.808004 
L 230.329606 100.326451 
L 235.598268 98.602986 
L 237.244724 97.918668 
L 238.232598 97.61453 
L 239.549764 97.209009 
L 246.464882 95.181406 
L 249.428504 94.547779 
L 252.062835 94.649152 
L 257.331496 93.331207 
L 258.31937 93.05242 
L 259.307244 92.722931 
L 261.612283 91.759816 
L 263.588031 91.252913 
L 264.905197 90.948775 
L 267.210236 90.239116 
L 268.19811 89.681521 
L 271.161732 87.983406 
L 272.808189 87.577886 
L 273.796063 87.425812 
L 278.406142 86.437356 
L 279.394016 86.61477 
L 280.052598 86.9696 
L 280.711181 87.603226 
L 282.028346 89.352033 
L 283.01622 90.188424 
L 283.674803 90.568595 
L 286.309134 91.075498 
L 289.931339 91.252913 
L 291.248504 90.796701 
L 292.236378 90.061701 
L 294.212126 88.819788 
L 294.870709 88.591682 
L 295.2 82.306107 
L 296.187874 82.02731 
L 297.505039 82.02731 
L 299.480787 82.280766 
L 299.810079 82.40749 
L 300.13937 82.711628 
L 301.127244 84.181646 
L 303.102992 86.61477 
L 304.420157 87.425812 
L 305.408031 87.805992 
L 307.054488 88.11013 
L 310.676693 88.287544 
L 317.26252 88.236853 
L 318.250394 87.958056 
L 319.238268 87.831332 
L 321.872598 87.72995 
L 325.494803 87.501844 
L 326.153386 87.552535 
L 328.787717 87.451153 
L 333.397795 87.552535 
L 334.714961 87.552535 
L 337.349291 87.653918 
L 340.642205 87.958056 
L 341.630079 88.363577 
L 342.617953 88.971862 
L 343.935118 90.137733 
L 344.593701 90.669977 
L 345.252283 90.974125 
L 346.240157 91.126189 
L 347.228031 91.126189 
L 350.520945 90.593945 
L 352.167402 89.808245 
L 353.155276 89.149277 
L 354.14315 88.693065 
L 356.448189 88.059438 
L 359.08252 87.932715 
L 359.741102 88.338236 
L 361.058268 89.25066 
L 361.71685 89.529447 
L 363.692598 89.884286 
L 364.351181 89.808245 
L 368.96126 88.997203 
L 370.278425 88.51565 
L 373.571339 86.335973 
L 374.559213 86.006484 
L 377.193543 85.702346 
L 378.510709 85.879761 
L 379.169291 86.133208 
L 380.815748 87.34978 
L 381.803622 87.704609 
L 382.791496 87.856673 
L 385.425827 87.552535 
L 389.048031 86.918908 
L 391.02378 85.930452 
L 392.011654 85.170102 
L 392.340945 84.865955 
L 395.304567 83.826807 
L 396.621732 83.624052 
L 398.268189 83.700084 
L 398.59748 83.750775 
L 399.256063 84.257678 
L 400.573228 85.246134 
L 401.561102 85.702346 
L 402.548976 85.85442 
L 403.866142 85.879761 
L 404.854016 85.778378 
L 406.171181 85.803729 
L 408.146929 85.753038 
L 410.451969 85.82907 
L 411.439843 85.85442 
L 412.098425 85.85442 
L 413.086299 85.803729 
L 417.367087 85.905112 
L 420.330709 86.031835 
L 422.635748 86.133208 
L 426.587244 86.335973 
L 427.904409 86.386664 
L 428.562992 86.462696 
L 429.880157 86.564079 
L 431.197323 86.792185 
L 433.502362 86.893568 
L 436.795276 87.070982 
L 438.441732 86.868217 
L 439.100315 86.640111 
L 441.734646 84.739231 
L 442.393228 84.485784 
L 443.381102 84.105604 
L 444.698268 83.801466 
L 447.003307 83.700084 
L 447.66189 83.776126 
L 448.320472 84.156296 
L 450.29622 85.727687 
L 452.60126 87.045632 
L 453.259843 87.37512 
L 453.259843 87.37512 
" clip-path="url(#p74ca9ed432)" style="fill: none; stroke-dasharray: 5.76,1.44,0.9,1.44; stroke-dashoffset: 0; stroke: #000000; stroke-width: 0.9"/>
   </g>
   <g id="line2d_24">
    <path d="M 58.110236 153.386348 
L 58.768819 153.424364 
L 59.427402 153.437037 
L 67.330394 153.208931 
L 67.988976 153.221604 
L 71.611181 153.145569 
L 72.599055 153.094878 
L 78.197008 153.056862 
L 78.855591 153.006171 
L 79.843465 153.069532 
L 81.489921 153.044189 
L 82.807087 153.069535 
L 84.124252 153.107551 
L 85.441417 153.056859 
L 85.770709 152.980827 
L 86.1 153.044189 
L 87.087874 152.9935 
L 90.710079 153.069535 
L 92.027244 153.006171 
L 95.320157 152.968152 
L 97.625197 152.980825 
L 98.28378 152.942809 
L 99.271654 152.930136 
L 100.259528 152.917463 
L 100.91811 153.044187 
L 101.905984 152.892118 
L 105.198898 152.955479 
L 106.186772 152.942806 
L 106.845354 153.018843 
L 107.503937 153.044187 
L 108.491811 152.942809 
L 109.808976 152.866772 
L 110.467559 152.917463 
L 112.443307 152.816083 
L 113.10189 152.828756 
L 114.089764 152.854102 
L 115.077638 152.80341 
L 116.065512 152.828753 
L 122.322047 152.676684 
L 123.309921 152.689357 
L 124.297795 152.562634 
L 127.590709 152.511943 
L 128.578583 152.423233 
L 128.907874 152.423233 
L 129.237165 152.537286 
L 131.212913 152.410562 
L 131.871496 152.359871 
L 132.530079 152.423235 
L 133.188661 152.334525 
L 133.847244 152.435908 
L 134.835118 152.283837 
L 136.152283 152.359871 
L 138.457323 152.245821 
L 139.115906 152.271164 
L 139.445197 152.182456 
L 140.10378 152.207802 
L 140.762362 152.233148 
L 143.725984 152.131768 
L 144.713858 151.94168 
L 145.04315 152.093749 
L 147.348189 152.017712 
L 152.61685 151.967023 
L 153.275433 151.941678 
L 154.263307 151.878316 
L 154.92189 151.929007 
L 159.531969 151.85297 
L 160.519843 151.789609 
L 162.824882 151.713572 
L 167.434961 151.637537 
L 168.422835 151.624864 
L 169.74 151.599519 
L 170.398583 151.485468 
L 175.337953 151.422104 
L 175.667244 151.346069 
L 176.984409 151.44745 
L 177.642992 151.396758 
L 179.289449 151.371413 
L 180.606614 151.320724 
L 181.594488 151.270032 
L 181.92378 151.232016 
L 182.253071 151.320724 
L 182.582362 151.25736 
L 183.240945 151.320724 
L 183.899528 151.308051 
L 185.875276 151.219344 
L 186.86315 151.168655 
L 187.851024 151.143309 
L 188.838898 151.054599 
L 189.826772 151.181327 
L 190.485354 151.016583 
L 191.80252 151.105291 
L 192.461102 151.029254 
L 195.754016 150.940546 
L 196.74189 150.889857 
L 198.059055 150.915203 
L 198.388346 150.826493 
L 199.046929 150.915203 
L 202.998425 150.813823 
L 203.986299 150.750461 
L 204.644882 150.826496 
L 205.632756 150.775804 
L 205.962047 150.826493 
L 206.62063 150.737786 
L 207.279213 150.737788 
L 207.937795 150.737788 
L 208.267087 150.775807 
L 208.596378 150.611063 
L 209.254961 150.661751 
L 214.194331 150.560371 
L 216.170079 150.535028 
L 217.157953 150.458991 
L 220.121575 150.395629 
L 220.450866 150.294247 
L 221.768031 150.446318 
L 222.755906 150.256231 
L 225.060945 150.230887 
L 225.390236 150.078816 
L 227.036693 150.205539 
L 227.695276 149.990109 
L 228.353858 150.129505 
L 229.012441 150.154851 
L 229.671024 150.091489 
L 230.988189 150.091489 
L 231.31748 149.977436 
L 231.976063 150.028127 
L 238.56189 149.838037 
L 239.220472 149.901399 
L 239.879055 149.762003 
L 240.537638 149.774675 
L 242.513386 149.838037 
L 243.171969 149.74933 
L 249.428504 149.571913 
L 249.757795 149.673295 
L 250.087087 149.521224 
L 250.745669 149.483205 
L 251.074961 149.407171 
L 251.404252 149.508551 
L 253.050709 149.394498 
L 253.38 149.483205 
L 253.709291 149.394498 
L 254.038583 149.470533 
L 254.697165 149.343809 
L 256.343622 149.432517 
L 258.648661 149.305791 
L 259.307244 149.318464 
L 259.636535 149.229756 
L 260.624409 149.331136 
L 261.282992 149.242429 
L 261.941575 149.229756 
L 262.270866 149.128376 
L 263.25874 149.153719 
L 263.917323 149.115703 
L 264.905197 149.115703 
L 265.56378 149.09036 
L 266.880945 149.014323 
L 268.527402 149.026996 
L 268.856693 148.887597 
L 269.515276 148.950959 
L 273.466772 148.925613 
L 274.125354 148.722855 
L 274.454646 148.69751 
L 274.783937 148.824235 
L 276.759685 148.760874 
L 277.088976 148.634146 
L 278.07685 148.748199 
L 279.064724 148.646821 
L 281.369764 148.646818 
L 281.699055 148.672164 
L 282.028346 148.456733 
L 283.01622 148.570784 
L 284.333386 148.431388 
L 284.991969 148.469404 
L 286.638425 148.418715 
L 287.297008 148.406042 
L 287.626299 148.317332 
L 287.955591 148.380696 
L 288.614173 148.241298 
L 289.272756 148.330005 
L 291.907087 148.228625 
L 293.224252 148.139917 
L 294.212126 148.013192 
L 294.870709 148.101899 
L 295.2 147.328876 
L 296.517165 147.278185 
L 297.175748 147.30353 
L 297.834331 147.442929 
L 298.822205 147.240169 
L 299.810079 147.341549 
L 300.797953 147.366895 
L 306.395906 147.278187 
L 307.054488 147.29086 
L 308.042362 147.417583 
L 310.676693 147.430256 
L 312.652441 147.265514 
L 315.286772 147.531636 
L 316.274646 147.430256 
L 317.591811 147.430256 
L 318.579685 147.379565 
L 319.567559 147.354222 
L 320.226142 147.328876 
L 322.20189 147.290858 
L 322.860472 147.341549 
L 327.799843 147.430256 
L 339.983622 147.328876 
L 340.312913 147.20215 
L 340.971496 147.227496 
L 341.300787 147.278187 
L 342.617953 147.0881 
L 343.605827 147.151461 
L 343.935118 147.10077 
L 344.593701 147.18948 
L 345.910866 147.252839 
L 346.240157 147.113443 
L 346.89874 147.050081 
L 347.557323 146.872664 
L 348.545197 146.910683 
L 349.862362 146.834646 
L 350.520945 146.771284 
L 351.179528 147.075424 
L 352.167402 146.910683 
L 353.155276 146.936026 
L 353.813858 146.910683 
L 354.14315 146.834646 
L 354.801732 146.821973 
L 355.131024 146.707922 
L 356.77748 146.669904 
L 357.106772 146.581196 
L 357.765354 146.669904 
L 360.070394 146.720595 
L 360.728976 146.809302 
L 361.387559 146.581196 
L 362.375433 146.441798 
L 364.02189 146.454471 
L 364.351181 146.403782 
L 365.009764 146.50516 
L 366.65622 146.429125 
L 367.314803 146.213692 
L 368.302677 146.35309 
L 368.631969 146.163001 
L 370.278425 146.188349 
L 370.937008 146.327745 
L 371.266299 146.23904 
L 371.595591 146.289729 
L 372.254173 146.264383 
L 372.583465 146.213692 
L 373.242047 146.277054 
L 374.559213 146.099639 
L 376.864252 146.036277 
L 377.193543 145.985586 
L 377.852126 146.074296 
L 379.169291 146.010931 
L 380.157165 146.023607 
L 380.486457 145.896881 
L 381.145039 145.998259 
L 381.803622 145.782825 
L 382.132913 145.909551 
L 383.120787 145.694118 
L 383.450079 145.820844 
L 384.437953 145.782828 
L 385.096535 145.808171 
L 387.730866 145.706791 
L 388.060157 145.719464 
L 388.389449 145.605411 
L 388.71874 145.694118 
L 389.706614 145.580065 
L 390.035906 145.668775 
L 390.365197 145.605413 
L 391.02378 145.618084 
L 392.340945 145.567392 
L 392.999528 145.668775 
L 393.65811 145.605411 
L 394.645984 145.427994 
L 394.975276 145.516703 
L 396.621732 145.389978 
L 398.59748 145.38998 
L 399.256063 145.326616 
L 399.914646 145.389978 
L 400.573228 145.313943 
L 401.561102 145.237909 
L 402.219685 145.212563 
L 404.195433 144.959111 
L 405.183307 145.187217 
L 405.84189 145.187217 
L 406.500472 145.212563 
L 406.829764 145.060491 
L 408.805512 145.08584 
L 409.134803 144.971784 
L 409.793386 144.984457 
L 416.049921 144.832388 
L 416.708504 144.781697 
L 421.647874 144.578936 
L 421.977165 144.743678 
L 422.965039 144.604279 
L 423.294331 144.515575 
L 423.623622 144.578936 
L 424.282205 144.464883 
L 424.611496 144.540918 
L 424.940787 144.414192 
L 425.928661 144.553591 
L 426.257953 144.414192 
L 427.245827 144.376176 
L 427.575118 144.325485 
L 428.233701 144.376176 
L 429.550866 144.33816 
L 430.209449 144.24945 
L 431.197323 144.338157 
L 431.526614 144.236777 
L 432.185197 144.287469 
L 432.84378 144.24945 
L 433.502362 144.198759 
L 434.819528 144.135397 
L 435.148819 144.186088 
L 435.807402 144.084708 
L 437.124567 144.084708 
L 437.78315 144.021344 
L 438.441732 144.034017 
L 443.381102 143.919966 
L 443.710394 143.970655 
L 444.368976 143.831257 
L 449.966929 143.742549 
L 451.942677 143.577805 
L 452.60126 143.628496 
L 453.259843 143.603151 
L 453.259843 143.603151 
" clip-path="url(#p74ca9ed432)" style="fill: none; stroke-dasharray: 0.9,1.485; stroke-dashoffset: 0; stroke: #000000; stroke-width: 0.9"/>
   </g>
   <g id="line2d_25">
    <path d="M 58.110236 168.023123 
L 60.744567 167.921741 
L 61.073858 167.795017 
L 61.732441 166.983976 
L 62.720315 164.85499 
L 63.049606 164.905681 
L 63.708189 166.857248 
L 64.366772 167.566911 
L 68.318268 168.732787 
L 68.97685 168.783473 
L 69.635433 168.935547 
L 71.28189 169.138305 
L 72.269764 169.290377 
L 73.586929 169.493137 
L 74.904094 169.619863 
L 75.562677 169.670552 
L 76.550551 169.797278 
L 77.209134 169.746586 
L 78.197008 169.797278 
L 79.514173 169.873312 
L 80.172756 169.924003 
L 80.831339 169.974692 
L 82.148504 170.076072 
L 82.477795 170.152109 
L 83.136378 170.101418 
L 83.794961 170.101418 
L 91.368661 170.025384 
L 92.027244 169.974692 
L 93.673701 170.202798 
L 94.332283 170.152109 
L 95.97874 170.329524 
L 106.186772 170.25349 
L 107.833228 170.101418 
L 109.479685 170.202798 
L 110.79685 170.380213 
L 111.455433 170.329524 
L 112.443307 170.380213 
L 115.73622 170.278833 
L 116.724094 170.278833 
L 117.711969 170.329524 
L 121.334173 170.25349 
L 121.663465 170.202798 
L 122.651339 170.329524 
L 123.968504 170.430904 
L 132.200787 170.329524 
L 132.85937 170.25349 
L 133.517953 170.152109 
L 134.176535 170.152109 
L 135.164409 170.101418 
L 135.493701 170.025384 
L 136.152283 170.025384 
L 137.140157 170.101418 
L 138.128031 170.152109 
L 141.420945 170.101418 
L 141.750236 170.025384 
L 142.73811 170.076072 
L 145.372441 170.152109 
L 146.360315 170.202798 
L 155.251181 170.152109 
L 155.909764 170.076072 
L 158.544094 170.202798 
L 159.86126 170.101418 
L 162.166299 170.202798 
L 162.824882 170.25349 
L 163.483465 170.101418 
L 163.812756 169.974692 
L 164.471339 170.025384 
L 165.129921 170.202798 
L 166.447087 170.329524 
L 167.434961 170.25349 
L 168.422835 170.202798 
L 177.642992 170.152109 
L 177.972283 170.076072 
L 178.960157 169.290377 
L 179.289449 169.239685 
L 180.277323 168.555367 
L 180.606614 168.580713 
L 181.265197 167.389497 
L 181.594488 167.034667 
L 181.92378 166.907939 
L 182.253071 167.034667 
L 182.582362 166.907939 
L 183.570236 165.995515 
L 184.55811 165.944829 
L 184.887402 165.742068 
L 185.216693 165.387234 
L 185.545984 165.564654 
L 186.204567 165.285856 
L 186.533858 165.792755 
L 186.86315 165.944829 
L 187.192441 165.742068 
L 187.851024 166.19828 
L 188.180315 166.223621 
L 188.838898 165.513962 
L 189.168189 165.666031 
L 189.49748 165.944829 
L 190.156063 165.767414 
L 190.814646 165.463271 
L 191.143937 165.564654 
L 192.131811 165.159128 
L 192.790394 165.513962 
L 193.448976 165.767414 
L 193.778268 166.19828 
L 194.107559 166.046206 
L 194.43685 165.564654 
L 194.766142 165.513962 
L 195.095433 165.767414 
L 196.083307 165.539308 
L 196.74189 166.046206 
L 197.729764 166.248967 
L 198.388346 165.792755 
L 198.717638 165.767414 
L 202.010551 167.71898 
L 202.998425 167.997778 
L 203.657008 168.175192 
L 204.315591 168.479335 
L 205.632756 168.884856 
L 206.62063 169.138305 
L 209.584252 169.442446 
L 211.56 169.797278 
L 212.218583 169.847966 
L 212.877165 169.847966 
L 213.865039 169.924003 
L 218.475118 169.847966 
L 218.804409 169.797278 
L 219.462992 169.391757 
L 220.450866 169.290377 
L 222.097323 168.707441 
L 222.426614 168.200538 
L 223.085197 167.71898 
L 223.414488 167.288114 
L 223.74378 167.136045 
L 224.073071 167.186736 
L 224.731654 167.465534 
L 225.060945 167.541566 
L 226.37811 166.401041 
L 226.707402 166.350349 
L 227.036693 166.603801 
L 227.365984 166.19828 
L 227.695276 166.071552 
L 228.353858 165.209819 
L 228.68315 165.159128 
L 229.012441 164.85499 
L 229.341732 164.702921 
L 230.000315 165.184474 
L 230.329606 164.85499 
L 230.988189 164.626884 
L 231.31748 164.500161 
L 231.976063 163.942566 
L 232.305354 164.221363 
L 232.634646 163.993257 
L 233.293228 164.576193 
L 233.951811 164.449469 
L 234.281102 163.993257 
L 234.610394 163.739806 
L 234.939685 163.689114 
L 235.268976 163.815843 
L 235.598268 163.739806 
L 235.927559 163.461008 
L 236.25685 163.461008 
L 236.586142 163.815843 
L 236.915433 163.638428 
L 237.244724 163.587737 
L 237.574016 163.765151 
L 237.903307 163.689114 
L 238.232598 163.866534 
L 238.56189 164.170672 
L 238.891181 163.866534 
L 239.220472 163.942566 
L 239.549764 163.765151 
L 239.879055 163.232907 
L 240.537638 163.461008 
L 240.866929 163.942566 
L 241.19622 163.739806 
L 241.854803 164.043949 
L 242.513386 163.815843 
L 242.842677 164.272055 
L 243.171969 164.449469 
L 243.830551 164.398778 
L 244.159843 164.449469 
L 244.489134 164.043949 
L 244.818425 164.145326 
L 245.147717 164.550847 
L 245.477008 164.728262 
L 245.806299 164.348087 
L 246.135591 164.221363 
L 246.794173 164.728262 
L 247.123465 164.576193 
L 247.452756 164.221363 
L 248.44063 164.677575 
L 248.769921 164.85499 
L 249.099213 165.285856 
L 249.428504 165.05775 
L 249.757795 164.500161 
L 250.087087 164.500161 
L 250.416378 164.702921 
L 250.745669 164.221363 
L 251.074961 163.461008 
L 251.404252 163.131525 
L 252.062835 162.852727 
L 252.392126 162.979456 
L 252.721417 162.776695 
L 253.050709 162.75135 
L 254.038583 162.168414 
L 255.026457 162.269792 
L 255.355748 162.573935 
L 256.014331 162.472552 
L 257.002205 162.624621 
L 257.331496 162.599281 
L 257.990079 162.903419 
L 258.648661 162.903419 
L 258.977953 162.776695 
L 259.307244 162.776695 
L 259.636535 162.979456 
L 259.965827 162.979456 
L 260.295118 163.106179 
L 261.282992 162.75135 
L 261.612283 162.827382 
L 261.941575 163.055488 
L 263.588031 162.95411 
L 263.917323 162.878073 
L 264.575906 163.004801 
L 265.234488 162.903419 
L 265.56378 163.030147 
L 265.893071 163.283594 
L 266.222362 163.308939 
L 266.880945 163.15687 
L 267.210236 163.283594 
L 267.539528 163.283594 
L 267.868819 163.5117 
L 268.856693 163.106179 
L 269.844567 163.91722 
L 270.173858 163.942566 
L 270.50315 163.587737 
L 271.161732 163.739806 
L 271.491024 163.866534 
L 271.820315 163.866534 
L 272.478898 163.5117 
L 272.808189 163.461008 
L 273.13748 163.638428 
L 273.466772 163.942566 
L 274.125354 163.461008 
L 274.783937 163.638428 
L 275.113228 163.91722 
L 275.44252 163.91722 
L 276.101102 164.500161 
L 276.430394 164.626884 
L 276.759685 164.550847 
L 277.088976 164.728262 
L 277.747559 164.170672 
L 278.07685 164.094635 
L 278.735433 163.739806 
L 279.394016 164.094635 
L 279.723307 164.449469 
L 280.052598 164.449469 
L 280.38189 164.170672 
L 281.369764 164.525501 
L 282.686929 163.993257 
L 283.01622 164.170672 
L 283.345512 163.942566 
L 283.674803 164.094635 
L 284.004094 163.815843 
L 284.333386 163.866534 
L 284.662677 164.221363 
L 284.991969 164.272055 
L 285.32126 164.702921 
L 285.979843 164.398778 
L 286.309134 164.576193 
L 286.967717 164.500161 
L 287.626299 164.981713 
L 288.614173 164.500161 
L 288.943465 164.170672 
L 289.272756 164.398778 
L 289.602047 164.778953 
L 290.26063 164.550847 
L 291.248504 164.981713 
L 291.577795 164.956368 
L 291.907087 165.083096 
L 292.236378 164.905681 
L 292.565669 164.576193 
L 293.882835 165.260511 
L 294.212126 164.778953 
L 294.541417 164.753607 
L 294.870709 164.525501 
L 295.2 164.043949 
L 295.858583 164.449469 
L 296.517165 164.221363 
L 297.505039 162.75135 
L 298.163622 162.193755 
L 298.492913 161.81358 
L 299.151496 161.965654 
L 299.810079 161.585474 
L 300.468661 161.230645 
L 301.127244 160.901161 
L 301.456535 160.673055 
L 302.115118 160.673055 
L 305.07874 159.785977 
L 305.737323 159.811322 
L 306.395906 159.456488 
L 306.725197 159.380456 
L 307.054488 159.557871 
L 307.38378 159.608562 
L 308.700945 159.177696 
L 309.359528 159.279073 
L 309.688819 159.431147 
L 310.347402 159.304419 
L 311.005984 159.076313 
L 311.664567 159.253728 
L 312.32315 159.177696 
L 312.652441 159.532525 
L 313.311024 159.279073 
L 313.969606 159.633907 
L 314.628189 159.380456 
L 314.95748 159.203041 
L 315.286772 159.15235 
L 315.616063 159.279073 
L 316.274646 159.15235 
L 316.933228 159.050967 
L 317.921102 159.025626 
L 318.250394 159.203041 
L 318.579685 159.203041 
L 318.908976 159.431147 
L 319.89685 159.583216 
L 321.214016 159.253728 
L 321.872598 159.481834 
L 322.531181 159.35511 
L 324.177638 159.279073 
L 324.83622 159.203041 
L 325.165512 159.405801 
L 325.494803 159.785977 
L 325.824094 159.760631 
L 326.153386 159.862013 
L 326.482677 159.70994 
L 326.811969 159.785977 
L 327.14126 160.014083 
L 327.470551 160.039428 
L 328.129134 159.608562 
L 328.458425 159.507179 
L 330.434173 159.9127 
L 331.751339 159.760631 
L 332.08063 159.785977 
L 332.739213 159.633907 
L 333.397795 159.608562 
L 334.056378 159.507179 
L 335.044252 159.608562 
L 335.373543 159.836668 
L 335.702835 159.862013 
L 336.032126 159.70994 
L 336.690709 159.608562 
L 337.349291 159.431147 
L 338.007874 159.380456 
L 338.995748 159.253728 
L 339.654331 159.35511 
L 342.947244 158.94959 
L 343.276535 159.253728 
L 343.605827 159.887354 
L 343.935118 160.242189 
L 344.593701 160.673055 
L 344.922992 160.647709 
L 345.252283 160.470295 
L 345.581575 160.622364 
L 345.910866 160.901161 
L 346.240157 161.027884 
L 346.569449 161.002539 
L 346.89874 161.154608 
L 347.228031 161.027884 
L 347.557323 161.129267 
L 349.533071 162.371175 
L 349.862362 162.143069 
L 350.191654 162.548589 
L 350.850236 162.472552 
L 351.179528 162.599281 
L 351.508819 162.928764 
L 351.83811 162.928764 
L 352.167402 162.726004 
L 353.155276 162.649967 
L 354.14315 162.269792 
L 354.472441 162.75135 
L 355.789606 163.283594 
L 356.118898 163.131525 
L 356.448189 163.106179 
L 356.77748 162.776695 
L 357.106772 162.903419 
L 357.765354 162.979456 
L 358.094646 163.283594 
L 358.423937 163.283594 
L 358.753228 162.878073 
L 359.741102 162.548589 
L 360.070394 162.295138 
L 360.399685 162.649967 
L 360.728976 162.802041 
L 361.058268 163.562391 
L 361.387559 163.739806 
L 361.71685 163.359631 
L 362.046142 163.689114 
L 362.375433 163.739806 
L 362.704724 163.638428 
L 363.034016 163.689114 
L 363.692598 164.500161 
L 364.02189 164.221363 
L 364.351181 163.638428 
L 364.680472 163.359631 
L 365.009764 163.461008 
L 365.339055 163.815843 
L 366.326929 163.537045 
L 366.65622 163.283594 
L 366.985512 163.739806 
L 367.314803 163.993257 
L 367.644094 164.094635 
L 367.973386 164.348087 
L 368.631969 163.308939 
L 368.96126 163.384976 
L 369.290551 163.638428 
L 369.619843 163.232907 
L 369.949134 163.106179 
L 370.278425 163.410322 
L 370.937008 162.903419 
L 371.924882 163.739806 
L 372.583465 163.689114 
L 372.912756 163.91722 
L 373.571339 162.979456 
L 373.90063 163.384976 
L 374.229921 163.537045 
L 374.559213 163.815843 
L 374.888504 163.866534 
L 375.217795 163.765151 
L 375.547087 163.866534 
L 375.876378 163.689114 
L 376.205669 163.91722 
L 376.534961 163.91722 
L 377.193543 163.410322 
L 378.181417 163.5117 
L 378.510709 163.131525 
L 378.84 162.95411 
L 379.498583 163.815843 
L 379.827874 163.689114 
L 380.486457 163.815843 
L 380.815748 164.043949 
L 381.474331 164.094635 
L 381.803622 163.866534 
L 382.132913 163.993257 
L 382.462205 163.866534 
L 382.791496 164.272055 
L 383.120787 164.449469 
L 383.450079 164.272055 
L 383.77937 163.587737 
L 384.108661 164.094635 
L 384.437953 164.272055 
L 384.767244 164.043949 
L 385.425827 163.283594 
L 385.755118 163.562391 
L 386.084409 164.043949 
L 386.413701 163.739806 
L 387.072283 163.689114 
L 387.401575 163.461008 
L 387.730866 163.689114 
L 388.060157 163.5117 
L 388.389449 163.15687 
L 388.71874 163.182216 
L 389.377323 164.322741 
L 390.035906 163.562391 
L 390.694488 163.993257 
L 391.02378 163.993257 
L 391.682362 163.410322 
L 392.011654 163.461008 
L 392.340945 163.283594 
L 392.670236 163.334285 
L 392.999528 163.739806 
L 393.328819 163.537045 
L 393.65811 163.689114 
L 393.987402 163.689114 
L 394.316693 163.993257 
L 394.645984 163.815843 
L 394.975276 163.461008 
L 395.633858 163.638428 
L 395.96315 163.562391 
L 396.621732 163.765151 
L 396.951024 163.942566 
L 397.280315 163.537045 
L 397.938898 163.91722 
L 398.268189 163.638428 
L 398.59748 163.182216 
L 399.585354 163.537045 
L 399.914646 163.5117 
L 400.243937 163.739806 
L 401.231811 163.689114 
L 401.561102 163.942566 
L 401.890394 164.373432 
L 402.548976 163.562391 
L 402.878268 163.815843 
L 403.207559 163.91722 
L 403.866142 163.815843 
L 404.524724 164.449469 
L 404.854016 164.449469 
L 405.512598 163.815843 
L 405.84189 163.689114 
L 406.500472 162.979456 
L 407.159055 163.461008 
L 407.488346 163.232907 
L 407.817638 162.726004 
L 408.146929 163.030147 
L 408.47622 163.638428 
L 408.805512 163.815843 
L 409.134803 163.5117 
L 409.464094 163.537045 
L 409.793386 163.91722 
L 410.451969 163.993257 
L 410.78126 164.373432 
L 411.110551 163.815843 
L 411.439843 163.689114 
L 411.769134 164.043949 
L 412.098425 164.170672 
L 412.757008 164.094635 
L 413.086299 163.5117 
L 413.744882 163.5117 
L 414.074173 163.461008 
L 414.403465 163.207562 
L 414.732756 163.182216 
L 415.062047 163.587737 
L 415.391339 163.5117 
L 416.049921 163.182216 
L 416.379213 163.359631 
L 417.037795 164.094635 
L 418.025669 164.576193 
L 419.013543 164.398778 
L 419.342835 164.500161 
L 419.672126 164.398778 
L 420.001417 164.043949 
L 420.66 164.170672 
L 421.318583 163.866534 
L 421.647874 163.815843 
L 422.306457 163.537045 
L 422.635748 163.866534 
L 423.952913 163.739806 
L 424.282205 163.91722 
L 424.611496 163.562391 
L 424.940787 163.004801 
L 425.270079 163.182216 
L 425.928661 163.131525 
L 426.257953 163.359631 
L 426.587244 163.91722 
L 426.916535 163.942566 
L 427.245827 164.373432 
L 427.575118 164.500161 
L 427.904409 163.91722 
L 428.233701 163.993257 
L 428.892283 163.739806 
L 429.550866 163.207562 
L 429.880157 163.461008 
L 430.209449 163.461008 
L 430.53874 163.182216 
L 431.197323 163.15687 
L 431.526614 163.207562 
L 432.185197 162.903419 
L 432.514488 162.95411 
L 432.84378 163.207562 
L 433.173071 163.030147 
L 433.831654 163.689114 
L 434.490236 163.004801 
L 435.148819 163.587737 
L 435.807402 163.283594 
L 436.136693 163.283594 
L 436.465984 162.827382 
L 437.124567 163.106179 
L 437.453858 163.308939 
L 437.78315 163.283594 
L 438.112441 162.903419 
L 438.441732 162.75135 
L 438.771024 162.903419 
L 439.100315 162.852727 
L 439.429606 162.979456 
L 439.758898 163.815843 
L 440.088189 163.866534 
L 440.41748 163.384976 
L 440.746772 163.334285 
L 441.076063 162.852727 
L 441.405354 163.106179 
L 441.734646 162.928764 
L 442.393228 163.030147 
L 443.051811 163.283594 
L 443.381102 163.461008 
L 443.710394 163.5117 
L 444.039685 163.410322 
L 444.698268 162.726004 
L 445.027559 162.675313 
L 445.35685 163.15687 
L 445.686142 163.004801 
L 446.015433 162.649967 
L 446.344724 163.15687 
L 446.674016 163.308939 
L 447.003307 163.004801 
L 447.332598 162.979456 
L 447.991181 163.461008 
L 448.649764 163.461008 
L 449.308346 162.649967 
L 450.29622 163.5117 
L 450.625512 163.638428 
L 450.954803 163.562391 
L 451.284094 163.334285 
L 451.613386 163.739806 
L 451.942677 163.587737 
L 452.271969 163.106179 
L 452.60126 162.903419 
L 453.259843 163.866534 
L 453.259843 163.866534 
" clip-path="url(#p74ca9ed432)" style="fill: none; stroke-dasharray: 4.5,9; stroke-dashoffset: 0; stroke: #000000; stroke-width: 0.9"/>
   </g>
   <g id="line2d_26">
    <path d="M 58.110236 160.140806 
L 60.085984 160.153479 
L 60.744567 160.140806 
L 444.368976 160.077444 
L 444.698268 160.026753 
L 445.35685 160.128136 
L 446.015433 160.115463 
L 448.320472 160.128133 
L 450.954803 160.140806 
L 451.284094 160.064771 
L 451.942677 160.153479 
L 452.60126 160.153479 
L 453.259843 160.077444 
L 453.259843 160.077444 
" clip-path="url(#p74ca9ed432)" style="fill: none; stroke-dasharray: 2.7,9,0.9,9; stroke-dashoffset: 0; stroke: #000000; stroke-width: 0.9"/>
   </g>
   <g id="patch_3">
    <path d="M 58.110236 222.23622 
L 58.110236 6.80315 
" style="fill: none; stroke: #000000; stroke-width: 0.8; stroke-linejoin: miter; stroke-linecap: square"/>
   </g>
   <g id="patch_4">
    <path d="M 58.110236 222.23622 
L 453.259843 222.23622 
" style="fill: none; stroke: #000000; stroke-width: 0.8; stroke-linejoin: miter; stroke-linecap: square"/>
   </g>
   <g id="legend_1">
    <g id="line2d_27">
     <path d="M 127.591133 194.708268 
L 136.591133 194.708268 
L 145.591133 194.708268 
" style="fill: none; stroke: #000000; stroke-width: 0.9; stroke-linecap: square"/>
    </g>
    <g id="text_11">
     <!-- BS_HNHT -->
     <g transform="translate(152.791133 197.858268) scale(0.09 -0.09)">
      <defs>
       <path id="LMRoman6-Regular-42" d="M 4934 1178 
C 4934 1677 4435 2176 3533 2291 
C 4186 2400 4730 2790 4730 3283 
C 4730 3866 4006 4371 3091 4371 
L 442 4371 
L 442 4122 
L 608 4122 
C 1120 4122 1120 4045 1120 3834 
L 1120 538 
C 1120 326 1120 250 608 250 
L 442 250 
L 442 0 
L 3290 0 
C 4224 0 4934 550 4934 1178 
z
M 4064 3283 
C 4064 2797 3571 2374 2835 2374 
L 1715 2374 
L 1715 3872 
C 1715 4070 1715 4122 2029 4122 
L 3046 4122 
C 3680 4122 4064 3706 4064 3283 
z
M 4250 1184 
C 4250 717 3782 250 3059 250 
L 2029 250 
C 1715 250 1715 301 1715 499 
L 1715 2170 
L 3162 2170 
C 3853 2170 4250 1645 4250 1184 
z
" transform="scale(0.015625)"/>
       <path id="LMRoman6-Regular-53" d="M 3814 1178 
C 3814 1626 3565 1933 3469 2029 
C 3142 2355 2950 2394 2157 2560 
L 1555 2694 
C 1222 2803 915 3085 915 3450 
C 915 3878 1338 4275 1965 4275 
C 2304 4275 2630 4186 2893 3974 
C 3270 3674 3341 3213 3366 3059 
C 3379 2963 3386 2918 3488 2918 
C 3610 2918 3610 2976 3610 3098 
L 3610 4326 
C 3610 4435 3610 4506 3507 4506 
C 3482 4506 3443 4506 3392 4422 
L 3155 4058 
C 2790 4416 2330 4506 1958 4506 
C 1126 4506 506 3942 506 3283 
C 506 2950 659 2669 890 2451 
C 1178 2189 1395 2144 2112 1997 
C 2771 1856 2918 1824 3117 1638 
C 3194 1562 3405 1357 3405 1018 
C 3405 576 3008 115 2342 115 
C 1792 115 794 282 742 1306 
C 736 1402 736 1453 627 1453 
C 506 1453 506 1395 506 1267 
L 506 45 
C 506 -64 506 -134 608 -134 
C 666 -134 678 -109 710 -58 
C 730 -38 864 166 954 301 
C 1421 -90 2042 -134 2342 -134 
C 3232 -134 3814 499 3814 1178 
z
" transform="scale(0.015625)"/>
       <path id="LMRoman6-Regular-5f" d="M 5734 -922 
L 5734 -678 
L 0 -678 
L 0 -922 
L 5734 -922 
z
" transform="scale(0.015625)"/>
       <path id="LMRoman6-Regular-48" d="M 5312 0 
L 5312 250 
L 5146 250 
C 4634 250 4634 326 4634 538 
L 4634 3834 
C 4634 4045 4634 4122 5146 4122 
L 5312 4122 
L 5312 4371 
L 4314 4346 
L 3315 4371 
L 3315 4122 
L 3482 4122 
C 3994 4122 3994 4045 3994 3834 
L 3994 2400 
L 1734 2400 
L 1734 3834 
C 1734 4045 1734 4122 2246 4122 
L 2413 4122 
L 2413 4371 
L 1414 4346 
L 416 4371 
L 416 4122 
L 582 4122 
C 1094 4122 1094 4045 1094 3834 
L 1094 538 
C 1094 326 1094 250 582 250 
L 416 250 
L 416 0 
L 1414 26 
L 2413 0 
L 2413 250 
L 2246 250 
C 1734 250 1734 326 1734 538 
L 1734 2150 
L 3994 2150 
L 3994 538 
C 3994 326 3994 250 3482 250 
L 3315 250 
L 3315 0 
L 4314 26 
L 5312 0 
z
" transform="scale(0.015625)"/>
       <path id="LMRoman6-Regular-4e" d="M 5312 4122 
L 5312 4371 
C 5190 4365 4774 4346 4506 4346 
C 4211 4346 3808 4365 3693 4371 
L 3693 4122 
C 4371 4122 4371 3834 4371 3667 
L 4371 986 
L 1779 4282 
C 1709 4365 1702 4371 1568 4371 
L 416 4371 
L 416 4122 
L 621 4122 
C 768 4122 928 4122 1050 4090 
C 1088 4083 1094 4077 1094 3968 
L 1094 704 
C 1094 538 1094 250 416 250 
L 416 0 
C 538 6 954 26 1222 26 
C 1517 26 1920 6 2035 0 
L 2035 250 
C 1357 250 1357 538 1357 704 
L 1357 3898 
L 4365 77 
C 4416 13 4422 0 4499 0 
C 4634 0 4634 64 4634 192 
L 4634 3667 
C 4634 3834 4634 4122 5312 4122 
z
" transform="scale(0.015625)"/>
      </defs>
      <use xlink:href="#LMRoman6-Regular-42"/>
      <use xlink:href="#LMRoman6-Regular-53" x="85.099991"/>
      <use xlink:href="#LMRoman6-Regular-5f" x="152.699982"/>
      <use xlink:href="#LMRoman6-Regular-48" x="242.299973"/>
      <use xlink:href="#LMRoman6-Regular-4e" x="331.899963"/>
      <use xlink:href="#LMRoman6-Regular-48" x="421.499954"/>
      <use xlink:href="#LMRoman6-Regular-54" x="511.099945"/>
     </g>
    </g>
    <g id="line2d_28">
     <path d="M 127.591133 207.25483 
L 136.591133 207.25483 
L 145.591133 207.25483 
" style="fill: none; stroke-dasharray: 3.33,1.44; stroke-dashoffset: 0; stroke: #000000; stroke-width: 0.9"/>
    </g>
    <g id="text_12">
     <!-- ST_HNHT -->
     <g transform="translate(152.791133 210.40483) scale(0.09 -0.09)">
      <use xlink:href="#LMRoman6-Regular-53"/>
      <use xlink:href="#LMRoman6-Regular-54" x="67.599991"/>
      <use xlink:href="#LMRoman6-Regular-5f" x="154.599976"/>
      <use xlink:href="#LMRoman6-Regular-48" x="244.199966"/>
      <use xlink:href="#LMRoman6-Regular-4e" x="333.799957"/>
      <use xlink:href="#LMRoman6-Regular-48" x="423.399948"/>
      <use xlink:href="#LMRoman6-Regular-54" x="512.999939"/>
     </g>
    </g>
    <g id="line2d_29">
     <path d="M 224.788321 194.708268 
L 233.788321 194.708268 
L 242.788321 194.708268 
" style="fill: none; stroke-dasharray: 5.76,1.44,0.9,1.44; stroke-dashoffset: 0; stroke: #000000; stroke-width: 0.9"/>
    </g>
    <g id="text_13">
     <!-- BS_HNLT -->
     <g transform="translate(249.988321 197.858268) scale(0.09 -0.09)">
      <defs>
       <path id="LMRoman6-Regular-4c" d="M 4416 1702 
L 4179 1702 
C 4102 928 3904 250 2746 250 
L 2048 250 
C 1734 250 1734 301 1734 499 
L 1734 3834 
C 1734 4045 1734 4122 2349 4122 
L 2586 4122 
L 2586 4371 
C 2246 4346 1779 4346 1434 4346 
L 416 4371 
L 416 4122 
L 582 4122 
C 1094 4122 1094 4045 1094 3834 
L 1094 538 
C 1094 326 1094 250 582 250 
L 416 250 
L 416 0 
L 4218 0 
L 4416 1702 
z
" transform="scale(0.015625)"/>
      </defs>
      <use xlink:href="#LMRoman6-Regular-42"/>
      <use xlink:href="#LMRoman6-Regular-53" x="85.099991"/>
      <use xlink:href="#LMRoman6-Regular-5f" x="152.699982"/>
      <use xlink:href="#LMRoman6-Regular-48" x="242.299973"/>
      <use xlink:href="#LMRoman6-Regular-4e" x="331.899963"/>
      <use xlink:href="#LMRoman6-Regular-4c" x="421.499954"/>
      <use xlink:href="#LMRoman6-Regular-54" x="496.899948"/>
     </g>
    </g>
    <g id="line2d_30">
     <path d="M 224.788321 207.25483 
L 233.788321 207.25483 
L 242.788321 207.25483 
" style="fill: none; stroke-dasharray: 0.9,1.485; stroke-dashoffset: 0; stroke: #000000; stroke-width: 0.9"/>
    </g>
    <g id="text_14">
     <!-- ST_HNLT -->
     <g transform="translate(249.988321 210.40483) scale(0.09 -0.09)">
      <use xlink:href="#LMRoman6-Regular-53"/>
      <use xlink:href="#LMRoman6-Regular-54" x="67.599991"/>
      <use xlink:href="#LMRoman6-Regular-5f" x="154.599976"/>
      <use xlink:href="#LMRoman6-Regular-48" x="244.199966"/>
      <use xlink:href="#LMRoman6-Regular-4e" x="333.799957"/>
      <use xlink:href="#LMRoman6-Regular-4c" x="423.399948"/>
      <use xlink:href="#LMRoman6-Regular-54" x="498.799942"/>
     </g>
    </g>
    <g id="line2d_31">
     <path d="M 320.708633 194.708268 
L 329.708633 194.708268 
L 338.708633 194.708268 
" style="fill: none; stroke-dasharray: 4.5,9; stroke-dashoffset: 0; stroke: #000000; stroke-width: 0.9"/>
    </g>
    <g id="text_15">
     <!-- BS_CN -->
     <g transform="translate(345.908633 197.858268) scale(0.09 -0.09)">
      <use xlink:href="#LMRoman6-Regular-42"/>
      <use xlink:href="#LMRoman6-Regular-53" x="85.099991"/>
      <use xlink:href="#LMRoman6-Regular-5f" x="152.699982"/>
      <use xlink:href="#LMRoman6-Regular-43" x="242.299973"/>
      <use xlink:href="#LMRoman6-Regular-4e" x="329.299957"/>
     </g>
    </g>
    <g id="line2d_32">
     <path d="M 320.708633 207.25483 
L 329.708633 207.25483 
L 338.708633 207.25483 
" style="fill: none; stroke-dasharray: 2.7,9,0.9,9; stroke-dashoffset: 0; stroke: #000000; stroke-width: 0.9"/>
    </g>
    <g id="text_16">
     <!-- ST_CN -->
     <g transform="translate(345.908633 210.40483) scale(0.09 -0.09)">
      <use xlink:href="#LMRoman6-Regular-53"/>
      <use xlink:href="#LMRoman6-Regular-54" x="67.599991"/>
      <use xlink:href="#LMRoman6-Regular-5f" x="154.599976"/>
      <use xlink:href="#LMRoman6-Regular-43" x="244.199966"/>
      <use xlink:href="#LMRoman6-Regular-4e" x="331.199951"/>
     </g>
    </g>
   </g>
  </g>
 </g>
 <defs>
  <clipPath id="p74ca9ed432">
   <rect x="58.110236" y="6.80315" width="395.149606" height="215.433071"/>
  </clipPath>
 </defs>
</svg>
