<?xml version="1.0" encoding="utf-8" standalone="no"?>
<!DOCTYPE svg PUBLIC "-//W3C//DTD SVG 1.1//EN"
  "http://www.w3.org/Graphics/SVG/1.1/DTD/svg11.dtd">
<svg xmlns:xlink="http://www.w3.org/1999/xlink" width="464.88189pt" height="226.771654pt" viewBox="0 0 464.88189 226.771654" xmlns="http://www.w3.org/2000/svg" version="1.1">
 <metadata>
  <rdf:RDF xmlns:dc="http://purl.org/dc/elements/1.1/" xmlns:cc="http://creativecommons.org/ns#" xmlns:rdf="http://www.w3.org/1999/02/22-rdf-syntax-ns#">
   <cc:Work>
    <dc:type rdf:resource="http://purl.org/dc/dcmitype/StillImage"/>
    <dc:date>2024-09-20T10:17:24.645852</dc:date>
    <dc:format>image/svg+xml</dc:format>
    <dc:creator>
     <cc:Agent>
      <dc:title>Matplotlib v3.8.2, https://matplotlib.org/</dc:title>
     </cc:Agent>
    </dc:creator>
   </cc:Work>
  </rdf:RDF>
 </metadata>
 <defs>
  <style type="text/css">*{stroke-linejoin: round; stroke-linecap: butt}</style>
 </defs>
 <g id="figure_1">
  <g id="patch_1">
   <path d="M 0 226.771654 
L 464.88189 226.771654 
L 464.88189 0 
L 0 0 
z
" style="fill: #ffffff"/>
  </g>
  <g id="axes_1">
   <g id="patch_2">
    <path d="M 58.110236 222.23622 
L 453.259843 222.23622 
L 453.259843 6.80315 
L 58.110236 6.80315 
z
" style="fill: #ffffff"/>
   </g>
   <g id="matplotlib.axis_1">
    <g id="xtick_1">
     <g id="line2d_1">
      <defs>
       <path id="m2fd0f4fecb" d="M 0 0 
L 0 3.5 
" style="stroke: #000000; stroke-width: 0.8"/>
      </defs>
      <g>
       <use xlink:href="#m2fd0f4fecb" x="58.110236" y="222.23622" style="stroke: #000000; stroke-width: 0.8"/>
      </g>
     </g>
    </g>
    <g id="xtick_2">
     <g id="line2d_2">
      <g>
       <use xlink:href="#m2fd0f4fecb" x="74.574803" y="222.23622" style="stroke: #000000; stroke-width: 0.8"/>
      </g>
     </g>
    </g>
    <g id="xtick_3">
     <g id="line2d_3">
      <g>
       <use xlink:href="#m2fd0f4fecb" x="91.03937" y="222.23622" style="stroke: #000000; stroke-width: 0.8"/>
      </g>
     </g>
    </g>
    <g id="xtick_4">
     <g id="line2d_4">
      <g>
       <use xlink:href="#m2fd0f4fecb" x="107.503937" y="222.23622" style="stroke: #000000; stroke-width: 0.8"/>
      </g>
     </g>
    </g>
    <g id="xtick_5">
     <g id="line2d_5">
      <g>
       <use xlink:href="#m2fd0f4fecb" x="123.968504" y="222.23622" style="stroke: #000000; stroke-width: 0.8"/>
      </g>
     </g>
    </g>
    <g id="xtick_6">
     <g id="line2d_6">
      <g>
       <use xlink:href="#m2fd0f4fecb" x="140.433071" y="222.23622" style="stroke: #000000; stroke-width: 0.8"/>
      </g>
     </g>
    </g>
    <g id="xtick_7">
     <g id="line2d_7">
      <g>
       <use xlink:href="#m2fd0f4fecb" x="156.897638" y="222.23622" style="stroke: #000000; stroke-width: 0.8"/>
      </g>
     </g>
    </g>
    <g id="xtick_8">
     <g id="line2d_8">
      <g>
       <use xlink:href="#m2fd0f4fecb" x="173.362205" y="222.23622" style="stroke: #000000; stroke-width: 0.8"/>
      </g>
     </g>
    </g>
    <g id="xtick_9">
     <g id="line2d_9">
      <g>
       <use xlink:href="#m2fd0f4fecb" x="189.826772" y="222.23622" style="stroke: #000000; stroke-width: 0.8"/>
      </g>
     </g>
    </g>
    <g id="xtick_10">
     <g id="line2d_10">
      <g>
       <use xlink:href="#m2fd0f4fecb" x="206.291339" y="222.23622" style="stroke: #000000; stroke-width: 0.8"/>
      </g>
     </g>
    </g>
    <g id="xtick_11">
     <g id="line2d_11">
      <g>
       <use xlink:href="#m2fd0f4fecb" x="222.755906" y="222.23622" style="stroke: #000000; stroke-width: 0.8"/>
      </g>
     </g>
    </g>
    <g id="xtick_12">
     <g id="line2d_12">
      <g>
       <use xlink:href="#m2fd0f4fecb" x="239.220472" y="222.23622" style="stroke: #000000; stroke-width: 0.8"/>
      </g>
     </g>
    </g>
    <g id="xtick_13">
     <g id="line2d_13">
      <g>
       <use xlink:href="#m2fd0f4fecb" x="255.685039" y="222.23622" style="stroke: #000000; stroke-width: 0.8"/>
      </g>
     </g>
    </g>
    <g id="xtick_14">
     <g id="line2d_14">
      <g>
       <use xlink:href="#m2fd0f4fecb" x="272.149606" y="222.23622" style="stroke: #000000; stroke-width: 0.8"/>
      </g>
     </g>
    </g>
    <g id="xtick_15">
     <g id="line2d_15">
      <g>
       <use xlink:href="#m2fd0f4fecb" x="288.614173" y="222.23622" style="stroke: #000000; stroke-width: 0.8"/>
      </g>
     </g>
    </g>
    <g id="xtick_16">
     <g id="line2d_16">
      <g>
       <use xlink:href="#m2fd0f4fecb" x="305.07874" y="222.23622" style="stroke: #000000; stroke-width: 0.8"/>
      </g>
     </g>
    </g>
    <g id="xtick_17">
     <g id="line2d_17">
      <g>
       <use xlink:href="#m2fd0f4fecb" x="321.543307" y="222.23622" style="stroke: #000000; stroke-width: 0.8"/>
      </g>
     </g>
    </g>
    <g id="xtick_18">
     <g id="line2d_18">
      <g>
       <use xlink:href="#m2fd0f4fecb" x="338.007874" y="222.23622" style="stroke: #000000; stroke-width: 0.8"/>
      </g>
     </g>
    </g>
    <g id="xtick_19">
     <g id="line2d_19">
      <g>
       <use xlink:href="#m2fd0f4fecb" x="354.472441" y="222.23622" style="stroke: #000000; stroke-width: 0.8"/>
      </g>
     </g>
    </g>
    <g id="xtick_20">
     <g id="line2d_20">
      <g>
       <use xlink:href="#m2fd0f4fecb" x="370.937008" y="222.23622" style="stroke: #000000; stroke-width: 0.8"/>
      </g>
     </g>
    </g>
    <g id="xtick_21">
     <g id="line2d_21">
      <g>
       <use xlink:href="#m2fd0f4fecb" x="387.401575" y="222.23622" style="stroke: #000000; stroke-width: 0.8"/>
      </g>
     </g>
    </g>
    <g id="xtick_22">
     <g id="line2d_22">
      <g>
       <use xlink:href="#m2fd0f4fecb" x="403.866142" y="222.23622" style="stroke: #000000; stroke-width: 0.8"/>
      </g>
     </g>
    </g>
    <g id="xtick_23">
     <g id="line2d_23">
      <g>
       <use xlink:href="#m2fd0f4fecb" x="420.330709" y="222.23622" style="stroke: #000000; stroke-width: 0.8"/>
      </g>
     </g>
    </g>
    <g id="xtick_24">
     <g id="line2d_24">
      <g>
       <use xlink:href="#m2fd0f4fecb" x="436.795276" y="222.23622" style="stroke: #000000; stroke-width: 0.8"/>
      </g>
     </g>
    </g>
    <g id="xtick_25">
     <g id="line2d_25">
      <g>
       <use xlink:href="#m2fd0f4fecb" x="453.259843" y="222.23622" style="stroke: #000000; stroke-width: 0.8"/>
      </g>
     </g>
    </g>
   </g>
   <g id="matplotlib.axis_2">
    <g id="ytick_1">
     <g id="line2d_26">
      <defs>
       <path id="m4e523d8dca" d="M 0 0 
L -3.5 0 
" style="stroke: #000000; stroke-width: 0.8"/>
      </defs>
      <g>
       <use xlink:href="#m4e523d8dca" x="58.110236" y="209.563687" style="stroke: #000000; stroke-width: 0.8"/>
      </g>
     </g>
     <g id="text_1">
      <!-- 0 -->
      <g transform="translate(45.611799 212.686968) scale(0.09 -0.09)">
       <defs>
        <path id="LMRoman6-Regular-30" d="M 3520 2042 
C 3520 2509 3520 4256 1952 4256 
C 384 4256 384 2509 384 2042 
C 384 1581 384 -134 1952 -134 
C 3520 -134 3520 1581 3520 2042 
z
M 2912 2125 
C 2912 1715 2912 1069 2803 710 
C 2624 154 2163 70 1952 70 
C 1683 70 1248 198 1094 730 
C 992 1101 992 1728 992 2125 
C 992 2554 992 3046 1082 3392 
C 1242 3968 1728 4051 1952 4051 
C 2246 4051 2669 3910 2810 3424 
C 2906 3085 2912 2618 2912 2125 
z
" transform="scale(0.015625)"/>
       </defs>
       <use xlink:href="#LMRoman6-Regular-30"/>
      </g>
     </g>
    </g>
    <g id="ytick_2">
     <g id="line2d_27">
      <g>
       <use xlink:href="#m4e523d8dca" x="58.110236" y="184.21862" style="stroke: #000000; stroke-width: 0.8"/>
      </g>
     </g>
     <g id="text_2">
      <!-- 10 -->
      <g transform="translate(40.113361 187.341901) scale(0.09 -0.09)">
       <defs>
        <path id="LMRoman6-Regular-31" d="M 3232 0 
L 3232 250 
L 2957 250 
C 2298 250 2298 333 2298 544 
L 2298 4064 
C 2298 4256 2272 4256 2080 4256 
C 1658 3846 1005 3846 774 3846 
L 774 3597 
C 941 3597 1363 3597 1747 3776 
L 1747 544 
C 1747 333 1747 250 1088 250 
L 813 250 
L 813 0 
C 1165 26 1664 26 2022 26 
C 2381 26 2880 26 3232 0 
z
" transform="scale(0.015625)"/>
       </defs>
       <use xlink:href="#LMRoman6-Regular-31"/>
       <use xlink:href="#LMRoman6-Regular-30" x="61.099991"/>
      </g>
     </g>
    </g>
    <g id="ytick_3">
     <g id="line2d_28">
      <g>
       <use xlink:href="#m4e523d8dca" x="58.110236" y="158.873553" style="stroke: #000000; stroke-width: 0.8"/>
      </g>
     </g>
     <g id="text_3">
      <!-- 20 -->
      <g transform="translate(40.113361 161.996834) scale(0.09 -0.09)">
       <defs>
        <path id="LMRoman6-Regular-32" d="M 3443 1197 
L 3206 1197 
C 3194 1107 3130 685 3034 614 
C 2989 576 2470 576 2381 576 
L 1184 576 
L 2003 1242 
C 2221 1414 2790 1824 2989 2016 
C 3181 2208 3443 2534 3443 2989 
C 3443 3789 2720 4256 1862 4256 
C 1037 4256 461 3712 461 3110 
C 461 2784 736 2746 806 2746 
C 966 2746 1152 2861 1152 3091 
C 1152 3232 1069 3437 787 3437 
C 934 3763 1325 4006 1766 4006 
C 2438 4006 2797 3507 2797 2989 
C 2797 2534 2496 2067 2048 1658 
L 531 269 
C 467 205 461 198 461 0 
L 3245 0 
L 3443 1197 
z
" transform="scale(0.015625)"/>
       </defs>
       <use xlink:href="#LMRoman6-Regular-32"/>
       <use xlink:href="#LMRoman6-Regular-30" x="61.099991"/>
      </g>
     </g>
    </g>
    <g id="ytick_4">
     <g id="line2d_29">
      <g>
       <use xlink:href="#m4e523d8dca" x="58.110236" y="133.528485" style="stroke: #000000; stroke-width: 0.8"/>
      </g>
     </g>
     <g id="text_4">
      <!-- 30 -->
      <g transform="translate(40.113361 136.651767) scale(0.09 -0.09)">
       <defs>
        <path id="LMRoman6-Regular-33" d="M 3501 1107 
C 3501 1574 3142 2067 2381 2259 
C 2886 2426 3296 2835 3296 3360 
C 3296 3872 2694 4256 1926 4256 
C 1178 4256 608 3910 608 3386 
C 608 3110 819 3034 947 3034 
C 1114 3034 1286 3149 1286 3373 
C 1286 3571 1146 3686 973 3712 
C 1274 4045 1856 4045 1914 4045 
C 2240 4045 2650 3891 2650 3360 
C 2650 3008 2451 2394 1811 2355 
C 1696 2349 1523 2336 1466 2336 
C 1402 2330 1331 2323 1331 2227 
C 1331 2125 1402 2125 1510 2125 
L 1882 2125 
C 2426 2125 2790 1760 2790 1107 
C 2790 403 2368 96 1901 96 
C 1728 96 1069 134 781 506 
C 1030 531 1133 698 1133 870 
C 1133 1088 979 1235 768 1235 
C 595 1235 403 1126 403 858 
C 403 224 1107 -134 1920 -134 
C 2867 -134 3501 474 3501 1107 
z
" transform="scale(0.015625)"/>
       </defs>
       <use xlink:href="#LMRoman6-Regular-33"/>
       <use xlink:href="#LMRoman6-Regular-30" x="61.099991"/>
      </g>
     </g>
    </g>
    <g id="ytick_5">
     <g id="line2d_30">
      <g>
       <use xlink:href="#m4e523d8dca" x="58.110236" y="108.183418" style="stroke: #000000; stroke-width: 0.8"/>
      </g>
     </g>
     <g id="text_5">
      <!-- 40 -->
      <g transform="translate(40.113361 111.306699) scale(0.09 -0.09)">
       <defs>
        <path id="LMRoman6-Regular-34" d="M 3610 1050 
L 3610 1299 
L 2861 1299 
L 2861 4128 
C 2861 4275 2861 4320 2701 4320 
C 2586 4320 2573 4301 2515 4224 
L 294 1299 
L 294 1050 
L 2285 1050 
L 2285 538 
C 2285 326 2285 250 1747 250 
L 1562 250 
L 1562 0 
L 2573 26 
L 3584 0 
L 3584 250 
L 3398 250 
C 2861 250 2861 326 2861 538 
L 2861 1050 
L 3610 1050 
z
M 2330 1299 
L 570 1299 
L 2330 3622 
L 2330 1299 
z
" transform="scale(0.015625)"/>
       </defs>
       <use xlink:href="#LMRoman6-Regular-34"/>
       <use xlink:href="#LMRoman6-Regular-30" x="61.099991"/>
      </g>
     </g>
    </g>
    <g id="ytick_6">
     <g id="line2d_31">
      <g>
       <use xlink:href="#m4e523d8dca" x="58.110236" y="82.838351" style="stroke: #000000; stroke-width: 0.8"/>
      </g>
     </g>
     <g id="text_6">
      <!-- 50 -->
      <g transform="translate(40.113361 85.961632) scale(0.09 -0.09)">
       <defs>
        <path id="LMRoman6-Regular-35" d="M 3443 1286 
C 3443 2016 2854 2682 2029 2682 
C 1613 2682 1293 2547 1088 2374 
L 1088 3552 
C 1299 3494 1523 3469 1741 3469 
C 1882 3469 2240 3469 2643 3693 
C 2752 3757 3149 4019 3149 4154 
C 3149 4237 3085 4256 3059 4256 
C 3040 4256 3034 4256 2963 4230 
C 2733 4141 2406 4051 1990 4051 
C 1677 4051 1331 4109 1043 4218 
C 979 4243 954 4256 928 4256 
C 838 4256 838 4186 838 4083 
L 838 2163 
C 838 2054 838 1978 954 1978 
C 1011 1978 1030 2003 1075 2054 
C 1235 2259 1517 2477 2016 2477 
C 2803 2477 2803 1517 2803 1312 
C 2803 1062 2784 704 2573 442 
C 2374 198 2080 96 1805 96 
C 1363 96 922 339 768 710 
C 1082 717 1120 966 1120 1043 
C 1120 1216 986 1370 787 1370 
C 730 1370 461 1338 461 1018 
C 461 429 1018 -134 1824 -134 
C 2701 -134 3443 486 3443 1286 
z
" transform="scale(0.015625)"/>
       </defs>
       <use xlink:href="#LMRoman6-Regular-35"/>
       <use xlink:href="#LMRoman6-Regular-30" x="61.099991"/>
      </g>
     </g>
    </g>
    <g id="ytick_7">
     <g id="line2d_32">
      <g>
       <use xlink:href="#m4e523d8dca" x="58.110236" y="57.493284" style="stroke: #000000; stroke-width: 0.8"/>
      </g>
     </g>
     <g id="text_7">
      <!-- 60 -->
      <g transform="translate(40.113361 60.616565) scale(0.09 -0.09)">
       <defs>
        <path id="LMRoman6-Regular-36" d="M 3501 1306 
C 3501 1523 3475 1933 3085 2298 
C 2861 2502 2579 2726 2035 2726 
C 1587 2726 1261 2496 1043 2118 
C 1050 2438 1062 2970 1286 3366 
C 1568 3853 1990 4045 2374 4045 
C 2522 4045 2816 4019 2970 3840 
C 2733 3802 2694 3635 2694 3533 
C 2694 3366 2810 3226 3002 3226 
C 3194 3226 3315 3347 3315 3546 
C 3315 3936 3021 4256 2368 4256 
C 1376 4256 403 3392 403 2029 
C 403 474 1126 -134 1971 -134 
C 2221 -134 2656 -96 3046 282 
C 3251 486 3501 742 3501 1306 
z
M 2861 1306 
C 2861 864 2848 646 2630 390 
C 2477 198 2272 96 1965 96 
C 1062 96 1062 1197 1062 1446 
C 1062 1997 1427 2522 2003 2522 
C 2336 2522 2528 2387 2682 2182 
C 2861 1933 2861 1645 2861 1306 
z
" transform="scale(0.015625)"/>
       </defs>
       <use xlink:href="#LMRoman6-Regular-36"/>
       <use xlink:href="#LMRoman6-Regular-30" x="61.099991"/>
      </g>
     </g>
    </g>
    <g id="ytick_8">
     <g id="line2d_33">
      <g>
       <use xlink:href="#m4e523d8dca" x="58.110236" y="32.148217" style="stroke: #000000; stroke-width: 0.8"/>
      </g>
     </g>
     <g id="text_8">
      <!-- 70 -->
      <g transform="translate(40.113361 35.271498) scale(0.09 -0.09)">
       <defs>
        <path id="LMRoman6-Regular-37" d="M 3712 4122 
L 2061 4122 
C 1798 4122 1645 4128 1395 4147 
C 1082 4166 1005 4173 973 4326 
L 736 4326 
L 506 2925 
L 742 2925 
C 762 3059 826 3437 922 3507 
C 973 3546 1523 3546 1619 3546 
L 3066 3546 
L 2496 2861 
C 1875 2112 1440 1203 1440 230 
C 1440 173 1440 -134 1747 -134 
C 2061 -134 2061 160 2061 243 
L 2061 422 
C 2061 1651 2323 2278 2643 2662 
L 3654 3866 
C 3712 3930 3712 3942 3712 4122 
z
" transform="scale(0.015625)"/>
       </defs>
       <use xlink:href="#LMRoman6-Regular-37"/>
       <use xlink:href="#LMRoman6-Regular-30" x="61.099991"/>
      </g>
     </g>
    </g>
    <g id="ytick_9">
     <g id="line2d_34">
      <g>
       <use xlink:href="#m4e523d8dca" x="58.110236" y="6.80315" style="stroke: #000000; stroke-width: 0.8"/>
      </g>
     </g>
     <g id="text_9">
      <!-- 80 -->
      <g transform="translate(40.113361 9.926431) scale(0.09 -0.09)">
       <defs>
        <path id="LMRoman6-Regular-38" d="M 3501 1088 
C 3501 1530 3232 1792 3136 1888 
C 3014 2003 2694 2182 2464 2310 
C 2938 2522 3296 2835 3296 3296 
C 3296 3923 2624 4256 1958 4256 
C 1235 4256 608 3821 608 3174 
C 608 2778 870 2470 1139 2310 
L 1421 2150 
C 998 1990 403 1632 403 986 
C 403 237 1203 -134 1946 -134 
C 2797 -134 3501 378 3501 1088 
z
M 2938 3290 
C 2938 2797 2406 2534 2227 2445 
L 1306 2944 
C 1293 2950 966 3130 966 3424 
C 966 3840 1472 4045 1946 4045 
C 2445 4045 2938 3770 2938 3290 
z
M 3091 864 
C 3091 358 2502 96 1958 96 
C 1363 96 813 442 813 986 
C 813 1530 1325 1888 1677 2016 
L 2605 1504 
C 2739 1421 3091 1229 3091 864 
z
" transform="scale(0.015625)"/>
       </defs>
       <use xlink:href="#LMRoman6-Regular-38"/>
       <use xlink:href="#LMRoman6-Regular-30" x="61.099991"/>
      </g>
     </g>
    </g>
    <g id="text_10">
     <!-- Temperatur in °C -->
     <g transform="translate(34.366799 157.528435) rotate(-90) scale(0.09 -0.09)">
      <defs>
       <path id="LMRoman6-Regular-54" d="M 5203 2835 
L 5062 4326 
L 499 4326 
L 358 2835 
L 595 2835 
C 691 3994 941 4077 1907 4077 
C 2042 4077 2253 4077 2317 4070 
C 2464 4045 2464 3981 2464 3827 
L 2464 544 
C 2464 333 2464 250 1786 250 
L 1498 250 
L 1498 0 
C 1811 26 2445 26 2784 26 
C 3123 26 3757 26 4070 0 
L 4070 250 
L 3782 250 
C 3104 250 3104 333 3104 544 
L 3104 3827 
C 3104 3981 3104 4045 3245 4070 
C 3309 4077 3520 4077 3654 4077 
C 4627 4077 4870 3987 4966 2835 
L 5203 2835 
z
" transform="scale(0.015625)"/>
       <path id="LMRoman6-Regular-65" d="M 3194 768 
C 3194 800 3181 870 3072 870 
C 2989 870 2976 832 2950 755 
C 2758 282 2278 160 1984 160 
C 1632 160 1331 320 1152 550 
C 915 851 915 1274 915 1446 
L 3002 1446 
C 3142 1446 3194 1446 3194 1600 
C 3194 2093 2918 2854 1856 2854 
C 960 2854 307 2170 307 1402 
C 307 595 1043 -64 1946 -64 
C 2867 -64 3194 627 3194 768 
z
M 2726 1638 
L 928 1638 
C 998 2496 1587 2650 1850 2650 
C 2675 2650 2720 1824 2726 1638 
z
" transform="scale(0.015625)"/>
       <path id="LMRoman6-Regular-6d" d="M 6080 0 
L 6080 250 
C 5638 250 5574 250 5574 525 
L 5574 1933 
C 5574 2586 5190 2822 4563 2822 
C 3968 2822 3616 2483 3475 2240 
C 3328 2822 2675 2822 2496 2822 
C 1914 2822 1555 2502 1402 2234 
L 1395 2234 
L 1395 2822 
L 403 2752 
L 403 2502 
C 851 2502 909 2458 909 2144 
L 909 525 
C 909 250 845 250 403 250 
L 403 0 
C 448 6 883 26 1171 26 
C 1459 26 1882 6 1946 0 
L 1946 250 
C 1504 250 1440 250 1440 525 
L 1440 1651 
C 1440 2355 2048 2618 2438 2618 
C 2880 2618 2976 2342 2976 1946 
L 2976 525 
C 2976 250 2912 250 2470 250 
L 2470 0 
C 2515 6 2950 26 3238 26 
C 3526 26 3949 6 4013 0 
L 4013 250 
C 3571 250 3507 250 3507 525 
L 3507 1651 
C 3507 2355 4115 2618 4506 2618 
C 4947 2618 5043 2342 5043 1946 
L 5043 525 
C 5043 250 4979 250 4538 250 
L 4538 0 
C 4582 6 5018 26 5306 26 
C 5594 26 6016 6 6080 0 
z
" transform="scale(0.015625)"/>
       <path id="LMRoman6-Regular-70" d="M 3974 1382 
C 3974 2157 3302 2822 2419 2822 
C 1837 2822 1478 2534 1382 2445 
L 1382 2822 
L 371 2752 
L 371 2502 
C 806 2502 877 2502 877 2208 
L 877 -717 
C 877 -992 813 -992 371 -992 
L 371 -1242 
C 416 -1235 851 -1216 1139 -1216 
C 1427 -1216 1850 -1235 1914 -1242 
L 1914 -992 
C 1472 -992 1408 -992 1408 -717 
L 1408 307 
C 1670 58 1971 -64 2323 -64 
C 3213 -64 3974 570 3974 1382 
z
M 3366 1382 
C 3366 666 2854 141 2285 141 
C 1792 141 1504 493 1408 678 
L 1408 2118 
C 1626 2419 1978 2598 2355 2598 
C 2938 2598 3366 2035 3366 1382 
z
" transform="scale(0.015625)"/>
       <path id="LMRoman6-Regular-72" d="M 2778 2400 
C 2778 2656 2534 2822 2253 2822 
C 1869 2822 1542 2592 1344 2163 
L 1338 2163 
L 1338 2822 
L 371 2752 
L 371 2502 
C 819 2502 877 2458 877 2144 
L 877 525 
C 877 250 813 250 371 250 
L 371 0 
C 531 13 1005 26 1146 26 
C 1478 26 1920 6 2010 0 
L 2010 250 
L 1869 250 
C 1389 250 1382 314 1382 531 
L 1382 1434 
C 1382 2029 1690 2605 2259 2618 
C 2202 2560 2176 2483 2176 2400 
C 2176 2227 2304 2099 2477 2099 
C 2650 2099 2778 2227 2778 2400 
z
" transform="scale(0.015625)"/>
       <path id="LMRoman6-Regular-61" d="M 3712 576 
L 3712 928 
L 3475 928 
L 3475 589 
C 3475 525 3475 237 3226 237 
C 2976 237 2976 525 2976 589 
L 2976 1907 
C 2976 2502 2368 2854 1651 2854 
C 1344 2854 589 2822 589 2285 
C 589 2112 704 1971 902 1971 
C 1088 1971 1210 2112 1210 2278 
C 1210 2394 1158 2502 1043 2554 
C 1254 2650 1574 2650 1638 2650 
C 2093 2650 2445 2381 2445 1894 
L 2445 1728 
C 2150 1715 1638 1702 1171 1536 
C 749 1389 346 1101 346 672 
C 346 102 1024 -64 1523 -64 
C 2061 -64 2381 205 2522 448 
C 2566 115 2778 -32 3002 -32 
C 3027 -32 3712 -32 3712 576 
z
M 2445 909 
C 2445 243 1786 141 1581 141 
C 1235 141 909 352 909 672 
C 909 1030 1254 1498 2445 1536 
L 2445 909 
z
" transform="scale(0.015625)"/>
       <path id="LMRoman6-Regular-74" d="M 2566 806 
L 2566 1158 
L 2330 1158 
L 2330 819 
C 2330 365 2093 160 1856 160 
C 1395 160 1395 678 1395 800 
L 1395 2509 
L 2445 2509 
L 2445 2758 
L 1395 2758 
L 1395 3936 
L 1158 3936 
C 1152 3366 877 2739 230 2714 
L 230 2509 
L 864 2509 
L 864 800 
C 864 128 1370 -64 1805 -64 
C 2246 -64 2566 288 2566 806 
z
" transform="scale(0.015625)"/>
       <path id="LMRoman6-Regular-75" d="M 4006 0 
L 4006 250 
C 3558 250 3501 294 3501 608 
L 3501 2822 
L 2464 2752 
L 2464 2502 
C 2912 2502 2970 2458 2970 2144 
L 2970 1075 
C 2970 493 2566 141 2074 141 
C 1466 141 1440 410 1440 723 
L 1440 2822 
L 403 2752 
L 403 2502 
C 909 2502 909 2445 909 2067 
L 909 1069 
C 909 634 909 352 1197 141 
C 1440 -38 1760 -64 2029 -64 
C 2432 -64 2771 96 2995 461 
L 2995 -64 
L 4006 0 
z
" transform="scale(0.015625)"/>
       <path id="LMRoman6-Regular-20" transform="scale(0.015625)"/>
       <path id="LMRoman6-Regular-69" d="M 1875 0 
L 1875 250 
C 1478 250 1421 250 1421 518 
L 1421 2822 
L 435 2752 
L 435 2502 
C 858 2502 915 2458 915 2144 
L 915 525 
C 915 250 851 250 410 250 
L 410 0 
L 1158 26 
C 1222 26 1709 13 1875 0 
z
M 1510 3846 
C 1510 4051 1344 4230 1126 4230 
C 890 4230 736 4032 736 3846 
C 736 3642 902 3462 1120 3462 
C 1357 3462 1510 3661 1510 3846 
z
" transform="scale(0.015625)"/>
       <path id="LMRoman6-Regular-6e" d="M 4006 0 
L 4006 250 
C 3565 250 3501 250 3501 525 
L 3501 1933 
C 3501 2560 3142 2822 2496 2822 
C 1933 2822 1581 2528 1395 2221 
L 1395 2822 
L 403 2752 
L 403 2502 
C 851 2502 909 2458 909 2144 
L 909 525 
C 909 250 845 250 403 250 
L 403 0 
C 448 6 883 26 1171 26 
C 1459 26 1882 6 1946 0 
L 1946 250 
C 1504 250 1440 250 1440 525 
L 1440 1651 
C 1440 2355 2042 2618 2438 2618 
C 2867 2618 2970 2349 2970 1952 
L 2970 525 
C 2970 250 2906 250 2464 250 
L 2464 0 
C 2509 6 2944 26 3232 26 
C 3520 26 3942 6 4006 0 
z
" transform="scale(0.015625)"/>
       <path id="LMRoman6-Regular-b0" d="M 2502 3334 
C 2502 3910 2042 4371 1466 4371 
C 896 4371 429 3910 429 3334 
C 429 2765 896 2298 1466 2298 
C 2042 2298 2502 2765 2502 3334 
z
M 2170 3334 
C 2170 2950 1856 2630 1466 2630 
C 1075 2630 762 2950 762 3334 
C 762 3725 1075 4038 1466 4038 
C 1856 4038 2170 3725 2170 3334 
z
" transform="scale(0.015625)"/>
       <path id="LMRoman6-Regular-43" d="M 5056 1498 
C 5056 1568 5050 1632 4934 1632 
C 4832 1632 4826 1581 4819 1523 
C 4768 544 3878 115 3174 115 
C 2406 115 1216 570 1216 2189 
C 1216 3776 2374 4256 3168 4256 
C 3891 4256 4640 3763 4800 2784 
C 4813 2701 4819 2656 4928 2656 
C 5056 2656 5056 2707 5056 2835 
L 5056 4326 
C 5056 4435 5056 4506 4954 4506 
C 4896 4506 4883 4480 4838 4422 
L 4486 3936 
C 4115 4307 3610 4506 3085 4506 
C 1664 4506 506 3456 506 2189 
C 506 902 1664 -134 3091 -134 
C 4262 -134 5056 685 5056 1498 
z
" transform="scale(0.015625)"/>
      </defs>
      <use xlink:href="#LMRoman6-Regular-54"/>
      <use xlink:href="#LMRoman6-Regular-65" x="86.999985"/>
      <use xlink:href="#LMRoman6-Regular-6d" x="141.599976"/>
      <use xlink:href="#LMRoman6-Regular-70" x="241.59996"/>
      <use xlink:href="#LMRoman6-Regular-65" x="309.199951"/>
      <use xlink:href="#LMRoman6-Regular-72" x="363.799942"/>
      <use xlink:href="#LMRoman6-Regular-61" x="411.899933"/>
      <use xlink:href="#LMRoman6-Regular-74" x="472.999924"/>
      <use xlink:href="#LMRoman6-Regular-75" x="521.099915"/>
      <use xlink:href="#LMRoman6-Regular-72" x="588.699905"/>
      <use xlink:href="#LMRoman6-Regular-20" x="636.799896"/>
      <use xlink:href="#LMRoman6-Regular-69" x="678.499893"/>
      <use xlink:href="#LMRoman6-Regular-6e" x="713.69989"/>
      <use xlink:href="#LMRoman6-Regular-20" x="781.299881"/>
      <use xlink:href="#LMRoman6-Regular-b0" x="822.999878"/>
      <use xlink:href="#LMRoman6-Regular-43" x="868.799866"/>
     </g>
    </g>
   </g>
   <g id="line2d_35">
    <path d="M 58.110236 44.82075 
L 71.00748 44.927306 
L 76.907283 45.244554 
L 82.944291 45.799595 
L 90.078937 46.695339 
L 101.878543 48.445093 
L 112.580512 49.931655 
L 121.224409 50.882124 
L 128.359055 51.338681 
L 133.710039 51.475118 
L 139.609843 51.392072 
L 140.844685 51.256732 
L 143.039961 50.75023 
L 144.823622 50.294921 
L 146.195669 50.664676 
L 147.293307 51.25669 
L 148.802559 52.143076 
L 150.311811 51.786162 
L 152.918701 51.196366 
L 154.565157 52.232302 
L 156.211614 53.371039 
L 156.897638 53.712125 
L 157.720866 53.468969 
L 161.288189 52.664727 
L 164.169488 53.826028 
L 165.267126 53.885123 
L 167.736811 53.652706 
L 169.932087 53.523437 
L 171.304134 53.504684 
L 172.401772 53.281267 
L 173.911024 52.937959 
L 176.380709 52.925376 
L 178.301575 52.712926 
L 180.222441 52.273975 
L 182.143307 51.59897 
L 184.338583 50.574437 
L 188.591929 48.275301 
L 190.101181 47.508987 
L 193.531299 47.478052 
L 206.702953 47.004915 
L 213.425984 46.896586 
L 218.639764 46.832578 
L 223.441929 46.852507 
L 229.478937 46.64124 
L 233.320669 46.550301 
L 276.402953 46.749232 
L 277.637795 47.959468 
L 279.147047 49.698564 
L 280.519094 51.287181 
L 285.04685 49.038073 
L 287.516535 47.769667 
L 288.614173 47.300398 
L 289.300197 48.078675 
L 291.221063 50.304712 
L 292.86752 52.153741 
L 300.962598 48.905716 
L 301.648622 49.591275 
L 303.569488 51.568599 
L 305.215945 53.218357 
L 309.194882 51.780737 
L 309.743701 52.367293 
L 313.173819 55.500075 
L 313.448228 55.629494 
L 317.975984 53.812046 
L 321.543307 52.254093 
L 322.092126 52.451735 
L 322.366535 52.316284 
L 322.915354 51.571613 
L 323.601378 50.85452 
L 324.287402 50.501456 
L 325.11063 50.366056 
L 327.580315 50.325486 
L 330.324409 50.405445 
L 331.147638 50.698588 
L 332.108071 51.291386 
L 333.342913 52.359376 
L 334.028937 52.926088 
L 338.007874 52.02785 
L 338.419488 52.023737 
L 344.86811 51.176262 
L 346.788976 51.090626 
L 352.963189 51.858755 
L 355.570079 52.136731 
L 358.862992 52.441116 
L 367.095276 53.217849 
L 370.937008 53.24495 
L 371.211417 53.743624 
L 372.034646 54.717496 
L 373.269488 56.636083 
L 375.05315 59.827916 
L 375.190354 59.756928 
L 377.522835 55.416722 
L 379.169291 52.7599 
L 379.580906 52.804381 
L 383.559843 53.624315 
L 385.343504 53.624872 
L 393.712992 53.993501 
L 395.633858 53.994643 
L 396.594291 56.75204 
L 398.515157 62.907003 
L 399.338386 64.787665 
L 399.75 65.535097 
L 400.161614 64.796335 
L 400.984843 62.934475 
L 401.808071 60.453658 
L 403.454528 54.433673 
L 403.866142 52.974427 
L 404.003346 52.985866 
L 404.68937 54.8665 
L 407.29626 62.75874 
L 407.982283 64.018189 
L 408.531102 62.944302 
L 409.62874 60.346732 
L 411.000787 56.39215 
L 412.098425 53.195242 
L 412.23563 53.056587 
L 413.744882 53.423487 
L 416.214567 54.010812 
L 416.488976 54.672487 
L 417.312205 57.472002 
L 418.409843 61.360964 
L 419.095866 63.091113 
L 419.919094 64.595728 
L 420.330709 65.159828 
L 420.742323 64.62163 
L 421.428346 63.389588 
L 422.11437 61.601761 
L 423.074803 58.280001 
L 424.44685 53.14466 
L 424.584055 53.181167 
L 425.544488 55.663334 
L 428.151378 62.707783 
L 428.562992 63.530187 
L 429.66063 60.859728 
L 431.581496 55.659471 
L 432.679134 52.758042 
L 432.816339 52.834462 
L 433.639567 54.788439 
L 435.148819 59.117032 
L 436.383661 62.410982 
L 436.795276 63.319863 
L 438.304528 59.431616 
L 440.911417 52.554366 
L 441.048622 52.60679 
L 441.87185 54.312172 
L 443.106693 57.358269 
L 444.890354 61.723171 
L 445.027559 62.014032 
L 447.222835 56.718128 
L 449.143701 52.459059 
L 449.280906 52.554029 
L 449.966929 54.038362 
L 451.201772 57.2656 
L 452.848228 61.528536 
L 453.259843 62.41529 
L 453.259843 62.41529 
" clip-path="url(#pa44f6fbbcb)" style="fill: none; stroke: #000000; stroke-width: 0.9; stroke-linecap: square"/>
   </g>
   <g id="line2d_36">
    <path d="M 58.110236 57.493284 
L 59.756693 57.39565 
L 61.265945 57.099956 
L 63.049606 56.511123 
L 74.849213 52.247779 
L 80.062992 50.761061 
L 87.746457 48.837286 
L 106.269094 44.254191 
L 128.633465 38.616015 
L 136.316929 36.911206 
L 139.609843 36.327996 
L 140.98189 36.289188 
L 145.64685 36.397771 
L 148.390945 36.432554 
L 151.958268 36.488493 
L 155.113976 36.627572 
L 158.544094 36.793632 
L 162.523031 36.926713 
L 166.227559 37.168063 
L 170.755315 37.279319 
L 176.106299 37.817922 
L 178.43878 38.451478 
L 183.515354 40.137156 
L 188.591929 41.704941 
L 190.924409 42.260415 
L 199.019488 43.660949 
L 231.674213 48.821384 
L 240.866929 50.613868 
L 276.265748 57.632361 
L 276.951772 57.451521 
L 279.009843 56.647914 
L 280.519094 56.05577 
L 284.223622 57.078096 
L 287.242126 57.733062 
L 288.751378 57.942964 
L 290.809449 57.185155 
L 292.86752 56.391043 
L 301.099803 58.249865 
L 303.157874 57.508946 
L 305.215945 56.738097 
L 309.469291 57.688614 
L 312.762205 56.348977 
L 313.448228 56.133912 
L 317.83878 57.36054 
L 321.131693 58.078826 
L 321.680512 58.136529 
L 323.326969 57.757992 
L 325.933858 57.365975 
L 328.952362 58.077637 
L 330.05 58.25978 
L 332.108071 57.695146 
L 334.166142 57.143816 
L 338.007874 58.117996 
L 338.693898 57.909498 
L 341.163583 56.881652 
L 343.084449 56.128504 
L 349.121457 54.231918 
L 352.963189 53.203583 
L 357.079331 52.315307 
L 367.50689 50.338995 
L 375.739173 48.95982 
L 379.99252 48.784002 
L 384.520276 47.981122 
L 391.243307 46.57465 
L 398.377953 45.132688 
L 400.024409 45.048358 
L 403.728937 45.479054 
L 404.277756 45.47643 
L 407.982283 45.290172 
L 412.372835 45.593771 
L 415.940157 45.341206 
L 419.644685 45.022686 
L 421.153937 45.089937 
L 424.172441 45.473531 
L 424.995669 45.503919 
L 429.249016 45.430955 
L 434.325591 45.579253 
L 437.755709 45.557583 
L 442.695079 45.662244 
L 446.536811 45.624905 
L 451.338976 45.612747 
L 453.259843 45.563534 
L 453.259843 45.563534 
" clip-path="url(#pa44f6fbbcb)" style="fill: none; stroke-dasharray: 3.33,1.44; stroke-dashoffset: 0; stroke: #000000; stroke-width: 0.9"/>
   </g>
   <g id="line2d_37">
    <path d="M 58.110236 108.183418 
L 58.79626 108.250876 
L 59.207874 108.552628 
L 59.619488 109.174189 
L 60.579921 111.331495 
L 61.12874 112.469111 
L 61.677559 113.161452 
L 62.089173 113.358681 
L 62.500787 113.294519 
L 63.186811 112.845348 
L 64.010039 112.30091 
L 64.558858 112.20785 
L 65.244882 112.43097 
L 65.930906 112.934976 
L 66.754134 113.903076 
L 69.498228 117.450446 
L 70.458661 118.248146 
L 71.556299 118.821215 
L 72.791142 119.216558 
L 74.574803 119.526014 
L 78.82815 119.944983 
L 83.904724 120.243514 
L 89.530118 120.333064 
L 101.741339 120.233128 
L 111.208465 120.265633 
L 116.833858 120.515387 
L 119.989567 120.698436 
L 123.28248 120.600844 
L 130.417126 120.394171 
L 137.002953 120.431588 
L 145.098031 120.527576 
L 165.129921 120.47913 
L 190.65 120.639969 
L 191.473228 120.449266 
L 192.433661 119.884424 
L 194.080118 118.657097 
L 197.235827 117.970922 
L 202.037992 117.186104 
L 206.016929 116.76847 
L 215.895669 116.074351 
L 220.149016 115.9704 
L 236.064764 116.077206 
L 242.238976 116.091531 
L 243.336614 115.815283 
L 243.748228 115.362912 
L 245.120276 113.61579 
L 245.669094 113.328241 
L 246.217913 113.306609 
L 246.903937 113.525242 
L 247.86437 113.85565 
L 252.254921 114.363719 
L 254.175787 114.816709 
L 255.273425 114.822066 
L 256.096654 114.630362 
L 257.331496 114.251571 
L 258.154724 114.289993 
L 259.389567 114.649364 
L 260.487205 114.907616 
L 261.722047 114.981146 
L 262.819685 114.801394 
L 264.054528 114.35549 
L 265.28937 113.691102 
L 265.975394 113.584678 
L 266.798622 113.69803 
L 268.856693 114.1219 
L 272.698425 114.270728 
L 273.796063 114.75104 
L 276.402953 116.122917 
L 278.461024 116.24078 
L 279.695866 116.079956 
L 280.38189 115.874887 
L 280.656299 115.502578 
L 282.165551 112.891104 
L 282.98878 112.188157 
L 284.772441 110.792341 
L 287.516535 108.452452 
L 288.751378 107.719742 
L 290.672244 107.462396 
L 292.318701 107.458859 
L 293.279134 107.594074 
L 293.690748 108.136997 
L 294.376772 109.626977 
L 295.062795 111.006476 
L 295.611614 111.608787 
L 296.023228 111.711658 
L 296.434843 111.57092 
L 296.983661 111.105439 
L 299.864961 108.077893 
L 300.962598 107.449313 
L 301.923031 107.260286 
L 303.157874 107.165163 
L 305.35315 107.366875 
L 306.587992 107.754405 
L 307.960039 108.414781 
L 309.194882 109.170516 
L 310.01811 111.45747 
L 310.704134 113.134023 
L 311.115748 113.766785 
L 311.527362 114.051963 
L 311.938976 114.006486 
L 312.350591 113.685712 
L 313.036614 112.762458 
L 315.094685 109.7188 
L 316.055118 108.805712 
L 317.152756 108.072689 
L 317.701575 107.848048 
L 319.622441 107.592263 
L 321.954921 107.602231 
L 323.052559 107.791663 
L 324.150197 108.203852 
L 325.522244 108.991106 
L 325.659449 109.082443 
L 326.345472 110.890563 
L 327.305906 113.276586 
L 327.71752 113.858349 
L 328.129134 114.092435 
L 328.540748 114.001305 
L 328.952362 113.645284 
L 329.638386 112.693905 
L 331.284843 110.243272 
L 331.833661 109.814639 
L 332.245276 109.710752 
L 332.794094 109.800269 
L 333.480118 110.157758 
L 334.166142 110.574048 
L 338.282283 111.331397 
L 339.105512 112.103272 
L 340.340354 113.837336 
L 341.575197 116.104275 
L 342.124016 117.070726 
L 342.672835 117.100218 
L 355.02126 117.005088 
L 357.079331 116.680242 
L 357.765354 116.735162 
L 358.314173 117.016715 
L 358.862992 117.09968 
L 367.095276 117.180552 
L 368.741732 117.699773 
L 370.525394 118.497576 
L 370.937008 118.720859 
L 371.485827 118.52413 
L 371.897441 118.663111 
L 373.269488 119.436084 
L 373.681102 119.285572 
L 374.092717 118.868835 
L 374.641535 117.957909 
L 375.190354 117.066482 
L 376.425197 117.447678 
L 377.248425 117.905839 
L 378.071654 118.598214 
L 379.032087 119.721234 
L 379.306496 119.928601 
L 391.517717 119.928606 
L 391.792126 120.847378 
L 392.889764 125.107779 
L 393.438583 126.231538 
L 393.987402 126.734406 
L 394.399016 126.852156 
L 395.085039 126.702575 
L 396.182677 126.073734 
L 397.005906 125.393223 
L 397.829134 124.375336 
L 398.652362 123.003492 
L 399.75 120.725421 
L 399.887205 120.86944 
L 401.122047 122.672127 
L 402.35689 124.616668 
L 403.591732 127.012559 
L 403.866142 127.601214 
L 404.140551 127.296069 
L 405.787008 124.506805 
L 406.884646 122.151793 
L 407.982283 119.249425 
L 408.393898 120.221971 
L 408.942717 121.285436 
L 409.354331 121.709319 
L 409.765945 121.86386 
L 410.314764 121.7941 
L 411.824016 121.394644 
L 412.510039 121.551836 
L 413.058858 121.904053 
L 413.607677 122.533183 
L 414.56811 124.067991 
L 415.802953 126.512788 
L 416.214567 127.393773 
L 416.351772 127.332287 
L 419.095866 123.454786 
L 420.193504 121.08473 
L 420.330709 120.753399 
L 420.605118 121.254112 
L 421.291142 122.488867 
L 421.839961 123.071982 
L 422.38878 123.366727 
L 423.212008 123.522731 
L 424.309646 123.737913 
L 424.584055 123.757137 
L 425.407283 123.204396 
L 426.230512 122.362655 
L 427.05374 121.171519 
L 428.014173 119.350307 
L 428.562992 118.140754 
L 428.974606 118.790497 
L 429.797835 119.953645 
L 430.895472 121.065321 
L 432.130315 122.354872 
L 432.679134 123.061295 
L 432.953543 122.857844 
L 434.188386 121.394336 
L 435.286024 119.766848 
L 436.658071 117.294867 
L 436.795276 117.026847 
L 437.20689 117.706591 
L 438.030118 118.974788 
L 439.127756 120.208511 
L 441.048622 122.063379 
L 442.420669 120.551109 
L 443.655512 118.859894 
L 445.027559 116.619121 
L 445.439173 117.246462 
L 446.81122 119.318728 
L 449.280906 122.666955 
L 451.064567 120.304742 
L 452.573819 117.906956 
L 453.259843 116.693063 
L 453.259843 116.693063 
" clip-path="url(#pa44f6fbbcb)" style="fill: none; stroke-dasharray: 5.76,1.44,0.9,1.44; stroke-dashoffset: 0; stroke: #000000; stroke-width: 0.9"/>
   </g>
   <g id="line2d_38">
    <path d="M 58.110236 120.855952 
L 61.40315 120.738195 
L 72.653937 120.221741 
L 80.474606 120.189828 
L 115.324606 120.350778 
L 120.812795 120.422815 
L 165.815945 120.486554 
L 202.586811 120.755335 
L 209.858661 120.709946 
L 216.581693 120.669942 
L 247.041142 120.790819 
L 249.373622 120.801784 
L 255.959449 121.168644 
L 260.898819 120.970861 
L 269.131102 120.72551 
L 271.326378 120.944362 
L 274.344882 121.238639 
L 277.363386 121.204059 
L 287.65374 120.814961 
L 290.672244 120.734687 
L 293.553543 120.9825 
L 295.611614 121.011006 
L 299.590551 120.784855 
L 303.157874 120.634741 
L 306.176378 120.818347 
L 310.841339 121.074172 
L 314.545866 120.897156 
L 319.759646 120.692954 
L 322.50374 120.924519 
L 326.482677 121.186463 
L 329.089567 121.105786 
L 336.087008 120.820911 
L 341.575197 121.12718 
L 346.102953 121.107149 
L 453.259843 121.107149 
L 453.259843 121.107149 
" clip-path="url(#pa44f6fbbcb)" style="fill: none; stroke-dasharray: 0.9,1.485; stroke-dashoffset: 0; stroke: #000000; stroke-width: 0.9"/>
   </g>
   <g id="line2d_39">
    <path d="M 58.110236 171.546086 
L 58.79626 171.434642 
L 60.168307 170.853881 
L 60.579921 170.966927 
L 61.12874 171.380922 
L 61.951969 172.364553 
L 63.324016 174.064165 
L 63.872835 174.413058 
L 64.284449 174.450966 
L 64.833268 174.22936 
L 65.656496 173.820102 
L 66.616929 173.07872 
L 71.144685 169.119049 
L 72.516732 168.397835 
L 74.025984 167.867231 
L 75.809646 167.500003 
L 78.279331 167.241273 
L 83.081496 167.030393 
L 93.37185 166.82011 
L 106.406299 166.830082 
L 141.393504 166.846378 
L 192.296457 166.736582 
L 193.25689 166.462625 
L 194.766142 165.939081 
L 197.235827 165.200295 
L 198.19626 164.879669 
L 213.837598 161.360764 
L 219.600197 160.423081 
L 225.911614 159.628275 
L 232.223031 159.042095 
L 236.887992 158.828159 
L 242.101772 158.823282 
L 266.112598 159.098364 
L 282.302756 159.03693 
L 283.537598 159.344514 
L 284.772441 159.871408 
L 286.144488 160.690767 
L 287.92815 162.031626 
L 288.888583 162.732352 
L 289.437402 162.686152 
L 290.672244 162.334039 
L 291.221063 161.994808 
L 291.907087 161.294253 
L 292.455906 161.049591 
L 293.004724 161.041429 
L 295.062795 161.534776 
L 296.434843 162.226489 
L 296.983661 162.440173 
L 299.727756 162.044954 
L 301.511417 162.034651 
L 302.334646 162.173194 
L 303.157874 162.580984 
L 303.981102 163.237694 
L 304.529921 163.922521 
L 305.215945 165.005102 
L 305.764764 165.341579 
L 306.725197 165.623313 
L 309.057677 166.064401 
L 309.469291 166.025879 
L 311.252953 165.566429 
L 312.625 165.431237 
L 313.997047 165.532919 
L 315.369094 165.86121 
L 317.152756 166.53828 
L 320.17126 167.802574 
L 324.150197 167.105889 
L 325.933858 166.906039 
L 327.991929 167.425059 
L 330.736024 167.859508 
L 332.38248 167.982089 
L 335.675394 166.748601 
L 337.870669 165.929429 
L 338.145079 165.918683 
L 341.849606 166.47388 
L 343.633268 166.539332 
L 349.395866 166.559437 
L 351.728346 166.363561 
L 353.923622 165.92519 
L 356.393307 165.488429 
L 359.274606 165.199399 
L 365.448819 165.044219 
L 380.678543 165.02077 
L 441.048622 164.909364 
L 453.259843 164.684567 
L 453.259843 164.684567 
" clip-path="url(#pa44f6fbbcb)" style="fill: none; stroke-dasharray: 4.5,9; stroke-dashoffset: 0; stroke: #000000; stroke-width: 0.9"/>
   </g>
   <g id="line2d_40">
    <path d="M 58.110236 166.477073 
L 66.06811 166.596363 
L 83.630315 166.849418 
L 169.932087 166.847096 
L 200.254331 166.737979 
L 260.35 165.346463 
L 289.437402 164.848124 
L 314.95748 164.81353 
L 330.05 164.68259 
L 346.788976 164.589829 
L 453.259843 164.611706 
L 453.259843 164.611706 
" clip-path="url(#pa44f6fbbcb)" style="fill: none; stroke-dasharray: 2.7,9,0.9,9; stroke-dashoffset: 0; stroke: #000000; stroke-width: 0.9"/>
   </g>
   <g id="patch_3">
    <path d="M 58.110236 222.23622 
L 58.110236 6.80315 
" style="fill: none; stroke: #000000; stroke-width: 0.8; stroke-linejoin: miter; stroke-linecap: square"/>
   </g>
   <g id="patch_4">
    <path d="M 58.110236 222.23622 
L 453.259843 222.23622 
" style="fill: none; stroke: #000000; stroke-width: 0.8; stroke-linejoin: miter; stroke-linecap: square"/>
   </g>
   <g id="legend_1">
    <g id="line2d_41">
     <path d="M 127.591133 194.708268 
L 136.591133 194.708268 
L 145.591133 194.708268 
" style="fill: none; stroke: #000000; stroke-width: 0.9; stroke-linecap: square"/>
    </g>
    <g id="text_11">
     <!-- BS_HNHT -->
     <g transform="translate(152.791133 197.858268) scale(0.09 -0.09)">
      <defs>
       <path id="LMRoman6-Regular-42" d="M 4934 1178 
C 4934 1677 4435 2176 3533 2291 
C 4186 2400 4730 2790 4730 3283 
C 4730 3866 4006 4371 3091 4371 
L 442 4371 
L 442 4122 
L 608 4122 
C 1120 4122 1120 4045 1120 3834 
L 1120 538 
C 1120 326 1120 250 608 250 
L 442 250 
L 442 0 
L 3290 0 
C 4224 0 4934 550 4934 1178 
z
M 4064 3283 
C 4064 2797 3571 2374 2835 2374 
L 1715 2374 
L 1715 3872 
C 1715 4070 1715 4122 2029 4122 
L 3046 4122 
C 3680 4122 4064 3706 4064 3283 
z
M 4250 1184 
C 4250 717 3782 250 3059 250 
L 2029 250 
C 1715 250 1715 301 1715 499 
L 1715 2170 
L 3162 2170 
C 3853 2170 4250 1645 4250 1184 
z
" transform="scale(0.015625)"/>
       <path id="LMRoman6-Regular-53" d="M 3814 1178 
C 3814 1626 3565 1933 3469 2029 
C 3142 2355 2950 2394 2157 2560 
L 1555 2694 
C 1222 2803 915 3085 915 3450 
C 915 3878 1338 4275 1965 4275 
C 2304 4275 2630 4186 2893 3974 
C 3270 3674 3341 3213 3366 3059 
C 3379 2963 3386 2918 3488 2918 
C 3610 2918 3610 2976 3610 3098 
L 3610 4326 
C 3610 4435 3610 4506 3507 4506 
C 3482 4506 3443 4506 3392 4422 
L 3155 4058 
C 2790 4416 2330 4506 1958 4506 
C 1126 4506 506 3942 506 3283 
C 506 2950 659 2669 890 2451 
C 1178 2189 1395 2144 2112 1997 
C 2771 1856 2918 1824 3117 1638 
C 3194 1562 3405 1357 3405 1018 
C 3405 576 3008 115 2342 115 
C 1792 115 794 282 742 1306 
C 736 1402 736 1453 627 1453 
C 506 1453 506 1395 506 1267 
L 506 45 
C 506 -64 506 -134 608 -134 
C 666 -134 678 -109 710 -58 
C 730 -38 864 166 954 301 
C 1421 -90 2042 -134 2342 -134 
C 3232 -134 3814 499 3814 1178 
z
" transform="scale(0.015625)"/>
       <path id="LMRoman6-Regular-5f" d="M 5734 -922 
L 5734 -678 
L 0 -678 
L 0 -922 
L 5734 -922 
z
" transform="scale(0.015625)"/>
       <path id="LMRoman6-Regular-48" d="M 5312 0 
L 5312 250 
L 5146 250 
C 4634 250 4634 326 4634 538 
L 4634 3834 
C 4634 4045 4634 4122 5146 4122 
L 5312 4122 
L 5312 4371 
L 4314 4346 
L 3315 4371 
L 3315 4122 
L 3482 4122 
C 3994 4122 3994 4045 3994 3834 
L 3994 2400 
L 1734 2400 
L 1734 3834 
C 1734 4045 1734 4122 2246 4122 
L 2413 4122 
L 2413 4371 
L 1414 4346 
L 416 4371 
L 416 4122 
L 582 4122 
C 1094 4122 1094 4045 1094 3834 
L 1094 538 
C 1094 326 1094 250 582 250 
L 416 250 
L 416 0 
L 1414 26 
L 2413 0 
L 2413 250 
L 2246 250 
C 1734 250 1734 326 1734 538 
L 1734 2150 
L 3994 2150 
L 3994 538 
C 3994 326 3994 250 3482 250 
L 3315 250 
L 3315 0 
L 4314 26 
L 5312 0 
z
" transform="scale(0.015625)"/>
       <path id="LMRoman6-Regular-4e" d="M 5312 4122 
L 5312 4371 
C 5190 4365 4774 4346 4506 4346 
C 4211 4346 3808 4365 3693 4371 
L 3693 4122 
C 4371 4122 4371 3834 4371 3667 
L 4371 986 
L 1779 4282 
C 1709 4365 1702 4371 1568 4371 
L 416 4371 
L 416 4122 
L 621 4122 
C 768 4122 928 4122 1050 4090 
C 1088 4083 1094 4077 1094 3968 
L 1094 704 
C 1094 538 1094 250 416 250 
L 416 0 
C 538 6 954 26 1222 26 
C 1517 26 1920 6 2035 0 
L 2035 250 
C 1357 250 1357 538 1357 704 
L 1357 3898 
L 4365 77 
C 4416 13 4422 0 4499 0 
C 4634 0 4634 64 4634 192 
L 4634 3667 
C 4634 3834 4634 4122 5312 4122 
z
" transform="scale(0.015625)"/>
      </defs>
      <use xlink:href="#LMRoman6-Regular-42"/>
      <use xlink:href="#LMRoman6-Regular-53" x="85.099991"/>
      <use xlink:href="#LMRoman6-Regular-5f" x="152.699982"/>
      <use xlink:href="#LMRoman6-Regular-48" x="242.299973"/>
      <use xlink:href="#LMRoman6-Regular-4e" x="331.899963"/>
      <use xlink:href="#LMRoman6-Regular-48" x="421.499954"/>
      <use xlink:href="#LMRoman6-Regular-54" x="511.099945"/>
     </g>
    </g>
    <g id="line2d_42">
     <path d="M 127.591133 207.25483 
L 136.591133 207.25483 
L 145.591133 207.25483 
" style="fill: none; stroke-dasharray: 3.33,1.44; stroke-dashoffset: 0; stroke: #000000; stroke-width: 0.9"/>
    </g>
    <g id="text_12">
     <!-- ST_HNHT -->
     <g transform="translate(152.791133 210.40483) scale(0.09 -0.09)">
      <use xlink:href="#LMRoman6-Regular-53"/>
      <use xlink:href="#LMRoman6-Regular-54" x="67.599991"/>
      <use xlink:href="#LMRoman6-Regular-5f" x="154.599976"/>
      <use xlink:href="#LMRoman6-Regular-48" x="244.199966"/>
      <use xlink:href="#LMRoman6-Regular-4e" x="333.799957"/>
      <use xlink:href="#LMRoman6-Regular-48" x="423.399948"/>
      <use xlink:href="#LMRoman6-Regular-54" x="512.999939"/>
     </g>
    </g>
    <g id="line2d_43">
     <path d="M 224.788321 194.708268 
L 233.788321 194.708268 
L 242.788321 194.708268 
" style="fill: none; stroke-dasharray: 5.76,1.44,0.9,1.44; stroke-dashoffset: 0; stroke: #000000; stroke-width: 0.9"/>
    </g>
    <g id="text_13">
     <!-- BS_HNLT -->
     <g transform="translate(249.988321 197.858268) scale(0.09 -0.09)">
      <defs>
       <path id="LMRoman6-Regular-4c" d="M 4416 1702 
L 4179 1702 
C 4102 928 3904 250 2746 250 
L 2048 250 
C 1734 250 1734 301 1734 499 
L 1734 3834 
C 1734 4045 1734 4122 2349 4122 
L 2586 4122 
L 2586 4371 
C 2246 4346 1779 4346 1434 4346 
L 416 4371 
L 416 4122 
L 582 4122 
C 1094 4122 1094 4045 1094 3834 
L 1094 538 
C 1094 326 1094 250 582 250 
L 416 250 
L 416 0 
L 4218 0 
L 4416 1702 
z
" transform="scale(0.015625)"/>
      </defs>
      <use xlink:href="#LMRoman6-Regular-42"/>
      <use xlink:href="#LMRoman6-Regular-53" x="85.099991"/>
      <use xlink:href="#LMRoman6-Regular-5f" x="152.699982"/>
      <use xlink:href="#LMRoman6-Regular-48" x="242.299973"/>
      <use xlink:href="#LMRoman6-Regular-4e" x="331.899963"/>
      <use xlink:href="#LMRoman6-Regular-4c" x="421.499954"/>
      <use xlink:href="#LMRoman6-Regular-54" x="496.899948"/>
     </g>
    </g>
    <g id="line2d_44">
     <path d="M 224.788321 207.25483 
L 233.788321 207.25483 
L 242.788321 207.25483 
" style="fill: none; stroke-dasharray: 0.9,1.485; stroke-dashoffset: 0; stroke: #000000; stroke-width: 0.9"/>
    </g>
    <g id="text_14">
     <!-- ST_HNLT -->
     <g transform="translate(249.988321 210.40483) scale(0.09 -0.09)">
      <use xlink:href="#LMRoman6-Regular-53"/>
      <use xlink:href="#LMRoman6-Regular-54" x="67.599991"/>
      <use xlink:href="#LMRoman6-Regular-5f" x="154.599976"/>
      <use xlink:href="#LMRoman6-Regular-48" x="244.199966"/>
      <use xlink:href="#LMRoman6-Regular-4e" x="333.799957"/>
      <use xlink:href="#LMRoman6-Regular-4c" x="423.399948"/>
      <use xlink:href="#LMRoman6-Regular-54" x="498.799942"/>
     </g>
    </g>
    <g id="line2d_45">
     <path d="M 320.708633 194.708268 
L 329.708633 194.708268 
L 338.708633 194.708268 
" style="fill: none; stroke-dasharray: 4.5,9; stroke-dashoffset: 0; stroke: #000000; stroke-width: 0.9"/>
    </g>
    <g id="text_15">
     <!-- BS_CN -->
     <g transform="translate(345.908633 197.858268) scale(0.09 -0.09)">
      <use xlink:href="#LMRoman6-Regular-42"/>
      <use xlink:href="#LMRoman6-Regular-53" x="85.099991"/>
      <use xlink:href="#LMRoman6-Regular-5f" x="152.699982"/>
      <use xlink:href="#LMRoman6-Regular-43" x="242.299973"/>
      <use xlink:href="#LMRoman6-Regular-4e" x="329.299957"/>
     </g>
    </g>
    <g id="line2d_46">
     <path d="M 320.708633 207.25483 
L 329.708633 207.25483 
L 338.708633 207.25483 
" style="fill: none; stroke-dasharray: 2.7,9,0.9,9; stroke-dashoffset: 0; stroke: #000000; stroke-width: 0.9"/>
    </g>
    <g id="text_16">
     <!-- ST_CN -->
     <g transform="translate(345.908633 210.40483) scale(0.09 -0.09)">
      <use xlink:href="#LMRoman6-Regular-53"/>
      <use xlink:href="#LMRoman6-Regular-54" x="67.599991"/>
      <use xlink:href="#LMRoman6-Regular-5f" x="154.599976"/>
      <use xlink:href="#LMRoman6-Regular-43" x="244.199966"/>
      <use xlink:href="#LMRoman6-Regular-4e" x="331.199951"/>
     </g>
    </g>
   </g>
  </g>
 </g>
 <defs>
  <clipPath id="pa44f6fbbcb">
   <rect x="58.110236" y="6.80315" width="395.149606" height="215.433071"/>
  </clipPath>
 </defs>
</svg>
