<?xml version="1.0" encoding="utf-8" standalone="no"?>
<!DOCTYPE svg PUBLIC "-//W3C//DTD SVG 1.1//EN"
  "http://www.w3.org/Graphics/SVG/1.1/DTD/svg11.dtd">
<svg xmlns:xlink="http://www.w3.org/1999/xlink" width="464.88189pt" height="170.07874pt" viewBox="0 0 464.88189 170.07874" xmlns="http://www.w3.org/2000/svg" version="1.1">
 <metadata>
  <rdf:RDF xmlns:dc="http://purl.org/dc/elements/1.1/" xmlns:cc="http://creativecommons.org/ns#" xmlns:rdf="http://www.w3.org/1999/02/22-rdf-syntax-ns#">
   <cc:Work>
    <dc:type rdf:resource="http://purl.org/dc/dcmitype/StillImage"/>
    <dc:date>2024-09-20T10:17:37.972339</dc:date>
    <dc:format>image/svg+xml</dc:format>
    <dc:creator>
     <cc:Agent>
      <dc:title>Matplotlib v3.8.2, https://matplotlib.org/</dc:title>
     </cc:Agent>
    </dc:creator>
   </cc:Work>
  </rdf:RDF>
 </metadata>
 <defs>
  <style type="text/css">*{stroke-linejoin: round; stroke-linecap: butt}</style>
 </defs>
 <g id="figure_1">
  <g id="patch_1">
   <path d="M 0 170.07874 
L 464.88189 170.07874 
L 464.88189 0 
L 0 0 
z
" style="fill: #ffffff"/>
  </g>
  <g id="axes_1">
   <g id="patch_2">
    <path d="M 58.110236 107.149606 
L 441.637795 107.149606 
L 441.637795 17.007874 
L 58.110236 17.007874 
z
" style="fill: #ffffff"/>
   </g>
   <g id="matplotlib.axis_1">
    <g id="xtick_1">
     <g id="line2d_1">
      <defs>
       <path id="mf4b9c4b104" d="M 0 0 
L 0 3.5 
" style="stroke: #000000; stroke-width: 0.8"/>
      </defs>
      <g>
       <use xlink:href="#mf4b9c4b104" x="58.110236" y="107.149606" style="stroke: #000000; stroke-width: 0.8"/>
      </g>
     </g>
     <g id="text_1">
      <!-- 00:00 -->
      <g transform="translate(50.805105 136.358836) rotate(-45) scale(0.09 -0.09)">
       <defs>
        <path id="LMRoman6-Regular-30" d="M 3520 2042 
C 3520 2509 3520 4256 1952 4256 
C 384 4256 384 2509 384 2042 
C 384 1581 384 -134 1952 -134 
C 3520 -134 3520 1581 3520 2042 
z
M 2912 2125 
C 2912 1715 2912 1069 2803 710 
C 2624 154 2163 70 1952 70 
C 1683 70 1248 198 1094 730 
C 992 1101 992 1728 992 2125 
C 992 2554 992 3046 1082 3392 
C 1242 3968 1728 4051 1952 4051 
C 2246 4051 2669 3910 2810 3424 
C 2906 3085 2912 2618 2912 2125 
z
" transform="scale(0.015625)"/>
        <path id="LMRoman6-Regular-3a" d="M 1510 2374 
C 1510 2586 1338 2758 1126 2758 
C 915 2758 742 2586 742 2374 
C 742 2163 915 1990 1126 1990 
C 1338 1990 1510 2163 1510 2374 
z
M 1510 384 
C 1510 595 1338 768 1126 768 
C 915 768 742 595 742 384 
C 742 173 915 0 1126 0 
C 1338 0 1510 173 1510 384 
z
" transform="scale(0.015625)"/>
       </defs>
       <use xlink:href="#LMRoman6-Regular-30"/>
       <use xlink:href="#LMRoman6-Regular-30" x="61.099991"/>
       <use xlink:href="#LMRoman6-Regular-3a" x="122.199982"/>
       <use xlink:href="#LMRoman6-Regular-30" x="157.399979"/>
       <use xlink:href="#LMRoman6-Regular-30" x="218.499969"/>
      </g>
     </g>
    </g>
    <g id="xtick_2">
     <g id="line2d_2">
      <g>
       <use xlink:href="#mf4b9c4b104" x="74.090551" y="107.149606" style="stroke: #000000; stroke-width: 0.8"/>
      </g>
     </g>
     <g id="text_2">
      <!-- 01:00 -->
      <g transform="translate(66.78542 136.358836) rotate(-45) scale(0.09 -0.09)">
       <defs>
        <path id="LMRoman6-Regular-31" d="M 3232 0 
L 3232 250 
L 2957 250 
C 2298 250 2298 333 2298 544 
L 2298 4064 
C 2298 4256 2272 4256 2080 4256 
C 1658 3846 1005 3846 774 3846 
L 774 3597 
C 941 3597 1363 3597 1747 3776 
L 1747 544 
C 1747 333 1747 250 1088 250 
L 813 250 
L 813 0 
C 1165 26 1664 26 2022 26 
C 2381 26 2880 26 3232 0 
z
" transform="scale(0.015625)"/>
       </defs>
       <use xlink:href="#LMRoman6-Regular-30"/>
       <use xlink:href="#LMRoman6-Regular-31" x="61.099991"/>
       <use xlink:href="#LMRoman6-Regular-3a" x="122.199982"/>
       <use xlink:href="#LMRoman6-Regular-30" x="157.399979"/>
       <use xlink:href="#LMRoman6-Regular-30" x="218.499969"/>
      </g>
     </g>
    </g>
    <g id="xtick_3">
     <g id="line2d_3">
      <g>
       <use xlink:href="#mf4b9c4b104" x="90.070866" y="107.149606" style="stroke: #000000; stroke-width: 0.8"/>
      </g>
     </g>
     <g id="text_3">
      <!-- 02:00 -->
      <g transform="translate(82.765735 136.358836) rotate(-45) scale(0.09 -0.09)">
       <defs>
        <path id="LMRoman6-Regular-32" d="M 3443 1197 
L 3206 1197 
C 3194 1107 3130 685 3034 614 
C 2989 576 2470 576 2381 576 
L 1184 576 
L 2003 1242 
C 2221 1414 2790 1824 2989 2016 
C 3181 2208 3443 2534 3443 2989 
C 3443 3789 2720 4256 1862 4256 
C 1037 4256 461 3712 461 3110 
C 461 2784 736 2746 806 2746 
C 966 2746 1152 2861 1152 3091 
C 1152 3232 1069 3437 787 3437 
C 934 3763 1325 4006 1766 4006 
C 2438 4006 2797 3507 2797 2989 
C 2797 2534 2496 2067 2048 1658 
L 531 269 
C 467 205 461 198 461 0 
L 3245 0 
L 3443 1197 
z
" transform="scale(0.015625)"/>
       </defs>
       <use xlink:href="#LMRoman6-Regular-30"/>
       <use xlink:href="#LMRoman6-Regular-32" x="61.099991"/>
       <use xlink:href="#LMRoman6-Regular-3a" x="122.199982"/>
       <use xlink:href="#LMRoman6-Regular-30" x="157.399979"/>
       <use xlink:href="#LMRoman6-Regular-30" x="218.499969"/>
      </g>
     </g>
    </g>
    <g id="xtick_4">
     <g id="line2d_4">
      <g>
       <use xlink:href="#mf4b9c4b104" x="106.051181" y="107.149606" style="stroke: #000000; stroke-width: 0.8"/>
      </g>
     </g>
     <g id="text_4">
      <!-- 03:00 -->
      <g transform="translate(98.74605 136.358836) rotate(-45) scale(0.09 -0.09)">
       <defs>
        <path id="LMRoman6-Regular-33" d="M 3501 1107 
C 3501 1574 3142 2067 2381 2259 
C 2886 2426 3296 2835 3296 3360 
C 3296 3872 2694 4256 1926 4256 
C 1178 4256 608 3910 608 3386 
C 608 3110 819 3034 947 3034 
C 1114 3034 1286 3149 1286 3373 
C 1286 3571 1146 3686 973 3712 
C 1274 4045 1856 4045 1914 4045 
C 2240 4045 2650 3891 2650 3360 
C 2650 3008 2451 2394 1811 2355 
C 1696 2349 1523 2336 1466 2336 
C 1402 2330 1331 2323 1331 2227 
C 1331 2125 1402 2125 1510 2125 
L 1882 2125 
C 2426 2125 2790 1760 2790 1107 
C 2790 403 2368 96 1901 96 
C 1728 96 1069 134 781 506 
C 1030 531 1133 698 1133 870 
C 1133 1088 979 1235 768 1235 
C 595 1235 403 1126 403 858 
C 403 224 1107 -134 1920 -134 
C 2867 -134 3501 474 3501 1107 
z
" transform="scale(0.015625)"/>
       </defs>
       <use xlink:href="#LMRoman6-Regular-30"/>
       <use xlink:href="#LMRoman6-Regular-33" x="61.099991"/>
       <use xlink:href="#LMRoman6-Regular-3a" x="122.199982"/>
       <use xlink:href="#LMRoman6-Regular-30" x="157.399979"/>
       <use xlink:href="#LMRoman6-Regular-30" x="218.499969"/>
      </g>
     </g>
    </g>
    <g id="xtick_5">
     <g id="line2d_5">
      <g>
       <use xlink:href="#mf4b9c4b104" x="122.031496" y="107.149606" style="stroke: #000000; stroke-width: 0.8"/>
      </g>
     </g>
     <g id="text_5">
      <!-- 04:00 -->
      <g transform="translate(114.726365 136.358836) rotate(-45) scale(0.09 -0.09)">
       <defs>
        <path id="LMRoman6-Regular-34" d="M 3610 1050 
L 3610 1299 
L 2861 1299 
L 2861 4128 
C 2861 4275 2861 4320 2701 4320 
C 2586 4320 2573 4301 2515 4224 
L 294 1299 
L 294 1050 
L 2285 1050 
L 2285 538 
C 2285 326 2285 250 1747 250 
L 1562 250 
L 1562 0 
L 2573 26 
L 3584 0 
L 3584 250 
L 3398 250 
C 2861 250 2861 326 2861 538 
L 2861 1050 
L 3610 1050 
z
M 2330 1299 
L 570 1299 
L 2330 3622 
L 2330 1299 
z
" transform="scale(0.015625)"/>
       </defs>
       <use xlink:href="#LMRoman6-Regular-30"/>
       <use xlink:href="#LMRoman6-Regular-34" x="61.099991"/>
       <use xlink:href="#LMRoman6-Regular-3a" x="122.199982"/>
       <use xlink:href="#LMRoman6-Regular-30" x="157.399979"/>
       <use xlink:href="#LMRoman6-Regular-30" x="218.499969"/>
      </g>
     </g>
    </g>
    <g id="xtick_6">
     <g id="line2d_6">
      <g>
       <use xlink:href="#mf4b9c4b104" x="138.011811" y="107.149606" style="stroke: #000000; stroke-width: 0.8"/>
      </g>
     </g>
     <g id="text_6">
      <!-- 05:00 -->
      <g transform="translate(130.70668 136.358836) rotate(-45) scale(0.09 -0.09)">
       <defs>
        <path id="LMRoman6-Regular-35" d="M 3443 1286 
C 3443 2016 2854 2682 2029 2682 
C 1613 2682 1293 2547 1088 2374 
L 1088 3552 
C 1299 3494 1523 3469 1741 3469 
C 1882 3469 2240 3469 2643 3693 
C 2752 3757 3149 4019 3149 4154 
C 3149 4237 3085 4256 3059 4256 
C 3040 4256 3034 4256 2963 4230 
C 2733 4141 2406 4051 1990 4051 
C 1677 4051 1331 4109 1043 4218 
C 979 4243 954 4256 928 4256 
C 838 4256 838 4186 838 4083 
L 838 2163 
C 838 2054 838 1978 954 1978 
C 1011 1978 1030 2003 1075 2054 
C 1235 2259 1517 2477 2016 2477 
C 2803 2477 2803 1517 2803 1312 
C 2803 1062 2784 704 2573 442 
C 2374 198 2080 96 1805 96 
C 1363 96 922 339 768 710 
C 1082 717 1120 966 1120 1043 
C 1120 1216 986 1370 787 1370 
C 730 1370 461 1338 461 1018 
C 461 429 1018 -134 1824 -134 
C 2701 -134 3443 486 3443 1286 
z
" transform="scale(0.015625)"/>
       </defs>
       <use xlink:href="#LMRoman6-Regular-30"/>
       <use xlink:href="#LMRoman6-Regular-35" x="61.099991"/>
       <use xlink:href="#LMRoman6-Regular-3a" x="122.199982"/>
       <use xlink:href="#LMRoman6-Regular-30" x="157.399979"/>
       <use xlink:href="#LMRoman6-Regular-30" x="218.499969"/>
      </g>
     </g>
    </g>
    <g id="xtick_7">
     <g id="line2d_7">
      <g>
       <use xlink:href="#mf4b9c4b104" x="153.992126" y="107.149606" style="stroke: #000000; stroke-width: 0.8"/>
      </g>
     </g>
     <g id="text_7">
      <!-- 06:00 -->
      <g transform="translate(146.686995 136.358836) rotate(-45) scale(0.09 -0.09)">
       <defs>
        <path id="LMRoman6-Regular-36" d="M 3501 1306 
C 3501 1523 3475 1933 3085 2298 
C 2861 2502 2579 2726 2035 2726 
C 1587 2726 1261 2496 1043 2118 
C 1050 2438 1062 2970 1286 3366 
C 1568 3853 1990 4045 2374 4045 
C 2522 4045 2816 4019 2970 3840 
C 2733 3802 2694 3635 2694 3533 
C 2694 3366 2810 3226 3002 3226 
C 3194 3226 3315 3347 3315 3546 
C 3315 3936 3021 4256 2368 4256 
C 1376 4256 403 3392 403 2029 
C 403 474 1126 -134 1971 -134 
C 2221 -134 2656 -96 3046 282 
C 3251 486 3501 742 3501 1306 
z
M 2861 1306 
C 2861 864 2848 646 2630 390 
C 2477 198 2272 96 1965 96 
C 1062 96 1062 1197 1062 1446 
C 1062 1997 1427 2522 2003 2522 
C 2336 2522 2528 2387 2682 2182 
C 2861 1933 2861 1645 2861 1306 
z
" transform="scale(0.015625)"/>
       </defs>
       <use xlink:href="#LMRoman6-Regular-30"/>
       <use xlink:href="#LMRoman6-Regular-36" x="61.099991"/>
       <use xlink:href="#LMRoman6-Regular-3a" x="122.199982"/>
       <use xlink:href="#LMRoman6-Regular-30" x="157.399979"/>
       <use xlink:href="#LMRoman6-Regular-30" x="218.499969"/>
      </g>
     </g>
    </g>
    <g id="xtick_8">
     <g id="line2d_8">
      <g>
       <use xlink:href="#mf4b9c4b104" x="169.972441" y="107.149606" style="stroke: #000000; stroke-width: 0.8"/>
      </g>
     </g>
     <g id="text_8">
      <!-- 07:00 -->
      <g transform="translate(162.66731 136.358836) rotate(-45) scale(0.09 -0.09)">
       <defs>
        <path id="LMRoman6-Regular-37" d="M 3712 4122 
L 2061 4122 
C 1798 4122 1645 4128 1395 4147 
C 1082 4166 1005 4173 973 4326 
L 736 4326 
L 506 2925 
L 742 2925 
C 762 3059 826 3437 922 3507 
C 973 3546 1523 3546 1619 3546 
L 3066 3546 
L 2496 2861 
C 1875 2112 1440 1203 1440 230 
C 1440 173 1440 -134 1747 -134 
C 2061 -134 2061 160 2061 243 
L 2061 422 
C 2061 1651 2323 2278 2643 2662 
L 3654 3866 
C 3712 3930 3712 3942 3712 4122 
z
" transform="scale(0.015625)"/>
       </defs>
       <use xlink:href="#LMRoman6-Regular-30"/>
       <use xlink:href="#LMRoman6-Regular-37" x="61.099991"/>
       <use xlink:href="#LMRoman6-Regular-3a" x="122.199982"/>
       <use xlink:href="#LMRoman6-Regular-30" x="157.399979"/>
       <use xlink:href="#LMRoman6-Regular-30" x="218.499969"/>
      </g>
     </g>
    </g>
    <g id="xtick_9">
     <g id="line2d_9">
      <g>
       <use xlink:href="#mf4b9c4b104" x="185.952756" y="107.149606" style="stroke: #000000; stroke-width: 0.8"/>
      </g>
     </g>
     <g id="text_9">
      <!-- 08:00 -->
      <g transform="translate(178.647625 136.358836) rotate(-45) scale(0.09 -0.09)">
       <defs>
        <path id="LMRoman6-Regular-38" d="M 3501 1088 
C 3501 1530 3232 1792 3136 1888 
C 3014 2003 2694 2182 2464 2310 
C 2938 2522 3296 2835 3296 3296 
C 3296 3923 2624 4256 1958 4256 
C 1235 4256 608 3821 608 3174 
C 608 2778 870 2470 1139 2310 
L 1421 2150 
C 998 1990 403 1632 403 986 
C 403 237 1203 -134 1946 -134 
C 2797 -134 3501 378 3501 1088 
z
M 2938 3290 
C 2938 2797 2406 2534 2227 2445 
L 1306 2944 
C 1293 2950 966 3130 966 3424 
C 966 3840 1472 4045 1946 4045 
C 2445 4045 2938 3770 2938 3290 
z
M 3091 864 
C 3091 358 2502 96 1958 96 
C 1363 96 813 442 813 986 
C 813 1530 1325 1888 1677 2016 
L 2605 1504 
C 2739 1421 3091 1229 3091 864 
z
" transform="scale(0.015625)"/>
       </defs>
       <use xlink:href="#LMRoman6-Regular-30"/>
       <use xlink:href="#LMRoman6-Regular-38" x="61.099991"/>
       <use xlink:href="#LMRoman6-Regular-3a" x="122.199982"/>
       <use xlink:href="#LMRoman6-Regular-30" x="157.399979"/>
       <use xlink:href="#LMRoman6-Regular-30" x="218.499969"/>
      </g>
     </g>
    </g>
    <g id="xtick_10">
     <g id="line2d_10">
      <g>
       <use xlink:href="#mf4b9c4b104" x="201.933071" y="107.149606" style="stroke: #000000; stroke-width: 0.8"/>
      </g>
     </g>
     <g id="text_10">
      <!-- 09:00 -->
      <g transform="translate(194.62794 136.358836) rotate(-45) scale(0.09 -0.09)">
       <defs>
        <path id="LMRoman6-Regular-39" d="M 3501 2099 
C 3501 3654 2790 4256 1971 4256 
C 1146 4256 403 3667 403 2822 
C 403 2342 582 2074 813 1843 
C 1094 1568 1402 1402 1869 1402 
C 2426 1402 2726 1766 2861 2016 
C 2861 1530 2816 1050 2586 666 
C 2426 416 2118 96 1619 96 
C 1472 96 1126 115 947 282 
C 1152 326 1210 467 1210 589 
C 1210 755 1094 896 902 896 
C 710 896 589 774 589 576 
C 589 58 1069 -134 1626 -134 
C 2611 -134 3501 762 3501 2099 
z
M 2842 2694 
C 2842 2118 2464 1606 1901 1606 
C 1504 1606 1331 1805 1229 1939 
C 1050 2182 1043 2458 1043 2822 
C 1043 3200 1043 3450 1254 3712 
C 1434 3930 1645 4045 1978 4045 
C 2842 4045 2842 2950 2842 2694 
z
" transform="scale(0.015625)"/>
       </defs>
       <use xlink:href="#LMRoman6-Regular-30"/>
       <use xlink:href="#LMRoman6-Regular-39" x="61.099991"/>
       <use xlink:href="#LMRoman6-Regular-3a" x="122.199982"/>
       <use xlink:href="#LMRoman6-Regular-30" x="157.399979"/>
       <use xlink:href="#LMRoman6-Regular-30" x="218.499969"/>
      </g>
     </g>
    </g>
    <g id="xtick_11">
     <g id="line2d_11">
      <g>
       <use xlink:href="#mf4b9c4b104" x="217.913386" y="107.149606" style="stroke: #000000; stroke-width: 0.8"/>
      </g>
     </g>
     <g id="text_11">
      <!-- 10:00 -->
      <g transform="translate(210.608255 136.358836) rotate(-45) scale(0.09 -0.09)">
       <use xlink:href="#LMRoman6-Regular-31"/>
       <use xlink:href="#LMRoman6-Regular-30" x="61.099991"/>
       <use xlink:href="#LMRoman6-Regular-3a" x="122.199982"/>
       <use xlink:href="#LMRoman6-Regular-30" x="157.399979"/>
       <use xlink:href="#LMRoman6-Regular-30" x="218.499969"/>
      </g>
     </g>
    </g>
    <g id="xtick_12">
     <g id="line2d_12">
      <g>
       <use xlink:href="#mf4b9c4b104" x="233.893701" y="107.149606" style="stroke: #000000; stroke-width: 0.8"/>
      </g>
     </g>
     <g id="text_12">
      <!-- 11:00 -->
      <g transform="translate(226.58857 136.358836) rotate(-45) scale(0.09 -0.09)">
       <use xlink:href="#LMRoman6-Regular-31"/>
       <use xlink:href="#LMRoman6-Regular-31" x="61.099991"/>
       <use xlink:href="#LMRoman6-Regular-3a" x="122.199982"/>
       <use xlink:href="#LMRoman6-Regular-30" x="157.399979"/>
       <use xlink:href="#LMRoman6-Regular-30" x="218.499969"/>
      </g>
     </g>
    </g>
    <g id="xtick_13">
     <g id="line2d_13">
      <g>
       <use xlink:href="#mf4b9c4b104" x="249.874016" y="107.149606" style="stroke: #000000; stroke-width: 0.8"/>
      </g>
     </g>
     <g id="text_13">
      <!-- 12:00 -->
      <g transform="translate(242.568885 136.358836) rotate(-45) scale(0.09 -0.09)">
       <use xlink:href="#LMRoman6-Regular-31"/>
       <use xlink:href="#LMRoman6-Regular-32" x="61.099991"/>
       <use xlink:href="#LMRoman6-Regular-3a" x="122.199982"/>
       <use xlink:href="#LMRoman6-Regular-30" x="157.399979"/>
       <use xlink:href="#LMRoman6-Regular-30" x="218.499969"/>
      </g>
     </g>
    </g>
    <g id="xtick_14">
     <g id="line2d_14">
      <g>
       <use xlink:href="#mf4b9c4b104" x="265.854331" y="107.149606" style="stroke: #000000; stroke-width: 0.8"/>
      </g>
     </g>
     <g id="text_14">
      <!-- 13:00 -->
      <g transform="translate(258.5492 136.358836) rotate(-45) scale(0.09 -0.09)">
       <use xlink:href="#LMRoman6-Regular-31"/>
       <use xlink:href="#LMRoman6-Regular-33" x="61.099991"/>
       <use xlink:href="#LMRoman6-Regular-3a" x="122.199982"/>
       <use xlink:href="#LMRoman6-Regular-30" x="157.399979"/>
       <use xlink:href="#LMRoman6-Regular-30" x="218.499969"/>
      </g>
     </g>
    </g>
    <g id="xtick_15">
     <g id="line2d_15">
      <g>
       <use xlink:href="#mf4b9c4b104" x="281.834646" y="107.149606" style="stroke: #000000; stroke-width: 0.8"/>
      </g>
     </g>
     <g id="text_15">
      <!-- 14:00 -->
      <g transform="translate(274.529514 136.358836) rotate(-45) scale(0.09 -0.09)">
       <use xlink:href="#LMRoman6-Regular-31"/>
       <use xlink:href="#LMRoman6-Regular-34" x="61.099991"/>
       <use xlink:href="#LMRoman6-Regular-3a" x="122.199982"/>
       <use xlink:href="#LMRoman6-Regular-30" x="157.399979"/>
       <use xlink:href="#LMRoman6-Regular-30" x="218.499969"/>
      </g>
     </g>
    </g>
    <g id="xtick_16">
     <g id="line2d_16">
      <g>
       <use xlink:href="#mf4b9c4b104" x="297.814961" y="107.149606" style="stroke: #000000; stroke-width: 0.8"/>
      </g>
     </g>
     <g id="text_16">
      <!-- 15:00 -->
      <g transform="translate(290.509829 136.358836) rotate(-45) scale(0.09 -0.09)">
       <use xlink:href="#LMRoman6-Regular-31"/>
       <use xlink:href="#LMRoman6-Regular-35" x="61.099991"/>
       <use xlink:href="#LMRoman6-Regular-3a" x="122.199982"/>
       <use xlink:href="#LMRoman6-Regular-30" x="157.399979"/>
       <use xlink:href="#LMRoman6-Regular-30" x="218.499969"/>
      </g>
     </g>
    </g>
    <g id="xtick_17">
     <g id="line2d_17">
      <g>
       <use xlink:href="#mf4b9c4b104" x="313.795276" y="107.149606" style="stroke: #000000; stroke-width: 0.8"/>
      </g>
     </g>
     <g id="text_17">
      <!-- 16:00 -->
      <g transform="translate(306.490144 136.358836) rotate(-45) scale(0.09 -0.09)">
       <use xlink:href="#LMRoman6-Regular-31"/>
       <use xlink:href="#LMRoman6-Regular-36" x="61.099991"/>
       <use xlink:href="#LMRoman6-Regular-3a" x="122.199982"/>
       <use xlink:href="#LMRoman6-Regular-30" x="157.399979"/>
       <use xlink:href="#LMRoman6-Regular-30" x="218.499969"/>
      </g>
     </g>
    </g>
    <g id="xtick_18">
     <g id="line2d_18">
      <g>
       <use xlink:href="#mf4b9c4b104" x="329.775591" y="107.149606" style="stroke: #000000; stroke-width: 0.8"/>
      </g>
     </g>
     <g id="text_18">
      <!-- 17:00 -->
      <g transform="translate(322.470459 136.358836) rotate(-45) scale(0.09 -0.09)">
       <use xlink:href="#LMRoman6-Regular-31"/>
       <use xlink:href="#LMRoman6-Regular-37" x="61.099991"/>
       <use xlink:href="#LMRoman6-Regular-3a" x="122.199982"/>
       <use xlink:href="#LMRoman6-Regular-30" x="157.399979"/>
       <use xlink:href="#LMRoman6-Regular-30" x="218.499969"/>
      </g>
     </g>
    </g>
    <g id="xtick_19">
     <g id="line2d_19">
      <g>
       <use xlink:href="#mf4b9c4b104" x="345.755906" y="107.149606" style="stroke: #000000; stroke-width: 0.8"/>
      </g>
     </g>
     <g id="text_19">
      <!-- 18:00 -->
      <g transform="translate(338.450774 136.358836) rotate(-45) scale(0.09 -0.09)">
       <use xlink:href="#LMRoman6-Regular-31"/>
       <use xlink:href="#LMRoman6-Regular-38" x="61.099991"/>
       <use xlink:href="#LMRoman6-Regular-3a" x="122.199982"/>
       <use xlink:href="#LMRoman6-Regular-30" x="157.399979"/>
       <use xlink:href="#LMRoman6-Regular-30" x="218.499969"/>
      </g>
     </g>
    </g>
    <g id="xtick_20">
     <g id="line2d_20">
      <g>
       <use xlink:href="#mf4b9c4b104" x="361.73622" y="107.149606" style="stroke: #000000; stroke-width: 0.8"/>
      </g>
     </g>
     <g id="text_20">
      <!-- 19:00 -->
      <g transform="translate(354.431089 136.358836) rotate(-45) scale(0.09 -0.09)">
       <use xlink:href="#LMRoman6-Regular-31"/>
       <use xlink:href="#LMRoman6-Regular-39" x="61.099991"/>
       <use xlink:href="#LMRoman6-Regular-3a" x="122.199982"/>
       <use xlink:href="#LMRoman6-Regular-30" x="157.399979"/>
       <use xlink:href="#LMRoman6-Regular-30" x="218.499969"/>
      </g>
     </g>
    </g>
    <g id="xtick_21">
     <g id="line2d_21">
      <g>
       <use xlink:href="#mf4b9c4b104" x="377.716535" y="107.149606" style="stroke: #000000; stroke-width: 0.8"/>
      </g>
     </g>
     <g id="text_21">
      <!-- 20:00 -->
      <g transform="translate(370.411404 136.358836) rotate(-45) scale(0.09 -0.09)">
       <use xlink:href="#LMRoman6-Regular-32"/>
       <use xlink:href="#LMRoman6-Regular-30" x="61.099991"/>
       <use xlink:href="#LMRoman6-Regular-3a" x="122.199982"/>
       <use xlink:href="#LMRoman6-Regular-30" x="157.399979"/>
       <use xlink:href="#LMRoman6-Regular-30" x="218.499969"/>
      </g>
     </g>
    </g>
    <g id="xtick_22">
     <g id="line2d_22">
      <g>
       <use xlink:href="#mf4b9c4b104" x="393.69685" y="107.149606" style="stroke: #000000; stroke-width: 0.8"/>
      </g>
     </g>
     <g id="text_22">
      <!-- 21:00 -->
      <g transform="translate(386.391719 136.358836) rotate(-45) scale(0.09 -0.09)">
       <use xlink:href="#LMRoman6-Regular-32"/>
       <use xlink:href="#LMRoman6-Regular-31" x="61.099991"/>
       <use xlink:href="#LMRoman6-Regular-3a" x="122.199982"/>
       <use xlink:href="#LMRoman6-Regular-30" x="157.399979"/>
       <use xlink:href="#LMRoman6-Regular-30" x="218.499969"/>
      </g>
     </g>
    </g>
    <g id="xtick_23">
     <g id="line2d_23">
      <g>
       <use xlink:href="#mf4b9c4b104" x="409.677165" y="107.149606" style="stroke: #000000; stroke-width: 0.8"/>
      </g>
     </g>
     <g id="text_23">
      <!-- 22:00 -->
      <g transform="translate(402.372034 136.358836) rotate(-45) scale(0.09 -0.09)">
       <use xlink:href="#LMRoman6-Regular-32"/>
       <use xlink:href="#LMRoman6-Regular-32" x="61.099991"/>
       <use xlink:href="#LMRoman6-Regular-3a" x="122.199982"/>
       <use xlink:href="#LMRoman6-Regular-30" x="157.399979"/>
       <use xlink:href="#LMRoman6-Regular-30" x="218.499969"/>
      </g>
     </g>
    </g>
    <g id="xtick_24">
     <g id="line2d_24">
      <g>
       <use xlink:href="#mf4b9c4b104" x="425.65748" y="107.149606" style="stroke: #000000; stroke-width: 0.8"/>
      </g>
     </g>
     <g id="text_24">
      <!-- 23:00 -->
      <g transform="translate(418.352349 136.358836) rotate(-45) scale(0.09 -0.09)">
       <use xlink:href="#LMRoman6-Regular-32"/>
       <use xlink:href="#LMRoman6-Regular-33" x="61.099991"/>
       <use xlink:href="#LMRoman6-Regular-3a" x="122.199982"/>
       <use xlink:href="#LMRoman6-Regular-30" x="157.399979"/>
       <use xlink:href="#LMRoman6-Regular-30" x="218.499969"/>
      </g>
     </g>
    </g>
    <g id="xtick_25">
     <g id="line2d_25">
      <g>
       <use xlink:href="#mf4b9c4b104" x="441.637795" y="107.149606" style="stroke: #000000; stroke-width: 0.8"/>
      </g>
     </g>
     <g id="text_25">
      <!-- 00:00 -->
      <g transform="translate(434.332664 136.358836) rotate(-45) scale(0.09 -0.09)">
       <use xlink:href="#LMRoman6-Regular-30"/>
       <use xlink:href="#LMRoman6-Regular-30" x="61.099991"/>
       <use xlink:href="#LMRoman6-Regular-3a" x="122.199982"/>
       <use xlink:href="#LMRoman6-Regular-30" x="157.399979"/>
       <use xlink:href="#LMRoman6-Regular-30" x="218.499969"/>
      </g>
     </g>
    </g>
    <g id="text_26">
     <!-- Zeit (UTC+1) -->
     <g transform="translate(215.311203 148.343842) scale(0.09 -0.09)">
      <defs>
       <path id="LMRoman6-Regular-5a" d="M 4275 1760 
L 4038 1760 
C 3974 890 3834 269 2573 269 
L 1293 269 
L 4173 4096 
C 4230 4166 4230 4179 4230 4237 
C 4230 4371 4166 4371 4038 4371 
L 691 4371 
L 608 2880 
L 845 2880 
C 909 3840 1389 4122 2253 4122 
L 3450 4122 
L 563 288 
C 506 218 506 205 506 141 
C 506 0 570 0 698 0 
L 4154 0 
L 4275 1760 
z
" transform="scale(0.015625)"/>
       <path id="LMRoman6-Regular-65" d="M 3194 768 
C 3194 800 3181 870 3072 870 
C 2989 870 2976 832 2950 755 
C 2758 282 2278 160 1984 160 
C 1632 160 1331 320 1152 550 
C 915 851 915 1274 915 1446 
L 3002 1446 
C 3142 1446 3194 1446 3194 1600 
C 3194 2093 2918 2854 1856 2854 
C 960 2854 307 2170 307 1402 
C 307 595 1043 -64 1946 -64 
C 2867 -64 3194 627 3194 768 
z
M 2726 1638 
L 928 1638 
C 998 2496 1587 2650 1850 2650 
C 2675 2650 2720 1824 2726 1638 
z
" transform="scale(0.015625)"/>
       <path id="LMRoman6-Regular-69" d="M 1875 0 
L 1875 250 
C 1478 250 1421 250 1421 518 
L 1421 2822 
L 435 2752 
L 435 2502 
C 858 2502 915 2458 915 2144 
L 915 525 
C 915 250 851 250 410 250 
L 410 0 
L 1158 26 
C 1222 26 1709 13 1875 0 
z
M 1510 3846 
C 1510 4051 1344 4230 1126 4230 
C 890 4230 736 4032 736 3846 
C 736 3642 902 3462 1120 3462 
C 1357 3462 1510 3661 1510 3846 
z
" transform="scale(0.015625)"/>
       <path id="LMRoman6-Regular-74" d="M 2566 806 
L 2566 1158 
L 2330 1158 
L 2330 819 
C 2330 365 2093 160 1856 160 
C 1395 160 1395 678 1395 800 
L 1395 2509 
L 2445 2509 
L 2445 2758 
L 1395 2758 
L 1395 3936 
L 1158 3936 
C 1152 3366 877 2739 230 2714 
L 230 2509 
L 864 2509 
L 864 800 
C 864 128 1370 -64 1805 -64 
C 2246 -64 2566 288 2566 806 
z
" transform="scale(0.015625)"/>
       <path id="LMRoman6-Regular-20" transform="scale(0.015625)"/>
       <path id="LMRoman6-Regular-28" d="M 2566 -1510 
C 2566 -1478 2547 -1446 2547 -1446 
C 1843 -909 1267 102 1267 1600 
C 1267 3078 1830 4102 2547 4646 
C 2547 4646 2566 4678 2566 4710 
C 2566 4749 2541 4800 2464 4800 
C 2349 4800 806 3795 806 1600 
C 806 -589 2342 -1600 2464 -1600 
C 2541 -1600 2566 -1549 2566 -1510 
z
" transform="scale(0.015625)"/>
       <path id="LMRoman6-Regular-55" d="M 5312 4122 
L 5312 4371 
L 4512 4346 
C 4275 4346 3846 4358 3706 4371 
L 3706 4122 
C 4384 4122 4384 3834 4384 3667 
L 4384 1485 
C 4384 621 3680 115 2970 115 
C 2522 115 1734 346 1734 1459 
L 1734 3834 
C 1734 4045 1734 4122 2246 4122 
L 2413 4122 
L 2413 4371 
L 1414 4346 
L 416 4371 
L 416 4122 
L 582 4122 
C 1094 4122 1094 4045 1094 3834 
L 1094 1472 
C 1094 550 1965 -134 2950 -134 
C 3910 -134 4634 595 4634 1466 
L 4634 3667 
C 4634 3834 4634 4122 5312 4122 
z
" transform="scale(0.015625)"/>
       <path id="LMRoman6-Regular-54" d="M 5203 2835 
L 5062 4326 
L 499 4326 
L 358 2835 
L 595 2835 
C 691 3994 941 4077 1907 4077 
C 2042 4077 2253 4077 2317 4070 
C 2464 4045 2464 3981 2464 3827 
L 2464 544 
C 2464 333 2464 250 1786 250 
L 1498 250 
L 1498 0 
C 1811 26 2445 26 2784 26 
C 3123 26 3757 26 4070 0 
L 4070 250 
L 3782 250 
C 3104 250 3104 333 3104 544 
L 3104 3827 
C 3104 3981 3104 4045 3245 4070 
C 3309 4077 3520 4077 3654 4077 
C 4627 4077 4870 3987 4966 2835 
L 5203 2835 
z
" transform="scale(0.015625)"/>
       <path id="LMRoman6-Regular-43" d="M 5056 1498 
C 5056 1568 5050 1632 4934 1632 
C 4832 1632 4826 1581 4819 1523 
C 4768 544 3878 115 3174 115 
C 2406 115 1216 570 1216 2189 
C 1216 3776 2374 4256 3168 4256 
C 3891 4256 4640 3763 4800 2784 
C 4813 2701 4819 2656 4928 2656 
C 5056 2656 5056 2707 5056 2835 
L 5056 4326 
C 5056 4435 5056 4506 4954 4506 
C 4896 4506 4883 4480 4838 4422 
L 4486 3936 
C 4115 4307 3610 4506 3085 4506 
C 1664 4506 506 3456 506 2189 
C 506 902 1664 -134 3091 -134 
C 4262 -134 5056 685 5056 1498 
z
" transform="scale(0.015625)"/>
       <path id="LMRoman6-Regular-2b" d="M 5472 1600 
C 5472 1766 5312 1766 5222 1766 
L 3155 1766 
L 3155 3840 
C 3155 3930 3155 4090 2989 4090 
C 2822 4090 2822 3930 2822 3840 
L 2822 1766 
L 755 1766 
C 666 1766 506 1766 506 1600 
C 506 1434 666 1434 755 1434 
L 2822 1434 
L 2822 -640 
C 2822 -730 2822 -890 2989 -890 
C 3155 -890 3155 -730 3155 -640 
L 3155 1434 
L 5222 1434 
C 5312 1434 5472 1434 5472 1600 
z
" transform="scale(0.015625)"/>
       <path id="LMRoman6-Regular-29" d="M 2266 1600 
C 2266 3789 730 4800 608 4800 
C 531 4800 512 4742 512 4710 
C 512 4672 518 4666 634 4563 
C 1210 4070 1805 3123 1805 1600 
C 1805 243 1331 -774 608 -1382 
C 518 -1466 512 -1472 512 -1510 
C 512 -1542 531 -1600 608 -1600 
C 723 -1600 2266 -595 2266 1600 
z
" transform="scale(0.015625)"/>
      </defs>
      <use xlink:href="#LMRoman6-Regular-5a"/>
      <use xlink:href="#LMRoman6-Regular-65" x="74.099991"/>
      <use xlink:href="#LMRoman6-Regular-69" x="128.699982"/>
      <use xlink:href="#LMRoman6-Regular-74" x="163.899979"/>
      <use xlink:href="#LMRoman6-Regular-20" x="211.999969"/>
      <use xlink:href="#LMRoman6-Regular-28" x="253.699966"/>
      <use xlink:href="#LMRoman6-Regular-55" x="301.799957"/>
      <use xlink:href="#LMRoman6-Regular-54" x="391.399948"/>
      <use xlink:href="#LMRoman6-Regular-43" x="478.399933"/>
      <use xlink:href="#LMRoman6-Regular-2b" x="565.399918"/>
      <use xlink:href="#LMRoman6-Regular-31" x="658.899902"/>
      <use xlink:href="#LMRoman6-Regular-29" x="719.999893"/>
     </g>
    </g>
   </g>
   <g id="matplotlib.axis_2">
    <g id="ytick_1">
     <g id="line2d_26">
      <defs>
       <path id="m46c4d5c9ad" d="M 0 0 
L -3.5 0 
" style="stroke: #000000; stroke-width: 0.8"/>
      </defs>
      <g>
       <use xlink:href="#m46c4d5c9ad" x="58.110236" y="104.645612" style="stroke: #000000; stroke-width: 0.8"/>
      </g>
     </g>
     <g id="text_27">
      <!-- −0.1 -->
      <g transform="translate(28.53008 107.768893) scale(0.09 -0.09)">
       <defs>
        <path id="LMRoman6-Regular-2212" d="M 5472 1600 
C 5472 1766 5299 1766 5203 1766 
L 774 1766 
C 678 1766 506 1766 506 1600 
C 506 1434 653 1434 742 1434 
L 5235 1434 
C 5325 1434 5472 1434 5472 1600 
z
" transform="scale(0.015625)"/>
        <path id="LMRoman6-Regular-2e" d="M 1510 384 
C 1510 595 1338 768 1126 768 
C 915 768 742 595 742 384 
C 742 173 915 0 1126 0 
C 1338 0 1510 173 1510 384 
z
" transform="scale(0.015625)"/>
       </defs>
       <use xlink:href="#LMRoman6-Regular-2212"/>
       <use xlink:href="#LMRoman6-Regular-30" x="93.499985"/>
       <use xlink:href="#LMRoman6-Regular-2e" x="154.599976"/>
       <use xlink:href="#LMRoman6-Regular-31" x="189.799973"/>
      </g>
     </g>
    </g>
    <g id="ytick_2">
     <g id="line2d_27">
      <g>
       <use xlink:href="#m46c4d5c9ad" x="58.110236" y="84.61413" style="stroke: #000000; stroke-width: 0.8"/>
      </g>
     </g>
     <g id="text_28">
      <!-- 0.0 -->
      <g transform="translate(36.94508 87.737411) scale(0.09 -0.09)">
       <use xlink:href="#LMRoman6-Regular-30"/>
       <use xlink:href="#LMRoman6-Regular-2e" x="61.099991"/>
       <use xlink:href="#LMRoman6-Regular-30" x="96.299988"/>
      </g>
     </g>
    </g>
    <g id="ytick_3">
     <g id="line2d_28">
      <g>
       <use xlink:href="#m46c4d5c9ad" x="58.110236" y="64.582648" style="stroke: #000000; stroke-width: 0.8"/>
      </g>
     </g>
     <g id="text_29">
      <!-- 0.1 -->
      <g transform="translate(36.94508 67.70593) scale(0.09 -0.09)">
       <use xlink:href="#LMRoman6-Regular-30"/>
       <use xlink:href="#LMRoman6-Regular-2e" x="61.099991"/>
       <use xlink:href="#LMRoman6-Regular-31" x="96.299988"/>
      </g>
     </g>
    </g>
    <g id="ytick_4">
     <g id="line2d_29">
      <g>
       <use xlink:href="#m46c4d5c9ad" x="58.110236" y="44.551167" style="stroke: #000000; stroke-width: 0.8"/>
      </g>
     </g>
     <g id="text_30">
      <!-- 0.2 -->
      <g transform="translate(36.94508 47.674448) scale(0.09 -0.09)">
       <use xlink:href="#LMRoman6-Regular-30"/>
       <use xlink:href="#LMRoman6-Regular-2e" x="61.099991"/>
       <use xlink:href="#LMRoman6-Regular-32" x="96.299988"/>
      </g>
     </g>
    </g>
    <g id="ytick_5">
     <g id="line2d_30">
      <g>
       <use xlink:href="#m46c4d5c9ad" x="58.110236" y="24.519685" style="stroke: #000000; stroke-width: 0.8"/>
      </g>
     </g>
     <g id="text_31">
      <!-- 0.3 -->
      <g transform="translate(36.94508 27.642966) scale(0.09 -0.09)">
       <use xlink:href="#LMRoman6-Regular-30"/>
       <use xlink:href="#LMRoman6-Regular-2e" x="61.099991"/>
       <use xlink:href="#LMRoman6-Regular-33" x="96.299988"/>
      </g>
     </g>
    </g>
    <g id="text_32">
     <!-- Preis in €/kWh -->
     <g transform="translate(22.28008 100.013037) rotate(-90) scale(0.09 -0.09)">
      <defs>
       <path id="LMRoman6-Regular-50" d="M 4730 3155 
C 4730 3821 3942 4371 2989 4371 
L 429 4371 
L 429 4122 
L 595 4122 
C 1107 4122 1107 4045 1107 3834 
L 1107 538 
C 1107 326 1107 250 595 250 
L 429 250 
L 429 0 
L 1427 26 
L 2426 0 
L 2426 250 
L 2259 250 
C 1747 250 1747 326 1747 538 
L 1747 1965 
L 3046 1965 
C 3872 1965 4730 2464 4730 3155 
z
M 4019 3155 
C 4019 2765 3923 2189 2829 2189 
L 1722 2189 
L 1722 3872 
C 1722 4070 1722 4122 2035 4122 
L 2829 4122 
C 3834 4122 4019 3648 4019 3155 
z
" transform="scale(0.015625)"/>
       <path id="LMRoman6-Regular-72" d="M 2778 2400 
C 2778 2656 2534 2822 2253 2822 
C 1869 2822 1542 2592 1344 2163 
L 1338 2163 
L 1338 2822 
L 371 2752 
L 371 2502 
C 819 2502 877 2458 877 2144 
L 877 525 
C 877 250 813 250 371 250 
L 371 0 
C 531 13 1005 26 1146 26 
C 1478 26 1920 6 2010 0 
L 2010 250 
L 1869 250 
C 1389 250 1382 314 1382 531 
L 1382 1434 
C 1382 2029 1690 2605 2259 2618 
C 2202 2560 2176 2483 2176 2400 
C 2176 2227 2304 2099 2477 2099 
C 2650 2099 2778 2227 2778 2400 
z
" transform="scale(0.015625)"/>
       <path id="LMRoman6-Regular-73" d="M 2778 826 
C 2778 1082 2650 1274 2509 1395 
C 2240 1632 1984 1677 1600 1741 
C 1120 1818 691 1894 691 2221 
C 691 2406 864 2669 1530 2669 
C 1978 2669 2317 2502 2355 2048 
C 2362 1965 2368 1914 2470 1914 
C 2592 1914 2592 1971 2592 2093 
L 2592 2675 
C 2592 2784 2592 2854 2490 2854 
C 2458 2854 2445 2854 2349 2778 
C 2336 2765 2330 2758 2234 2682 
C 1990 2848 1664 2854 1536 2854 
C 531 2854 339 2349 339 2061 
C 339 1434 1094 1312 1581 1235 
C 1869 1190 2426 1101 2426 678 
C 2426 429 2234 141 1581 141 
C 966 141 710 499 582 979 
C 563 1037 550 1075 461 1075 
C 339 1075 339 1018 339 890 
L 339 115 
C 339 6 339 -64 442 -64 
C 480 -64 486 -58 608 58 
L 755 211 
C 1069 -64 1453 -64 1581 -64 
C 2528 -64 2778 448 2778 826 
z
" transform="scale(0.015625)"/>
       <path id="LMRoman6-Regular-6e" d="M 4006 0 
L 4006 250 
C 3565 250 3501 250 3501 525 
L 3501 1933 
C 3501 2560 3142 2822 2496 2822 
C 1933 2822 1581 2528 1395 2221 
L 1395 2822 
L 403 2752 
L 403 2502 
C 851 2502 909 2458 909 2144 
L 909 525 
C 909 250 845 250 403 250 
L 403 0 
C 448 6 883 26 1171 26 
C 1459 26 1882 6 1946 0 
L 1946 250 
C 1504 250 1440 250 1440 525 
L 1440 1651 
C 1440 2355 2042 2618 2438 2618 
C 2867 2618 2970 2349 2970 1952 
L 2970 525 
C 2970 250 2906 250 2464 250 
L 2464 0 
C 2509 6 2944 26 3232 26 
C 3520 26 3942 6 4006 0 
z
" transform="scale(0.015625)"/>
       <path id="LMRoman6-Regular-20ac" d="M 4262 3482 
L 4262 4416 
C 4262 4467 4224 4506 4173 4506 
L 4147 4506 
C 4128 4506 4102 4499 4090 4480 
L 3827 4230 
C 3590 4410 3283 4506 2963 4506 
C 2387 4506 1843 4250 1453 3827 
C 1171 3514 979 3130 890 2726 
L 518 2726 
C 480 2726 448 2701 435 2662 
L 410 2586 
C 390 2528 429 2470 493 2470 
L 845 2470 
C 838 2374 832 2278 832 2189 
C 832 2093 838 1997 845 1907 
L 518 1907 
C 480 1907 448 1882 435 1843 
L 410 1766 
C 390 1709 429 1651 493 1651 
L 890 1651 
C 979 1242 1171 858 1453 550 
C 1843 122 2387 -134 2963 -134 
C 3283 -134 3590 -32 3827 147 
L 4090 -109 
C 4102 -122 4128 -134 4147 -134 
L 4173 -134 
C 4224 -134 4262 -96 4262 -45 
L 4262 890 
C 4262 941 4224 979 4173 979 
L 4096 979 
C 4051 979 4013 947 4006 902 
C 3949 442 3526 122 3059 122 
C 2611 122 2195 346 1933 710 
C 1728 986 1626 1312 1581 1651 
L 3462 1651 
C 3501 1651 3533 1670 3546 1709 
L 3578 1818 
C 3590 1862 3539 1907 3488 1907 
L 1555 1907 
C 1549 1997 1549 2093 1549 2189 
C 1549 2278 1549 2374 1555 2470 
L 3738 2470 
C 3776 2470 3808 2490 3821 2528 
L 3853 2637 
C 3866 2682 3814 2726 3763 2726 
L 1581 2726 
C 1626 3066 1728 3392 1933 3667 
C 2195 4026 2611 4250 3059 4250 
C 3526 4250 3949 3930 4006 3469 
C 4013 3424 4051 3392 4096 3392 
L 4173 3392 
C 4224 3392 4262 3430 4262 3482 
z
" transform="scale(0.015625)"/>
       <path id="LMRoman6-Regular-2f" d="M 3398 4634 
C 3398 4730 3322 4800 3232 4800 
C 3168 4800 3104 4774 3053 4646 
L 544 -1299 
C 506 -1389 506 -1434 506 -1434 
C 506 -1530 582 -1600 672 -1600 
C 736 -1600 800 -1574 851 -1446 
L 3360 4499 
C 3398 4589 3398 4634 3398 4634 
z
" transform="scale(0.015625)"/>
       <path id="LMRoman6-Regular-6b" d="M 3898 0 
L 3898 250 
C 3558 250 3469 301 3245 557 
L 2227 1728 
C 2925 2253 3251 2496 3731 2509 
L 3731 2758 
C 3648 2752 3456 2733 3251 2733 
C 2976 2733 2522 2752 2464 2758 
L 2464 2509 
C 2566 2496 2579 2406 2579 2406 
C 2579 2381 2566 2272 2381 2138 
L 1382 1414 
L 1382 4442 
L 371 4371 
L 371 4122 
C 819 4122 877 4077 877 3763 
L 877 525 
C 877 250 813 250 371 250 
L 371 0 
C 544 13 979 26 1120 26 
L 1869 0 
L 1869 250 
C 1427 250 1363 250 1363 525 
L 1363 1107 
L 1850 1459 
L 2566 627 
C 2637 544 2726 448 2726 358 
C 2726 269 2624 250 2554 250 
L 2554 0 
C 2688 13 3136 26 3302 26 
C 3552 26 3840 6 3898 0 
z
" transform="scale(0.015625)"/>
       <path id="LMRoman6-Regular-57" d="M 7565 4122 
L 7565 4371 
C 7418 4358 7123 4346 6931 4346 
C 6630 4346 6170 4365 6099 4371 
L 6099 4122 
C 6490 4115 6650 3949 6650 3802 
C 6650 3776 6650 3757 6618 3674 
L 5517 742 
L 4352 3834 
C 4320 3917 4320 3930 4320 3949 
C 4320 4122 4691 4122 4864 4122 
L 4864 4371 
L 3885 4346 
C 3629 4346 3213 4358 3059 4371 
L 3059 4122 
L 3168 4122 
C 3507 4122 3558 4070 3603 4019 
C 3667 3949 3770 3622 3770 3622 
C 3770 3622 3770 3603 3744 3539 
L 2694 742 
L 1530 3834 
C 1498 3917 1498 3930 1498 3949 
C 1498 4122 1869 4122 2042 4122 
L 2042 4371 
L 1062 4346 
C 806 4346 390 4358 237 4371 
L 237 4122 
L 346 4122 
C 742 4122 787 4064 851 3885 
L 2304 19 
C 2330 -51 2362 -134 2490 -134 
C 2611 -134 2637 -64 2669 13 
L 3898 3283 
L 5126 19 
C 5158 -58 5190 -134 5312 -134 
C 5434 -134 5466 -64 5491 13 
L 6886 3712 
C 6931 3834 7040 4122 7565 4122 
z
" transform="scale(0.015625)"/>
       <path id="LMRoman6-Regular-68" d="M 4006 0 
L 4006 250 
C 3565 250 3501 250 3501 525 
L 3501 1933 
C 3501 2560 3142 2822 2496 2822 
C 1818 2822 1504 2394 1414 2253 
L 1414 4442 
L 403 4371 
L 403 4122 
C 851 4122 909 4077 909 3763 
L 909 525 
C 909 250 845 250 403 250 
L 403 0 
C 448 6 883 26 1171 26 
C 1459 26 1882 6 1946 0 
L 1946 250 
C 1504 250 1440 250 1440 525 
L 1440 1651 
C 1440 2355 2042 2618 2438 2618 
C 2867 2618 2970 2349 2970 1952 
L 2970 525 
C 2970 250 2906 250 2464 250 
L 2464 0 
C 2509 6 2944 26 3232 26 
C 3520 26 3942 6 4006 0 
z
" transform="scale(0.015625)"/>
      </defs>
      <use xlink:href="#LMRoman6-Regular-50"/>
      <use xlink:href="#LMRoman6-Regular-72" x="81.899994"/>
      <use xlink:href="#LMRoman6-Regular-65" x="129.999985"/>
      <use xlink:href="#LMRoman6-Regular-69" x="184.599976"/>
      <use xlink:href="#LMRoman6-Regular-73" x="219.799973"/>
      <use xlink:href="#LMRoman6-Regular-20" x="268.59996"/>
      <use xlink:href="#LMRoman6-Regular-69" x="310.299957"/>
      <use xlink:href="#LMRoman6-Regular-6e" x="345.499954"/>
      <use xlink:href="#LMRoman6-Regular-20" x="413.099945"/>
      <use xlink:href="#LMRoman6-Regular-20ac" x="454.799942"/>
      <use xlink:href="#LMRoman6-Regular-2f" x="527.899933"/>
      <use xlink:href="#LMRoman6-Regular-6b" x="588.999924"/>
      <use xlink:href="#LMRoman6-Regular-57" x="653.399918"/>
      <use xlink:href="#LMRoman6-Regular-68" x="775.399902"/>
     </g>
    </g>
   </g>
   <g id="line2d_31">
    <path d="M 58.110236 55.914376 
L 61.972146 55.914376 
L 62.105315 69.997126 
L 65.967224 69.997126 
L 66.100394 70.912338 
L 69.962303 70.912338 
L 70.095472 84.217689 
L 73.957382 84.217689 
L 74.090551 83.258827 
L 77.952461 83.258827 
L 78.08563 82.168265 
L 81.947539 82.168265 
L 82.080709 81.016746 
L 85.942618 81.016746 
L 86.075787 79.854898 
L 89.937697 79.854898 
L 90.070866 78.720513 
L 93.932776 78.720513 
L 94.065945 77.643492 
L 97.927854 77.643492 
L 98.061024 76.646694 
L 101.922933 76.646694 
L 102.056102 76.998074 
L 105.918012 76.998074 
L 106.051181 77.623689 
L 109.913091 77.623689 
L 110.04626 78.256465 
L 113.908169 78.256465 
L 114.041339 78.891761 
L 117.903248 78.891761 
L 118.036417 79.509478 
L 121.898327 79.509478 
L 122.031496 80.105506 
L 125.893406 80.105506 
L 126.026575 80.70021 
L 129.888484 80.70021 
L 130.021654 81.262263 
L 133.883563 81.262263 
L 134.016732 81.788377 
L 137.878642 81.788377 
L 138.011811 82.176391 
L 141.87372 82.176391 
L 142.140059 82.06007 
L 153.858957 82.034402 
L 154.125295 81.869351 
L 161.849114 81.847417 
L 161.982283 81.641414 
L 169.839272 81.633053 
L 170.10561 81.451352 
L 173.83435 81.451352 
L 173.96752 81.043836 
L 177.829429 81.043836 
L 177.962598 80.258739 
L 181.824508 80.258739 
L 181.957677 79.453439 
L 185.819587 79.453439 
L 185.952756 83.018286 
L 189.814665 83.018286 
L 190.081004 83.129634 
L 193.809744 83.129634 
L 193.942913 83.51649 
L 197.804823 83.51649 
L 197.937992 83.769423 
L 201.799902 83.769423 
L 202.06624 83.951738 
L 209.790059 83.978291 
L 209.923228 84.211451 
L 221.775295 84.183017 
L 222.041634 84.334219 
L 225.770374 84.334219 
L 225.903543 75.90974 
L 229.765453 75.90974 
L 229.898622 76.689364 
L 233.760531 76.689364 
L 234.02687 76.842889 
L 237.75561 76.842889 
L 238.021949 76.956216 
L 241.750689 76.956216 
L 241.883858 76.75098 
L 249.740846 76.7145 
L 249.874016 76.955689 
L 253.735925 76.955689 
L 253.869094 76.530834 
L 261.726083 76.561615 
L 261.992421 76.737337 
L 269.71624 76.655996 
L 269.849409 55.914376 
L 273.711319 55.914376 
L 273.844488 72.64587 
L 277.706398 72.64587 
L 277.839567 78.6412 
L 281.701476 78.6412 
L 281.834646 55.914376 
L 285.696555 55.914376 
L 285.829724 70.202236 
L 289.691634 70.202236 
L 289.824803 78.017581 
L 293.686713 78.017581 
L 293.819882 55.914376 
L 297.681791 55.914376 
L 297.814961 69.954272 
L 301.67687 69.954272 
L 301.810039 55.914376 
L 305.671949 55.914376 
L 305.805118 72.25679 
L 309.667028 72.25679 
L 309.800197 78.868478 
L 313.662106 78.868478 
L 313.795276 57.023013 
L 317.657185 57.023013 
L 317.790354 70.288202 
L 321.652264 70.288202 
L 321.785433 55.914376 
L 325.647343 55.914376 
L 325.780512 72.046072 
L 329.642421 72.046072 
L 329.775591 55.914376 
L 333.6375 55.914376 
L 333.770669 71.959479 
L 337.632579 71.959479 
L 337.765748 78.561748 
L 341.627657 78.561748 
L 341.760827 77.800298 
L 345.622736 77.800298 
L 345.755906 75.795871 
L 349.617815 75.795871 
L 349.750984 76.878044 
L 353.612894 76.878044 
L 353.746063 77.11557 
L 357.607972 77.11557 
L 357.741142 76.674397 
L 365.59813 76.716666 
L 365.731299 76.937719 
L 369.593209 76.937719 
L 369.726378 77.385664 
L 373.588287 77.385664 
L 373.721457 76.10712 
L 377.583366 76.10712 
L 377.716535 76.52752 
L 381.578445 76.52752 
L 381.711614 76.89103 
L 385.573524 76.89103 
L 385.706693 76.605228 
L 389.568602 76.605228 
L 389.701772 76.968965 
L 397.55876 77.001285 
L 397.825098 76.810529 
L 401.553839 76.810529 
L 401.820177 76.693985 
L 409.543996 76.799693 
L 409.810335 76.972062 
L 413.539075 76.972062 
L 413.672244 76.708473 
L 417.534154 76.708473 
L 417.800492 76.840618 
L 421.529232 76.840618 
L 421.795571 76.724105 
L 441.504626 76.808772 
L 441.504626 76.808772 
" clip-path="url(#p032c1a71e5)" style="fill: none; stroke: #000000; stroke-width: 0.9; stroke-linecap: square"/>
   </g>
   <g id="line2d_32"/>
   <g id="line2d_33">
    <path d="M 58.110236 60.314858 
L 61.972146 60.314858 
L 62.105315 84.61413 
L 65.967224 84.61413 
L 66.100394 69.823187 
L 73.957382 69.931559 
L 74.35689 69.980796 
L 77.952461 69.980796 
L 78.08563 84.614955 
L 233.760531 84.631901 
L 233.893701 60.43384 
L 237.75561 60.43384 
L 237.88878 63.09318 
L 241.750689 63.09318 
L 241.883858 84.630477 
L 245.745768 84.630477 
L 245.878937 60.43384 
L 249.740846 60.43384 
L 249.874016 63.09318 
L 261.726083 63.09318 
L 261.859252 74.467616 
L 265.721161 74.467616 
L 265.854331 60.43384 
L 269.71624 60.43384 
L 269.849409 63.09318 
L 281.701476 63.09318 
L 281.834646 72.371413 
L 285.696555 72.371413 
L 285.829724 62.709458 
L 289.691634 62.709458 
L 289.824803 63.09318 
L 293.686713 63.09318 
L 293.819882 72.933366 
L 297.681791 72.933366 
L 297.814961 83.508889 
L 301.67687 83.508889 
L 301.810039 62.709458 
L 305.671949 62.709458 
L 305.805118 63.09318 
L 309.667028 63.09318 
L 309.800197 84.625245 
L 317.657185 84.631771 
L 317.790354 63.09318 
L 325.647343 63.09318 
L 325.780512 76.974457 
L 329.642421 76.974457 
L 329.775591 60.43384 
L 333.6375 60.43384 
L 333.770669 55.699068 
L 349.617815 55.65166 
L 349.750984 51.068377 
L 361.603051 51.033234 
L 361.73622 24.519685 
L 365.59813 24.519685 
L 365.731299 56.308044 
L 369.593209 56.308044 
L 369.726378 49.532455 
L 385.573524 49.476864 
L 385.706693 24.519685 
L 389.568602 24.519685 
L 389.701772 48.069569 
L 393.563681 48.069569 
L 393.69685 24.519685 
L 397.55876 24.519685 
L 397.691929 55.541401 
L 401.553839 55.541401 
L 401.687008 48.069569 
L 405.548917 48.069569 
L 405.682087 24.519685 
L 409.543996 24.519685 
L 409.677165 55.63284 
L 413.539075 55.63284 
L 413.672244 24.519685 
L 417.534154 24.519685 
L 417.667323 48.069569 
L 421.529232 48.069569 
L 421.662402 24.519685 
L 425.524311 24.519685 
L 425.65748 48.069569 
L 429.51939 48.069569 
L 429.652559 24.519685 
L 433.514469 24.519685 
L 433.647638 48.069569 
L 437.509547 48.069569 
L 437.642717 24.519685 
L 441.504626 24.519685 
L 441.504626 24.519685 
" clip-path="url(#p032c1a71e5)" style="fill: none; stroke-dasharray: 3.33,1.44; stroke-dashoffset: 0; stroke: #000000; stroke-width: 0.9"/>
   </g>
   <g id="line2d_34"/>
   <g id="line2d_35">
    <path d="M 58.110236 99.637741 
L 69.962303 99.53186 
L 70.228642 99.453499 
L 77.952461 99.38162 
L 78.351969 99.338932 
L 189.814665 99.324008 
L 189.947835 84.67668 
L 193.809744 84.67668 
L 193.942913 86.629006 
L 197.804823 86.629006 
L 197.937992 87.941442 
L 201.799902 87.941442 
L 201.933071 89.192268 
L 205.79498 89.192268 
L 205.92815 90.348229 
L 209.790059 90.348229 
L 209.923228 91.389786 
L 213.785138 91.389786 
L 213.918307 92.315051 
L 217.780217 92.315051 
L 217.913386 93.1312 
L 221.775295 93.1312 
L 221.908465 93.825976 
L 225.770374 93.825976 
L 225.903543 94.210201 
L 233.760531 94.314463 
L 235.092224 94.326303 
L 265.721161 94.415615 
L 265.9875 94.487385 
L 273.711319 94.569716 
L 273.977657 94.659589 
L 277.706398 94.659589 
L 277.839567 92.469298 
L 281.701476 92.469298 
L 281.834646 88.562879 
L 285.696555 88.562879 
L 285.829724 89.181465 
L 289.691634 89.181465 
L 289.824803 87.764383 
L 293.686713 87.764383 
L 293.819882 87.146049 
L 297.681791 87.146049 
L 297.814961 99.637795 
L 329.642421 99.637709 
L 329.775591 85.258165 
L 333.6375 85.258165 
L 333.770669 99.637719 
L 389.568602 99.637714 
L 389.701772 84.614156 
L 429.51939 84.698097 
L 429.785728 84.762782 
L 437.509547 84.87009 
L 437.775886 85.034747 
L 441.504626 85.034747 
L 441.504626 85.034747 
" clip-path="url(#p032c1a71e5)" style="fill: none; stroke-dasharray: 5.76,1.44,0.9,1.44; stroke-dashoffset: 0; stroke: #000000; stroke-width: 0.9"/>
   </g>
   <g id="line2d_36"/>
   <g id="patch_3">
    <path d="M 58.110236 107.149606 
L 58.110236 17.007874 
" style="fill: none; stroke: #000000; stroke-width: 0.8; stroke-linejoin: miter; stroke-linecap: square"/>
   </g>
   <g id="patch_4">
    <path d="M 58.110236 107.149606 
L 441.637795 107.149606 
" style="fill: none; stroke: #000000; stroke-width: 0.8; stroke-linejoin: miter; stroke-linecap: square"/>
   </g>
   <g id="text_33">
    <!-- Markträumungspreis | 0.25 h - Ausführung in: 0.0 h -->
    <g transform="translate(99.037672 11.007874) scale(0.108 -0.108)">
     <defs>
      <path id="LMRoman6-Regular-4d" d="M 6522 0 
L 6522 250 
L 6355 250 
C 5843 250 5843 326 5843 538 
L 5843 3834 
C 5843 4045 5843 4122 6355 4122 
L 6522 4122 
L 6522 4371 
L 5363 4371 
C 5222 4371 5165 4371 5101 4224 
L 3488 608 
L 1875 4224 
C 1811 4371 1754 4371 1613 4371 
L 454 4371 
L 454 4122 
L 621 4122 
C 1133 4122 1133 4045 1133 3834 
L 1133 704 
C 1133 538 1133 250 454 250 
L 454 0 
C 576 6 992 26 1261 26 
C 1555 26 1958 6 2074 0 
L 2074 250 
C 1395 250 1395 538 1395 704 
L 1395 4064 
L 1402 4064 
L 3149 147 
C 3168 96 3213 0 3322 0 
C 3430 0 3475 102 3494 147 
L 5267 4122 
L 5274 4122 
L 5274 538 
C 5274 326 5274 250 4762 250 
L 4595 250 
L 4595 0 
L 5555 26 
L 6522 0 
z
" transform="scale(0.015625)"/>
      <path id="LMRoman6-Regular-61" d="M 3712 576 
L 3712 928 
L 3475 928 
L 3475 589 
C 3475 525 3475 237 3226 237 
C 2976 237 2976 525 2976 589 
L 2976 1907 
C 2976 2502 2368 2854 1651 2854 
C 1344 2854 589 2822 589 2285 
C 589 2112 704 1971 902 1971 
C 1088 1971 1210 2112 1210 2278 
C 1210 2394 1158 2502 1043 2554 
C 1254 2650 1574 2650 1638 2650 
C 2093 2650 2445 2381 2445 1894 
L 2445 1728 
C 2150 1715 1638 1702 1171 1536 
C 749 1389 346 1101 346 672 
C 346 102 1024 -64 1523 -64 
C 2061 -64 2381 205 2522 448 
C 2566 115 2778 -32 3002 -32 
C 3027 -32 3712 -32 3712 576 
z
M 2445 909 
C 2445 243 1786 141 1581 141 
C 1235 141 909 352 909 672 
C 909 1030 1254 1498 2445 1536 
L 2445 909 
z
" transform="scale(0.015625)"/>
      <path id="LMRoman6-Regular-e4" d="M 3712 576 
L 3712 928 
L 3475 928 
L 3475 589 
C 3475 525 3475 237 3226 237 
C 2976 237 2976 525 2976 589 
L 2976 1907 
C 2976 2502 2368 2854 1651 2854 
C 1344 2854 589 2822 589 2285 
C 589 2112 704 1971 902 1971 
C 1088 1971 1210 2112 1210 2278 
C 1210 2394 1158 2502 1043 2554 
C 1254 2650 1574 2650 1638 2650 
C 2093 2650 2445 2381 2445 1894 
L 2445 1728 
C 2150 1715 1638 1702 1171 1536 
C 749 1389 346 1101 346 672 
C 346 102 1024 -64 1523 -64 
C 2061 -64 2381 205 2522 448 
C 2566 115 2778 -32 3002 -32 
C 3027 -32 3712 -32 3712 576 
z
M 2445 909 
C 2445 243 1786 141 1581 141 
C 1235 141 909 352 909 672 
C 909 1030 1254 1498 2445 1536 
L 2445 909 
z
M 1670 3846 
C 1670 4032 1523 4192 1325 4192 
C 1114 4192 973 4013 973 3846 
C 973 3661 1126 3501 1318 3501 
C 1536 3501 1670 3680 1670 3846 
z
M 2944 3846 
C 2944 4032 2797 4192 2598 4192 
C 2387 4192 2246 4013 2246 3846 
C 2246 3661 2400 3501 2592 3501 
C 2810 3501 2944 3680 2944 3846 
z
" transform="scale(0.015625)"/>
      <path id="LMRoman6-Regular-75" d="M 4006 0 
L 4006 250 
C 3558 250 3501 294 3501 608 
L 3501 2822 
L 2464 2752 
L 2464 2502 
C 2912 2502 2970 2458 2970 2144 
L 2970 1075 
C 2970 493 2566 141 2074 141 
C 1466 141 1440 410 1440 723 
L 1440 2822 
L 403 2752 
L 403 2502 
C 909 2502 909 2445 909 2067 
L 909 1069 
C 909 634 909 352 1197 141 
C 1440 -38 1760 -64 2029 -64 
C 2432 -64 2771 96 2995 461 
L 2995 -64 
L 4006 0 
z
" transform="scale(0.015625)"/>
      <path id="LMRoman6-Regular-6d" d="M 6080 0 
L 6080 250 
C 5638 250 5574 250 5574 525 
L 5574 1933 
C 5574 2586 5190 2822 4563 2822 
C 3968 2822 3616 2483 3475 2240 
C 3328 2822 2675 2822 2496 2822 
C 1914 2822 1555 2502 1402 2234 
L 1395 2234 
L 1395 2822 
L 403 2752 
L 403 2502 
C 851 2502 909 2458 909 2144 
L 909 525 
C 909 250 845 250 403 250 
L 403 0 
C 448 6 883 26 1171 26 
C 1459 26 1882 6 1946 0 
L 1946 250 
C 1504 250 1440 250 1440 525 
L 1440 1651 
C 1440 2355 2048 2618 2438 2618 
C 2880 2618 2976 2342 2976 1946 
L 2976 525 
C 2976 250 2912 250 2470 250 
L 2470 0 
C 2515 6 2950 26 3238 26 
C 3526 26 3949 6 4013 0 
L 4013 250 
C 3571 250 3507 250 3507 525 
L 3507 1651 
C 3507 2355 4115 2618 4506 2618 
C 4947 2618 5043 2342 5043 1946 
L 5043 525 
C 5043 250 4979 250 4538 250 
L 4538 0 
C 4582 6 5018 26 5306 26 
C 5594 26 6016 6 6080 0 
z
" transform="scale(0.015625)"/>
      <path id="LMRoman6-Regular-67" d="M 3712 2554 
C 3712 2694 3590 2893 3309 2893 
C 3040 2893 2746 2784 2522 2598 
C 2310 2746 2022 2822 1747 2822 
C 1056 2822 544 2381 544 1875 
C 544 1677 627 1446 858 1235 
C 717 1056 672 877 672 723 
C 672 371 896 179 934 147 
C 685 77 294 -128 294 -486 
C 294 -979 1069 -1312 1952 -1312 
C 2771 -1312 3610 -1018 3610 -474 
C 3610 -314 3558 96 3046 307 
C 2682 461 2317 461 1715 461 
C 1562 461 1312 461 1261 474 
C 1094 499 934 659 934 883 
C 934 1018 998 1107 1011 1126 
C 1165 1037 1421 934 1741 934 
C 2451 934 2944 1389 2944 1875 
C 2944 2234 2682 2470 2669 2483 
C 2957 2675 3232 2688 3328 2688 
C 3309 2662 3283 2637 3283 2547 
C 3283 2432 3366 2336 3494 2336 
C 3635 2336 3712 2438 3712 2554 
z
M 2406 1882 
C 2406 1760 2406 1146 1747 1146 
C 1216 1146 1082 1536 1082 1875 
C 1082 1997 1082 2611 1741 2611 
C 2310 2611 2406 2163 2406 1882 
z
M 3194 -486 
C 3194 -800 2669 -1101 1952 -1101 
C 1261 -1101 710 -813 710 -480 
C 710 -320 858 6 1395 6 
L 2106 6 
C 2304 6 3194 -6 3194 -486 
z
" transform="scale(0.015625)"/>
      <path id="LMRoman6-Regular-70" d="M 3974 1382 
C 3974 2157 3302 2822 2419 2822 
C 1837 2822 1478 2534 1382 2445 
L 1382 2822 
L 371 2752 
L 371 2502 
C 806 2502 877 2502 877 2208 
L 877 -717 
C 877 -992 813 -992 371 -992 
L 371 -1242 
C 416 -1235 851 -1216 1139 -1216 
C 1427 -1216 1850 -1235 1914 -1242 
L 1914 -992 
C 1472 -992 1408 -992 1408 -717 
L 1408 307 
C 1670 58 1971 -64 2323 -64 
C 3213 -64 3974 570 3974 1382 
z
M 3366 1382 
C 3366 666 2854 141 2285 141 
C 1792 141 1504 493 1408 678 
L 1408 2118 
C 1626 2419 1978 2598 2355 2598 
C 2938 2598 3366 2035 3366 1382 
z
" transform="scale(0.015625)"/>
      <path id="LMRoman6-Regular-7c" d="M 1382 -1350 
L 1382 4550 
C 1382 4640 1382 4800 1216 4800 
C 1050 4800 1050 4640 1050 4550 
L 1050 -1350 
C 1050 -1440 1050 -1600 1216 -1600 
C 1382 -1600 1382 -1440 1382 -1350 
z
" transform="scale(0.015625)"/>
      <path id="LMRoman6-Regular-2d" d="M 2157 1152 
L 2157 1606 
L 173 1606 
L 173 1152 
L 2157 1152 
z
" transform="scale(0.015625)"/>
      <path id="LMRoman6-Regular-41" d="M 5382 0 
L 5382 250 
L 5242 250 
C 4800 250 4755 320 4685 493 
L 3066 4416 
C 3014 4544 2957 4570 2867 4570 
C 2733 4570 2707 4512 2669 4416 
L 1120 666 
C 986 339 691 250 346 250 
L 346 0 
C 576 26 806 26 1037 26 
C 1286 26 1722 6 1830 0 
L 1830 250 
C 1498 250 1357 410 1357 550 
C 1357 589 1370 608 1395 678 
L 1709 1440 
L 3622 1440 
L 4006 518 
C 4019 493 4038 448 4038 422 
C 4038 250 3674 250 3501 250 
L 3501 0 
L 4493 26 
L 5382 0 
z
M 3520 1690 
L 1811 1690 
L 2669 3763 
L 3520 1690 
z
" transform="scale(0.015625)"/>
      <path id="LMRoman6-Regular-66" d="M 2701 4032 
C 2701 4314 2426 4506 2042 4506 
C 1523 4506 922 4147 922 3462 
L 922 2758 
L 333 2758 
L 333 2509 
L 922 2509 
L 922 525 
C 922 250 858 250 416 250 
L 416 0 
C 576 13 1050 26 1190 26 
C 1523 26 1965 6 2054 0 
L 2054 250 
L 1914 250 
C 1434 250 1427 314 1427 531 
L 1427 2509 
L 2266 2509 
L 2266 2758 
L 1402 2758 
L 1402 3456 
C 1402 4051 1766 4301 2035 4301 
C 2118 4301 2189 4282 2214 4275 
C 2170 4243 2099 4192 2099 4032 
C 2099 3866 2214 3731 2400 3731 
C 2586 3731 2701 3866 2701 4032 
z
" transform="scale(0.015625)"/>
      <path id="LMRoman6-Regular-fc" d="M 4006 0 
L 4006 250 
C 3558 250 3501 294 3501 608 
L 3501 2822 
L 2464 2752 
L 2464 2502 
C 2912 2502 2970 2458 2970 2144 
L 2970 1075 
C 2970 493 2566 141 2074 141 
C 1466 141 1440 410 1440 723 
L 1440 2822 
L 403 2752 
L 403 2502 
C 909 2502 909 2445 909 2067 
L 909 1069 
C 909 634 909 352 1197 141 
C 1440 -38 1760 -64 2029 -64 
C 2432 -64 2771 96 2995 461 
L 2995 -64 
L 4006 0 
z
M 1875 3846 
C 1875 4032 1728 4192 1530 4192 
C 1318 4192 1178 4013 1178 3846 
C 1178 3661 1331 3501 1523 3501 
C 1741 3501 1875 3680 1875 3846 
z
M 3149 3846 
C 3149 4032 3002 4192 2803 4192 
C 2592 4192 2451 4013 2451 3846 
C 2451 3661 2605 3501 2797 3501 
C 3014 3501 3149 3680 3149 3846 
z
" transform="scale(0.015625)"/>
     </defs>
     <use xlink:href="#LMRoman6-Regular-4d"/>
     <use xlink:href="#LMRoman6-Regular-61" x="109.099991"/>
     <use xlink:href="#LMRoman6-Regular-72" x="170.199982"/>
     <use xlink:href="#LMRoman6-Regular-6b" x="218.299973"/>
     <use xlink:href="#LMRoman6-Regular-74" x="282.699966"/>
     <use xlink:href="#LMRoman6-Regular-72" x="330.799957"/>
     <use xlink:href="#LMRoman6-Regular-e4" x="378.899948"/>
     <use xlink:href="#LMRoman6-Regular-75" x="439.999939"/>
     <use xlink:href="#LMRoman6-Regular-6d" x="507.59993"/>
     <use xlink:href="#LMRoman6-Regular-75" x="607.599915"/>
     <use xlink:href="#LMRoman6-Regular-6e" x="675.199905"/>
     <use xlink:href="#LMRoman6-Regular-67" x="742.799896"/>
     <use xlink:href="#LMRoman6-Regular-73" x="803.899887"/>
     <use xlink:href="#LMRoman6-Regular-70" x="852.699875"/>
     <use xlink:href="#LMRoman6-Regular-72" x="920.299866"/>
     <use xlink:href="#LMRoman6-Regular-65" x="968.399857"/>
     <use xlink:href="#LMRoman6-Regular-69" x="1022.999847"/>
     <use xlink:href="#LMRoman6-Regular-73" x="1058.199844"/>
     <use xlink:href="#LMRoman6-Regular-20" x="1106.999832"/>
     <use xlink:href="#LMRoman6-Regular-7c" x="1148.699829"/>
     <use xlink:href="#LMRoman6-Regular-20" x="1186.699814"/>
     <use xlink:href="#LMRoman6-Regular-30" x="1228.399811"/>
     <use xlink:href="#LMRoman6-Regular-2e" x="1289.499802"/>
     <use xlink:href="#LMRoman6-Regular-32" x="1324.699799"/>
     <use xlink:href="#LMRoman6-Regular-35" x="1385.799789"/>
     <use xlink:href="#LMRoman6-Regular-20" x="1446.89978"/>
     <use xlink:href="#LMRoman6-Regular-68" x="1488.599777"/>
     <use xlink:href="#LMRoman6-Regular-20" x="1556.199768"/>
     <use xlink:href="#LMRoman6-Regular-2d" x="1597.899765"/>
     <use xlink:href="#LMRoman6-Regular-20" x="1639.599762"/>
     <use xlink:href="#LMRoman6-Regular-41" x="1681.299759"/>
     <use xlink:href="#LMRoman6-Regular-75" x="1770.89975"/>
     <use xlink:href="#LMRoman6-Regular-73" x="1838.499741"/>
     <use xlink:href="#LMRoman6-Regular-66" x="1887.299728"/>
     <use xlink:href="#LMRoman6-Regular-fc" x="1925.699722"/>
     <use xlink:href="#LMRoman6-Regular-68" x="1993.299713"/>
     <use xlink:href="#LMRoman6-Regular-72" x="2060.899704"/>
     <use xlink:href="#LMRoman6-Regular-75" x="2108.999695"/>
     <use xlink:href="#LMRoman6-Regular-6e" x="2176.599686"/>
     <use xlink:href="#LMRoman6-Regular-67" x="2244.199677"/>
     <use xlink:href="#LMRoman6-Regular-20" x="2305.299667"/>
     <use xlink:href="#LMRoman6-Regular-69" x="2346.999664"/>
     <use xlink:href="#LMRoman6-Regular-6e" x="2382.199661"/>
     <use xlink:href="#LMRoman6-Regular-3a" x="2449.799652"/>
     <use xlink:href="#LMRoman6-Regular-20" x="2484.999649"/>
     <use xlink:href="#LMRoman6-Regular-30" x="2526.699646"/>
     <use xlink:href="#LMRoman6-Regular-2e" x="2587.799637"/>
     <use xlink:href="#LMRoman6-Regular-30" x="2622.999634"/>
     <use xlink:href="#LMRoman6-Regular-20" x="2684.099625"/>
     <use xlink:href="#LMRoman6-Regular-68" x="2725.799622"/>
    </g>
   </g>
  </g>
  <g id="legend_1">
   <g id="line2d_37">
    <path d="M 137.312351 157.082178 
L 146.312351 157.082178 
L 155.312351 157.082178 
" style="fill: none; stroke: #000000; stroke-width: 0.9; stroke-linecap: square"/>
   </g>
   <g id="text_34">
    <!-- HNHT -->
    <g transform="translate(162.512351 160.232178) scale(0.09 -0.09)">
     <defs>
      <path id="LMRoman6-Regular-48" d="M 5312 0 
L 5312 250 
L 5146 250 
C 4634 250 4634 326 4634 538 
L 4634 3834 
C 4634 4045 4634 4122 5146 4122 
L 5312 4122 
L 5312 4371 
L 4314 4346 
L 3315 4371 
L 3315 4122 
L 3482 4122 
C 3994 4122 3994 4045 3994 3834 
L 3994 2400 
L 1734 2400 
L 1734 3834 
C 1734 4045 1734 4122 2246 4122 
L 2413 4122 
L 2413 4371 
L 1414 4346 
L 416 4371 
L 416 4122 
L 582 4122 
C 1094 4122 1094 4045 1094 3834 
L 1094 538 
C 1094 326 1094 250 582 250 
L 416 250 
L 416 0 
L 1414 26 
L 2413 0 
L 2413 250 
L 2246 250 
C 1734 250 1734 326 1734 538 
L 1734 2150 
L 3994 2150 
L 3994 538 
C 3994 326 3994 250 3482 250 
L 3315 250 
L 3315 0 
L 4314 26 
L 5312 0 
z
" transform="scale(0.015625)"/>
      <path id="LMRoman6-Regular-4e" d="M 5312 4122 
L 5312 4371 
C 5190 4365 4774 4346 4506 4346 
C 4211 4346 3808 4365 3693 4371 
L 3693 4122 
C 4371 4122 4371 3834 4371 3667 
L 4371 986 
L 1779 4282 
C 1709 4365 1702 4371 1568 4371 
L 416 4371 
L 416 4122 
L 621 4122 
C 768 4122 928 4122 1050 4090 
C 1088 4083 1094 4077 1094 3968 
L 1094 704 
C 1094 538 1094 250 416 250 
L 416 0 
C 538 6 954 26 1222 26 
C 1517 26 1920 6 2035 0 
L 2035 250 
C 1357 250 1357 538 1357 704 
L 1357 3898 
L 4365 77 
C 4416 13 4422 0 4499 0 
C 4634 0 4634 64 4634 192 
L 4634 3667 
C 4634 3834 4634 4122 5312 4122 
z
" transform="scale(0.015625)"/>
     </defs>
     <use xlink:href="#LMRoman6-Regular-48"/>
     <use xlink:href="#LMRoman6-Regular-4e" x="89.599991"/>
     <use xlink:href="#LMRoman6-Regular-48" x="179.199982"/>
     <use xlink:href="#LMRoman6-Regular-54" x="268.799973"/>
    </g>
   </g>
   <g id="line2d_38">
    <path d="M 212.532664 157.082178 
L 221.532664 157.082178 
L 230.532664 157.082178 
" style="fill: none; stroke-dasharray: 3.33,1.44; stroke-dashoffset: 0; stroke: #000000; stroke-width: 0.9"/>
   </g>
   <g id="text_35">
    <!-- HNLT -->
    <g transform="translate(237.732664 160.232178) scale(0.09 -0.09)">
     <defs>
      <path id="LMRoman6-Regular-4c" d="M 4416 1702 
L 4179 1702 
C 4102 928 3904 250 2746 250 
L 2048 250 
C 1734 250 1734 301 1734 499 
L 1734 3834 
C 1734 4045 1734 4122 2349 4122 
L 2586 4122 
L 2586 4371 
C 2246 4346 1779 4346 1434 4346 
L 416 4371 
L 416 4122 
L 582 4122 
C 1094 4122 1094 4045 1094 3834 
L 1094 538 
C 1094 326 1094 250 582 250 
L 416 250 
L 416 0 
L 4218 0 
L 4416 1702 
z
" transform="scale(0.015625)"/>
     </defs>
     <use xlink:href="#LMRoman6-Regular-48"/>
     <use xlink:href="#LMRoman6-Regular-4e" x="89.599991"/>
     <use xlink:href="#LMRoman6-Regular-4c" x="179.199982"/>
     <use xlink:href="#LMRoman6-Regular-54" x="254.599976"/>
    </g>
   </g>
   <g id="line2d_39">
    <path d="M 286.476101 157.082178 
L 295.476101 157.082178 
L 304.476101 157.082178 
" style="fill: none; stroke-dasharray: 5.76,1.44,0.9,1.44; stroke-dashoffset: 0; stroke: #000000; stroke-width: 0.9"/>
   </g>
   <g id="text_36">
    <!-- CN -->
    <g transform="translate(311.676101 160.232178) scale(0.09 -0.09)">
     <use xlink:href="#LMRoman6-Regular-43"/>
     <use xlink:href="#LMRoman6-Regular-4e" x="86.999985"/>
    </g>
   </g>
  </g>
 </g>
 <defs>
  <clipPath id="p032c1a71e5">
   <rect x="58.110236" y="17.007874" width="383.527559" height="90.141732"/>
  </clipPath>
 </defs>
</svg>
