<?xml version="1.0" encoding="utf-8" standalone="no"?>
<!DOCTYPE svg PUBLIC "-//W3C//DTD SVG 1.1//EN"
  "http://www.w3.org/Graphics/SVG/1.1/DTD/svg11.dtd">
<svg xmlns:xlink="http://www.w3.org/1999/xlink" width="464.88189pt" height="226.771654pt" viewBox="0 0 464.88189 226.771654" xmlns="http://www.w3.org/2000/svg" version="1.1">
 <metadata>
  <rdf:RDF xmlns:dc="http://purl.org/dc/elements/1.1/" xmlns:cc="http://creativecommons.org/ns#" xmlns:rdf="http://www.w3.org/1999/02/22-rdf-syntax-ns#">
   <cc:Work>
    <dc:type rdf:resource="http://purl.org/dc/dcmitype/StillImage"/>
    <dc:date>2024-09-20T13:58:45.210259</dc:date>
    <dc:format>image/svg+xml</dc:format>
    <dc:creator>
     <cc:Agent>
      <dc:title>Matplotlib v3.8.2, https://matplotlib.org/</dc:title>
     </cc:Agent>
    </dc:creator>
   </cc:Work>
  </rdf:RDF>
 </metadata>
 <defs>
  <style type="text/css">*{stroke-linejoin: round; stroke-linecap: butt}</style>
 </defs>
 <g id="figure_1">
  <g id="patch_1">
   <path d="M 0 226.771654 
L 464.88189 226.771654 
L 464.88189 0 
L 0 0 
z
" style="fill: #ffffff"/>
  </g>
  <g id="axes_1">
   <g id="patch_2">
    <path d="M 58.110236 222.23622 
L 453.259843 222.23622 
L 453.259843 6.80315 
L 58.110236 6.80315 
z
" style="fill: #ffffff"/>
   </g>
   <g id="matplotlib.axis_1">
    <g id="xtick_1">
     <g id="line2d_1">
      <defs>
       <path id="m186b4a03d1" d="M 0 0 
L 0 3.5 
" style="stroke: #000000; stroke-width: 0.8"/>
      </defs>
      <g>
       <use xlink:href="#m186b4a03d1" x="58.110236" y="222.23622" style="stroke: #000000; stroke-width: 0.8"/>
      </g>
     </g>
    </g>
    <g id="xtick_2">
     <g id="line2d_2">
      <g>
       <use xlink:href="#m186b4a03d1" x="74.574803" y="222.23622" style="stroke: #000000; stroke-width: 0.8"/>
      </g>
     </g>
    </g>
    <g id="xtick_3">
     <g id="line2d_3">
      <g>
       <use xlink:href="#m186b4a03d1" x="91.03937" y="222.23622" style="stroke: #000000; stroke-width: 0.8"/>
      </g>
     </g>
    </g>
    <g id="xtick_4">
     <g id="line2d_4">
      <g>
       <use xlink:href="#m186b4a03d1" x="107.503937" y="222.23622" style="stroke: #000000; stroke-width: 0.8"/>
      </g>
     </g>
    </g>
    <g id="xtick_5">
     <g id="line2d_5">
      <g>
       <use xlink:href="#m186b4a03d1" x="123.968504" y="222.23622" style="stroke: #000000; stroke-width: 0.8"/>
      </g>
     </g>
    </g>
    <g id="xtick_6">
     <g id="line2d_6">
      <g>
       <use xlink:href="#m186b4a03d1" x="140.433071" y="222.23622" style="stroke: #000000; stroke-width: 0.8"/>
      </g>
     </g>
    </g>
    <g id="xtick_7">
     <g id="line2d_7">
      <g>
       <use xlink:href="#m186b4a03d1" x="156.897638" y="222.23622" style="stroke: #000000; stroke-width: 0.8"/>
      </g>
     </g>
    </g>
    <g id="xtick_8">
     <g id="line2d_8">
      <g>
       <use xlink:href="#m186b4a03d1" x="173.362205" y="222.23622" style="stroke: #000000; stroke-width: 0.8"/>
      </g>
     </g>
    </g>
    <g id="xtick_9">
     <g id="line2d_9">
      <g>
       <use xlink:href="#m186b4a03d1" x="189.826772" y="222.23622" style="stroke: #000000; stroke-width: 0.8"/>
      </g>
     </g>
    </g>
    <g id="xtick_10">
     <g id="line2d_10">
      <g>
       <use xlink:href="#m186b4a03d1" x="206.291339" y="222.23622" style="stroke: #000000; stroke-width: 0.8"/>
      </g>
     </g>
    </g>
    <g id="xtick_11">
     <g id="line2d_11">
      <g>
       <use xlink:href="#m186b4a03d1" x="222.755906" y="222.23622" style="stroke: #000000; stroke-width: 0.8"/>
      </g>
     </g>
    </g>
    <g id="xtick_12">
     <g id="line2d_12">
      <g>
       <use xlink:href="#m186b4a03d1" x="239.220472" y="222.23622" style="stroke: #000000; stroke-width: 0.8"/>
      </g>
     </g>
    </g>
    <g id="xtick_13">
     <g id="line2d_13">
      <g>
       <use xlink:href="#m186b4a03d1" x="255.685039" y="222.23622" style="stroke: #000000; stroke-width: 0.8"/>
      </g>
     </g>
    </g>
    <g id="xtick_14">
     <g id="line2d_14">
      <g>
       <use xlink:href="#m186b4a03d1" x="272.149606" y="222.23622" style="stroke: #000000; stroke-width: 0.8"/>
      </g>
     </g>
    </g>
    <g id="xtick_15">
     <g id="line2d_15">
      <g>
       <use xlink:href="#m186b4a03d1" x="288.614173" y="222.23622" style="stroke: #000000; stroke-width: 0.8"/>
      </g>
     </g>
    </g>
    <g id="xtick_16">
     <g id="line2d_16">
      <g>
       <use xlink:href="#m186b4a03d1" x="305.07874" y="222.23622" style="stroke: #000000; stroke-width: 0.8"/>
      </g>
     </g>
    </g>
    <g id="xtick_17">
     <g id="line2d_17">
      <g>
       <use xlink:href="#m186b4a03d1" x="321.543307" y="222.23622" style="stroke: #000000; stroke-width: 0.8"/>
      </g>
     </g>
    </g>
    <g id="xtick_18">
     <g id="line2d_18">
      <g>
       <use xlink:href="#m186b4a03d1" x="338.007874" y="222.23622" style="stroke: #000000; stroke-width: 0.8"/>
      </g>
     </g>
    </g>
    <g id="xtick_19">
     <g id="line2d_19">
      <g>
       <use xlink:href="#m186b4a03d1" x="354.472441" y="222.23622" style="stroke: #000000; stroke-width: 0.8"/>
      </g>
     </g>
    </g>
    <g id="xtick_20">
     <g id="line2d_20">
      <g>
       <use xlink:href="#m186b4a03d1" x="370.937008" y="222.23622" style="stroke: #000000; stroke-width: 0.8"/>
      </g>
     </g>
    </g>
    <g id="xtick_21">
     <g id="line2d_21">
      <g>
       <use xlink:href="#m186b4a03d1" x="387.401575" y="222.23622" style="stroke: #000000; stroke-width: 0.8"/>
      </g>
     </g>
    </g>
    <g id="xtick_22">
     <g id="line2d_22">
      <g>
       <use xlink:href="#m186b4a03d1" x="403.866142" y="222.23622" style="stroke: #000000; stroke-width: 0.8"/>
      </g>
     </g>
    </g>
    <g id="xtick_23">
     <g id="line2d_23">
      <g>
       <use xlink:href="#m186b4a03d1" x="420.330709" y="222.23622" style="stroke: #000000; stroke-width: 0.8"/>
      </g>
     </g>
    </g>
    <g id="xtick_24">
     <g id="line2d_24">
      <g>
       <use xlink:href="#m186b4a03d1" x="436.795276" y="222.23622" style="stroke: #000000; stroke-width: 0.8"/>
      </g>
     </g>
    </g>
    <g id="xtick_25">
     <g id="line2d_25">
      <g>
       <use xlink:href="#m186b4a03d1" x="453.259843" y="222.23622" style="stroke: #000000; stroke-width: 0.8"/>
      </g>
     </g>
    </g>
   </g>
   <g id="matplotlib.axis_2">
    <g id="ytick_1">
     <g id="line2d_26">
      <defs>
       <path id="md2f384dfdc" d="M 0 0 
L -3.5 0 
" style="stroke: #000000; stroke-width: 0.8"/>
      </defs>
      <g>
       <use xlink:href="#md2f384dfdc" x="58.110236" y="209.563687" style="stroke: #000000; stroke-width: 0.8"/>
      </g>
     </g>
     <g id="text_1">
      <!-- 0 -->
      <g transform="translate(45.611799 212.686968) scale(0.09 -0.09)">
       <defs>
        <path id="LMRoman6-Regular-30" d="M 3520 2042 
C 3520 2509 3520 4256 1952 4256 
C 384 4256 384 2509 384 2042 
C 384 1581 384 -134 1952 -134 
C 3520 -134 3520 1581 3520 2042 
z
M 2912 2125 
C 2912 1715 2912 1069 2803 710 
C 2624 154 2163 70 1952 70 
C 1683 70 1248 198 1094 730 
C 992 1101 992 1728 992 2125 
C 992 2554 992 3046 1082 3392 
C 1242 3968 1728 4051 1952 4051 
C 2246 4051 2669 3910 2810 3424 
C 2906 3085 2912 2618 2912 2125 
z
" transform="scale(0.015625)"/>
       </defs>
       <use xlink:href="#LMRoman6-Regular-30"/>
      </g>
     </g>
    </g>
    <g id="ytick_2">
     <g id="line2d_27">
      <g>
       <use xlink:href="#md2f384dfdc" x="58.110236" y="184.21862" style="stroke: #000000; stroke-width: 0.8"/>
      </g>
     </g>
     <g id="text_2">
      <!-- 10 -->
      <g transform="translate(40.113361 187.341901) scale(0.09 -0.09)">
       <defs>
        <path id="LMRoman6-Regular-31" d="M 3232 0 
L 3232 250 
L 2957 250 
C 2298 250 2298 333 2298 544 
L 2298 4064 
C 2298 4256 2272 4256 2080 4256 
C 1658 3846 1005 3846 774 3846 
L 774 3597 
C 941 3597 1363 3597 1747 3776 
L 1747 544 
C 1747 333 1747 250 1088 250 
L 813 250 
L 813 0 
C 1165 26 1664 26 2022 26 
C 2381 26 2880 26 3232 0 
z
" transform="scale(0.015625)"/>
       </defs>
       <use xlink:href="#LMRoman6-Regular-31"/>
       <use xlink:href="#LMRoman6-Regular-30" x="61.099991"/>
      </g>
     </g>
    </g>
    <g id="ytick_3">
     <g id="line2d_28">
      <g>
       <use xlink:href="#md2f384dfdc" x="58.110236" y="158.873553" style="stroke: #000000; stroke-width: 0.8"/>
      </g>
     </g>
     <g id="text_3">
      <!-- 20 -->
      <g transform="translate(40.113361 161.996834) scale(0.09 -0.09)">
       <defs>
        <path id="LMRoman6-Regular-32" d="M 3443 1197 
L 3206 1197 
C 3194 1107 3130 685 3034 614 
C 2989 576 2470 576 2381 576 
L 1184 576 
L 2003 1242 
C 2221 1414 2790 1824 2989 2016 
C 3181 2208 3443 2534 3443 2989 
C 3443 3789 2720 4256 1862 4256 
C 1037 4256 461 3712 461 3110 
C 461 2784 736 2746 806 2746 
C 966 2746 1152 2861 1152 3091 
C 1152 3232 1069 3437 787 3437 
C 934 3763 1325 4006 1766 4006 
C 2438 4006 2797 3507 2797 2989 
C 2797 2534 2496 2067 2048 1658 
L 531 269 
C 467 205 461 198 461 0 
L 3245 0 
L 3443 1197 
z
" transform="scale(0.015625)"/>
       </defs>
       <use xlink:href="#LMRoman6-Regular-32"/>
       <use xlink:href="#LMRoman6-Regular-30" x="61.099991"/>
      </g>
     </g>
    </g>
    <g id="ytick_4">
     <g id="line2d_29">
      <g>
       <use xlink:href="#md2f384dfdc" x="58.110236" y="133.528485" style="stroke: #000000; stroke-width: 0.8"/>
      </g>
     </g>
     <g id="text_4">
      <!-- 30 -->
      <g transform="translate(40.113361 136.651767) scale(0.09 -0.09)">
       <defs>
        <path id="LMRoman6-Regular-33" d="M 3501 1107 
C 3501 1574 3142 2067 2381 2259 
C 2886 2426 3296 2835 3296 3360 
C 3296 3872 2694 4256 1926 4256 
C 1178 4256 608 3910 608 3386 
C 608 3110 819 3034 947 3034 
C 1114 3034 1286 3149 1286 3373 
C 1286 3571 1146 3686 973 3712 
C 1274 4045 1856 4045 1914 4045 
C 2240 4045 2650 3891 2650 3360 
C 2650 3008 2451 2394 1811 2355 
C 1696 2349 1523 2336 1466 2336 
C 1402 2330 1331 2323 1331 2227 
C 1331 2125 1402 2125 1510 2125 
L 1882 2125 
C 2426 2125 2790 1760 2790 1107 
C 2790 403 2368 96 1901 96 
C 1728 96 1069 134 781 506 
C 1030 531 1133 698 1133 870 
C 1133 1088 979 1235 768 1235 
C 595 1235 403 1126 403 858 
C 403 224 1107 -134 1920 -134 
C 2867 -134 3501 474 3501 1107 
z
" transform="scale(0.015625)"/>
       </defs>
       <use xlink:href="#LMRoman6-Regular-33"/>
       <use xlink:href="#LMRoman6-Regular-30" x="61.099991"/>
      </g>
     </g>
    </g>
    <g id="ytick_5">
     <g id="line2d_30">
      <g>
       <use xlink:href="#md2f384dfdc" x="58.110236" y="108.183418" style="stroke: #000000; stroke-width: 0.8"/>
      </g>
     </g>
     <g id="text_5">
      <!-- 40 -->
      <g transform="translate(40.113361 111.306699) scale(0.09 -0.09)">
       <defs>
        <path id="LMRoman6-Regular-34" d="M 3610 1050 
L 3610 1299 
L 2861 1299 
L 2861 4128 
C 2861 4275 2861 4320 2701 4320 
C 2586 4320 2573 4301 2515 4224 
L 294 1299 
L 294 1050 
L 2285 1050 
L 2285 538 
C 2285 326 2285 250 1747 250 
L 1562 250 
L 1562 0 
L 2573 26 
L 3584 0 
L 3584 250 
L 3398 250 
C 2861 250 2861 326 2861 538 
L 2861 1050 
L 3610 1050 
z
M 2330 1299 
L 570 1299 
L 2330 3622 
L 2330 1299 
z
" transform="scale(0.015625)"/>
       </defs>
       <use xlink:href="#LMRoman6-Regular-34"/>
       <use xlink:href="#LMRoman6-Regular-30" x="61.099991"/>
      </g>
     </g>
    </g>
    <g id="ytick_6">
     <g id="line2d_31">
      <g>
       <use xlink:href="#md2f384dfdc" x="58.110236" y="82.838351" style="stroke: #000000; stroke-width: 0.8"/>
      </g>
     </g>
     <g id="text_6">
      <!-- 50 -->
      <g transform="translate(40.113361 85.961632) scale(0.09 -0.09)">
       <defs>
        <path id="LMRoman6-Regular-35" d="M 3443 1286 
C 3443 2016 2854 2682 2029 2682 
C 1613 2682 1293 2547 1088 2374 
L 1088 3552 
C 1299 3494 1523 3469 1741 3469 
C 1882 3469 2240 3469 2643 3693 
C 2752 3757 3149 4019 3149 4154 
C 3149 4237 3085 4256 3059 4256 
C 3040 4256 3034 4256 2963 4230 
C 2733 4141 2406 4051 1990 4051 
C 1677 4051 1331 4109 1043 4218 
C 979 4243 954 4256 928 4256 
C 838 4256 838 4186 838 4083 
L 838 2163 
C 838 2054 838 1978 954 1978 
C 1011 1978 1030 2003 1075 2054 
C 1235 2259 1517 2477 2016 2477 
C 2803 2477 2803 1517 2803 1312 
C 2803 1062 2784 704 2573 442 
C 2374 198 2080 96 1805 96 
C 1363 96 922 339 768 710 
C 1082 717 1120 966 1120 1043 
C 1120 1216 986 1370 787 1370 
C 730 1370 461 1338 461 1018 
C 461 429 1018 -134 1824 -134 
C 2701 -134 3443 486 3443 1286 
z
" transform="scale(0.015625)"/>
       </defs>
       <use xlink:href="#LMRoman6-Regular-35"/>
       <use xlink:href="#LMRoman6-Regular-30" x="61.099991"/>
      </g>
     </g>
    </g>
    <g id="ytick_7">
     <g id="line2d_32">
      <g>
       <use xlink:href="#md2f384dfdc" x="58.110236" y="57.493284" style="stroke: #000000; stroke-width: 0.8"/>
      </g>
     </g>
     <g id="text_7">
      <!-- 60 -->
      <g transform="translate(40.113361 60.616565) scale(0.09 -0.09)">
       <defs>
        <path id="LMRoman6-Regular-36" d="M 3501 1306 
C 3501 1523 3475 1933 3085 2298 
C 2861 2502 2579 2726 2035 2726 
C 1587 2726 1261 2496 1043 2118 
C 1050 2438 1062 2970 1286 3366 
C 1568 3853 1990 4045 2374 4045 
C 2522 4045 2816 4019 2970 3840 
C 2733 3802 2694 3635 2694 3533 
C 2694 3366 2810 3226 3002 3226 
C 3194 3226 3315 3347 3315 3546 
C 3315 3936 3021 4256 2368 4256 
C 1376 4256 403 3392 403 2029 
C 403 474 1126 -134 1971 -134 
C 2221 -134 2656 -96 3046 282 
C 3251 486 3501 742 3501 1306 
z
M 2861 1306 
C 2861 864 2848 646 2630 390 
C 2477 198 2272 96 1965 96 
C 1062 96 1062 1197 1062 1446 
C 1062 1997 1427 2522 2003 2522 
C 2336 2522 2528 2387 2682 2182 
C 2861 1933 2861 1645 2861 1306 
z
" transform="scale(0.015625)"/>
       </defs>
       <use xlink:href="#LMRoman6-Regular-36"/>
       <use xlink:href="#LMRoman6-Regular-30" x="61.099991"/>
      </g>
     </g>
    </g>
    <g id="ytick_8">
     <g id="line2d_33">
      <g>
       <use xlink:href="#md2f384dfdc" x="58.110236" y="32.148217" style="stroke: #000000; stroke-width: 0.8"/>
      </g>
     </g>
     <g id="text_8">
      <!-- 70 -->
      <g transform="translate(40.113361 35.271498) scale(0.09 -0.09)">
       <defs>
        <path id="LMRoman6-Regular-37" d="M 3712 4122 
L 2061 4122 
C 1798 4122 1645 4128 1395 4147 
C 1082 4166 1005 4173 973 4326 
L 736 4326 
L 506 2925 
L 742 2925 
C 762 3059 826 3437 922 3507 
C 973 3546 1523 3546 1619 3546 
L 3066 3546 
L 2496 2861 
C 1875 2112 1440 1203 1440 230 
C 1440 173 1440 -134 1747 -134 
C 2061 -134 2061 160 2061 243 
L 2061 422 
C 2061 1651 2323 2278 2643 2662 
L 3654 3866 
C 3712 3930 3712 3942 3712 4122 
z
" transform="scale(0.015625)"/>
       </defs>
       <use xlink:href="#LMRoman6-Regular-37"/>
       <use xlink:href="#LMRoman6-Regular-30" x="61.099991"/>
      </g>
     </g>
    </g>
    <g id="ytick_9">
     <g id="line2d_34">
      <g>
       <use xlink:href="#md2f384dfdc" x="58.110236" y="6.80315" style="stroke: #000000; stroke-width: 0.8"/>
      </g>
     </g>
     <g id="text_9">
      <!-- 80 -->
      <g transform="translate(40.113361 9.926431) scale(0.09 -0.09)">
       <defs>
        <path id="LMRoman6-Regular-38" d="M 3501 1088 
C 3501 1530 3232 1792 3136 1888 
C 3014 2003 2694 2182 2464 2310 
C 2938 2522 3296 2835 3296 3296 
C 3296 3923 2624 4256 1958 4256 
C 1235 4256 608 3821 608 3174 
C 608 2778 870 2470 1139 2310 
L 1421 2150 
C 998 1990 403 1632 403 986 
C 403 237 1203 -134 1946 -134 
C 2797 -134 3501 378 3501 1088 
z
M 2938 3290 
C 2938 2797 2406 2534 2227 2445 
L 1306 2944 
C 1293 2950 966 3130 966 3424 
C 966 3840 1472 4045 1946 4045 
C 2445 4045 2938 3770 2938 3290 
z
M 3091 864 
C 3091 358 2502 96 1958 96 
C 1363 96 813 442 813 986 
C 813 1530 1325 1888 1677 2016 
L 2605 1504 
C 2739 1421 3091 1229 3091 864 
z
" transform="scale(0.015625)"/>
       </defs>
       <use xlink:href="#LMRoman6-Regular-38"/>
       <use xlink:href="#LMRoman6-Regular-30" x="61.099991"/>
      </g>
     </g>
    </g>
    <g id="text_10">
     <!-- Temperatur in °C -->
     <g transform="translate(34.366799 157.528435) rotate(-90) scale(0.09 -0.09)">
      <defs>
       <path id="LMRoman6-Regular-54" d="M 5203 2835 
L 5062 4326 
L 499 4326 
L 358 2835 
L 595 2835 
C 691 3994 941 4077 1907 4077 
C 2042 4077 2253 4077 2317 4070 
C 2464 4045 2464 3981 2464 3827 
L 2464 544 
C 2464 333 2464 250 1786 250 
L 1498 250 
L 1498 0 
C 1811 26 2445 26 2784 26 
C 3123 26 3757 26 4070 0 
L 4070 250 
L 3782 250 
C 3104 250 3104 333 3104 544 
L 3104 3827 
C 3104 3981 3104 4045 3245 4070 
C 3309 4077 3520 4077 3654 4077 
C 4627 4077 4870 3987 4966 2835 
L 5203 2835 
z
" transform="scale(0.015625)"/>
       <path id="LMRoman6-Regular-65" d="M 3194 768 
C 3194 800 3181 870 3072 870 
C 2989 870 2976 832 2950 755 
C 2758 282 2278 160 1984 160 
C 1632 160 1331 320 1152 550 
C 915 851 915 1274 915 1446 
L 3002 1446 
C 3142 1446 3194 1446 3194 1600 
C 3194 2093 2918 2854 1856 2854 
C 960 2854 307 2170 307 1402 
C 307 595 1043 -64 1946 -64 
C 2867 -64 3194 627 3194 768 
z
M 2726 1638 
L 928 1638 
C 998 2496 1587 2650 1850 2650 
C 2675 2650 2720 1824 2726 1638 
z
" transform="scale(0.015625)"/>
       <path id="LMRoman6-Regular-6d" d="M 6080 0 
L 6080 250 
C 5638 250 5574 250 5574 525 
L 5574 1933 
C 5574 2586 5190 2822 4563 2822 
C 3968 2822 3616 2483 3475 2240 
C 3328 2822 2675 2822 2496 2822 
C 1914 2822 1555 2502 1402 2234 
L 1395 2234 
L 1395 2822 
L 403 2752 
L 403 2502 
C 851 2502 909 2458 909 2144 
L 909 525 
C 909 250 845 250 403 250 
L 403 0 
C 448 6 883 26 1171 26 
C 1459 26 1882 6 1946 0 
L 1946 250 
C 1504 250 1440 250 1440 525 
L 1440 1651 
C 1440 2355 2048 2618 2438 2618 
C 2880 2618 2976 2342 2976 1946 
L 2976 525 
C 2976 250 2912 250 2470 250 
L 2470 0 
C 2515 6 2950 26 3238 26 
C 3526 26 3949 6 4013 0 
L 4013 250 
C 3571 250 3507 250 3507 525 
L 3507 1651 
C 3507 2355 4115 2618 4506 2618 
C 4947 2618 5043 2342 5043 1946 
L 5043 525 
C 5043 250 4979 250 4538 250 
L 4538 0 
C 4582 6 5018 26 5306 26 
C 5594 26 6016 6 6080 0 
z
" transform="scale(0.015625)"/>
       <path id="LMRoman6-Regular-70" d="M 3974 1382 
C 3974 2157 3302 2822 2419 2822 
C 1837 2822 1478 2534 1382 2445 
L 1382 2822 
L 371 2752 
L 371 2502 
C 806 2502 877 2502 877 2208 
L 877 -717 
C 877 -992 813 -992 371 -992 
L 371 -1242 
C 416 -1235 851 -1216 1139 -1216 
C 1427 -1216 1850 -1235 1914 -1242 
L 1914 -992 
C 1472 -992 1408 -992 1408 -717 
L 1408 307 
C 1670 58 1971 -64 2323 -64 
C 3213 -64 3974 570 3974 1382 
z
M 3366 1382 
C 3366 666 2854 141 2285 141 
C 1792 141 1504 493 1408 678 
L 1408 2118 
C 1626 2419 1978 2598 2355 2598 
C 2938 2598 3366 2035 3366 1382 
z
" transform="scale(0.015625)"/>
       <path id="LMRoman6-Regular-72" d="M 2778 2400 
C 2778 2656 2534 2822 2253 2822 
C 1869 2822 1542 2592 1344 2163 
L 1338 2163 
L 1338 2822 
L 371 2752 
L 371 2502 
C 819 2502 877 2458 877 2144 
L 877 525 
C 877 250 813 250 371 250 
L 371 0 
C 531 13 1005 26 1146 26 
C 1478 26 1920 6 2010 0 
L 2010 250 
L 1869 250 
C 1389 250 1382 314 1382 531 
L 1382 1434 
C 1382 2029 1690 2605 2259 2618 
C 2202 2560 2176 2483 2176 2400 
C 2176 2227 2304 2099 2477 2099 
C 2650 2099 2778 2227 2778 2400 
z
" transform="scale(0.015625)"/>
       <path id="LMRoman6-Regular-61" d="M 3712 576 
L 3712 928 
L 3475 928 
L 3475 589 
C 3475 525 3475 237 3226 237 
C 2976 237 2976 525 2976 589 
L 2976 1907 
C 2976 2502 2368 2854 1651 2854 
C 1344 2854 589 2822 589 2285 
C 589 2112 704 1971 902 1971 
C 1088 1971 1210 2112 1210 2278 
C 1210 2394 1158 2502 1043 2554 
C 1254 2650 1574 2650 1638 2650 
C 2093 2650 2445 2381 2445 1894 
L 2445 1728 
C 2150 1715 1638 1702 1171 1536 
C 749 1389 346 1101 346 672 
C 346 102 1024 -64 1523 -64 
C 2061 -64 2381 205 2522 448 
C 2566 115 2778 -32 3002 -32 
C 3027 -32 3712 -32 3712 576 
z
M 2445 909 
C 2445 243 1786 141 1581 141 
C 1235 141 909 352 909 672 
C 909 1030 1254 1498 2445 1536 
L 2445 909 
z
" transform="scale(0.015625)"/>
       <path id="LMRoman6-Regular-74" d="M 2566 806 
L 2566 1158 
L 2330 1158 
L 2330 819 
C 2330 365 2093 160 1856 160 
C 1395 160 1395 678 1395 800 
L 1395 2509 
L 2445 2509 
L 2445 2758 
L 1395 2758 
L 1395 3936 
L 1158 3936 
C 1152 3366 877 2739 230 2714 
L 230 2509 
L 864 2509 
L 864 800 
C 864 128 1370 -64 1805 -64 
C 2246 -64 2566 288 2566 806 
z
" transform="scale(0.015625)"/>
       <path id="LMRoman6-Regular-75" d="M 4006 0 
L 4006 250 
C 3558 250 3501 294 3501 608 
L 3501 2822 
L 2464 2752 
L 2464 2502 
C 2912 2502 2970 2458 2970 2144 
L 2970 1075 
C 2970 493 2566 141 2074 141 
C 1466 141 1440 410 1440 723 
L 1440 2822 
L 403 2752 
L 403 2502 
C 909 2502 909 2445 909 2067 
L 909 1069 
C 909 634 909 352 1197 141 
C 1440 -38 1760 -64 2029 -64 
C 2432 -64 2771 96 2995 461 
L 2995 -64 
L 4006 0 
z
" transform="scale(0.015625)"/>
       <path id="LMRoman6-Regular-20" transform="scale(0.015625)"/>
       <path id="LMRoman6-Regular-69" d="M 1875 0 
L 1875 250 
C 1478 250 1421 250 1421 518 
L 1421 2822 
L 435 2752 
L 435 2502 
C 858 2502 915 2458 915 2144 
L 915 525 
C 915 250 851 250 410 250 
L 410 0 
L 1158 26 
C 1222 26 1709 13 1875 0 
z
M 1510 3846 
C 1510 4051 1344 4230 1126 4230 
C 890 4230 736 4032 736 3846 
C 736 3642 902 3462 1120 3462 
C 1357 3462 1510 3661 1510 3846 
z
" transform="scale(0.015625)"/>
       <path id="LMRoman6-Regular-6e" d="M 4006 0 
L 4006 250 
C 3565 250 3501 250 3501 525 
L 3501 1933 
C 3501 2560 3142 2822 2496 2822 
C 1933 2822 1581 2528 1395 2221 
L 1395 2822 
L 403 2752 
L 403 2502 
C 851 2502 909 2458 909 2144 
L 909 525 
C 909 250 845 250 403 250 
L 403 0 
C 448 6 883 26 1171 26 
C 1459 26 1882 6 1946 0 
L 1946 250 
C 1504 250 1440 250 1440 525 
L 1440 1651 
C 1440 2355 2042 2618 2438 2618 
C 2867 2618 2970 2349 2970 1952 
L 2970 525 
C 2970 250 2906 250 2464 250 
L 2464 0 
C 2509 6 2944 26 3232 26 
C 3520 26 3942 6 4006 0 
z
" transform="scale(0.015625)"/>
       <path id="LMRoman6-Regular-b0" d="M 2502 3334 
C 2502 3910 2042 4371 1466 4371 
C 896 4371 429 3910 429 3334 
C 429 2765 896 2298 1466 2298 
C 2042 2298 2502 2765 2502 3334 
z
M 2170 3334 
C 2170 2950 1856 2630 1466 2630 
C 1075 2630 762 2950 762 3334 
C 762 3725 1075 4038 1466 4038 
C 1856 4038 2170 3725 2170 3334 
z
" transform="scale(0.015625)"/>
       <path id="LMRoman6-Regular-43" d="M 5056 1498 
C 5056 1568 5050 1632 4934 1632 
C 4832 1632 4826 1581 4819 1523 
C 4768 544 3878 115 3174 115 
C 2406 115 1216 570 1216 2189 
C 1216 3776 2374 4256 3168 4256 
C 3891 4256 4640 3763 4800 2784 
C 4813 2701 4819 2656 4928 2656 
C 5056 2656 5056 2707 5056 2835 
L 5056 4326 
C 5056 4435 5056 4506 4954 4506 
C 4896 4506 4883 4480 4838 4422 
L 4486 3936 
C 4115 4307 3610 4506 3085 4506 
C 1664 4506 506 3456 506 2189 
C 506 902 1664 -134 3091 -134 
C 4262 -134 5056 685 5056 1498 
z
" transform="scale(0.015625)"/>
      </defs>
      <use xlink:href="#LMRoman6-Regular-54"/>
      <use xlink:href="#LMRoman6-Regular-65" x="86.999985"/>
      <use xlink:href="#LMRoman6-Regular-6d" x="141.599976"/>
      <use xlink:href="#LMRoman6-Regular-70" x="241.59996"/>
      <use xlink:href="#LMRoman6-Regular-65" x="309.199951"/>
      <use xlink:href="#LMRoman6-Regular-72" x="363.799942"/>
      <use xlink:href="#LMRoman6-Regular-61" x="411.899933"/>
      <use xlink:href="#LMRoman6-Regular-74" x="472.999924"/>
      <use xlink:href="#LMRoman6-Regular-75" x="521.099915"/>
      <use xlink:href="#LMRoman6-Regular-72" x="588.699905"/>
      <use xlink:href="#LMRoman6-Regular-20" x="636.799896"/>
      <use xlink:href="#LMRoman6-Regular-69" x="678.499893"/>
      <use xlink:href="#LMRoman6-Regular-6e" x="713.69989"/>
      <use xlink:href="#LMRoman6-Regular-20" x="781.299881"/>
      <use xlink:href="#LMRoman6-Regular-b0" x="822.999878"/>
      <use xlink:href="#LMRoman6-Regular-43" x="868.799866"/>
     </g>
    </g>
   </g>
   <g id="line2d_35">
    <path d="M 58.110236 44.82075 
L 59.893898 44.916334 
L 61.12874 45.232451 
L 62.363583 45.794107 
L 63.872835 46.748262 
L 66.06811 48.440773 
L 70.321457 51.748844 
L 72.516732 53.161478 
L 73.88878 53.8449 
L 74.712008 53.985099 
L 77.318898 53.176856 
L 82.395472 51.478313 
L 85.825591 50.083572 
L 89.255709 48.435073 
L 93.234646 46.265742 
L 101.055315 41.671747 
L 107.229528 38.187783 
L 107.503937 38.040308 
L 108.46437 39.039934 
L 111.208465 41.769073 
L 113.129331 43.38484 
L 114.912992 44.592405 
L 116.559449 45.432381 
L 118.205906 46.018663 
L 119.852362 46.36447 
L 121.636024 46.499131 
L 123.55689 46.407141 
L 125.066142 46.356219 
L 139.198228 46.245229 
L 144.137598 46.334915 
L 145.235236 46.857704 
L 147.018898 47.405219 
L 147.704921 47.773963 
L 148.116535 48.191961 
L 148.52815 48.947964 
L 148.802559 49.408259 
L 150.449016 50.041526 
L 151.409449 50.622936 
L 151.958268 51.152699 
L 152.369882 51.778374 
L 153.055906 52.909906 
L 155.388386 52.467395 
L 157.034843 52.150784 
L 158.681299 52.489635 
L 168.148425 54.256297 
L 169.108858 54.411437 
L 169.383268 54.627636 
L 173.225 55.218222 
L 173.499409 55.407484 
L 174.185433 55.509205 
L 174.871457 55.406233 
L 175.694685 55.042347 
L 176.792323 54.253212 
L 178.301575 52.831954 
L 181.320079 49.695513 
L 182.006102 48.338357 
L 183.37815 47.099741 
L 184.887402 46.03046 
L 185.299016 46.10771 
L 187.357087 46.921105 
L 191.336024 48.381671 
L 193.119685 48.716982 
L 195.314961 48.888754 
L 198.607874 48.856265 
L 203.410039 48.84021 
L 208.486614 49.050815 
L 216.856102 49.447548 
L 218.090945 49.219111 
L 219.188583 48.791285 
L 220.28622 48.093797 
L 220.835039 47.488315 
L 221.932677 46.122061 
L 222.481496 45.842351 
L 223.16752 45.819824 
L 224.539567 45.996768 
L 226.460433 46.509758 
L 230.71378 47.72193 
L 232.909055 48.099414 
L 235.65315 48.35285 
L 239.494882 48.43267 
L 253.626969 48.593554 
L 273.110039 49.2884 
L 274.756496 49.200085 
L 276.128543 48.897058 
L 277.500591 48.373227 
L 279.147047 47.557096 
L 280.38189 46.522971 
L 281.342323 46.388807 
L 282.71437 46.401174 
L 284.360827 46.668985 
L 291.221063 48.122968 
L 294.239567 48.380415 
L 297.944094 48.467401 
L 301.923031 48.295901 
L 305.627559 48.215385 
L 337.733465 48.586555 
L 338.419488 48.48777 
L 349.258661 48.438317 
L 355.295669 48.172215 
L 360.509449 47.884031 
L 372.17185 47.430085 
L 428.288583 46.704263 
L 428.700197 46.655305 
L 433.776772 46.57879 
L 434.737205 46.572156 
L 442.557874 46.476301 
L 444.47874 46.501447 
L 445.850787 46.538013 
L 453.259843 46.466173 
L 453.259843 46.466173 
" clip-path="url(#p74d2576ba4)" style="fill: none; stroke: #000000; stroke-width: 0.9; stroke-linecap: square"/>
   </g>
   <g id="line2d_36">
    <path d="M 58.110236 57.493284 
L 59.756693 57.394482 
L 61.40315 57.067471 
L 63.186811 56.476625 
L 65.519291 55.44409 
L 69.498228 53.389413 
L 74.025984 51.107952 
L 76.084055 50.186409 
L 80.611811 48.209615 
L 86.923228 45.702195 
L 109.013189 37.128138 
L 122.184843 31.529479 
L 124.105709 30.980499 
L 136.04252 31.088289 
L 141.256299 31.117035 
L 149.762992 31.227019 
L 163.483465 31.285788 
L 192.845276 31.396115 
L 227.146457 31.817792 
L 260.624409 32.928687 
L 274.619291 33.346656 
L 279.147047 33.455158 
L 305.215945 34.350671 
L 319.485236 34.892977 
L 344.319291 35.862633 
L 366.409252 36.92736 
L 377.660039 37.165388 
L 393.164173 37.542905 
L 410.589173 38.145465 
L 421.016732 38.538093 
L 428.151378 38.880176 
L 428.974606 38.966711 
L 438.990551 39.417101 
L 442.969488 39.679396 
L 447.908858 39.899844 
L 449.006496 39.961333 
L 451.338976 40.114555 
L 453.259843 40.178664 
L 453.259843 40.178664 
" clip-path="url(#p74d2576ba4)" style="fill: none; stroke-dasharray: 3.33,1.44; stroke-dashoffset: 0; stroke: #000000; stroke-width: 0.9"/>
   </g>
   <g id="line2d_37">
    <path d="M 58.110236 108.183418 
L 58.79626 108.258108 
L 59.207874 108.628037 
L 59.619488 109.472345 
L 61.12874 113.16556 
L 61.540354 113.654918 
L 61.951969 113.848844 
L 62.637992 113.794524 
L 64.147244 113.507442 
L 65.107677 113.1016 
L 65.930906 112.528283 
L 66.34252 112.079549 
L 66.754134 110.284517 
L 67.577362 106.407282 
L 67.988976 105.300434 
L 68.263386 104.947946 
L 68.537795 104.862128 
L 68.812205 104.997126 
L 69.223819 105.480679 
L 71.144685 108.242258 
L 71.693504 108.60611 
L 72.242323 108.742255 
L 72.928346 108.654918 
L 74.574803 108.080846 
L 75.123622 107.518597 
L 76.084055 106.389816 
L 76.632874 106.099119 
L 77.044488 106.117283 
L 77.593307 106.370451 
L 80.200197 107.929717 
L 80.88622 107.972578 
L 81.846654 107.787269 
L 83.081496 107.378697 
L 84.590748 106.338077 
L 85.139567 106.288954 
L 85.688386 106.457486 
L 86.648819 107.037278 
L 87.746457 107.656149 
L 88.569685 107.886815 
L 89.392913 107.86715 
L 91.03937 107.502387 
L 91.999803 107.029686 
L 92.823031 106.717221 
L 93.509055 106.724994 
L 94.332283 106.985972 
L 96.527559 107.860927 
L 97.350787 107.89061 
L 98.722835 107.667146 
L 101.19252 107.286811 
L 102.290157 107.38316 
L 105.583071 107.889712 
L 108.327165 107.734731 
L 109.973622 107.657968 
L 112.717717 107.464581 
L 114.638583 107.37177 
L 116.147835 107.346993 
L 117.931496 107.381264 
L 120.812795 107.288472 
L 122.733661 107.609352 
L 124.791732 107.880098 
L 126.026575 107.811043 
L 127.947441 107.656273 
L 133.572835 107.778063 
L 136.04252 107.674889 
L 140.021457 107.668059 
L 142.353937 107.444072 
L 144.412008 107.263891 
L 146.332874 107.084054 
L 148.25374 106.805654 
L 150.86063 106.652657 
L 152.507087 106.455646 
L 155.113976 106.332006 
L 156.760433 106.172434 
L 158.955709 106.092326 
L 161.01378 105.861444 
L 163.34626 105.763933 
L 165.267126 105.592369 
L 167.599606 105.551618 
L 169.657677 105.473979 
L 172.127362 105.489609 
L 174.597047 105.570342 
L 182.417717 105.507129 
L 188.454724 105.377315 
L 190.65 105.22176 
L 191.198819 104.925528 
L 192.022047 104.164622 
L 193.668504 102.571454 
L 194.766142 101.813767 
L 195.726575 101.416882 
L 201.351969 99.834641 
L 204.644882 99.206376 
L 206.016929 99.046382 
L 208.486614 98.563785 
L 210.40748 98.34757 
L 212.191142 98.062468 
L 214.523622 97.923041 
L 216.307283 97.694675 
L 218.365354 97.626846 
L 220.835039 97.349914 
L 222.344291 97.312917 
L 223.579134 97.017168 
L 224.539567 96.830465 
L 228.244094 96.4916 
L 229.341732 96.477658 
L 231.262598 96.492795 
L 232.909055 96.393115 
L 235.37874 96.43126 
L 237.025197 96.309048 
L 239.494882 96.288149 
L 241.141339 96.145578 
L 243.473819 96.089334 
L 245.25748 95.895959 
L 247.589961 95.875729 
L 249.648031 95.575579 
L 251.843307 95.446262 
L 253.489764 95.253516 
L 256.782677 95.163024 
L 257.880315 95.219326 
L 259.526772 95.580728 
L 261.036024 95.839802 
L 263.642913 96.247352 
L 269.405512 97.421264 
L 271.875197 97.628151 
L 274.070472 97.573906 
L 278.735433 97.200746 
L 283.812008 96.890237 
L 291.083858 96.907145 
L 295.474409 97.130069 
L 299.590551 97.518296 
L 303.843898 97.590084 
L 309.880906 97.587459 
L 314.683071 97.246699 
L 321.543307 96.692293 
L 328.129134 96.202209 
L 333.342913 95.873232 
L 338.968307 95.81639 
L 340.065945 96.038573 
L 340.614764 96.285491 
L 341.163583 96.995881 
L 341.849606 98.310152 
L 345.554134 106.250081 
L 346.240157 107.30803 
L 347.612205 107.31276 
L 348.161024 107.125255 
L 350.356299 105.51388 
L 350.630709 105.713353 
L 351.591142 106.80187 
L 352.277165 107.975194 
L 354.198031 111.67107 
L 354.74685 112.340541 
L 356.667717 113.798346 
L 357.902559 114.46444 
L 358.588583 114.673868 
L 359.000197 114.241334 
L 360.235039 112.583168 
L 362.841929 108.940282 
L 365.860433 110.633131 
L 366.820866 110.799871 
L 369.702165 110.730603 
L 370.525394 110.498107 
L 371.074213 110.095651 
L 373.132283 110.434056 
L 374.915945 110.567531 
L 376.425197 110.575159 
L 378.894882 110.476017 
L 379.580906 110.347647 
L 380.404134 110.232581 
L 381.364567 109.921797 
L 382.187795 109.546479 
L 383.148228 109.680482 
L 383.422638 109.592847 
L 386.989961 109.867655 
L 388.773622 109.804524 
L 390.694488 109.614243 
L 391.243307 109.408711 
L 391.654921 109.186015 
L 393.987402 109.554083 
L 396.045472 109.949924 
L 398.652362 109.891987 
L 399.475591 109.739884 
L 399.887205 109.555937 
L 402.35689 110.01068 
L 404.552165 110.642618 
L 405.649803 110.696514 
L 407.29626 110.460575 
L 407.845079 110.216966 
L 408.119488 110.085167 
L 410.589173 110.697547 
L 412.098425 111.248846 
L 413.333268 110.484684 
L 415.528543 108.57025 
L 416.351772 107.92158 
L 417.312205 108.372331 
L 420.330709 109.970795 
L 421.428346 109.791342 
L 422.800394 109.456583 
L 423.623622 109.032991 
L 424.72126 108.342982 
L 426.230512 108.732521 
L 427.190945 109.220661 
L 428.562992 110.032316 
L 431.718701 109.374215 
L 432.26752 108.981845 
L 432.816339 108.56893 
L 434.6 108.991425 
L 435.423228 109.407371 
L 436.795276 110.25842 
L 438.990551 108.780345 
L 440.637008 107.420355 
L 441.048622 107.203657 
L 442.009055 107.618326 
L 443.655512 108.722423 
L 445.027559 109.679439 
L 446.262402 109.456216 
L 447.497244 109.078372 
L 448.183268 108.6835 
L 449.280906 107.892762 
L 450.652953 108.320759 
L 451.476181 108.801456 
L 453.259843 110.098005 
L 453.259843 110.098005 
" clip-path="url(#p74d2576ba4)" style="fill: none; stroke-dasharray: 5.76,1.44,0.9,1.44; stroke-dashoffset: 0; stroke: #000000; stroke-width: 0.9"/>
   </g>
   <g id="line2d_38">
    <path d="M 58.110236 120.855952 
L 61.265945 120.735809 
L 65.930906 120.550571 
L 70.458661 120.397592 
L 81.983858 119.724447 
L 141.393504 116.679799 
L 197.784646 113.886055 
L 211.230709 112.887946 
L 256.371063 109.509159 
L 269.405512 109.080719 
L 282.302756 108.668335 
L 295.611614 108.359497 
L 314.134252 108.075528 
L 337.870669 107.401462 
L 341.849606 107.395583 
L 350.493504 107.50473 
L 354.609646 107.664107 
L 380.541339 107.931581 
L 414.156496 108.316451 
L 428.288583 108.624205 
L 437.892913 108.799461 
L 453.259843 109.154863 
L 453.259843 109.154863 
" clip-path="url(#p74d2576ba4)" style="fill: none; stroke-dasharray: 0.9,1.485; stroke-dashoffset: 0; stroke: #000000; stroke-width: 0.9"/>
   </g>
   <g id="line2d_39">
    <path d="M 58.110236 171.546086 
L 58.79626 171.434608 
L 60.168307 170.856092 
L 60.579921 170.969863 
L 61.12874 171.384027 
L 61.951969 172.365892 
L 63.598425 174.406853 
L 64.558858 175.253884 
L 65.656496 175.932738 
L 67.165748 176.583486 
L 71.00748 177.907661 
L 73.88878 178.690762 
L 74.986417 178.877125 
L 75.809646 178.46523 
L 76.358465 178.575636 
L 77.730512 178.997539 
L 82.258268 179.611833 
L 87.883661 180.184187 
L 95.841535 180.745582 
L 109.287598 181.421669 
L 138.649409 182.616765 
L 190.238386 184.425929 
L 190.65 184.206526 
L 191.336024 183.400247 
L 192.159252 182.462392 
L 192.845276 182.002275 
L 193.668504 181.729982 
L 199.842717 180.437696 
L 204.233268 179.844926 
L 209.447047 179.384164 
L 215.758465 179.065293 
L 224.265157 178.878494 
L 227.420866 178.960071 
L 232.360236 179.439334 
L 235.241535 179.738673 
L 236.476378 179.788944 
L 238.808858 180.081285 
L 241.004134 180.186251 
L 242.513386 180.368468 
L 245.669094 180.540122 
L 247.041142 180.613061 
L 249.236417 180.663238 
L 250.745669 180.808338 
L 253.901378 180.915479 
L 255.273425 180.966176 
L 257.468701 180.999854 
L 258.977953 181.131492 
L 262.133661 181.214459 
L 263.505709 181.264616 
L 265.838189 181.297154 
L 267.210236 181.403705 
L 270.50315 181.487069 
L 272.012402 181.500493 
L 273.933268 181.505676 
L 275.44252 181.619669 
L 278.735433 181.682723 
L 280.244685 181.692693 
L 282.165551 181.692595 
L 283.674803 181.806456 
L 286.967717 181.867097 
L 288.476969 181.875816 
L 290.397835 181.8738 
L 291.907087 181.987959 
L 295.062795 182.04548 
L 296.434843 182.081766 
L 298.767323 182.083034 
L 300.276575 182.174951 
L 303.157874 182.208959 
L 304.529921 182.262115 
L 307.136811 182.278618 
L 308.508858 182.34863 
L 311.527362 182.3839 
L 312.899409 182.391602 
L 313.859843 182.231519 
L 314.683071 182.142609 
L 317.289961 182.055737 
L 325.796654 181.322756 
L 332.65689 181.020266 
L 337.047441 180.992992 
L 338.693898 181.249616 
L 340.065945 181.627105 
L 340.751969 181.478705 
L 341.575197 181.170463 
L 342.53563 180.551421 
L 344.182087 179.14068 
L 346.102953 177.577508 
L 347.475 176.733097 
L 348.847047 176.130791 
L 350.493504 175.664699 
L 352.551575 175.342597 
L 355.02126 175.172563 
L 355.570079 175.357498 
L 356.118898 175.798356 
L 356.804921 176.656434 
L 359.823425 180.896789 
L 360.921063 181.811104 
L 362.29311 182.631915 
L 364.9 183.862588 
L 367.644094 184.929427 
L 370.662598 185.845192 
L 371.485827 185.948147 
L 372.17185 185.671577 
L 372.720669 185.75521 
L 374.504331 186.238758 
L 381.638976 187.207142 
L 386.852756 187.659019 
L 401.259252 188.557835 
L 417.723819 189.244629 
L 453.259843 190.554905 
L 453.259843 190.554905 
" clip-path="url(#p74d2576ba4)" style="fill: none; stroke-dasharray: 4.5,9; stroke-dashoffset: 0; stroke: #000000; stroke-width: 0.9"/>
   </g>
   <g id="line2d_40">
    <path d="M 58.110236 166.477073 
L 66.06811 166.596778 
L 76.770079 166.933628 
L 118.205906 168.651924 
L 196.138189 171.824867 
L 216.581693 172.196728 
L 257.057087 172.922698 
L 349.121457 174.777188 
L 359.96063 174.860949 
L 368.330118 174.993375 
L 383.971457 175.550552 
L 453.259843 178.280775 
L 453.259843 178.280775 
" clip-path="url(#p74d2576ba4)" style="fill: none; stroke-dasharray: 2.7,9,0.9,9; stroke-dashoffset: 0; stroke: #000000; stroke-width: 0.9"/>
   </g>
   <g id="patch_3">
    <path d="M 58.110236 222.23622 
L 58.110236 6.80315 
" style="fill: none; stroke: #000000; stroke-width: 0.8; stroke-linejoin: miter; stroke-linecap: square"/>
   </g>
   <g id="patch_4">
    <path d="M 58.110236 222.23622 
L 453.259843 222.23622 
" style="fill: none; stroke: #000000; stroke-width: 0.8; stroke-linejoin: miter; stroke-linecap: square"/>
   </g>
   <g id="legend_1">
    <g id="line2d_41">
     <path d="M 127.591133 194.708268 
L 136.591133 194.708268 
L 145.591133 194.708268 
" style="fill: none; stroke: #000000; stroke-width: 0.9; stroke-linecap: square"/>
    </g>
    <g id="text_11">
     <!-- BS_HNHT -->
     <g transform="translate(152.791133 197.858268) scale(0.09 -0.09)">
      <defs>
       <path id="LMRoman6-Regular-42" d="M 4934 1178 
C 4934 1677 4435 2176 3533 2291 
C 4186 2400 4730 2790 4730 3283 
C 4730 3866 4006 4371 3091 4371 
L 442 4371 
L 442 4122 
L 608 4122 
C 1120 4122 1120 4045 1120 3834 
L 1120 538 
C 1120 326 1120 250 608 250 
L 442 250 
L 442 0 
L 3290 0 
C 4224 0 4934 550 4934 1178 
z
M 4064 3283 
C 4064 2797 3571 2374 2835 2374 
L 1715 2374 
L 1715 3872 
C 1715 4070 1715 4122 2029 4122 
L 3046 4122 
C 3680 4122 4064 3706 4064 3283 
z
M 4250 1184 
C 4250 717 3782 250 3059 250 
L 2029 250 
C 1715 250 1715 301 1715 499 
L 1715 2170 
L 3162 2170 
C 3853 2170 4250 1645 4250 1184 
z
" transform="scale(0.015625)"/>
       <path id="LMRoman6-Regular-53" d="M 3814 1178 
C 3814 1626 3565 1933 3469 2029 
C 3142 2355 2950 2394 2157 2560 
L 1555 2694 
C 1222 2803 915 3085 915 3450 
C 915 3878 1338 4275 1965 4275 
C 2304 4275 2630 4186 2893 3974 
C 3270 3674 3341 3213 3366 3059 
C 3379 2963 3386 2918 3488 2918 
C 3610 2918 3610 2976 3610 3098 
L 3610 4326 
C 3610 4435 3610 4506 3507 4506 
C 3482 4506 3443 4506 3392 4422 
L 3155 4058 
C 2790 4416 2330 4506 1958 4506 
C 1126 4506 506 3942 506 3283 
C 506 2950 659 2669 890 2451 
C 1178 2189 1395 2144 2112 1997 
C 2771 1856 2918 1824 3117 1638 
C 3194 1562 3405 1357 3405 1018 
C 3405 576 3008 115 2342 115 
C 1792 115 794 282 742 1306 
C 736 1402 736 1453 627 1453 
C 506 1453 506 1395 506 1267 
L 506 45 
C 506 -64 506 -134 608 -134 
C 666 -134 678 -109 710 -58 
C 730 -38 864 166 954 301 
C 1421 -90 2042 -134 2342 -134 
C 3232 -134 3814 499 3814 1178 
z
" transform="scale(0.015625)"/>
       <path id="LMRoman6-Regular-5f" d="M 5734 -922 
L 5734 -678 
L 0 -678 
L 0 -922 
L 5734 -922 
z
" transform="scale(0.015625)"/>
       <path id="LMRoman6-Regular-48" d="M 5312 0 
L 5312 250 
L 5146 250 
C 4634 250 4634 326 4634 538 
L 4634 3834 
C 4634 4045 4634 4122 5146 4122 
L 5312 4122 
L 5312 4371 
L 4314 4346 
L 3315 4371 
L 3315 4122 
L 3482 4122 
C 3994 4122 3994 4045 3994 3834 
L 3994 2400 
L 1734 2400 
L 1734 3834 
C 1734 4045 1734 4122 2246 4122 
L 2413 4122 
L 2413 4371 
L 1414 4346 
L 416 4371 
L 416 4122 
L 582 4122 
C 1094 4122 1094 4045 1094 3834 
L 1094 538 
C 1094 326 1094 250 582 250 
L 416 250 
L 416 0 
L 1414 26 
L 2413 0 
L 2413 250 
L 2246 250 
C 1734 250 1734 326 1734 538 
L 1734 2150 
L 3994 2150 
L 3994 538 
C 3994 326 3994 250 3482 250 
L 3315 250 
L 3315 0 
L 4314 26 
L 5312 0 
z
" transform="scale(0.015625)"/>
       <path id="LMRoman6-Regular-4e" d="M 5312 4122 
L 5312 4371 
C 5190 4365 4774 4346 4506 4346 
C 4211 4346 3808 4365 3693 4371 
L 3693 4122 
C 4371 4122 4371 3834 4371 3667 
L 4371 986 
L 1779 4282 
C 1709 4365 1702 4371 1568 4371 
L 416 4371 
L 416 4122 
L 621 4122 
C 768 4122 928 4122 1050 4090 
C 1088 4083 1094 4077 1094 3968 
L 1094 704 
C 1094 538 1094 250 416 250 
L 416 0 
C 538 6 954 26 1222 26 
C 1517 26 1920 6 2035 0 
L 2035 250 
C 1357 250 1357 538 1357 704 
L 1357 3898 
L 4365 77 
C 4416 13 4422 0 4499 0 
C 4634 0 4634 64 4634 192 
L 4634 3667 
C 4634 3834 4634 4122 5312 4122 
z
" transform="scale(0.015625)"/>
      </defs>
      <use xlink:href="#LMRoman6-Regular-42"/>
      <use xlink:href="#LMRoman6-Regular-53" x="85.099991"/>
      <use xlink:href="#LMRoman6-Regular-5f" x="152.699982"/>
      <use xlink:href="#LMRoman6-Regular-48" x="242.299973"/>
      <use xlink:href="#LMRoman6-Regular-4e" x="331.899963"/>
      <use xlink:href="#LMRoman6-Regular-48" x="421.499954"/>
      <use xlink:href="#LMRoman6-Regular-54" x="511.099945"/>
     </g>
    </g>
    <g id="line2d_42">
     <path d="M 127.591133 207.25483 
L 136.591133 207.25483 
L 145.591133 207.25483 
" style="fill: none; stroke-dasharray: 3.33,1.44; stroke-dashoffset: 0; stroke: #000000; stroke-width: 0.9"/>
    </g>
    <g id="text_12">
     <!-- ST_HNHT -->
     <g transform="translate(152.791133 210.40483) scale(0.09 -0.09)">
      <use xlink:href="#LMRoman6-Regular-53"/>
      <use xlink:href="#LMRoman6-Regular-54" x="67.599991"/>
      <use xlink:href="#LMRoman6-Regular-5f" x="154.599976"/>
      <use xlink:href="#LMRoman6-Regular-48" x="244.199966"/>
      <use xlink:href="#LMRoman6-Regular-4e" x="333.799957"/>
      <use xlink:href="#LMRoman6-Regular-48" x="423.399948"/>
      <use xlink:href="#LMRoman6-Regular-54" x="512.999939"/>
     </g>
    </g>
    <g id="line2d_43">
     <path d="M 224.788321 194.708268 
L 233.788321 194.708268 
L 242.788321 194.708268 
" style="fill: none; stroke-dasharray: 5.76,1.44,0.9,1.44; stroke-dashoffset: 0; stroke: #000000; stroke-width: 0.9"/>
    </g>
    <g id="text_13">
     <!-- BS_HNLT -->
     <g transform="translate(249.988321 197.858268) scale(0.09 -0.09)">
      <defs>
       <path id="LMRoman6-Regular-4c" d="M 4416 1702 
L 4179 1702 
C 4102 928 3904 250 2746 250 
L 2048 250 
C 1734 250 1734 301 1734 499 
L 1734 3834 
C 1734 4045 1734 4122 2349 4122 
L 2586 4122 
L 2586 4371 
C 2246 4346 1779 4346 1434 4346 
L 416 4371 
L 416 4122 
L 582 4122 
C 1094 4122 1094 4045 1094 3834 
L 1094 538 
C 1094 326 1094 250 582 250 
L 416 250 
L 416 0 
L 4218 0 
L 4416 1702 
z
" transform="scale(0.015625)"/>
      </defs>
      <use xlink:href="#LMRoman6-Regular-42"/>
      <use xlink:href="#LMRoman6-Regular-53" x="85.099991"/>
      <use xlink:href="#LMRoman6-Regular-5f" x="152.699982"/>
      <use xlink:href="#LMRoman6-Regular-48" x="242.299973"/>
      <use xlink:href="#LMRoman6-Regular-4e" x="331.899963"/>
      <use xlink:href="#LMRoman6-Regular-4c" x="421.499954"/>
      <use xlink:href="#LMRoman6-Regular-54" x="496.899948"/>
     </g>
    </g>
    <g id="line2d_44">
     <path d="M 224.788321 207.25483 
L 233.788321 207.25483 
L 242.788321 207.25483 
" style="fill: none; stroke-dasharray: 0.9,1.485; stroke-dashoffset: 0; stroke: #000000; stroke-width: 0.9"/>
    </g>
    <g id="text_14">
     <!-- ST_HNLT -->
     <g transform="translate(249.988321 210.40483) scale(0.09 -0.09)">
      <use xlink:href="#LMRoman6-Regular-53"/>
      <use xlink:href="#LMRoman6-Regular-54" x="67.599991"/>
      <use xlink:href="#LMRoman6-Regular-5f" x="154.599976"/>
      <use xlink:href="#LMRoman6-Regular-48" x="244.199966"/>
      <use xlink:href="#LMRoman6-Regular-4e" x="333.799957"/>
      <use xlink:href="#LMRoman6-Regular-4c" x="423.399948"/>
      <use xlink:href="#LMRoman6-Regular-54" x="498.799942"/>
     </g>
    </g>
    <g id="line2d_45">
     <path d="M 320.708633 194.708268 
L 329.708633 194.708268 
L 338.708633 194.708268 
" style="fill: none; stroke-dasharray: 4.5,9; stroke-dashoffset: 0; stroke: #000000; stroke-width: 0.9"/>
    </g>
    <g id="text_15">
     <!-- BS_CN -->
     <g transform="translate(345.908633 197.858268) scale(0.09 -0.09)">
      <use xlink:href="#LMRoman6-Regular-42"/>
      <use xlink:href="#LMRoman6-Regular-53" x="85.099991"/>
      <use xlink:href="#LMRoman6-Regular-5f" x="152.699982"/>
      <use xlink:href="#LMRoman6-Regular-43" x="242.299973"/>
      <use xlink:href="#LMRoman6-Regular-4e" x="329.299957"/>
     </g>
    </g>
    <g id="line2d_46">
     <path d="M 320.708633 207.25483 
L 329.708633 207.25483 
L 338.708633 207.25483 
" style="fill: none; stroke-dasharray: 2.7,9,0.9,9; stroke-dashoffset: 0; stroke: #000000; stroke-width: 0.9"/>
    </g>
    <g id="text_16">
     <!-- ST_CN -->
     <g transform="translate(345.908633 210.40483) scale(0.09 -0.09)">
      <use xlink:href="#LMRoman6-Regular-53"/>
      <use xlink:href="#LMRoman6-Regular-54" x="67.599991"/>
      <use xlink:href="#LMRoman6-Regular-5f" x="154.599976"/>
      <use xlink:href="#LMRoman6-Regular-43" x="244.199966"/>
      <use xlink:href="#LMRoman6-Regular-4e" x="331.199951"/>
     </g>
    </g>
   </g>
  </g>
 </g>
 <defs>
  <clipPath id="p74d2576ba4">
   <rect x="58.110236" y="6.80315" width="395.149606" height="215.433071"/>
  </clipPath>
 </defs>
</svg>
