<?xml version="1.0" encoding="utf-8" standalone="no"?>
<!DOCTYPE svg PUBLIC "-//W3C//DTD SVG 1.1//EN"
  "http://www.w3.org/Graphics/SVG/1.1/DTD/svg11.dtd">
<svg xmlns:xlink="http://www.w3.org/1999/xlink" width="464.88189pt" height="226.771654pt" viewBox="0 0 464.88189 226.771654" xmlns="http://www.w3.org/2000/svg" version="1.1">
 <metadata>
  <rdf:RDF xmlns:dc="http://purl.org/dc/elements/1.1/" xmlns:cc="http://creativecommons.org/ns#" xmlns:rdf="http://www.w3.org/1999/02/22-rdf-syntax-ns#">
   <cc:Work>
    <dc:type rdf:resource="http://purl.org/dc/dcmitype/StillImage"/>
    <dc:date>2024-10-01T13:54:28.867982</dc:date>
    <dc:format>image/svg+xml</dc:format>
    <dc:creator>
     <cc:Agent>
      <dc:title>Matplotlib v3.8.2, https://matplotlib.org/</dc:title>
     </cc:Agent>
    </dc:creator>
   </cc:Work>
  </rdf:RDF>
 </metadata>
 <defs>
  <style type="text/css">*{stroke-linejoin: round; stroke-linecap: butt}</style>
 </defs>
 <g id="figure_1">
  <g id="patch_1">
   <path d="M 0 226.771654 
L 464.88189 226.771654 
L 464.88189 0 
L 0 0 
z
" style="fill: #ffffff"/>
  </g>
  <g id="axes_1">
   <g id="patch_2">
    <path d="M 58.110236 222.23622 
L 453.259843 222.23622 
L 453.259843 6.80315 
L 58.110236 6.80315 
z
" style="fill: #ffffff"/>
   </g>
   <g id="matplotlib.axis_1">
    <g id="xtick_1">
     <g id="line2d_1">
      <defs>
       <path id="m2ff4ece7f2" d="M 0 0 
L 0 3.5 
" style="stroke: #000000; stroke-width: 0.8"/>
      </defs>
      <g>
       <use xlink:href="#m2ff4ece7f2" x="58.110236" y="222.23622" style="stroke: #000000; stroke-width: 0.8"/>
      </g>
     </g>
    </g>
    <g id="xtick_2">
     <g id="line2d_2">
      <g>
       <use xlink:href="#m2ff4ece7f2" x="97.625197" y="222.23622" style="stroke: #000000; stroke-width: 0.8"/>
      </g>
     </g>
    </g>
    <g id="xtick_3">
     <g id="line2d_3">
      <g>
       <use xlink:href="#m2ff4ece7f2" x="137.140157" y="222.23622" style="stroke: #000000; stroke-width: 0.8"/>
      </g>
     </g>
    </g>
    <g id="xtick_4">
     <g id="line2d_4">
      <g>
       <use xlink:href="#m2ff4ece7f2" x="176.655118" y="222.23622" style="stroke: #000000; stroke-width: 0.8"/>
      </g>
     </g>
    </g>
    <g id="xtick_5">
     <g id="line2d_5">
      <g>
       <use xlink:href="#m2ff4ece7f2" x="216.170079" y="222.23622" style="stroke: #000000; stroke-width: 0.8"/>
      </g>
     </g>
    </g>
    <g id="xtick_6">
     <g id="line2d_6">
      <g>
       <use xlink:href="#m2ff4ece7f2" x="255.685039" y="222.23622" style="stroke: #000000; stroke-width: 0.8"/>
      </g>
     </g>
    </g>
    <g id="xtick_7">
     <g id="line2d_7">
      <g>
       <use xlink:href="#m2ff4ece7f2" x="295.2" y="222.23622" style="stroke: #000000; stroke-width: 0.8"/>
      </g>
     </g>
    </g>
    <g id="xtick_8">
     <g id="line2d_8">
      <g>
       <use xlink:href="#m2ff4ece7f2" x="334.714961" y="222.23622" style="stroke: #000000; stroke-width: 0.8"/>
      </g>
     </g>
    </g>
    <g id="xtick_9">
     <g id="line2d_9">
      <g>
       <use xlink:href="#m2ff4ece7f2" x="374.229921" y="222.23622" style="stroke: #000000; stroke-width: 0.8"/>
      </g>
     </g>
    </g>
    <g id="xtick_10">
     <g id="line2d_10">
      <g>
       <use xlink:href="#m2ff4ece7f2" x="413.744882" y="222.23622" style="stroke: #000000; stroke-width: 0.8"/>
      </g>
     </g>
    </g>
    <g id="xtick_11">
     <g id="line2d_11">
      <g>
       <use xlink:href="#m2ff4ece7f2" x="453.259843" y="222.23622" style="stroke: #000000; stroke-width: 0.8"/>
      </g>
     </g>
    </g>
   </g>
   <g id="matplotlib.axis_2">
    <g id="ytick_1">
     <g id="line2d_12">
      <defs>
       <path id="m61662707c3" d="M 0 0 
L -3.5 0 
" style="stroke: #000000; stroke-width: 0.8"/>
      </defs>
      <g>
       <use xlink:href="#m61662707c3" x="58.110236" y="209.563687" style="stroke: #000000; stroke-width: 0.8"/>
      </g>
     </g>
     <g id="text_1">
      <!-- 0 -->
      <g transform="translate(45.611799 212.686968) scale(0.09 -0.09)">
       <defs>
        <path id="LMRoman6-Regular-30" d="M 3520 2042 
C 3520 2509 3520 4256 1952 4256 
C 384 4256 384 2509 384 2042 
C 384 1581 384 -134 1952 -134 
C 3520 -134 3520 1581 3520 2042 
z
M 2912 2125 
C 2912 1715 2912 1069 2803 710 
C 2624 154 2163 70 1952 70 
C 1683 70 1248 198 1094 730 
C 992 1101 992 1728 992 2125 
C 992 2554 992 3046 1082 3392 
C 1242 3968 1728 4051 1952 4051 
C 2246 4051 2669 3910 2810 3424 
C 2906 3085 2912 2618 2912 2125 
z
" transform="scale(0.015625)"/>
       </defs>
       <use xlink:href="#LMRoman6-Regular-30"/>
      </g>
     </g>
    </g>
    <g id="ytick_2">
     <g id="line2d_13">
      <g>
       <use xlink:href="#m61662707c3" x="58.110236" y="184.21862" style="stroke: #000000; stroke-width: 0.8"/>
      </g>
     </g>
     <g id="text_2">
      <!-- 10 -->
      <g transform="translate(40.113361 187.341901) scale(0.09 -0.09)">
       <defs>
        <path id="LMRoman6-Regular-31" d="M 3232 0 
L 3232 250 
L 2957 250 
C 2298 250 2298 333 2298 544 
L 2298 4064 
C 2298 4256 2272 4256 2080 4256 
C 1658 3846 1005 3846 774 3846 
L 774 3597 
C 941 3597 1363 3597 1747 3776 
L 1747 544 
C 1747 333 1747 250 1088 250 
L 813 250 
L 813 0 
C 1165 26 1664 26 2022 26 
C 2381 26 2880 26 3232 0 
z
" transform="scale(0.015625)"/>
       </defs>
       <use xlink:href="#LMRoman6-Regular-31"/>
       <use xlink:href="#LMRoman6-Regular-30" x="61.099991"/>
      </g>
     </g>
    </g>
    <g id="ytick_3">
     <g id="line2d_14">
      <g>
       <use xlink:href="#m61662707c3" x="58.110236" y="158.873553" style="stroke: #000000; stroke-width: 0.8"/>
      </g>
     </g>
     <g id="text_3">
      <!-- 20 -->
      <g transform="translate(40.113361 161.996834) scale(0.09 -0.09)">
       <defs>
        <path id="LMRoman6-Regular-32" d="M 3443 1197 
L 3206 1197 
C 3194 1107 3130 685 3034 614 
C 2989 576 2470 576 2381 576 
L 1184 576 
L 2003 1242 
C 2221 1414 2790 1824 2989 2016 
C 3181 2208 3443 2534 3443 2989 
C 3443 3789 2720 4256 1862 4256 
C 1037 4256 461 3712 461 3110 
C 461 2784 736 2746 806 2746 
C 966 2746 1152 2861 1152 3091 
C 1152 3232 1069 3437 787 3437 
C 934 3763 1325 4006 1766 4006 
C 2438 4006 2797 3507 2797 2989 
C 2797 2534 2496 2067 2048 1658 
L 531 269 
C 467 205 461 198 461 0 
L 3245 0 
L 3443 1197 
z
" transform="scale(0.015625)"/>
       </defs>
       <use xlink:href="#LMRoman6-Regular-32"/>
       <use xlink:href="#LMRoman6-Regular-30" x="61.099991"/>
      </g>
     </g>
    </g>
    <g id="ytick_4">
     <g id="line2d_15">
      <g>
       <use xlink:href="#m61662707c3" x="58.110236" y="133.528485" style="stroke: #000000; stroke-width: 0.8"/>
      </g>
     </g>
     <g id="text_4">
      <!-- 30 -->
      <g transform="translate(40.113361 136.651767) scale(0.09 -0.09)">
       <defs>
        <path id="LMRoman6-Regular-33" d="M 3501 1107 
C 3501 1574 3142 2067 2381 2259 
C 2886 2426 3296 2835 3296 3360 
C 3296 3872 2694 4256 1926 4256 
C 1178 4256 608 3910 608 3386 
C 608 3110 819 3034 947 3034 
C 1114 3034 1286 3149 1286 3373 
C 1286 3571 1146 3686 973 3712 
C 1274 4045 1856 4045 1914 4045 
C 2240 4045 2650 3891 2650 3360 
C 2650 3008 2451 2394 1811 2355 
C 1696 2349 1523 2336 1466 2336 
C 1402 2330 1331 2323 1331 2227 
C 1331 2125 1402 2125 1510 2125 
L 1882 2125 
C 2426 2125 2790 1760 2790 1107 
C 2790 403 2368 96 1901 96 
C 1728 96 1069 134 781 506 
C 1030 531 1133 698 1133 870 
C 1133 1088 979 1235 768 1235 
C 595 1235 403 1126 403 858 
C 403 224 1107 -134 1920 -134 
C 2867 -134 3501 474 3501 1107 
z
" transform="scale(0.015625)"/>
       </defs>
       <use xlink:href="#LMRoman6-Regular-33"/>
       <use xlink:href="#LMRoman6-Regular-30" x="61.099991"/>
      </g>
     </g>
    </g>
    <g id="ytick_5">
     <g id="line2d_16">
      <g>
       <use xlink:href="#m61662707c3" x="58.110236" y="108.183418" style="stroke: #000000; stroke-width: 0.8"/>
      </g>
     </g>
     <g id="text_5">
      <!-- 40 -->
      <g transform="translate(40.113361 111.306699) scale(0.09 -0.09)">
       <defs>
        <path id="LMRoman6-Regular-34" d="M 3610 1050 
L 3610 1299 
L 2861 1299 
L 2861 4128 
C 2861 4275 2861 4320 2701 4320 
C 2586 4320 2573 4301 2515 4224 
L 294 1299 
L 294 1050 
L 2285 1050 
L 2285 538 
C 2285 326 2285 250 1747 250 
L 1562 250 
L 1562 0 
L 2573 26 
L 3584 0 
L 3584 250 
L 3398 250 
C 2861 250 2861 326 2861 538 
L 2861 1050 
L 3610 1050 
z
M 2330 1299 
L 570 1299 
L 2330 3622 
L 2330 1299 
z
" transform="scale(0.015625)"/>
       </defs>
       <use xlink:href="#LMRoman6-Regular-34"/>
       <use xlink:href="#LMRoman6-Regular-30" x="61.099991"/>
      </g>
     </g>
    </g>
    <g id="ytick_6">
     <g id="line2d_17">
      <g>
       <use xlink:href="#m61662707c3" x="58.110236" y="82.838351" style="stroke: #000000; stroke-width: 0.8"/>
      </g>
     </g>
     <g id="text_6">
      <!-- 50 -->
      <g transform="translate(40.113361 85.961632) scale(0.09 -0.09)">
       <defs>
        <path id="LMRoman6-Regular-35" d="M 3443 1286 
C 3443 2016 2854 2682 2029 2682 
C 1613 2682 1293 2547 1088 2374 
L 1088 3552 
C 1299 3494 1523 3469 1741 3469 
C 1882 3469 2240 3469 2643 3693 
C 2752 3757 3149 4019 3149 4154 
C 3149 4237 3085 4256 3059 4256 
C 3040 4256 3034 4256 2963 4230 
C 2733 4141 2406 4051 1990 4051 
C 1677 4051 1331 4109 1043 4218 
C 979 4243 954 4256 928 4256 
C 838 4256 838 4186 838 4083 
L 838 2163 
C 838 2054 838 1978 954 1978 
C 1011 1978 1030 2003 1075 2054 
C 1235 2259 1517 2477 2016 2477 
C 2803 2477 2803 1517 2803 1312 
C 2803 1062 2784 704 2573 442 
C 2374 198 2080 96 1805 96 
C 1363 96 922 339 768 710 
C 1082 717 1120 966 1120 1043 
C 1120 1216 986 1370 787 1370 
C 730 1370 461 1338 461 1018 
C 461 429 1018 -134 1824 -134 
C 2701 -134 3443 486 3443 1286 
z
" transform="scale(0.015625)"/>
       </defs>
       <use xlink:href="#LMRoman6-Regular-35"/>
       <use xlink:href="#LMRoman6-Regular-30" x="61.099991"/>
      </g>
     </g>
    </g>
    <g id="ytick_7">
     <g id="line2d_18">
      <g>
       <use xlink:href="#m61662707c3" x="58.110236" y="57.493284" style="stroke: #000000; stroke-width: 0.8"/>
      </g>
     </g>
     <g id="text_7">
      <!-- 60 -->
      <g transform="translate(40.113361 60.616565) scale(0.09 -0.09)">
       <defs>
        <path id="LMRoman6-Regular-36" d="M 3501 1306 
C 3501 1523 3475 1933 3085 2298 
C 2861 2502 2579 2726 2035 2726 
C 1587 2726 1261 2496 1043 2118 
C 1050 2438 1062 2970 1286 3366 
C 1568 3853 1990 4045 2374 4045 
C 2522 4045 2816 4019 2970 3840 
C 2733 3802 2694 3635 2694 3533 
C 2694 3366 2810 3226 3002 3226 
C 3194 3226 3315 3347 3315 3546 
C 3315 3936 3021 4256 2368 4256 
C 1376 4256 403 3392 403 2029 
C 403 474 1126 -134 1971 -134 
C 2221 -134 2656 -96 3046 282 
C 3251 486 3501 742 3501 1306 
z
M 2861 1306 
C 2861 864 2848 646 2630 390 
C 2477 198 2272 96 1965 96 
C 1062 96 1062 1197 1062 1446 
C 1062 1997 1427 2522 2003 2522 
C 2336 2522 2528 2387 2682 2182 
C 2861 1933 2861 1645 2861 1306 
z
" transform="scale(0.015625)"/>
       </defs>
       <use xlink:href="#LMRoman6-Regular-36"/>
       <use xlink:href="#LMRoman6-Regular-30" x="61.099991"/>
      </g>
     </g>
    </g>
    <g id="ytick_8">
     <g id="line2d_19">
      <g>
       <use xlink:href="#m61662707c3" x="58.110236" y="32.148217" style="stroke: #000000; stroke-width: 0.8"/>
      </g>
     </g>
     <g id="text_8">
      <!-- 70 -->
      <g transform="translate(40.113361 35.271498) scale(0.09 -0.09)">
       <defs>
        <path id="LMRoman6-Regular-37" d="M 3712 4122 
L 2061 4122 
C 1798 4122 1645 4128 1395 4147 
C 1082 4166 1005 4173 973 4326 
L 736 4326 
L 506 2925 
L 742 2925 
C 762 3059 826 3437 922 3507 
C 973 3546 1523 3546 1619 3546 
L 3066 3546 
L 2496 2861 
C 1875 2112 1440 1203 1440 230 
C 1440 173 1440 -134 1747 -134 
C 2061 -134 2061 160 2061 243 
L 2061 422 
C 2061 1651 2323 2278 2643 2662 
L 3654 3866 
C 3712 3930 3712 3942 3712 4122 
z
" transform="scale(0.015625)"/>
       </defs>
       <use xlink:href="#LMRoman6-Regular-37"/>
       <use xlink:href="#LMRoman6-Regular-30" x="61.099991"/>
      </g>
     </g>
    </g>
    <g id="ytick_9">
     <g id="line2d_20">
      <g>
       <use xlink:href="#m61662707c3" x="58.110236" y="6.80315" style="stroke: #000000; stroke-width: 0.8"/>
      </g>
     </g>
     <g id="text_9">
      <!-- 80 -->
      <g transform="translate(40.113361 9.926431) scale(0.09 -0.09)">
       <defs>
        <path id="LMRoman6-Regular-38" d="M 3501 1088 
C 3501 1530 3232 1792 3136 1888 
C 3014 2003 2694 2182 2464 2310 
C 2938 2522 3296 2835 3296 3296 
C 3296 3923 2624 4256 1958 4256 
C 1235 4256 608 3821 608 3174 
C 608 2778 870 2470 1139 2310 
L 1421 2150 
C 998 1990 403 1632 403 986 
C 403 237 1203 -134 1946 -134 
C 2797 -134 3501 378 3501 1088 
z
M 2938 3290 
C 2938 2797 2406 2534 2227 2445 
L 1306 2944 
C 1293 2950 966 3130 966 3424 
C 966 3840 1472 4045 1946 4045 
C 2445 4045 2938 3770 2938 3290 
z
M 3091 864 
C 3091 358 2502 96 1958 96 
C 1363 96 813 442 813 986 
C 813 1530 1325 1888 1677 2016 
L 2605 1504 
C 2739 1421 3091 1229 3091 864 
z
" transform="scale(0.015625)"/>
       </defs>
       <use xlink:href="#LMRoman6-Regular-38"/>
       <use xlink:href="#LMRoman6-Regular-30" x="61.099991"/>
      </g>
     </g>
    </g>
    <g id="text_10">
     <!-- Temperatur in °C -->
     <g transform="translate(34.366799 157.528435) rotate(-90) scale(0.09 -0.09)">
      <defs>
       <path id="LMRoman6-Regular-54" d="M 5203 2835 
L 5062 4326 
L 499 4326 
L 358 2835 
L 595 2835 
C 691 3994 941 4077 1907 4077 
C 2042 4077 2253 4077 2317 4070 
C 2464 4045 2464 3981 2464 3827 
L 2464 544 
C 2464 333 2464 250 1786 250 
L 1498 250 
L 1498 0 
C 1811 26 2445 26 2784 26 
C 3123 26 3757 26 4070 0 
L 4070 250 
L 3782 250 
C 3104 250 3104 333 3104 544 
L 3104 3827 
C 3104 3981 3104 4045 3245 4070 
C 3309 4077 3520 4077 3654 4077 
C 4627 4077 4870 3987 4966 2835 
L 5203 2835 
z
" transform="scale(0.015625)"/>
       <path id="LMRoman6-Regular-65" d="M 3194 768 
C 3194 800 3181 870 3072 870 
C 2989 870 2976 832 2950 755 
C 2758 282 2278 160 1984 160 
C 1632 160 1331 320 1152 550 
C 915 851 915 1274 915 1446 
L 3002 1446 
C 3142 1446 3194 1446 3194 1600 
C 3194 2093 2918 2854 1856 2854 
C 960 2854 307 2170 307 1402 
C 307 595 1043 -64 1946 -64 
C 2867 -64 3194 627 3194 768 
z
M 2726 1638 
L 928 1638 
C 998 2496 1587 2650 1850 2650 
C 2675 2650 2720 1824 2726 1638 
z
" transform="scale(0.015625)"/>
       <path id="LMRoman6-Regular-6d" d="M 6080 0 
L 6080 250 
C 5638 250 5574 250 5574 525 
L 5574 1933 
C 5574 2586 5190 2822 4563 2822 
C 3968 2822 3616 2483 3475 2240 
C 3328 2822 2675 2822 2496 2822 
C 1914 2822 1555 2502 1402 2234 
L 1395 2234 
L 1395 2822 
L 403 2752 
L 403 2502 
C 851 2502 909 2458 909 2144 
L 909 525 
C 909 250 845 250 403 250 
L 403 0 
C 448 6 883 26 1171 26 
C 1459 26 1882 6 1946 0 
L 1946 250 
C 1504 250 1440 250 1440 525 
L 1440 1651 
C 1440 2355 2048 2618 2438 2618 
C 2880 2618 2976 2342 2976 1946 
L 2976 525 
C 2976 250 2912 250 2470 250 
L 2470 0 
C 2515 6 2950 26 3238 26 
C 3526 26 3949 6 4013 0 
L 4013 250 
C 3571 250 3507 250 3507 525 
L 3507 1651 
C 3507 2355 4115 2618 4506 2618 
C 4947 2618 5043 2342 5043 1946 
L 5043 525 
C 5043 250 4979 250 4538 250 
L 4538 0 
C 4582 6 5018 26 5306 26 
C 5594 26 6016 6 6080 0 
z
" transform="scale(0.015625)"/>
       <path id="LMRoman6-Regular-70" d="M 3974 1382 
C 3974 2157 3302 2822 2419 2822 
C 1837 2822 1478 2534 1382 2445 
L 1382 2822 
L 371 2752 
L 371 2502 
C 806 2502 877 2502 877 2208 
L 877 -717 
C 877 -992 813 -992 371 -992 
L 371 -1242 
C 416 -1235 851 -1216 1139 -1216 
C 1427 -1216 1850 -1235 1914 -1242 
L 1914 -992 
C 1472 -992 1408 -992 1408 -717 
L 1408 307 
C 1670 58 1971 -64 2323 -64 
C 3213 -64 3974 570 3974 1382 
z
M 3366 1382 
C 3366 666 2854 141 2285 141 
C 1792 141 1504 493 1408 678 
L 1408 2118 
C 1626 2419 1978 2598 2355 2598 
C 2938 2598 3366 2035 3366 1382 
z
" transform="scale(0.015625)"/>
       <path id="LMRoman6-Regular-72" d="M 2778 2400 
C 2778 2656 2534 2822 2253 2822 
C 1869 2822 1542 2592 1344 2163 
L 1338 2163 
L 1338 2822 
L 371 2752 
L 371 2502 
C 819 2502 877 2458 877 2144 
L 877 525 
C 877 250 813 250 371 250 
L 371 0 
C 531 13 1005 26 1146 26 
C 1478 26 1920 6 2010 0 
L 2010 250 
L 1869 250 
C 1389 250 1382 314 1382 531 
L 1382 1434 
C 1382 2029 1690 2605 2259 2618 
C 2202 2560 2176 2483 2176 2400 
C 2176 2227 2304 2099 2477 2099 
C 2650 2099 2778 2227 2778 2400 
z
" transform="scale(0.015625)"/>
       <path id="LMRoman6-Regular-61" d="M 3712 576 
L 3712 928 
L 3475 928 
L 3475 589 
C 3475 525 3475 237 3226 237 
C 2976 237 2976 525 2976 589 
L 2976 1907 
C 2976 2502 2368 2854 1651 2854 
C 1344 2854 589 2822 589 2285 
C 589 2112 704 1971 902 1971 
C 1088 1971 1210 2112 1210 2278 
C 1210 2394 1158 2502 1043 2554 
C 1254 2650 1574 2650 1638 2650 
C 2093 2650 2445 2381 2445 1894 
L 2445 1728 
C 2150 1715 1638 1702 1171 1536 
C 749 1389 346 1101 346 672 
C 346 102 1024 -64 1523 -64 
C 2061 -64 2381 205 2522 448 
C 2566 115 2778 -32 3002 -32 
C 3027 -32 3712 -32 3712 576 
z
M 2445 909 
C 2445 243 1786 141 1581 141 
C 1235 141 909 352 909 672 
C 909 1030 1254 1498 2445 1536 
L 2445 909 
z
" transform="scale(0.015625)"/>
       <path id="LMRoman6-Regular-74" d="M 2566 806 
L 2566 1158 
L 2330 1158 
L 2330 819 
C 2330 365 2093 160 1856 160 
C 1395 160 1395 678 1395 800 
L 1395 2509 
L 2445 2509 
L 2445 2758 
L 1395 2758 
L 1395 3936 
L 1158 3936 
C 1152 3366 877 2739 230 2714 
L 230 2509 
L 864 2509 
L 864 800 
C 864 128 1370 -64 1805 -64 
C 2246 -64 2566 288 2566 806 
z
" transform="scale(0.015625)"/>
       <path id="LMRoman6-Regular-75" d="M 4006 0 
L 4006 250 
C 3558 250 3501 294 3501 608 
L 3501 2822 
L 2464 2752 
L 2464 2502 
C 2912 2502 2970 2458 2970 2144 
L 2970 1075 
C 2970 493 2566 141 2074 141 
C 1466 141 1440 410 1440 723 
L 1440 2822 
L 403 2752 
L 403 2502 
C 909 2502 909 2445 909 2067 
L 909 1069 
C 909 634 909 352 1197 141 
C 1440 -38 1760 -64 2029 -64 
C 2432 -64 2771 96 2995 461 
L 2995 -64 
L 4006 0 
z
" transform="scale(0.015625)"/>
       <path id="LMRoman6-Regular-20" transform="scale(0.015625)"/>
       <path id="LMRoman6-Regular-69" d="M 1875 0 
L 1875 250 
C 1478 250 1421 250 1421 518 
L 1421 2822 
L 435 2752 
L 435 2502 
C 858 2502 915 2458 915 2144 
L 915 525 
C 915 250 851 250 410 250 
L 410 0 
L 1158 26 
C 1222 26 1709 13 1875 0 
z
M 1510 3846 
C 1510 4051 1344 4230 1126 4230 
C 890 4230 736 4032 736 3846 
C 736 3642 902 3462 1120 3462 
C 1357 3462 1510 3661 1510 3846 
z
" transform="scale(0.015625)"/>
       <path id="LMRoman6-Regular-6e" d="M 4006 0 
L 4006 250 
C 3565 250 3501 250 3501 525 
L 3501 1933 
C 3501 2560 3142 2822 2496 2822 
C 1933 2822 1581 2528 1395 2221 
L 1395 2822 
L 403 2752 
L 403 2502 
C 851 2502 909 2458 909 2144 
L 909 525 
C 909 250 845 250 403 250 
L 403 0 
C 448 6 883 26 1171 26 
C 1459 26 1882 6 1946 0 
L 1946 250 
C 1504 250 1440 250 1440 525 
L 1440 1651 
C 1440 2355 2042 2618 2438 2618 
C 2867 2618 2970 2349 2970 1952 
L 2970 525 
C 2970 250 2906 250 2464 250 
L 2464 0 
C 2509 6 2944 26 3232 26 
C 3520 26 3942 6 4006 0 
z
" transform="scale(0.015625)"/>
       <path id="LMRoman6-Regular-b0" d="M 2502 3334 
C 2502 3910 2042 4371 1466 4371 
C 896 4371 429 3910 429 3334 
C 429 2765 896 2298 1466 2298 
C 2042 2298 2502 2765 2502 3334 
z
M 2170 3334 
C 2170 2950 1856 2630 1466 2630 
C 1075 2630 762 2950 762 3334 
C 762 3725 1075 4038 1466 4038 
C 1856 4038 2170 3725 2170 3334 
z
" transform="scale(0.015625)"/>
       <path id="LMRoman6-Regular-43" d="M 5056 1498 
C 5056 1568 5050 1632 4934 1632 
C 4832 1632 4826 1581 4819 1523 
C 4768 544 3878 115 3174 115 
C 2406 115 1216 570 1216 2189 
C 1216 3776 2374 4256 3168 4256 
C 3891 4256 4640 3763 4800 2784 
C 4813 2701 4819 2656 4928 2656 
C 5056 2656 5056 2707 5056 2835 
L 5056 4326 
C 5056 4435 5056 4506 4954 4506 
C 4896 4506 4883 4480 4838 4422 
L 4486 3936 
C 4115 4307 3610 4506 3085 4506 
C 1664 4506 506 3456 506 2189 
C 506 902 1664 -134 3091 -134 
C 4262 -134 5056 685 5056 1498 
z
" transform="scale(0.015625)"/>
      </defs>
      <use xlink:href="#LMRoman6-Regular-54"/>
      <use xlink:href="#LMRoman6-Regular-65" x="86.999985"/>
      <use xlink:href="#LMRoman6-Regular-6d" x="141.599976"/>
      <use xlink:href="#LMRoman6-Regular-70" x="241.59996"/>
      <use xlink:href="#LMRoman6-Regular-65" x="309.199951"/>
      <use xlink:href="#LMRoman6-Regular-72" x="363.799942"/>
      <use xlink:href="#LMRoman6-Regular-61" x="411.899933"/>
      <use xlink:href="#LMRoman6-Regular-74" x="472.999924"/>
      <use xlink:href="#LMRoman6-Regular-75" x="521.099915"/>
      <use xlink:href="#LMRoman6-Regular-72" x="588.699905"/>
      <use xlink:href="#LMRoman6-Regular-20" x="636.799896"/>
      <use xlink:href="#LMRoman6-Regular-69" x="678.499893"/>
      <use xlink:href="#LMRoman6-Regular-6e" x="713.69989"/>
      <use xlink:href="#LMRoman6-Regular-20" x="781.299881"/>
      <use xlink:href="#LMRoman6-Regular-b0" x="822.999878"/>
      <use xlink:href="#LMRoman6-Regular-43" x="868.799866"/>
     </g>
    </g>
   </g>
   <g id="line2d_21">
    <path d="M 58.110236 83.091808 
L 58.768819 83.16784 
L 59.09811 83.142499 
L 59.427402 82.939734 
L 59.756693 82.584904 
L 60.415276 81.2923 
L 61.073858 79.670218 
L 61.732441 78.707112 
L 62.391024 78.098826 
L 64.03748 77.566582 
L 69.964724 76.299329 
L 72.599055 75.817766 
L 74.904094 75.032075 
L 75.562677 74.575863 
L 75.891969 74.195684 
L 76.22126 73.612748 
L 76.879843 71.610486 
L 77.538425 68.36632 
L 79.843465 55.491031 
L 80.502047 52.931174 
L 81.489921 50.11787 
L 82.477795 48.191649 
L 83.136378 47.329907 
L 83.794961 46.620248 
L 84.782835 46.138705 
L 85.770709 45.96129 
L 86.429291 46.062653 
L 87.087874 46.290769 
L 88.075748 46.975077 
L 89.063622 48.090266 
L 90.380787 50.827538 
L 91.03937 52.931174 
L 91.697953 55.516372 
L 92.685827 60.103832 
L 93.344409 63.829551 
L 94.332283 71.357039 
L 95.320157 78.580379 
L 96.308031 83.776126 
L 96.966614 86.031835 
L 97.625197 87.552535 
L 98.28378 88.363577 
L 98.942362 88.819788 
L 99.930236 88.895821 
L 100.588819 88.794448 
L 101.576693 88.414268 
L 102.893858 87.780641 
L 103.552441 87.501844 
L 104.869606 86.792185 
L 106.516063 86.107867 
L 107.503937 85.955793 
L 113.10189 85.85442 
L 113.760472 85.85442 
L 114.419055 85.85442 
L 117.053386 85.550273 
L 118.370551 84.941996 
L 119.029134 84.384402 
L 119.687717 83.471978 
L 120.017008 82.838351 
L 120.675591 80.861439 
L 121.334173 77.287785 
L 121.992756 71.610486 
L 123.639213 55.338957 
L 124.297795 51.004953 
L 124.956378 48.090266 
L 125.614961 46.138705 
L 126.273543 44.972834 
L 126.932126 44.111092 
L 127.590709 43.528147 
L 129.566457 42.641073 
L 136.810866 41.627266 
L 137.469449 41.551234 
L 138.457323 41.475202 
L 142.079528 41.551234 
L 142.73811 41.627266 
L 145.701732 41.703318 
L 147.018898 41.804701 
L 148.006772 41.880733 
L 149.98252 42.336945 
L 150.311811 42.590391 
L 150.641102 43.021253 
L 150.970394 43.908326 
L 151.628976 47.405948 
L 152.946142 54.832054 
L 154.263307 60.534694 
L 155.251181 63.778859 
L 156.239055 66.034579 
L 157.226929 67.580619 
L 158.214803 68.569085 
L 159.202677 69.177361 
L 160.849134 69.734956 
L 162.166299 69.912371 
L 163.154173 70.039094 
L 164.142047 70.140477 
L 166.776378 70.241859 
L 171.057165 70.343232 
L 171.715748 70.419274 
L 177.972283 70.824795 
L 179.61874 70.571338 
L 179.948031 70.241859 
L 180.277323 68.949255 
L 180.935906 62.714371 
L 181.92378 53.843598 
L 182.582362 49.889764 
L 183.240945 47.203193 
L 183.899528 45.378345 
L 184.55811 44.237825 
L 185.216693 43.528147 
L 185.545984 43.249369 
L 187.192441 43.021253 
L 187.851024 43.198668 
L 188.509606 43.452114 
L 189.168189 44.06041 
L 189.49748 44.770069 
L 190.156063 47.887511 
L 192.131811 59.140717 
L 192.790394 61.90333 
L 193.448976 64.057657 
L 194.43685 66.059919 
L 195.424724 67.175099 
L 196.412598 67.732693 
L 198.059055 68.011491 
L 199.046929 68.062182 
L 201.351969 67.960799 
L 207.608504 67.580619 
L 207.937795 67.656661 
L 208.925669 67.580619 
L 211.56 67.682002 
L 214.194331 67.783385 
L 215.511496 67.682002 
L 217.816535 67.580619 
L 220.780157 67.428555 
L 222.097323 67.428555 
L 223.74378 67.377864 
L 226.37811 67.504587 
L 228.024567 67.327173 
L 228.353858 67.377864 
L 229.671024 67.175099 
L 233.293228 66.820269 
L 234.610394 66.617514 
L 238.232598 66.389408 
L 239.220472 66.46544 
L 240.537638 66.46544 
L 241.525512 66.414749 
L 242.184094 66.338717 
L 244.159843 66.135951 
L 245.147717 65.933196 
L 248.769921 65.274219 
L 250.087087 65.071463 
L 251.074961 64.894049 
L 251.404252 64.539219 
L 251.733543 63.930933 
L 253.38 59.419514 
L 254.038583 57.873464 
L 254.697165 55.541713 
L 255.355748 53.108588 
L 256.014331 51.537197 
L 256.343622 51.2584 
L 256.672913 51.182368 
L 257.002205 51.334432 
L 257.660787 51.942718 
L 258.648661 53.209971 
L 259.307244 54.097045 
L 259.965827 55.491031 
L 261.612283 59.495547 
L 262.600157 61.295044 
L 263.25874 62.207468 
L 263.917323 62.765063 
L 264.905197 63.246615 
L 266.551654 63.398689 
L 273.13748 62.486265 
L 274.783937 62.258159 
L 275.771811 62.030053 
L 276.759685 61.928671 
L 283.01622 61.345735 
L 287.955591 60.484003 
L 289.272756 60.230556 
L 292.565669 60.306588 
L 293.882835 60.407971 
L 294.870709 60.484003 
L 295.529291 60.534694 
L 296.187874 60.534694 
L 298.822205 60.484003 
L 299.480787 60.407971 
L 299.810079 60.484003 
L 300.468661 60.407971 
L 304.090866 60.306588 
L 304.749449 60.230556 
L 306.395906 60.129173 
L 308.700945 60.053141 
L 310.676693 59.951759 
L 315.286772 59.698312 
L 317.26252 59.64762 
L 318.250394 59.520897 
L 324.83622 58.912611 
L 326.153386 58.583123 
L 327.14126 58.405708 
L 329.117008 58.025538 
L 330.104882 57.873464 
L 330.763465 57.696049 
L 332.739213 57.315869 
L 333.397795 57.239837 
L 336.690709 56.631551 
L 337.349291 56.504828 
L 338.666457 56.226031 
L 339.983622 55.921892 
L 341.300787 55.643095 
L 343.276535 55.110851 
L 344.264409 54.857404 
L 345.910866 54.375842 
L 346.240157 54.249118 
L 346.89874 54.147736 
L 347.886614 53.970321 
L 350.191654 53.362045 
L 350.850236 53.209971 
L 351.179528 53.057897 
L 351.83811 52.905833 
L 355.460315 52.246856 
L 360.728976 51.106326 
L 361.387559 51.055644 
L 362.046142 50.928911 
L 363.034016 50.802188 
L 363.692598 50.650124 
L 364.351181 50.548741 
L 366.985512 50.219252 
L 367.644094 50.168561 
L 368.631969 50.016497 
L 371.266299 49.940455 
L 371.924882 49.864423 
L 376.864252 49.408211 
L 380.157165 48.59717 
L 382.462205 47.279225 
L 383.450079 46.518865 
L 385.096535 44.896782 
L 388.060157 41.551234 
L 388.389449 41.348489 
L 389.706614 40.005184 
L 390.365197 39.599673 
L 391.682362 38.459133 
L 394.316693 36.913102 
L 394.975276 36.558253 
L 397.938898 35.113585 
L 398.59748 34.733424 
L 398.926772 34.733424 
L 399.256063 34.277212 
L 399.914646 33.897033 
L 402.219685 32.756493 
L 404.524724 32.148217 
L 405.84189 32.072185 
L 407.159055 31.970802 
L 409.464094 31.89477 
L 410.122677 31.844088 
L 410.78126 31.844088 
L 415.391339 31.89477 
L 416.049921 31.970802 
L 417.696378 31.945452 
L 419.342835 31.970802 
L 425.928661 32.021503 
L 426.587244 32.072185 
L 427.904409 32.072185 
L 436.136693 32.148217 
L 437.124567 32.198918 
L 438.112441 32.148217 
L 438.771024 32.148217 
L 450.625512 32.224249 
L 451.284094 32.224249 
L 452.930551 32.249599 
L 453.259843 32.249599 
L 453.259843 32.249599 
" clip-path="url(#p2c20bc7993)" style="fill: none; stroke: #000000; stroke-width: 0.9; stroke-linecap: square"/>
   </g>
   <g id="line2d_22">
    <path d="M 58.110236 65.654399 
L 58.768819 65.71776 
L 59.756693 65.527675 
L 60.415276 65.806473 
L 63.049606 65.806468 
L 63.378898 65.882505 
L 64.03748 65.654399 
L 64.696063 65.831813 
L 65.683937 65.654399 
L 66.013228 65.641723 
L 67.001102 65.831813 
L 67.659685 65.768452 
L 70.623307 65.819143 
L 70.952598 65.70509 
L 73.257638 65.882505 
L 74.245512 65.768452 
L 75.233386 65.958542 
L 75.891969 65.806473 
L 77.209134 65.869829 
L 82.807087 65.768452 
L 83.136378 65.591037 
L 83.794961 66.832945 
L 84.124252 66.250009 
L 84.782835 65.89518 
L 85.112126 66.782253 
L 85.441417 66.6682 
L 85.770709 65.362931 
L 87.087874 63.145233 
L 88.075748 62.49894 
L 88.405039 61.814618 
L 89.722205 60.737454 
L 90.710079 60.56004 
L 91.03937 60.382625 
L 92.685827 60.065807 
L 93.344409 59.875717 
L 94.002992 59.913742 
L 94.990866 59.343482 
L 95.649449 59.343478 
L 96.308031 59.026669 
L 96.637323 59.140717 
L 97.954488 58.836579 
L 98.613071 58.342341 
L 99.271654 58.583132 
L 99.600945 58.50709 
L 100.259528 58.025538 
L 100.91811 57.962171 
L 101.576693 57.620012 
L 103.881732 57.189146 
L 104.540315 57.138459 
L 105.528189 57.189151 
L 106.186772 57.049747 
L 106.516063 57.277858 
L 109.808976 57.227167 
L 111.455433 57.265178 
L 113.10189 57.239837 
L 113.760472 57.34122 
L 116.724094 57.315869 
L 117.382677 57.429922 
L 118.370551 57.353895 
L 120.346299 57.328549 
L 122.651339 57.429922 
L 123.639213 57.391911 
L 124.627087 57.35389 
L 125.614961 57.417252 
L 126.602835 57.391906 
L 127.92 57.442597 
L 129.566457 57.417252 
L 131.212913 57.429927 
L 133.188661 57.480614 
L 135.493701 57.480614 
L 137.469449 57.569326 
L 138.128031 57.189146 
L 140.433071 56.644231 
L 140.762362 56.213365 
L 141.420945 56.073966 
L 142.408819 55.313611 
L 145.04315 54.249114 
L 146.031024 54.211102 
L 146.360315 53.970321 
L 146.689606 53.944975 
L 147.018898 53.716879 
L 148.006772 53.615487 
L 148.994646 53.387381 
L 149.98252 53.247987 
L 153.275433 52.79178 
L 154.92189 52.931179 
L 155.909764 52.829801 
L 157.55622 52.741089 
L 158.214803 52.601685 
L 160.519843 52.386259 
L 160.849134 52.4116 
L 161.507717 52.348238 
L 163.812756 52.094787 
L 168.093543 51.85401 
L 168.752126 51.790653 
L 170.069291 51.689266 
L 171.715748 51.600564 
L 174.67937 51.46116 
L 177.313701 51.486511 
L 177.642992 50.954257 
L 177.972283 51.119001 
L 178.301575 51.777973 
L 178.630866 51.714612 
L 179.289449 51.410474 
L 179.948031 51.271075 
L 180.277323 51.271075 
L 180.606614 51.587888 
L 182.911654 51.410474 
L 185.875276 51.372448 
L 186.533858 51.27108 
L 187.851024 51.220379 
L 188.838898 50.928916 
L 189.49748 50.814858 
L 190.156063 50.776842 
L 191.80252 50.536071 
L 196.083307 50.307965 
L 201.351969 50.168566 
L 202.339843 50.193912 
L 212.877165 50.105204 
L 213.206457 50.003822 
L 213.535748 50.054508 
L 214.194331 49.839082 
L 214.523622 49.889769 
L 214.852913 50.067183 
L 215.511496 49.877098 
L 215.840787 49.610971 
L 216.49937 49.522264 
L 217.157953 49.243472 
L 217.816535 49.243472 
L 218.475118 49.218126 
L 221.768031 49.319504 
L 222.097323 49.243467 
L 222.426614 49.37019 
L 226.37811 49.00269 
L 227.036693 48.875967 
L 227.365984 48.926653 
L 229.012441 48.571829 
L 231.976063 48.216995 
L 233.62252 48.21699 
L 233.951811 48.305697 
L 234.610394 48.267686 
L 235.598268 48.255006 
L 236.586142 48.407085 
L 237.244724 48.267681 
L 238.891181 48.204319 
L 240.208346 48.216999 
L 240.866929 48.090266 
L 241.19622 48.128282 
L 241.854803 47.976218 
L 242.842677 47.798794 
L 243.171969 47.912852 
L 244.159843 47.558017 
L 244.818425 47.608714 
L 245.477008 47.507326 
L 246.135591 47.443969 
L 246.794173 47.431299 
L 249.428504 47.405948 
L 250.745669 47.507326 
L 251.733543 47.380608 
L 252.721417 47.431294 
L 253.050709 47.596043 
L 253.709291 47.481985 
L 254.038583 47.545347 
L 254.697165 47.520001 
L 255.355748 47.558022 
L 256.014331 47.494661 
L 256.672913 47.228538 
L 257.002205 47.431294 
L 257.660787 47.418619 
L 258.977953 46.442838 
L 259.307244 46.366801 
L 259.636535 46.594907 
L 259.965827 46.049988 
L 260.624409 45.543084 
L 260.953701 45.416361 
L 261.612283 44.681352 
L 263.25874 43.832299 
L 264.905197 43.566172 
L 269.515276 43.629534 
L 270.50315 43.832299 
L 272.808189 43.756262 
L 273.466772 43.794283 
L 274.125354 43.781603 
L 274.783937 43.743592 
L 275.771811 43.730912 
L 276.759685 43.591513 
L 278.406142 43.604193 
L 279.064724 43.502806 
L 280.052598 43.49014 
L 283.674803 43.452124 
L 284.333386 43.47747 
L 284.662677 43.2747 
L 285.32126 43.173322 
L 286.309134 42.957891 
L 286.638425 42.91987 
L 286.967717 42.704444 
L 288.284882 42.615732 
L 289.272756 42.52703 
L 290.919213 42.615737 
L 291.248504 42.818493 
L 291.907087 42.780472 
L 293.553543 42.691769 
L 297.175748 42.742456 
L 298.822205 42.742456 
L 299.480787 42.793147 
L 300.468661 42.72979 
L 311.335276 42.222882 
L 312.32315 42.020122 
L 313.969606 41.918744 
L 315.286772 41.703313 
L 322.531181 40.63882 
L 323.189764 40.61347 
L 324.83622 40.296656 
L 325.824094 40.423389 
L 326.811969 40.106571 
L 329.775591 39.625018 
L 330.104882 39.599668 
L 330.763465 39.346226 
L 331.422047 39.396908 
L 331.751339 39.168802 
L 332.409921 39.029413 
L 333.068504 38.687249 
L 333.727087 38.890014 
L 334.385669 38.611217 
L 335.702835 38.459143 
L 337.02 38.218371 
L 337.678583 38.155005 
L 339.654331 37.762159 
L 340.312913 37.724133 
L 340.971496 37.331278 
L 341.630079 37.546719 
L 341.95937 37.394645 
L 342.288661 37.496027 
L 343.276535 37.179214 
L 348.215906 36.621629 
L 348.545197 36.418864 
L 348.874488 36.064035 
L 349.862362 36.127392 
L 350.520945 36.0767 
L 350.850236 36.089375 
L 351.179528 36.279465 
L 351.83811 36.228774 
L 352.825984 36.07671 
L 353.813858 36.064035 
L 354.472441 35.987993 
L 355.460315 35.734546 
L 355.789606 35.747221 
L 357.436063 35.012212 
L 357.765354 35.214977 
L 358.094646 35.037553 
L 359.08252 35.341701 
L 359.411811 35.265669 
L 359.741102 35.31635 
L 360.399685 35.151611 
L 361.058268 35.100919 
L 362.046142 35.189636 
L 363.034016 34.872813 
L 363.692598 34.606691 
L 364.680472 34.543325 
L 365.668346 34.619367 
L 369.619843 34.682723 
L 370.278425 34.784116 
L 371.595591 34.581351 
L 372.254173 34.657373 
L 373.571339 34.644707 
L 375.547087 34.632032 
L 376.205669 34.644707 
L 376.864252 34.784106 
L 379.169291 34.594016 
L 380.486457 34.74609 
L 381.803622 34.74609 
L 382.791496 34.682723 
L 387.072283 34.733415 
L 388.060157 34.834797 
L 389.048031 34.74609 
L 395.304567 34.834807 
L 396.292441 34.809457 
L 398.268189 34.809457 
L 400.243937 34.872823 
L 419.013543 34.961521 
L 420.001417 34.999537 
L 432.84378 35.088244 
L 434.160945 35.088244 
L 446.344724 35.176952 
L 447.003307 35.189627 
L 449.308346 35.189627 
L 450.625512 35.240318 
L 451.613386 35.214977 
L 452.60126 35.252984 
L 453.259843 35.252984 
L 453.259843 35.252984 
" clip-path="url(#p2c20bc7993)" style="fill: none; stroke-dasharray: 3.33,1.44; stroke-dashoffset: 0; stroke: #000000; stroke-width: 0.9"/>
   </g>
   <g id="line2d_23">
    <path d="M 58.110236 106.485303 
L 59.427402 106.485303 
L 66.671811 106.383921 
L 68.318268 106.181156 
L 69.635433 105.927709 
L 72.928346 106.029091 
L 76.550551 106.409262 
L 78.197008 106.612027 
L 78.855591 106.662718 
L 80.172756 106.662718 
L 82.807087 106.764101 
L 83.794961 106.840133 
L 84.782835 106.865474 
L 87.417165 106.966856 
L 109.150394 106.865474 
L 119.358425 105.9784 
L 121.334173 105.750294 
L 121.992756 105.674262 
L 124.297795 105.420806 
L 137.469449 104.508382 
L 141.091654 104.407009 
L 143.396693 104.330967 
L 146.689606 104.254935 
L 147.67748 104.204243 
L 154.92189 104.102861 
L 156.568346 104.07752 
L 163.154173 103.976137 
L 164.80063 103.900105 
L 165.459213 103.900105 
L 168.422835 103.849414 
L 169.081417 103.773382 
L 169.74 103.849414 
L 170.398583 104.254935 
L 171.057165 105.572879 
L 171.715748 106.383921 
L 172.374331 106.916165 
L 173.691496 107.448409 
L 175.996535 107.87928 
L 176.984409 107.955312 
L 177.642992 107.828589 
L 178.960157 107.448409 
L 179.948031 106.992207 
L 180.606614 106.662718 
L 181.265197 106.459953 
L 182.582362 105.851677 
L 183.570236 105.446156 
L 185.875276 104.635115 
L 186.86315 104.305626 
L 189.826772 103.063714 
L 193.778268 101.340248 
L 194.43685 101.137493 
L 196.083307 101.112142 
L 196.74189 101.314907 
L 197.400472 101.745769 
L 198.717638 102.860958 
L 199.705512 103.976137 
L 200.364094 104.508382 
L 201.68126 105.674262 
L 202.669134 106.35858 
L 203.327717 106.73875 
L 203.986299 107.220313 
L 204.974173 107.752557 
L 205.632756 108.132727 
L 206.291339 108.436875 
L 207.279213 108.867736 
L 209.254961 109.704128 
L 209.913543 110.008266 
L 211.230709 110.413787 
L 217.487244 112.720188 
L 219.792283 113.1764 
L 221.109449 113.404506 
L 221.768031 113.404506 
L 222.097323 113.607261 
L 223.74378 113.759335 
L 224.731654 113.531229 
L 226.37811 112.542773 
L 227.036693 111.883796 
L 229.012441 110.413787 
L 230.000315 109.628086 
L 230.988189 108.918428 
L 232.634646 107.87928 
L 234.939685 106.561335 
L 236.586142 105.142008 
L 237.244724 104.711147 
L 239.220472 103.595967 
L 240.866929 102.430087 
L 241.854803 101.720428 
L 243.171969 100.706622 
L 244.159843 100.098345 
L 244.818425 99.946271 
L 245.477008 99.996963 
L 246.135591 100.098345 
L 247.452756 100.909387 
L 249.099213 102.049917 
L 250.087087 102.734235 
L 256.014331 105.370114 
L 260.624409 106.688059 
L 265.234488 107.828589 
L 265.893071 108.006004 
L 271.820315 109.298607 
L 272.808189 109.450672 
L 275.44252 109.957575 
L 279.723307 110.641893 
L 280.38189 110.946031 
L 281.040472 111.224828 
L 281.699055 111.630349 
L 282.686929 111.858455 
L 284.333386 112.010529 
L 288.943465 112.416049 
L 289.931339 112.897602 
L 290.919213 113.455197 
L 291.577795 113.93675 
L 292.894961 115.127971 
L 295.2 116.648671 
L 295.858583 116.775394 
L 296.846457 116.674022 
L 297.505039 116.268501 
L 298.822205 115.127971 
L 300.13937 113.733994 
L 301.127244 112.897602 
L 303.432283 111.402243 
L 305.07874 110.54051 
L 306.725197 109.476022 
L 307.38378 109.121193 
L 312.32315 105.420806 
L 314.298898 104.07752 
L 315.616063 103.089064 
L 317.591811 101.847151 
L 318.908976 101.137493 
L 320.555433 100.301101 
L 321.543307 100.174377 
L 322.20189 100.351792 
L 324.83622 101.771119 
L 325.494803 102.328714 
L 326.153386 102.734235 
L 326.811969 103.241128 
L 329.775591 104.508382 
L 331.751339 105.015285 
L 337.349291 106.231847 
L 338.995748 106.434612 
L 342.617953 107.169621 
L 347.886614 108.056695 
L 348.545197 108.23411 
L 349.533071 108.335492 
L 358.094646 109.552054 
L 360.399685 109.830851 
L 361.71685 109.932234 
L 367.314803 110.464478 
L 368.302677 110.54051 
L 369.619843 110.641893 
L 377.522835 111.148796 
L 378.181417 111.072754 
L 379.827874 111.047414 
L 382.132913 111.148796 
L 387.072283 111.427593 
L 390.365197 111.528966 
L 392.340945 111.579658 
L 394.645984 111.655699 
L 395.304567 111.655699 
L 397.609606 111.731732 
L 398.926772 111.731732 
L 402.878268 111.833114 
L 404.524724 111.858455 
L 412.098425 111.959838 
L 413.415591 111.959838 
L 415.391339 111.909146 
L 416.049921 111.934487 
L 419.013543 111.833114 
L 421.647874 111.706381 
L 423.294331 111.757072 
L 424.611496 111.757072 
L 426.587244 111.807764 
L 427.575118 111.731732 
L 440.41748 111.630349 
L 441.405354 111.605008 
L 442.063937 111.68104 
L 443.051811 111.630349 
L 445.686142 111.528966 
L 452.271969 111.427593 
L 453.259843 111.351552 
L 453.259843 111.351552 
" clip-path="url(#p2c20bc7993)" style="fill: none; stroke-dasharray: 5.76,1.44,0.9,1.44; stroke-dashoffset: 0; stroke: #000000; stroke-width: 0.9"/>
   </g>
   <g id="line2d_24">
    <path d="M 58.110236 148.05121 
L 101.247402 148.127247 
L 102.235276 148.139917 
L 102.893858 148.101901 
L 103.552441 148.15259 
L 103.881732 148.089226 
L 104.869606 148.139917 
L 105.85748 148.114574 
L 107.174646 148.127245 
L 165.459213 148.127245 
L 165.788504 148.241298 
L 166.776378 148.177936 
L 169.74 148.203282 
L 170.398583 148.190606 
L 173.032913 148.190609 
L 174.350079 148.228627 
L 176.655118 148.228627 
L 177.313701 148.203279 
L 179.948031 148.177936 
L 181.594488 148.241298 
L 181.92378 148.177936 
L 182.911654 148.228625 
L 186.204567 148.190609 
L 189.168189 148.228627 
L 190.156063 148.215954 
L 191.143937 148.266643 
L 192.131811 148.025865 
L 194.43685 147.899141 
L 194.766142 148.013194 
L 195.424724 147.886468 
L 195.754016 147.823107 
L 196.74189 147.962503 
L 197.400472 147.924484 
L 198.388346 147.595001 
L 198.717638 147.772415 
L 200.693386 147.531636 
L 201.022677 147.683708 
L 202.669134 147.658362 
L 203.986299 147.556982 
L 205.632756 147.392238 
L 207.937795 147.39224 
L 209.584252 147.265512 
L 209.913543 147.379567 
L 212.218583 147.176805 
L 214.523622 147.164132 
L 218.145827 146.885337 
L 218.475118 147.050079 
L 219.792283 146.89801 
L 220.450866 146.872667 
L 221.43874 146.89801 
L 224.731654 146.89801 
L 225.390236 147.037406 
L 225.719528 146.91068 
L 227.695276 146.923355 
L 228.353858 146.89801 
L 230.988189 146.885337 
L 231.646772 146.974044 
L 235.268976 146.783957 
L 235.598268 146.936026 
L 236.586142 146.872664 
L 237.903307 146.961371 
L 240.537638 146.872664 
L 240.866929 146.961371 
L 242.184094 146.745941 
L 242.513386 146.885339 
L 242.842677 146.821973 
L 243.171969 146.644561 
L 245.477008 146.530508 
L 245.806299 146.682577 
L 246.135591 146.581196 
L 246.464882 146.707922 
L 247.123465 146.479816 
L 247.452756 146.302402 
L 248.769921 146.226365 
L 249.428504 146.226365 
L 250.745669 146.555851 
L 251.074961 146.365763 
L 252.062835 146.289729 
L 252.392126 146.315074 
L 253.050709 146.124984 
L 254.038583 145.909551 
L 254.367874 146.086968 
L 256.343622 146.188346 
L 257.002205 146.010931 
L 259.307244 145.719464 
L 260.624409 145.833517 
L 260.953701 145.6561 
L 261.282992 145.757482 
L 261.941575 145.732137 
L 262.600157 145.757482 
L 262.929449 145.580065 
L 265.234488 145.681445 
L 268.856693 145.529376 
L 269.515276 145.351959 
L 270.173858 145.427996 
L 270.50315 145.288597 
L 270.832441 145.351959 
L 271.820315 145.212563 
L 272.808189 145.339286 
L 277.088976 145.085837 
L 277.418268 145.136528 
L 278.406142 144.89575 
L 279.064724 144.946441 
L 279.394016 144.99713 
L 279.723307 144.933766 
L 280.052598 144.984457 
L 281.040472 144.89575 
L 285.32126 144.807042 
L 286.309134 144.718332 
L 286.967717 144.781697 
L 288.614173 144.629625 
L 289.272756 144.654973 
L 291.577795 144.540918 
L 293.224252 144.604282 
L 294.541417 144.591609 
L 295.858583 144.591609 
L 296.517165 144.566263 
L 297.505039 144.629628 
L 298.163622 144.591609 
L 299.480787 144.667644 
L 300.797953 144.591609 
L 301.456535 144.629628 
L 302.444409 144.578936 
L 302.773701 144.718332 
L 303.761575 144.667646 
L 304.749449 144.629628 
L 314.298898 144.553593 
L 314.95748 144.515575 
L 316.603937 144.667644 
L 317.921102 144.490229 
L 318.908976 144.604282 
L 319.567559 144.490229 
L 319.89685 144.54092 
L 320.555433 144.439538 
L 322.860472 144.401522 
L 323.848346 144.198761 
L 324.506929 144.072035 
L 324.83622 144.198759 
L 325.165512 144.059363 
L 325.494803 144.04669 
L 326.153386 144.23678 
L 327.14126 144.211434 
L 329.446299 144.059363 
L 330.763465 143.805913 
L 331.092756 143.881945 
L 331.751339 144.14807 
L 333.727087 143.856602 
L 334.056378 143.919964 
L 334.385669 143.767892 
L 335.702835 143.818584 
L 336.361417 143.805913 
L 339.983622 143.565135 
L 340.312913 143.717204 
L 345.910866 143.539789 
L 346.240157 143.375045 
L 346.569449 143.425736 
L 347.228031 143.349699 
L 347.886614 143.451082 
L 348.874488 143.425736 
L 349.533071 143.375045 
L 351.179528 143.286337 
L 352.496693 143.235646 
L 353.155276 143.29901 
L 354.472441 143.248319 
L 356.118898 143.2103 
L 357.436063 143.159614 
L 357.765354 143.172284 
L 358.423937 143.020213 
L 358.753228 143.007542 
L 359.08252 143.108923 
L 361.058268 142.982197 
L 361.71685 143.007542 
L 373.90063 142.564003 
L 374.229921 142.640038 
L 374.888504 142.538658 
L 376.534961 142.487969 
L 376.864252 142.576676 
L 378.181417 142.475296 
L 378.510709 142.487969 
L 379.169291 142.323224 
L 379.498583 142.487969 
L 379.827874 142.310552 
L 380.486457 142.373916 
L 381.145039 142.3359 
L 381.474331 142.259863 
L 382.132913 142.335897 
L 382.791496 142.183826 
L 384.108661 142.158483 
L 384.437953 142.234517 
L 384.767244 142.158483 
L 385.755118 142.221844 
L 386.084409 142.069775 
L 386.413701 142.14581 
L 386.742992 142.082448 
L 387.072283 142.14581 
L 388.060157 142.04443 
L 389.706614 141.981065 
L 390.365197 141.981068 
L 391.353071 141.854342 
L 392.999528 141.816326 
L 393.65811 142.031757 
L 394.975276 141.816326 
L 395.96315 141.727616 
L 396.621732 141.752962 
L 400.243937 141.676925 
L 400.90252 141.626236 
L 403.53685 141.537526 
L 403.866142 141.512183 
L 404.195433 141.613563 
L 405.183307 141.524856 
L 414.403465 141.182697 
L 415.062047 141.258734 
L 417.696378 141.119333 
L 418.025669 141.157351 
L 418.354961 141.043301 
L 418.684252 141.106662 
L 419.013543 141.055971 
L 419.342835 141.132008 
L 421.647874 140.967264 
L 423.294331 141.055971 
L 425.59937 140.891229 
L 425.928661 140.954593 
L 426.587244 140.84054 
L 426.916535 140.916575 
L 427.575118 140.827867 
L 428.562992 140.802522 
L 431.855906 140.764506 
L 432.185197 140.777176 
L 432.84378 140.663123 
L 433.831654 140.675796 
L 434.819528 140.764506 
L 435.148819 140.65045 
L 435.47811 140.726485 
L 436.465984 140.625105 
L 438.771024 140.637778 
L 440.088189 140.536397 
L 441.734646 140.371655 
L 442.063937 140.511054 
L 442.393228 140.371655 
L 444.039685 140.473036 
L 445.35685 140.511052 
L 446.015433 140.384328 
L 447.66189 140.320967 
L 447.991181 140.396999 
L 448.320472 140.270275 
L 448.649764 140.320967 
L 449.308346 140.257602 
L 450.954803 140.219584 
L 452.271969 140.181568 
L 452.930551 140.206911 
L 453.259843 140.156222 
L 453.259843 140.156222 
" clip-path="url(#p2c20bc7993)" style="fill: none; stroke-dasharray: 0.9,1.485; stroke-dashoffset: 0; stroke: #000000; stroke-width: 0.9"/>
   </g>
   <g id="line2d_25">
    <path d="M 58.110236 168.124501 
L 59.09811 168.124501 
L 60.085984 168.124501 
L 60.744567 168.048469 
L 62.061732 168.149847 
L 63.378898 168.149847 
L 64.03748 168.124501 
L 87.417165 168.124501 
L 88.075748 167.947086 
L 89.392913 168.023123 
L 90.051496 168.09916 
L 91.03937 167.997778 
L 92.685827 168.048469 
L 93.673701 167.997778 
L 94.661575 168.124501 
L 95.649449 167.947086 
L 111.784724 167.845709 
L 112.443307 167.820363 
L 113.431181 167.871054 
L 115.077638 167.642948 
L 115.406929 167.566911 
L 116.394803 167.769672 
L 117.382677 167.668294 
L 118.370551 167.71898 
L 119.358425 167.642948 
L 120.017008 167.642948 
L 121.004882 167.71898 
L 121.992756 167.668294 
L 122.98063 167.820363 
L 123.639213 167.668294 
L 125.944252 167.592257 
L 126.602835 167.642948 
L 127.261417 167.592257 
L 128.578583 167.592257 
L 129.237165 167.566911 
L 129.566457 167.465534 
L 130.883622 167.668294 
L 131.871496 167.642948 
L 133.188661 167.769672 
L 136.810866 167.668294 
L 138.128031 167.566911 
L 144.384567 167.642948 
L 145.372441 167.744326 
L 146.031024 167.566911 
L 146.689606 167.668294 
L 148.006772 167.490874 
L 148.336063 167.592257 
L 148.994646 167.465534 
L 152.287559 167.642948 
L 152.61685 167.440188 
L 153.275433 167.440188 
L 153.934016 167.541566 
L 154.92189 167.465534 
L 155.580472 167.465534 
L 156.568346 167.414842 
L 157.226929 167.414842 
L 158.873386 167.51622 
L 160.519843 167.566911 
L 162.495591 167.338805 
L 163.154173 167.490874 
L 163.812756 167.51622 
L 164.80063 167.465534 
L 165.788504 167.51622 
L 167.105669 167.414842 
L 168.422835 167.440188 
L 169.081417 167.364151 
L 174.350079 167.31346 
L 174.67937 167.212082 
L 176.655118 167.440188 
L 178.630866 167.541566 
L 179.289449 167.592257 
L 179.948031 167.490874 
L 183.899528 167.566911 
L 184.887402 167.617603 
L 185.545984 167.566911 
L 185.875276 167.389497 
L 186.204567 167.364151 
L 187.192441 167.617603 
L 189.49748 167.693635 
L 190.814646 167.617603 
L 191.143937 167.693635 
L 192.790394 167.51622 
L 193.778268 167.566911 
L 195.754016 167.51622 
L 196.74189 167.566911 
L 199.37622 167.465534 
L 201.351969 167.51622 
L 202.998425 167.490874 
L 203.657008 167.592257 
L 204.315591 167.592257 
L 205.303465 167.566911 
L 206.291339 167.414842 
L 207.279213 167.51622 
L 207.937795 167.490874 
L 209.254961 167.617603 
L 212.547874 167.440188 
L 214.523622 167.490874 
L 215.182205 167.440188 
L 215.511496 167.389497 
L 216.170079 167.51622 
L 216.49937 167.212082 
L 216.828661 166.603801 
L 217.157953 165.666031 
L 217.487244 165.361888 
L 217.816535 164.880336 
L 218.475118 162.295138 
L 219.133701 160.29288 
L 219.462992 159.811322 
L 220.121575 159.431147 
L 221.43874 159.811322 
L 221.768031 159.811322 
L 222.755906 160.85047 
L 223.74378 160.926506 
L 224.731654 161.002539 
L 225.390236 161.078576 
L 225.719528 161.357368 
L 226.37811 161.05323 
L 227.036693 161.357368 
L 227.695276 160.951847 
L 228.024567 160.875815 
L 229.341732 161.002539 
L 230.000315 160.774433 
L 230.658898 161.129267 
L 231.31748 160.825124 
L 231.646772 160.749087 
L 232.305354 161.686857 
L 232.634646 161.838926 
L 233.293228 161.027884 
L 233.62252 160.875815 
L 234.281102 161.05323 
L 234.610394 160.901161 
L 235.268976 160.444949 
L 235.598268 160.520981 
L 236.586142 160.368912 
L 236.915433 160.546327 
L 237.574016 160.444949 
L 237.903307 160.723741 
L 238.891181 160.140806 
L 239.220472 160.394258 
L 239.879055 160.191497 
L 240.208346 160.039428 
L 240.537638 160.267534 
L 241.19622 160.216843 
L 242.184094 160.090115 
L 242.513386 159.862013 
L 243.171969 159.785977 
L 243.50126 159.9127 
L 244.489134 159.9127 
L 245.147717 160.039428 
L 246.135591 160.242189 
L 246.464882 160.444949 
L 247.782047 160.140806 
L 249.099213 160.470295 
L 249.428504 160.470295 
L 249.757795 160.597018 
L 250.416378 160.368912 
L 250.745669 160.749087 
L 251.074961 160.647709 
L 251.404252 160.267534 
L 252.392126 159.836668 
L 252.721417 160.064774 
L 253.050709 160.698401 
L 253.709291 160.242189 
L 254.367874 160.140806 
L 254.697165 159.938046 
L 255.355748 160.343566 
L 256.014331 159.9127 
L 256.343622 160.039428 
L 257.331496 159.735285 
L 257.660787 159.887354 
L 257.990079 160.191497 
L 258.648661 159.862013 
L 258.977953 159.735285 
L 259.636535 160.064774 
L 259.965827 160.343566 
L 260.953701 160.318221 
L 261.941575 160.216843 
L 262.600157 160.520981 
L 263.25874 160.014083 
L 263.588031 159.9127 
L 264.246614 160.014083 
L 264.575906 160.242189 
L 264.905197 160.242189 
L 265.234488 159.963391 
L 266.222362 160.166152 
L 266.551654 160.520981 
L 266.880945 160.597018 
L 267.210236 160.368912 
L 267.539528 160.49564 
L 267.868819 160.29288 
L 268.19811 160.29288 
L 268.527402 160.622364 
L 269.515276 160.191497 
L 270.173858 159.9127 
L 270.50315 160.647709 
L 270.832441 160.749087 
L 272.149606 160.039428 
L 272.478898 160.318221 
L 273.13748 160.140806 
L 273.466772 160.698401 
L 273.796063 160.571672 
L 274.454646 159.887354 
L 275.113228 159.684594 
L 275.44252 159.557871 
L 275.771811 159.633907 
L 276.101102 159.887354 
L 277.088976 160.140806 
L 277.747559 160.014083 
L 278.735433 160.014083 
L 279.064724 160.11546 
L 280.38189 159.70994 
L 281.040472 159.963391 
L 282.028346 160.039428 
L 282.357638 160.11546 
L 283.01622 160.622364 
L 283.345512 160.444949 
L 283.674803 160.444949 
L 284.333386 160.140806 
L 284.991969 159.963391 
L 285.32126 159.938046 
L 285.979843 159.456488 
L 286.638425 159.557871 
L 286.967717 159.735285 
L 287.297008 160.039428 
L 288.284882 159.253728 
L 288.943465 159.329765 
L 289.602047 159.076313 
L 289.931339 159.101659 
L 290.26063 159.456488 
L 290.589921 159.507179 
L 291.248504 159.405801 
L 291.577795 159.608562 
L 291.907087 159.431147 
L 292.236378 159.557871 
L 292.565669 159.963391 
L 293.553543 159.405801 
L 293.882835 159.304419 
L 294.212126 159.380456 
L 294.541417 159.329765 
L 295.2 159.532525 
L 295.858583 159.431147 
L 296.517165 159.304419 
L 297.175748 159.532525 
L 297.834331 159.279073 
L 298.163622 159.836668 
L 298.492913 160.064774 
L 298.822205 159.735285 
L 299.151496 159.684594 
L 299.810079 159.405801 
L 300.13937 159.279073 
L 300.468661 159.279073 
L 300.797953 159.481834 
L 301.785827 159.228387 
L 302.773701 159.253728 
L 304.420157 159.456488 
L 304.749449 159.735285 
L 305.737323 159.329765 
L 306.066614 159.557871 
L 307.713071 159.633907 
L 308.042362 159.811322 
L 308.700945 159.557871 
L 309.359528 159.684594 
L 309.688819 159.507179 
L 310.01811 159.507179 
L 310.347402 159.735285 
L 310.676693 159.785977 
L 311.005984 160.064774 
L 311.993858 159.633907 
L 312.652441 159.431147 
L 313.311024 159.456488 
L 313.969606 159.329765 
L 314.628189 159.481834 
L 315.286772 159.279073 
L 315.616063 159.329765 
L 316.603937 159.177696 
L 317.591811 159.15235 
L 317.921102 159.228387 
L 318.908976 159.025626 
L 319.567559 159.025626 
L 319.89685 159.177696 
L 322.531181 159.253728 
L 323.189764 159.684594 
L 324.83622 159.532525 
L 325.165512 159.760631 
L 326.811969 159.633907 
L 328.458425 160.039428 
L 328.787717 159.836668 
L 329.446299 159.887354 
L 330.104882 159.405801 
L 331.092756 159.203041 
L 331.422047 159.329765 
L 332.409921 159.405801 
L 333.397795 159.938046 
L 333.727087 159.887354 
L 334.056378 159.659253 
L 334.385669 159.684594 
L 334.714961 159.836668 
L 335.373543 159.481834 
L 336.032126 159.659253 
L 336.690709 159.456488 
L 337.02 159.684594 
L 338.337165 159.380456 
L 338.995748 159.456488 
L 339.983622 159.836668 
L 340.312913 159.785977 
L 340.971496 160.090115 
L 341.95937 160.242189 
L 342.947244 159.988737 
L 343.276535 160.064774 
L 343.605827 159.887354 
L 343.935118 159.836668 
L 344.264409 159.608562 
L 344.593701 159.557871 
L 345.252283 159.684594 
L 345.581575 159.583216 
L 345.910866 159.836668 
L 346.569449 159.583216 
L 346.89874 159.836668 
L 347.886614 159.532525 
L 348.215906 159.811322 
L 348.545197 159.659253 
L 349.20378 160.546327 
L 349.533071 160.546327 
L 350.191654 159.836668 
L 351.179528 159.70994 
L 351.508819 159.862013 
L 352.167402 159.735285 
L 352.496693 160.090115 
L 353.484567 159.735285 
L 354.801732 159.405801 
L 355.460315 159.684594 
L 355.789606 160.090115 
L 356.118898 160.039428 
L 356.77748 159.583216 
L 357.436063 159.380456 
L 357.765354 159.583216 
L 358.753228 159.304419 
L 360.070394 159.557871 
L 361.71685 159.507179 
L 362.704724 160.090115 
L 363.034016 159.862013 
L 363.692598 159.760631 
L 364.351181 159.70994 
L 365.009764 159.862013 
L 365.339055 159.735285 
L 365.668346 159.9127 
L 365.997638 159.938046 
L 366.65622 159.760631 
L 367.973386 159.583216 
L 368.96126 159.279073 
L 369.619843 159.253728 
L 369.949134 159.659253 
L 370.278425 159.836668 
L 370.937008 159.507179 
L 371.266299 159.608562 
L 371.595591 159.405801 
L 371.924882 159.608562 
L 372.254173 160.191497 
L 372.583465 160.11546 
L 372.912756 160.216843 
L 373.242047 160.444949 
L 373.571339 159.836668 
L 373.90063 159.988737 
L 374.559213 159.279073 
L 375.217795 159.557871 
L 375.547087 159.507179 
L 376.534961 158.974935 
L 377.852126 158.873553 
L 378.510709 158.924244 
L 378.84 158.873553 
L 380.157165 159.076313 
L 381.145039 158.873553 
L 381.803622 158.873553 
L 382.462205 158.79752 
L 382.791496 159.177696 
L 383.120787 159.203041 
L 383.77937 159.076313 
L 385.755118 159.15235 
L 386.084409 159.050967 
L 386.413701 159.076313 
L 386.742992 159.431147 
L 387.072283 159.481834 
L 387.730866 159.329765 
L 388.389449 158.94959 
L 389.377323 158.924244 
L 390.035906 159.253728 
L 390.694488 159.000281 
L 391.682362 158.974935 
L 392.340945 158.873553 
L 393.65811 158.94959 
L 394.316693 159.15235 
L 394.975276 158.873553 
L 395.96315 158.772175 
L 396.621732 158.670792 
L 397.280315 158.696138 
L 397.609606 158.848207 
L 399.585354 158.79752 
L 400.243937 158.670792 
L 400.90252 158.696138 
L 401.231811 158.873553 
L 404.854016 158.94959 
L 405.183307 159.15235 
L 405.84189 159.025626 
L 406.171181 158.924244 
L 408.146929 158.974935 
L 408.47622 158.924244 
L 409.134803 159.025626 
L 409.464094 158.924244 
L 409.793386 158.94959 
L 410.451969 159.380456 
L 410.78126 159.785977 
L 411.110551 159.633907 
L 411.769134 159.127004 
L 412.098425 158.974935 
L 412.427717 158.974935 
L 412.757008 159.101659 
L 413.086299 159.101659 
L 413.744882 158.94959 
L 415.062047 159.050967 
L 415.391339 159.228387 
L 416.049921 159.076313 
L 416.379213 159.380456 
L 416.708504 159.304419 
L 417.367087 159.000281 
L 417.696378 158.974935 
L 418.025669 159.329765 
L 418.354961 159.431147 
L 419.013543 159.000281 
L 419.672126 159.583216 
L 420.001417 159.279073 
L 420.330709 159.279073 
L 420.989291 158.873553 
L 421.318583 158.873553 
L 421.647874 159.025626 
L 421.977165 158.94959 
L 422.306457 159.101659 
L 422.635748 159.431147 
L 422.965039 159.481834 
L 423.623622 159.127004 
L 424.282205 159.456488 
L 424.611496 159.456488 
L 426.587244 158.772175 
L 426.916535 158.873553 
L 428.233701 158.848207 
L 428.562992 158.924244 
L 428.892283 158.822861 
L 429.221575 159.050967 
L 429.880157 159.15235 
L 430.209449 159.380456 
L 431.197323 158.873553 
L 431.526614 159.127004 
L 432.185197 159.203041 
L 432.84378 158.94959 
L 434.819528 158.822861 
L 435.148819 158.924244 
L 435.807402 158.696138 
L 436.465984 158.772175 
L 437.124567 158.670792 
L 439.429606 158.848207 
L 439.758898 159.101659 
L 440.088189 159.177696 
L 441.405354 158.670792 
L 442.72252 158.670792 
L 443.381102 158.670792 
L 443.710394 158.822861 
L 444.698268 158.772175 
L 445.35685 158.822861 
L 446.015433 158.620101 
L 446.344724 158.822861 
L 447.66189 158.974935 
L 448.649764 158.772175 
L 449.637638 158.746829 
L 449.966929 159.050967 
L 450.29622 159.532525 
L 450.954803 159.203041 
L 451.284094 159.304419 
L 451.613386 159.279073 
L 452.271969 158.873553 
L 452.930551 158.822861 
L 453.259843 158.873553 
L 453.259843 158.873553 
" clip-path="url(#p2c20bc7993)" style="fill: none; stroke-dasharray: 4.5,9; stroke-dashoffset: 0; stroke: #000000; stroke-width: 0.9"/>
   </g>
   <g id="line2d_26">
    <path d="M 58.110236 159.507179 
L 59.09811 159.532525 
L 328.787717 159.45649 
L 329.446299 159.45649 
L 330.434173 159.532525 
L 331.092756 159.45649 
L 331.751339 159.519854 
L 333.397795 159.494509 
L 453.259843 159.443818 
L 453.259843 159.443818 
" clip-path="url(#p2c20bc7993)" style="fill: none; stroke-dasharray: 2.7,9,0.9,9; stroke-dashoffset: 0; stroke: #000000; stroke-width: 0.9"/>
   </g>
   <g id="patch_3">
    <path d="M 58.110236 222.23622 
L 58.110236 6.80315 
" style="fill: none; stroke: #000000; stroke-width: 0.8; stroke-linejoin: miter; stroke-linecap: square"/>
   </g>
   <g id="patch_4">
    <path d="M 58.110236 222.23622 
L 453.259843 222.23622 
" style="fill: none; stroke: #000000; stroke-width: 0.8; stroke-linejoin: miter; stroke-linecap: square"/>
   </g>
   <g id="legend_1">
    <g id="line2d_27">
     <path d="M 127.591133 194.708268 
L 136.591133 194.708268 
L 145.591133 194.708268 
" style="fill: none; stroke: #000000; stroke-width: 0.9; stroke-linecap: square"/>
    </g>
    <g id="text_11">
     <!-- BS_HNHT -->
     <g transform="translate(152.791133 197.858268) scale(0.09 -0.09)">
      <defs>
       <path id="LMRoman6-Regular-42" d="M 4934 1178 
C 4934 1677 4435 2176 3533 2291 
C 4186 2400 4730 2790 4730 3283 
C 4730 3866 4006 4371 3091 4371 
L 442 4371 
L 442 4122 
L 608 4122 
C 1120 4122 1120 4045 1120 3834 
L 1120 538 
C 1120 326 1120 250 608 250 
L 442 250 
L 442 0 
L 3290 0 
C 4224 0 4934 550 4934 1178 
z
M 4064 3283 
C 4064 2797 3571 2374 2835 2374 
L 1715 2374 
L 1715 3872 
C 1715 4070 1715 4122 2029 4122 
L 3046 4122 
C 3680 4122 4064 3706 4064 3283 
z
M 4250 1184 
C 4250 717 3782 250 3059 250 
L 2029 250 
C 1715 250 1715 301 1715 499 
L 1715 2170 
L 3162 2170 
C 3853 2170 4250 1645 4250 1184 
z
" transform="scale(0.015625)"/>
       <path id="LMRoman6-Regular-53" d="M 3814 1178 
C 3814 1626 3565 1933 3469 2029 
C 3142 2355 2950 2394 2157 2560 
L 1555 2694 
C 1222 2803 915 3085 915 3450 
C 915 3878 1338 4275 1965 4275 
C 2304 4275 2630 4186 2893 3974 
C 3270 3674 3341 3213 3366 3059 
C 3379 2963 3386 2918 3488 2918 
C 3610 2918 3610 2976 3610 3098 
L 3610 4326 
C 3610 4435 3610 4506 3507 4506 
C 3482 4506 3443 4506 3392 4422 
L 3155 4058 
C 2790 4416 2330 4506 1958 4506 
C 1126 4506 506 3942 506 3283 
C 506 2950 659 2669 890 2451 
C 1178 2189 1395 2144 2112 1997 
C 2771 1856 2918 1824 3117 1638 
C 3194 1562 3405 1357 3405 1018 
C 3405 576 3008 115 2342 115 
C 1792 115 794 282 742 1306 
C 736 1402 736 1453 627 1453 
C 506 1453 506 1395 506 1267 
L 506 45 
C 506 -64 506 -134 608 -134 
C 666 -134 678 -109 710 -58 
C 730 -38 864 166 954 301 
C 1421 -90 2042 -134 2342 -134 
C 3232 -134 3814 499 3814 1178 
z
" transform="scale(0.015625)"/>
       <path id="LMRoman6-Regular-5f" d="M 5734 -922 
L 5734 -678 
L 0 -678 
L 0 -922 
L 5734 -922 
z
" transform="scale(0.015625)"/>
       <path id="LMRoman6-Regular-48" d="M 5312 0 
L 5312 250 
L 5146 250 
C 4634 250 4634 326 4634 538 
L 4634 3834 
C 4634 4045 4634 4122 5146 4122 
L 5312 4122 
L 5312 4371 
L 4314 4346 
L 3315 4371 
L 3315 4122 
L 3482 4122 
C 3994 4122 3994 4045 3994 3834 
L 3994 2400 
L 1734 2400 
L 1734 3834 
C 1734 4045 1734 4122 2246 4122 
L 2413 4122 
L 2413 4371 
L 1414 4346 
L 416 4371 
L 416 4122 
L 582 4122 
C 1094 4122 1094 4045 1094 3834 
L 1094 538 
C 1094 326 1094 250 582 250 
L 416 250 
L 416 0 
L 1414 26 
L 2413 0 
L 2413 250 
L 2246 250 
C 1734 250 1734 326 1734 538 
L 1734 2150 
L 3994 2150 
L 3994 538 
C 3994 326 3994 250 3482 250 
L 3315 250 
L 3315 0 
L 4314 26 
L 5312 0 
z
" transform="scale(0.015625)"/>
       <path id="LMRoman6-Regular-4e" d="M 5312 4122 
L 5312 4371 
C 5190 4365 4774 4346 4506 4346 
C 4211 4346 3808 4365 3693 4371 
L 3693 4122 
C 4371 4122 4371 3834 4371 3667 
L 4371 986 
L 1779 4282 
C 1709 4365 1702 4371 1568 4371 
L 416 4371 
L 416 4122 
L 621 4122 
C 768 4122 928 4122 1050 4090 
C 1088 4083 1094 4077 1094 3968 
L 1094 704 
C 1094 538 1094 250 416 250 
L 416 0 
C 538 6 954 26 1222 26 
C 1517 26 1920 6 2035 0 
L 2035 250 
C 1357 250 1357 538 1357 704 
L 1357 3898 
L 4365 77 
C 4416 13 4422 0 4499 0 
C 4634 0 4634 64 4634 192 
L 4634 3667 
C 4634 3834 4634 4122 5312 4122 
z
" transform="scale(0.015625)"/>
      </defs>
      <use xlink:href="#LMRoman6-Regular-42"/>
      <use xlink:href="#LMRoman6-Regular-53" x="85.099991"/>
      <use xlink:href="#LMRoman6-Regular-5f" x="152.699982"/>
      <use xlink:href="#LMRoman6-Regular-48" x="242.299973"/>
      <use xlink:href="#LMRoman6-Regular-4e" x="331.899963"/>
      <use xlink:href="#LMRoman6-Regular-48" x="421.499954"/>
      <use xlink:href="#LMRoman6-Regular-54" x="511.099945"/>
     </g>
    </g>
    <g id="line2d_28">
     <path d="M 127.591133 207.25483 
L 136.591133 207.25483 
L 145.591133 207.25483 
" style="fill: none; stroke-dasharray: 3.33,1.44; stroke-dashoffset: 0; stroke: #000000; stroke-width: 0.9"/>
    </g>
    <g id="text_12">
     <!-- ST_HNHT -->
     <g transform="translate(152.791133 210.40483) scale(0.09 -0.09)">
      <use xlink:href="#LMRoman6-Regular-53"/>
      <use xlink:href="#LMRoman6-Regular-54" x="67.599991"/>
      <use xlink:href="#LMRoman6-Regular-5f" x="154.599976"/>
      <use xlink:href="#LMRoman6-Regular-48" x="244.199966"/>
      <use xlink:href="#LMRoman6-Regular-4e" x="333.799957"/>
      <use xlink:href="#LMRoman6-Regular-48" x="423.399948"/>
      <use xlink:href="#LMRoman6-Regular-54" x="512.999939"/>
     </g>
    </g>
    <g id="line2d_29">
     <path d="M 224.788321 194.708268 
L 233.788321 194.708268 
L 242.788321 194.708268 
" style="fill: none; stroke-dasharray: 5.76,1.44,0.9,1.44; stroke-dashoffset: 0; stroke: #000000; stroke-width: 0.9"/>
    </g>
    <g id="text_13">
     <!-- BS_HNLT -->
     <g transform="translate(249.988321 197.858268) scale(0.09 -0.09)">
      <defs>
       <path id="LMRoman6-Regular-4c" d="M 4416 1702 
L 4179 1702 
C 4102 928 3904 250 2746 250 
L 2048 250 
C 1734 250 1734 301 1734 499 
L 1734 3834 
C 1734 4045 1734 4122 2349 4122 
L 2586 4122 
L 2586 4371 
C 2246 4346 1779 4346 1434 4346 
L 416 4371 
L 416 4122 
L 582 4122 
C 1094 4122 1094 4045 1094 3834 
L 1094 538 
C 1094 326 1094 250 582 250 
L 416 250 
L 416 0 
L 4218 0 
L 4416 1702 
z
" transform="scale(0.015625)"/>
      </defs>
      <use xlink:href="#LMRoman6-Regular-42"/>
      <use xlink:href="#LMRoman6-Regular-53" x="85.099991"/>
      <use xlink:href="#LMRoman6-Regular-5f" x="152.699982"/>
      <use xlink:href="#LMRoman6-Regular-48" x="242.299973"/>
      <use xlink:href="#LMRoman6-Regular-4e" x="331.899963"/>
      <use xlink:href="#LMRoman6-Regular-4c" x="421.499954"/>
      <use xlink:href="#LMRoman6-Regular-54" x="496.899948"/>
     </g>
    </g>
    <g id="line2d_30">
     <path d="M 224.788321 207.25483 
L 233.788321 207.25483 
L 242.788321 207.25483 
" style="fill: none; stroke-dasharray: 0.9,1.485; stroke-dashoffset: 0; stroke: #000000; stroke-width: 0.9"/>
    </g>
    <g id="text_14">
     <!-- ST_HNLT -->
     <g transform="translate(249.988321 210.40483) scale(0.09 -0.09)">
      <use xlink:href="#LMRoman6-Regular-53"/>
      <use xlink:href="#LMRoman6-Regular-54" x="67.599991"/>
      <use xlink:href="#LMRoman6-Regular-5f" x="154.599976"/>
      <use xlink:href="#LMRoman6-Regular-48" x="244.199966"/>
      <use xlink:href="#LMRoman6-Regular-4e" x="333.799957"/>
      <use xlink:href="#LMRoman6-Regular-4c" x="423.399948"/>
      <use xlink:href="#LMRoman6-Regular-54" x="498.799942"/>
     </g>
    </g>
    <g id="line2d_31">
     <path d="M 320.708633 194.708268 
L 329.708633 194.708268 
L 338.708633 194.708268 
" style="fill: none; stroke-dasharray: 4.5,9; stroke-dashoffset: 0; stroke: #000000; stroke-width: 0.9"/>
    </g>
    <g id="text_15">
     <!-- BS_CN -->
     <g transform="translate(345.908633 197.858268) scale(0.09 -0.09)">
      <use xlink:href="#LMRoman6-Regular-42"/>
      <use xlink:href="#LMRoman6-Regular-53" x="85.099991"/>
      <use xlink:href="#LMRoman6-Regular-5f" x="152.699982"/>
      <use xlink:href="#LMRoman6-Regular-43" x="242.299973"/>
      <use xlink:href="#LMRoman6-Regular-4e" x="329.299957"/>
     </g>
    </g>
    <g id="line2d_32">
     <path d="M 320.708633 207.25483 
L 329.708633 207.25483 
L 338.708633 207.25483 
" style="fill: none; stroke-dasharray: 2.7,9,0.9,9; stroke-dashoffset: 0; stroke: #000000; stroke-width: 0.9"/>
    </g>
    <g id="text_16">
     <!-- ST_CN -->
     <g transform="translate(345.908633 210.40483) scale(0.09 -0.09)">
      <use xlink:href="#LMRoman6-Regular-53"/>
      <use xlink:href="#LMRoman6-Regular-54" x="67.599991"/>
      <use xlink:href="#LMRoman6-Regular-5f" x="154.599976"/>
      <use xlink:href="#LMRoman6-Regular-43" x="244.199966"/>
      <use xlink:href="#LMRoman6-Regular-4e" x="331.199951"/>
     </g>
    </g>
   </g>
  </g>
 </g>
 <defs>
  <clipPath id="p2c20bc7993">
   <rect x="58.110236" y="6.80315" width="395.149606" height="215.433071"/>
  </clipPath>
 </defs>
</svg>
